%TF.GenerationSoftware,KiCad,Pcbnew,(6.0.0)*%
%TF.CreationDate,2022-05-23T22:47:49+07:00*%
%TF.ProjectId,MINI-FC,4d494e49-2d46-4432-9e6b-696361645f70,rev?*%
%TF.SameCoordinates,Original*%
%TF.FileFunction,Copper,L2,Inr*%
%TF.FilePolarity,Positive*%
%FSLAX46Y46*%
G04 Gerber Fmt 4.6, Leading zero omitted, Abs format (unit mm)*
G04 Created by KiCad (PCBNEW (6.0.0)) date 2022-05-23 22:47:49*
%MOMM*%
%LPD*%
G01*
G04 APERTURE LIST*
%TA.AperFunction,ComponentPad*%
%ADD10R,1.700000X1.700000*%
%TD*%
%TA.AperFunction,ComponentPad*%
%ADD11O,1.700000X1.700000*%
%TD*%
%TA.AperFunction,ComponentPad*%
%ADD12C,1.450000*%
%TD*%
%TA.AperFunction,ComponentPad*%
%ADD13O,1.200000X1.900000*%
%TD*%
%TA.AperFunction,ViaPad*%
%ADD14C,0.800000*%
%TD*%
%TA.AperFunction,ViaPad*%
%ADD15C,0.600000*%
%TD*%
%TA.AperFunction,Conductor*%
%ADD16C,0.400000*%
%TD*%
G04 APERTURE END LIST*
D10*
%TO.N,+5V*%
%TO.C,PWR1*%
X125875000Y-92125000D03*
D11*
%TO.N,GND*%
X125875000Y-94665000D03*
%TO.N,+5V*%
X123335000Y-92125000D03*
%TO.N,GND*%
X123335000Y-94665000D03*
%TO.N,+5V*%
X120795000Y-92125000D03*
%TO.N,GND*%
X120795000Y-94665000D03*
%TO.N,+5V*%
X118255000Y-92125000D03*
%TO.N,GND*%
X118255000Y-94665000D03*
%TO.N,+5V*%
X115715000Y-92125000D03*
%TO.N,GND*%
X115715000Y-94665000D03*
%TO.N,+5V*%
X113175000Y-92125000D03*
%TO.N,GND*%
X113175000Y-94665000D03*
%TO.N,+5V*%
X110635000Y-92125000D03*
%TO.N,GND*%
X110635000Y-94665000D03*
%TD*%
D10*
%TO.N,PWM1*%
%TO.C,PWM_SIG1*%
X110600000Y-89450000D03*
D11*
%TO.N,PWM2*%
X113140000Y-89450000D03*
%TO.N,PWM3*%
X115680000Y-89450000D03*
%TO.N,PWM4*%
X118220000Y-89450000D03*
%TO.N,PWM5*%
X120760000Y-89450000D03*
%TO.N,PWM6*%
X123300000Y-89450000D03*
%TD*%
D12*
%TO.N,GND*%
%TO.C,J1*%
X120300000Y-65162500D03*
X115300000Y-65162500D03*
D13*
X114300000Y-62462500D03*
X121300000Y-62462500D03*
%TD*%
D14*
%TO.N,+3V3*%
X119363261Y-86187859D03*
D15*
X115200000Y-80000000D03*
X106600000Y-60700000D03*
X108700000Y-69800000D03*
X112400000Y-82400000D03*
X107300000Y-60700000D03*
X123600000Y-75300000D03*
D14*
X124100000Y-69700000D03*
D15*
X123200000Y-67100000D03*
D14*
X127000000Y-69700000D03*
D15*
X113600000Y-66900000D03*
D14*
X107400000Y-76700000D03*
D15*
X120491219Y-77600000D03*
X112900000Y-68500000D03*
X122800000Y-78100000D03*
X125500000Y-64100000D03*
X125100000Y-87400000D03*
X127300000Y-63300000D03*
X108000000Y-60700000D03*
X100800000Y-86800000D03*
X112000000Y-75728254D03*
%TO.N,GND*%
X127300000Y-64100000D03*
X129900000Y-86700000D03*
X128700000Y-63300000D03*
D14*
X127100000Y-68400000D03*
D15*
X107100000Y-67000000D03*
X120500000Y-78800000D03*
X127900000Y-85700000D03*
X115200000Y-71800000D03*
X106800000Y-65900000D03*
X124600000Y-65400000D03*
X131000000Y-87400000D03*
X105500000Y-74300000D03*
X129800000Y-72500000D03*
X119200000Y-71000000D03*
D14*
X118300000Y-86500000D03*
D15*
X125400000Y-80500000D03*
X108400000Y-72400000D03*
D14*
X124100000Y-68400000D03*
D15*
X116300000Y-66800000D03*
X100800000Y-90200000D03*
X123100000Y-70900000D03*
X106500000Y-74900000D03*
X109600000Y-75200000D03*
X108000000Y-67000000D03*
X112800000Y-75324500D03*
X114700000Y-66800000D03*
X114600000Y-68300000D03*
X108800000Y-68700000D03*
X107800000Y-65900000D03*
X114200000Y-81500000D03*
X110700000Y-75400000D03*
X131000000Y-73200000D03*
X109900000Y-68600000D03*
X127300000Y-86700000D03*
X112400000Y-81600000D03*
X107200000Y-71900000D03*
X107100000Y-68700000D03*
X113500000Y-73400000D03*
X100900000Y-66400000D03*
%TO.N,HSE_IN*%
X109519853Y-79585844D03*
%TO.N,Net-(C11-Pad2)*%
X111000000Y-68400000D03*
%TO.N,Net-(C13-Pad2)*%
X107900000Y-74300000D03*
%TO.N,VUSB*%
X115600000Y-68300000D03*
X115500000Y-69500000D03*
%TO.N,Net-(C15-Pad2)*%
X119800000Y-73900000D03*
%TO.N,+5V*%
X103500000Y-76400000D03*
X125300000Y-61600000D03*
X129800000Y-71200000D03*
X112400000Y-62600000D03*
X132100000Y-85400000D03*
X129400000Y-64800000D03*
%TO.N,Net-(J1-Pad2)*%
X118700000Y-66600000D03*
%TO.N,Net-(J1-Pad3)*%
X117900000Y-66700000D03*
%TO.N,NRST*%
X112300000Y-80800000D03*
X110100000Y-86700000D03*
D14*
%TO.N,BOOT*%
X114958879Y-74049532D03*
D15*
%TO.N,HSE_OUT*%
X109400000Y-81100000D03*
%TO.N,LED_PC13*%
X109108411Y-78591589D03*
X106400000Y-73700000D03*
%TO.N,LED_STATUS*%
X117221075Y-79326593D03*
X107500000Y-89300000D03*
D14*
%TO.N,Net-(R7-Pad2)*%
X124700000Y-76600000D03*
%TO.N,Net-(R8-Pad2)*%
X126000000Y-86900000D03*
D15*
%TO.N,I2C1_SDA*%
X113668595Y-78823928D03*
%TO.N,I2C1_SLC*%
X114900000Y-78800000D03*
X112360746Y-74343923D03*
X114200000Y-74700000D03*
%TO.N,Net-(R11-Pad1)*%
X111900000Y-68400000D03*
%TO.N,Net-(R12-Pad2)*%
X118500000Y-70300000D03*
%TO.N,Net-(R13-Pad1)*%
X120000000Y-70300000D03*
%TO.N,Net-(R14-Pad1)*%
X115100000Y-70700000D03*
%TO.N,UART1_RX*%
X115900000Y-79100000D03*
%TO.N,UART1_TX*%
X116724500Y-78700000D03*
%TO.N,Net-(R15-Pad2)*%
X118000000Y-72200000D03*
D14*
%TO.N,SPI2_SCK*%
X126500000Y-76800000D03*
X121100000Y-83500000D03*
%TO.N,SPI2_MOSI*%
X121475500Y-82573716D03*
X128100000Y-77900000D03*
%TD*%
D16*
%TO.N,+5V*%
X125200000Y-60900000D02*
X125300000Y-61000000D01*
X128700000Y-60900000D02*
X125400000Y-60900000D01*
X125875000Y-92125000D02*
X108225000Y-92125000D01*
X129700000Y-65800000D02*
X129700000Y-64900000D01*
X129700000Y-61900000D02*
X128700000Y-60900000D01*
X108225000Y-92125000D02*
X106200000Y-90100000D01*
X132400000Y-85400000D02*
X132100000Y-85400000D01*
X132400000Y-68500000D02*
X129700000Y-65800000D01*
X125300000Y-61000000D02*
X125300000Y-61600000D01*
X103600000Y-87500000D02*
X103500000Y-87400000D01*
X125400000Y-60900000D02*
X125200000Y-60900000D01*
X125400000Y-61500000D02*
X125300000Y-61600000D01*
X129500000Y-64900000D02*
X129400000Y-64800000D01*
X125875000Y-92125000D02*
X127675000Y-92125000D01*
X132400000Y-71200000D02*
X132400000Y-68500000D01*
X132400000Y-85400000D02*
X132400000Y-71200000D01*
X125400000Y-60900000D02*
X125400000Y-61500000D01*
X129700000Y-64900000D02*
X129700000Y-61900000D01*
X132400000Y-71200000D02*
X129800000Y-71200000D01*
X103500000Y-87400000D02*
X103500000Y-76400000D01*
X112400000Y-61500000D02*
X112400000Y-62600000D01*
X106200000Y-90100000D02*
X103600000Y-87500000D01*
X132400000Y-87400000D02*
X132400000Y-85400000D01*
X127675000Y-92125000D02*
X132400000Y-87400000D01*
X129700000Y-64900000D02*
X129500000Y-64900000D01*
X113000000Y-60900000D02*
X112400000Y-61500000D01*
X125200000Y-60900000D02*
X113000000Y-60900000D01*
%TD*%
%TA.AperFunction,Conductor*%
%TO.N,+3V3*%
G36*
X112153961Y-60528002D02*
G01*
X112200454Y-60581658D01*
X112210558Y-60651932D01*
X112181064Y-60716512D01*
X112174935Y-60723095D01*
X111919480Y-60978550D01*
X111913215Y-60984404D01*
X111869615Y-61022439D01*
X111851152Y-61048709D01*
X111832872Y-61074719D01*
X111828939Y-61080014D01*
X111789524Y-61130282D01*
X111786401Y-61137198D01*
X111785017Y-61139484D01*
X111776643Y-61154165D01*
X111775378Y-61156525D01*
X111771010Y-61162739D01*
X111768250Y-61169818D01*
X111768249Y-61169820D01*
X111747798Y-61222275D01*
X111745247Y-61228344D01*
X111718955Y-61286573D01*
X111717571Y-61294040D01*
X111716770Y-61296595D01*
X111712141Y-61312848D01*
X111711478Y-61315428D01*
X111708718Y-61322509D01*
X111700602Y-61384161D01*
X111700379Y-61385852D01*
X111699348Y-61392359D01*
X111687704Y-61455186D01*
X111688141Y-61462766D01*
X111688141Y-61462767D01*
X111691291Y-61517392D01*
X111691500Y-61524646D01*
X111691500Y-62169710D01*
X111675341Y-62224598D01*
X111678183Y-62226009D01*
X111675053Y-62232313D01*
X111671235Y-62238238D01*
X111668826Y-62244858D01*
X111668824Y-62244861D01*
X111613451Y-62396998D01*
X111609197Y-62408685D01*
X111586463Y-62588640D01*
X111604163Y-62769160D01*
X111661418Y-62941273D01*
X111665065Y-62947295D01*
X111665066Y-62947297D01*
X111742185Y-63074636D01*
X111755380Y-63096424D01*
X111760269Y-63101487D01*
X111760270Y-63101488D01*
X111837121Y-63181068D01*
X111881382Y-63226902D01*
X111887278Y-63230760D01*
X112008741Y-63310243D01*
X112033159Y-63326222D01*
X112039763Y-63328678D01*
X112039765Y-63328679D01*
X112196558Y-63386990D01*
X112196560Y-63386990D01*
X112203168Y-63389448D01*
X112286995Y-63400633D01*
X112375980Y-63412507D01*
X112375984Y-63412507D01*
X112382961Y-63413438D01*
X112389972Y-63412800D01*
X112389976Y-63412800D01*
X112532459Y-63399832D01*
X112563600Y-63396998D01*
X112570302Y-63394820D01*
X112570304Y-63394820D01*
X112729409Y-63343124D01*
X112729412Y-63343123D01*
X112736108Y-63340947D01*
X112891912Y-63248069D01*
X112984317Y-63160073D01*
X113018167Y-63127838D01*
X113018168Y-63127837D01*
X113023266Y-63122982D01*
X113027163Y-63117116D01*
X113029313Y-63114554D01*
X113088422Y-63075226D01*
X113159410Y-63074098D01*
X113219738Y-63111528D01*
X113246740Y-63160073D01*
X113264403Y-63220279D01*
X113264406Y-63220285D01*
X113266092Y-63226034D01*
X113268836Y-63231361D01*
X113268836Y-63231362D01*
X113356317Y-63401216D01*
X113362942Y-63414080D01*
X113493604Y-63580420D01*
X113498135Y-63584352D01*
X113498138Y-63584355D01*
X113584058Y-63658912D01*
X113653363Y-63719052D01*
X113658549Y-63722052D01*
X113658553Y-63722055D01*
X113754957Y-63777826D01*
X113836454Y-63824973D01*
X114036271Y-63894361D01*
X114042206Y-63895222D01*
X114042208Y-63895222D01*
X114239664Y-63923852D01*
X114239667Y-63923852D01*
X114245604Y-63924713D01*
X114456899Y-63914933D01*
X114533347Y-63896509D01*
X114604258Y-63899994D01*
X114662028Y-63941263D01*
X114688315Y-64007214D01*
X114674774Y-64076907D01*
X114635139Y-64122215D01*
X114524587Y-64199625D01*
X114504093Y-64213975D01*
X114351475Y-64366593D01*
X114227677Y-64543394D01*
X114225354Y-64548376D01*
X114225351Y-64548381D01*
X114138784Y-64734025D01*
X114136461Y-64739007D01*
X114135039Y-64744315D01*
X114135038Y-64744317D01*
X114094711Y-64894820D01*
X114080599Y-64947487D01*
X114061788Y-65162500D01*
X114080599Y-65377513D01*
X114082023Y-65382826D01*
X114082023Y-65382828D01*
X114133742Y-65575844D01*
X114136461Y-65585993D01*
X114138783Y-65590974D01*
X114138784Y-65590975D01*
X114225351Y-65776619D01*
X114225354Y-65776624D01*
X114227677Y-65781606D01*
X114316096Y-65907881D01*
X114327004Y-65923459D01*
X114349692Y-65990733D01*
X114332407Y-66059593D01*
X114289815Y-66103046D01*
X114199088Y-66158862D01*
X114194053Y-66163793D01*
X114194050Y-66163795D01*
X114083575Y-66271981D01*
X114069493Y-66285771D01*
X113971235Y-66438238D01*
X113968826Y-66444858D01*
X113968824Y-66444861D01*
X113914120Y-66595160D01*
X113909197Y-66608685D01*
X113886463Y-66788640D01*
X113904163Y-66969160D01*
X113961418Y-67141273D01*
X113965065Y-67147295D01*
X113965066Y-67147297D01*
X113994178Y-67195366D01*
X114055380Y-67296424D01*
X114060269Y-67301487D01*
X114060270Y-67301488D01*
X114181382Y-67426902D01*
X114179348Y-67428867D01*
X114211937Y-67477136D01*
X114213545Y-67548115D01*
X114176525Y-67608695D01*
X114157908Y-67622676D01*
X114099088Y-67658862D01*
X114094053Y-67663793D01*
X114094050Y-67663795D01*
X113974525Y-67780843D01*
X113969493Y-67785771D01*
X113871235Y-67938238D01*
X113868826Y-67944858D01*
X113868824Y-67944861D01*
X113828698Y-68055106D01*
X113809197Y-68108685D01*
X113786463Y-68288640D01*
X113804163Y-68469160D01*
X113861418Y-68641273D01*
X113865065Y-68647295D01*
X113865066Y-68647297D01*
X113944085Y-68777773D01*
X113955380Y-68796424D01*
X114081382Y-68926902D01*
X114233159Y-69026222D01*
X114239763Y-69028678D01*
X114239765Y-69028679D01*
X114396558Y-69086990D01*
X114396560Y-69086990D01*
X114403168Y-69089448D01*
X114486995Y-69100633D01*
X114575980Y-69112507D01*
X114575984Y-69112507D01*
X114582961Y-69113438D01*
X114589975Y-69112800D01*
X114597018Y-69112947D01*
X114596988Y-69114379D01*
X114658951Y-69126610D01*
X114710114Y-69175833D01*
X114726542Y-69244902D01*
X114719114Y-69281437D01*
X114713729Y-69296233D01*
X114709197Y-69308685D01*
X114686463Y-69488640D01*
X114704163Y-69669160D01*
X114744923Y-69791687D01*
X114761418Y-69841273D01*
X114759163Y-69842023D01*
X114767940Y-69901204D01*
X114738732Y-69965915D01*
X114709169Y-69991140D01*
X114599088Y-70058862D01*
X114594053Y-70063793D01*
X114594050Y-70063795D01*
X114474525Y-70180843D01*
X114469493Y-70185771D01*
X114371235Y-70338238D01*
X114368826Y-70344858D01*
X114368824Y-70344861D01*
X114321150Y-70475844D01*
X114309197Y-70508685D01*
X114286463Y-70688640D01*
X114304163Y-70869160D01*
X114361418Y-71041273D01*
X114365065Y-71047295D01*
X114365066Y-71047297D01*
X114413909Y-71127946D01*
X114455380Y-71196424D01*
X114479393Y-71221290D01*
X114488981Y-71231219D01*
X114521913Y-71294116D01*
X114515613Y-71364832D01*
X114504255Y-71387001D01*
X114471235Y-71438238D01*
X114468826Y-71444858D01*
X114468824Y-71444861D01*
X114417307Y-71586404D01*
X114409197Y-71608685D01*
X114386463Y-71788640D01*
X114404163Y-71969160D01*
X114461418Y-72141273D01*
X114465065Y-72147295D01*
X114465066Y-72147297D01*
X114521980Y-72241273D01*
X114555380Y-72296424D01*
X114560269Y-72301487D01*
X114560270Y-72301488D01*
X114575357Y-72317111D01*
X114681382Y-72426902D01*
X114687278Y-72430760D01*
X114786445Y-72495653D01*
X114833159Y-72526222D01*
X114839763Y-72528678D01*
X114839765Y-72528679D01*
X114996558Y-72586990D01*
X114996560Y-72586990D01*
X115003168Y-72589448D01*
X115086995Y-72600633D01*
X115175980Y-72612507D01*
X115175984Y-72612507D01*
X115182961Y-72613438D01*
X115189972Y-72612800D01*
X115189976Y-72612800D01*
X115332459Y-72599832D01*
X115363600Y-72596998D01*
X115370302Y-72594820D01*
X115370304Y-72594820D01*
X115529409Y-72543124D01*
X115529412Y-72543123D01*
X115536108Y-72540947D01*
X115657258Y-72468727D01*
X115685860Y-72451677D01*
X115685862Y-72451676D01*
X115691912Y-72448069D01*
X115823266Y-72322982D01*
X115912522Y-72188640D01*
X117186463Y-72188640D01*
X117204163Y-72369160D01*
X117261418Y-72541273D01*
X117265065Y-72547295D01*
X117265066Y-72547297D01*
X117351720Y-72690380D01*
X117355380Y-72696424D01*
X117360269Y-72701487D01*
X117360270Y-72701488D01*
X117420440Y-72763795D01*
X117481382Y-72826902D01*
X117487278Y-72830760D01*
X117608741Y-72910243D01*
X117633159Y-72926222D01*
X117639763Y-72928678D01*
X117639765Y-72928679D01*
X117796558Y-72986990D01*
X117796560Y-72986990D01*
X117803168Y-72989448D01*
X117886995Y-73000633D01*
X117975980Y-73012507D01*
X117975984Y-73012507D01*
X117982961Y-73013438D01*
X117989972Y-73012800D01*
X117989976Y-73012800D01*
X118132459Y-72999832D01*
X118163600Y-72996998D01*
X118170302Y-72994820D01*
X118170304Y-72994820D01*
X118329409Y-72943124D01*
X118329412Y-72943123D01*
X118336108Y-72940947D01*
X118491912Y-72848069D01*
X118623266Y-72722982D01*
X118723643Y-72571902D01*
X118772529Y-72443211D01*
X118785555Y-72408920D01*
X118785556Y-72408918D01*
X118788055Y-72402338D01*
X118790191Y-72387140D01*
X118812748Y-72226639D01*
X118812748Y-72226636D01*
X118813299Y-72222717D01*
X118813616Y-72200000D01*
X118793397Y-72019745D01*
X118758116Y-71918432D01*
X118754603Y-71847524D01*
X118789985Y-71785972D01*
X118853027Y-71753320D01*
X118921027Y-71758900D01*
X119003168Y-71789448D01*
X119082250Y-71800000D01*
X119175980Y-71812507D01*
X119175984Y-71812507D01*
X119182961Y-71813438D01*
X119189972Y-71812800D01*
X119189976Y-71812800D01*
X119332459Y-71799832D01*
X119363600Y-71796998D01*
X119370302Y-71794820D01*
X119370304Y-71794820D01*
X119529409Y-71743124D01*
X119529412Y-71743123D01*
X119536108Y-71740947D01*
X119657258Y-71668727D01*
X119685860Y-71651677D01*
X119685862Y-71651676D01*
X119691912Y-71648069D01*
X119823266Y-71522982D01*
X119923643Y-71371902D01*
X119967987Y-71255166D01*
X119985555Y-71208920D01*
X119985556Y-71208918D01*
X119988055Y-71202338D01*
X119988864Y-71196583D01*
X120024930Y-71135995D01*
X120088462Y-71104307D01*
X120099234Y-71102856D01*
X120163600Y-71096998D01*
X120170302Y-71094820D01*
X120170304Y-71094820D01*
X120329409Y-71043124D01*
X120329412Y-71043123D01*
X120336108Y-71040947D01*
X120491912Y-70948069D01*
X120554318Y-70888640D01*
X122286463Y-70888640D01*
X122304163Y-71069160D01*
X122361418Y-71241273D01*
X122365065Y-71247295D01*
X122365066Y-71247297D01*
X122451264Y-71389627D01*
X122455380Y-71396424D01*
X122460269Y-71401487D01*
X122460270Y-71401488D01*
X122505619Y-71448448D01*
X122581382Y-71526902D01*
X122641005Y-71565918D01*
X122713093Y-71613091D01*
X122733159Y-71626222D01*
X122739763Y-71628678D01*
X122739765Y-71628679D01*
X122896558Y-71686990D01*
X122896560Y-71686990D01*
X122903168Y-71689448D01*
X122986995Y-71700633D01*
X123075980Y-71712507D01*
X123075984Y-71712507D01*
X123082961Y-71713438D01*
X123089972Y-71712800D01*
X123089976Y-71712800D01*
X123232459Y-71699832D01*
X123263600Y-71696998D01*
X123270302Y-71694820D01*
X123270304Y-71694820D01*
X123429409Y-71643124D01*
X123429412Y-71643123D01*
X123436108Y-71640947D01*
X123561970Y-71565918D01*
X123585860Y-71551677D01*
X123585862Y-71551676D01*
X123591912Y-71548069D01*
X123723266Y-71422982D01*
X123823643Y-71271902D01*
X123865563Y-71161547D01*
X123885555Y-71108920D01*
X123885556Y-71108918D01*
X123888055Y-71102338D01*
X123890212Y-71086991D01*
X123912748Y-70926639D01*
X123912748Y-70926636D01*
X123913299Y-70922717D01*
X123913616Y-70900000D01*
X123893397Y-70719745D01*
X123891080Y-70713091D01*
X123836064Y-70555106D01*
X123836062Y-70555103D01*
X123833745Y-70548448D01*
X123737626Y-70394624D01*
X123732664Y-70389627D01*
X123614778Y-70270915D01*
X123614774Y-70270912D01*
X123609815Y-70265918D01*
X123600062Y-70259728D01*
X123545619Y-70225178D01*
X123456666Y-70168727D01*
X123408784Y-70151677D01*
X123292425Y-70110243D01*
X123292420Y-70110242D01*
X123285790Y-70107881D01*
X123278802Y-70107048D01*
X123278799Y-70107047D01*
X123155698Y-70092368D01*
X123105680Y-70086404D01*
X123098677Y-70087140D01*
X123098676Y-70087140D01*
X122932288Y-70104628D01*
X122932286Y-70104629D01*
X122925288Y-70105364D01*
X122753579Y-70163818D01*
X122717895Y-70185771D01*
X122605095Y-70255166D01*
X122605092Y-70255168D01*
X122599088Y-70258862D01*
X122594053Y-70263793D01*
X122594050Y-70263795D01*
X122507606Y-70348448D01*
X122469493Y-70385771D01*
X122371235Y-70538238D01*
X122368826Y-70544858D01*
X122368824Y-70544861D01*
X122313940Y-70695653D01*
X122309197Y-70708685D01*
X122286463Y-70888640D01*
X120554318Y-70888640D01*
X120623266Y-70822982D01*
X120723643Y-70671902D01*
X120782989Y-70515675D01*
X120785555Y-70508920D01*
X120785556Y-70508918D01*
X120788055Y-70502338D01*
X120789578Y-70491500D01*
X120812748Y-70326639D01*
X120812748Y-70326636D01*
X120813299Y-70322717D01*
X120813616Y-70300000D01*
X120793397Y-70119745D01*
X120790088Y-70110243D01*
X120736064Y-69955106D01*
X120736062Y-69955103D01*
X120733745Y-69948448D01*
X120637626Y-69794624D01*
X120623941Y-69780843D01*
X120514778Y-69670915D01*
X120514774Y-69670912D01*
X120509815Y-69665918D01*
X120498697Y-69658862D01*
X120450538Y-69628300D01*
X120356666Y-69568727D01*
X120327463Y-69558328D01*
X120192425Y-69510243D01*
X120192420Y-69510242D01*
X120185790Y-69507881D01*
X120178802Y-69507048D01*
X120178799Y-69507047D01*
X120039023Y-69490380D01*
X120005680Y-69486404D01*
X119998677Y-69487140D01*
X119998676Y-69487140D01*
X119832288Y-69504628D01*
X119832286Y-69504629D01*
X119825288Y-69505364D01*
X119653579Y-69563818D01*
X119647575Y-69567512D01*
X119505095Y-69655166D01*
X119505092Y-69655168D01*
X119499088Y-69658862D01*
X119494053Y-69663793D01*
X119494050Y-69663795D01*
X119374525Y-69780843D01*
X119369493Y-69785771D01*
X119356514Y-69805911D01*
X119302804Y-69852334D01*
X119232517Y-69862350D01*
X119167973Y-69832777D01*
X119143753Y-69804429D01*
X119137626Y-69794624D01*
X119123941Y-69780843D01*
X119014778Y-69670915D01*
X119014774Y-69670912D01*
X119009815Y-69665918D01*
X118998697Y-69658862D01*
X118950538Y-69628300D01*
X118856666Y-69568727D01*
X118827463Y-69558328D01*
X118692425Y-69510243D01*
X118692420Y-69510242D01*
X118685790Y-69507881D01*
X118678802Y-69507048D01*
X118678799Y-69507047D01*
X118539023Y-69490380D01*
X118505680Y-69486404D01*
X118498677Y-69487140D01*
X118498676Y-69487140D01*
X118332288Y-69504628D01*
X118332286Y-69504629D01*
X118325288Y-69505364D01*
X118153579Y-69563818D01*
X118147575Y-69567512D01*
X118005095Y-69655166D01*
X118005092Y-69655168D01*
X117999088Y-69658862D01*
X117994053Y-69663793D01*
X117994050Y-69663795D01*
X117874525Y-69780843D01*
X117869493Y-69785771D01*
X117771235Y-69938238D01*
X117768826Y-69944858D01*
X117768824Y-69944861D01*
X117738622Y-70027841D01*
X117709197Y-70108685D01*
X117686463Y-70288640D01*
X117704163Y-70469160D01*
X117761418Y-70641273D01*
X117765065Y-70647295D01*
X117765066Y-70647297D01*
X117813181Y-70726744D01*
X117855380Y-70796424D01*
X117860269Y-70801487D01*
X117860270Y-70801488D01*
X117902155Y-70844861D01*
X117981382Y-70926902D01*
X117987278Y-70930760D01*
X118106360Y-71008685D01*
X118133159Y-71026222D01*
X118139763Y-71028678D01*
X118139765Y-71028679D01*
X118296560Y-71086991D01*
X118296564Y-71086992D01*
X118303168Y-71089448D01*
X118310153Y-71090380D01*
X118316879Y-71092057D01*
X118378137Y-71127946D01*
X118405953Y-71174542D01*
X118442044Y-71283035D01*
X118444567Y-71353987D01*
X118408330Y-71415039D01*
X118344838Y-71446809D01*
X118280221Y-71441506D01*
X118205892Y-71415039D01*
X118192424Y-71410243D01*
X118192422Y-71410243D01*
X118185790Y-71407881D01*
X118178802Y-71407048D01*
X118178799Y-71407047D01*
X118055698Y-71392368D01*
X118005680Y-71386404D01*
X117998677Y-71387140D01*
X117998676Y-71387140D01*
X117832288Y-71404628D01*
X117832286Y-71404629D01*
X117825288Y-71405364D01*
X117653579Y-71463818D01*
X117647575Y-71467512D01*
X117505095Y-71555166D01*
X117505092Y-71555168D01*
X117499088Y-71558862D01*
X117494053Y-71563793D01*
X117494050Y-71563795D01*
X117374525Y-71680843D01*
X117369493Y-71685771D01*
X117271235Y-71838238D01*
X117268826Y-71844858D01*
X117268824Y-71844861D01*
X117214315Y-71994624D01*
X117209197Y-72008685D01*
X117186463Y-72188640D01*
X115912522Y-72188640D01*
X115923643Y-72171902D01*
X115982989Y-72015675D01*
X115985555Y-72008920D01*
X115985556Y-72008918D01*
X115988055Y-72002338D01*
X115991076Y-71980843D01*
X116012748Y-71826639D01*
X116012748Y-71826636D01*
X116013299Y-71822717D01*
X116013616Y-71800000D01*
X115993397Y-71619745D01*
X115990088Y-71610243D01*
X115936064Y-71455106D01*
X115936062Y-71455103D01*
X115933745Y-71448448D01*
X115906823Y-71405364D01*
X115841359Y-71300598D01*
X115837626Y-71294624D01*
X115826118Y-71283035D01*
X115812999Y-71269824D01*
X115779193Y-71207393D01*
X115784505Y-71136596D01*
X115797458Y-71111314D01*
X115819742Y-71077773D01*
X115823643Y-71071902D01*
X115872529Y-70943211D01*
X115885555Y-70908920D01*
X115885556Y-70908918D01*
X115888055Y-70902338D01*
X115890963Y-70881646D01*
X115912748Y-70726639D01*
X115912748Y-70726636D01*
X115913299Y-70722717D01*
X115913616Y-70700000D01*
X115893397Y-70519745D01*
X115889546Y-70508685D01*
X115836946Y-70357640D01*
X115833432Y-70286731D01*
X115868814Y-70225178D01*
X115891418Y-70207976D01*
X115965493Y-70163818D01*
X115985860Y-70151677D01*
X115985862Y-70151676D01*
X115991912Y-70148069D01*
X116123266Y-70022982D01*
X116223643Y-69871902D01*
X116288055Y-69702338D01*
X116289035Y-69695366D01*
X116312748Y-69526639D01*
X116312748Y-69526636D01*
X116313299Y-69522717D01*
X116313506Y-69507881D01*
X116313561Y-69503962D01*
X116313561Y-69503957D01*
X116313616Y-69500000D01*
X116293397Y-69319745D01*
X116290150Y-69310420D01*
X116236064Y-69155106D01*
X116236062Y-69155103D01*
X116233745Y-69148448D01*
X116156788Y-69025290D01*
X116137653Y-68956923D01*
X116158518Y-68889062D01*
X116176752Y-68867277D01*
X116218159Y-68827846D01*
X116218162Y-68827843D01*
X116223266Y-68822982D01*
X116323643Y-68671902D01*
X116388055Y-68502338D01*
X116389035Y-68495366D01*
X116402438Y-68400000D01*
X123186496Y-68400000D01*
X123187186Y-68406565D01*
X123200047Y-68528927D01*
X123206458Y-68589928D01*
X123265473Y-68771556D01*
X123268776Y-68777278D01*
X123268777Y-68777279D01*
X123282754Y-68801488D01*
X123360960Y-68936944D01*
X123365378Y-68941851D01*
X123365379Y-68941852D01*
X123482977Y-69072458D01*
X123488747Y-69078866D01*
X123643248Y-69191118D01*
X123649276Y-69193802D01*
X123649278Y-69193803D01*
X123779266Y-69251677D01*
X123817712Y-69268794D01*
X123892638Y-69284720D01*
X123998056Y-69307128D01*
X123998061Y-69307128D01*
X124004513Y-69308500D01*
X124195487Y-69308500D01*
X124201939Y-69307128D01*
X124201944Y-69307128D01*
X124307362Y-69284720D01*
X124382288Y-69268794D01*
X124420734Y-69251677D01*
X124550722Y-69193803D01*
X124550724Y-69193802D01*
X124556752Y-69191118D01*
X124711253Y-69078866D01*
X124717023Y-69072458D01*
X124834621Y-68941852D01*
X124834622Y-68941851D01*
X124839040Y-68936944D01*
X124917246Y-68801488D01*
X124931223Y-68777279D01*
X124931224Y-68777278D01*
X124934527Y-68771556D01*
X124993542Y-68589928D01*
X124999954Y-68528927D01*
X125012814Y-68406565D01*
X125013504Y-68400000D01*
X126186496Y-68400000D01*
X126187186Y-68406565D01*
X126200047Y-68528927D01*
X126206458Y-68589928D01*
X126265473Y-68771556D01*
X126268776Y-68777278D01*
X126268777Y-68777279D01*
X126282754Y-68801488D01*
X126360960Y-68936944D01*
X126365378Y-68941851D01*
X126365379Y-68941852D01*
X126482977Y-69072458D01*
X126488747Y-69078866D01*
X126643248Y-69191118D01*
X126649276Y-69193802D01*
X126649278Y-69193803D01*
X126779266Y-69251677D01*
X126817712Y-69268794D01*
X126892638Y-69284720D01*
X126998056Y-69307128D01*
X126998061Y-69307128D01*
X127004513Y-69308500D01*
X127195487Y-69308500D01*
X127201939Y-69307128D01*
X127201944Y-69307128D01*
X127307362Y-69284720D01*
X127382288Y-69268794D01*
X127420734Y-69251677D01*
X127550722Y-69193803D01*
X127550724Y-69193802D01*
X127556752Y-69191118D01*
X127711253Y-69078866D01*
X127717023Y-69072458D01*
X127834621Y-68941852D01*
X127834622Y-68941851D01*
X127839040Y-68936944D01*
X127917246Y-68801488D01*
X127931223Y-68777279D01*
X127931224Y-68777278D01*
X127934527Y-68771556D01*
X127993542Y-68589928D01*
X127999954Y-68528927D01*
X128012814Y-68406565D01*
X128013504Y-68400000D01*
X127993542Y-68210072D01*
X127934527Y-68028444D01*
X127839040Y-67863056D01*
X127793790Y-67812800D01*
X127715675Y-67726045D01*
X127715674Y-67726044D01*
X127711253Y-67721134D01*
X127604002Y-67643211D01*
X127562094Y-67612763D01*
X127562093Y-67612762D01*
X127556752Y-67608882D01*
X127550724Y-67606198D01*
X127550722Y-67606197D01*
X127388319Y-67533891D01*
X127388318Y-67533891D01*
X127382288Y-67531206D01*
X127288888Y-67511353D01*
X127201944Y-67492872D01*
X127201939Y-67492872D01*
X127195487Y-67491500D01*
X127004513Y-67491500D01*
X126998061Y-67492872D01*
X126998056Y-67492872D01*
X126911112Y-67511353D01*
X126817712Y-67531206D01*
X126811682Y-67533891D01*
X126811681Y-67533891D01*
X126649278Y-67606197D01*
X126649276Y-67606198D01*
X126643248Y-67608882D01*
X126637907Y-67612762D01*
X126637906Y-67612763D01*
X126595998Y-67643211D01*
X126488747Y-67721134D01*
X126484326Y-67726044D01*
X126484325Y-67726045D01*
X126406211Y-67812800D01*
X126360960Y-67863056D01*
X126265473Y-68028444D01*
X126206458Y-68210072D01*
X126186496Y-68400000D01*
X125013504Y-68400000D01*
X124993542Y-68210072D01*
X124934527Y-68028444D01*
X124839040Y-67863056D01*
X124793790Y-67812800D01*
X124715675Y-67726045D01*
X124715674Y-67726044D01*
X124711253Y-67721134D01*
X124604002Y-67643211D01*
X124562094Y-67612763D01*
X124562093Y-67612762D01*
X124556752Y-67608882D01*
X124550724Y-67606198D01*
X124550722Y-67606197D01*
X124388319Y-67533891D01*
X124388318Y-67533891D01*
X124382288Y-67531206D01*
X124288888Y-67511353D01*
X124201944Y-67492872D01*
X124201939Y-67492872D01*
X124195487Y-67491500D01*
X124004513Y-67491500D01*
X123998061Y-67492872D01*
X123998056Y-67492872D01*
X123911112Y-67511353D01*
X123817712Y-67531206D01*
X123811682Y-67533891D01*
X123811681Y-67533891D01*
X123649278Y-67606197D01*
X123649276Y-67606198D01*
X123643248Y-67608882D01*
X123637907Y-67612762D01*
X123637906Y-67612763D01*
X123595998Y-67643211D01*
X123488747Y-67721134D01*
X123484326Y-67726044D01*
X123484325Y-67726045D01*
X123406211Y-67812800D01*
X123360960Y-67863056D01*
X123265473Y-68028444D01*
X123206458Y-68210072D01*
X123186496Y-68400000D01*
X116402438Y-68400000D01*
X116412748Y-68326639D01*
X116412748Y-68326636D01*
X116413299Y-68322717D01*
X116413616Y-68300000D01*
X116393397Y-68119745D01*
X116391080Y-68113091D01*
X116336064Y-67955106D01*
X116336062Y-67955103D01*
X116333745Y-67948448D01*
X116241471Y-67800777D01*
X116222336Y-67732409D01*
X116243202Y-67664548D01*
X116297444Y-67618740D01*
X116336903Y-67608529D01*
X116463600Y-67596998D01*
X116470302Y-67594820D01*
X116470304Y-67594820D01*
X116629409Y-67543124D01*
X116629412Y-67543123D01*
X116636108Y-67540947D01*
X116743152Y-67477136D01*
X116785860Y-67451677D01*
X116785862Y-67451676D01*
X116791912Y-67448069D01*
X116923266Y-67322982D01*
X117023643Y-67171902D01*
X117024711Y-67172612D01*
X117068596Y-67126465D01*
X117137570Y-67109636D01*
X117204692Y-67132768D01*
X117239515Y-67170229D01*
X117251730Y-67190398D01*
X117251733Y-67190401D01*
X117255380Y-67196424D01*
X117260269Y-67201487D01*
X117260270Y-67201488D01*
X117337121Y-67281068D01*
X117381382Y-67326902D01*
X117387278Y-67330760D01*
X117489477Y-67397637D01*
X117533159Y-67426222D01*
X117539763Y-67428678D01*
X117539765Y-67428679D01*
X117696558Y-67486990D01*
X117696560Y-67486990D01*
X117703168Y-67489448D01*
X117786995Y-67500633D01*
X117875980Y-67512507D01*
X117875984Y-67512507D01*
X117882961Y-67513438D01*
X117889972Y-67512800D01*
X117889976Y-67512800D01*
X118032459Y-67499832D01*
X118063600Y-67496998D01*
X118070302Y-67494820D01*
X118070304Y-67494820D01*
X118229409Y-67443124D01*
X118229412Y-67443123D01*
X118236108Y-67440947D01*
X118340056Y-67378981D01*
X118408809Y-67361282D01*
X118448491Y-67369114D01*
X118503168Y-67389448D01*
X118586995Y-67400633D01*
X118675980Y-67412507D01*
X118675984Y-67412507D01*
X118682961Y-67413438D01*
X118689972Y-67412800D01*
X118689976Y-67412800D01*
X118832459Y-67399832D01*
X118863600Y-67396998D01*
X118870302Y-67394820D01*
X118870304Y-67394820D01*
X119029409Y-67343124D01*
X119029412Y-67343123D01*
X119036108Y-67340947D01*
X119191912Y-67248069D01*
X119323266Y-67122982D01*
X119423643Y-66971902D01*
X119482989Y-66815675D01*
X119485555Y-66808920D01*
X119485556Y-66808918D01*
X119488055Y-66802338D01*
X119490963Y-66781646D01*
X119512748Y-66626639D01*
X119512748Y-66626636D01*
X119513299Y-66622717D01*
X119513616Y-66600000D01*
X119493397Y-66419745D01*
X119476064Y-66369971D01*
X119472550Y-66299065D01*
X119507931Y-66237512D01*
X119570973Y-66204859D01*
X119641661Y-66211472D01*
X119667323Y-66225321D01*
X119680894Y-66234823D01*
X119685876Y-66237146D01*
X119685881Y-66237149D01*
X119854648Y-66315846D01*
X119876507Y-66326039D01*
X119881815Y-66327461D01*
X119881817Y-66327462D01*
X120079672Y-66380477D01*
X120079674Y-66380477D01*
X120084987Y-66381901D01*
X120300000Y-66400712D01*
X120515013Y-66381901D01*
X120520326Y-66380477D01*
X120520328Y-66380477D01*
X120718183Y-66327462D01*
X120718185Y-66327461D01*
X120723493Y-66326039D01*
X120745352Y-66315846D01*
X120914119Y-66237149D01*
X120914124Y-66237146D01*
X120919106Y-66234823D01*
X121055548Y-66139285D01*
X121091396Y-66114184D01*
X121091399Y-66114182D01*
X121095907Y-66111025D01*
X121248525Y-65958407D01*
X121252925Y-65952124D01*
X121318797Y-65858049D01*
X121372323Y-65781606D01*
X121374646Y-65776624D01*
X121374649Y-65776619D01*
X121461216Y-65590975D01*
X121461217Y-65590974D01*
X121463539Y-65585993D01*
X121466259Y-65575844D01*
X121516420Y-65388640D01*
X123786463Y-65388640D01*
X123804163Y-65569160D01*
X123861418Y-65741273D01*
X123865065Y-65747295D01*
X123865066Y-65747297D01*
X123951264Y-65889627D01*
X123955380Y-65896424D01*
X123960269Y-65901487D01*
X123960270Y-65901488D01*
X123984558Y-65926639D01*
X124081382Y-66026902D01*
X124137796Y-66063818D01*
X124209936Y-66111025D01*
X124233159Y-66126222D01*
X124239763Y-66128678D01*
X124239765Y-66128679D01*
X124396558Y-66186990D01*
X124396560Y-66186990D01*
X124403168Y-66189448D01*
X124486995Y-66200633D01*
X124575980Y-66212507D01*
X124575984Y-66212507D01*
X124582961Y-66213438D01*
X124589972Y-66212800D01*
X124589976Y-66212800D01*
X124732459Y-66199832D01*
X124763600Y-66196998D01*
X124770302Y-66194820D01*
X124770304Y-66194820D01*
X124929409Y-66143124D01*
X124929412Y-66143123D01*
X124936108Y-66140947D01*
X125058786Y-66067816D01*
X125085860Y-66051677D01*
X125085862Y-66051676D01*
X125091912Y-66048069D01*
X125223266Y-65922982D01*
X125323643Y-65771902D01*
X125388055Y-65602338D01*
X125389652Y-65590975D01*
X125412748Y-65426639D01*
X125412748Y-65426636D01*
X125413299Y-65422717D01*
X125413616Y-65400000D01*
X125393397Y-65219745D01*
X125391080Y-65213091D01*
X125336064Y-65055106D01*
X125336062Y-65055103D01*
X125333745Y-65048448D01*
X125237626Y-64894624D01*
X125223941Y-64880843D01*
X125114778Y-64770915D01*
X125114774Y-64770912D01*
X125109815Y-64765918D01*
X125098697Y-64758862D01*
X125048335Y-64726902D01*
X124956666Y-64668727D01*
X124927463Y-64658328D01*
X124792425Y-64610243D01*
X124792420Y-64610242D01*
X124785790Y-64607881D01*
X124778802Y-64607048D01*
X124778799Y-64607047D01*
X124655698Y-64592368D01*
X124605680Y-64586404D01*
X124598677Y-64587140D01*
X124598676Y-64587140D01*
X124432288Y-64604628D01*
X124432286Y-64604629D01*
X124425288Y-64605364D01*
X124253579Y-64663818D01*
X124247575Y-64667512D01*
X124105095Y-64755166D01*
X124105092Y-64755168D01*
X124099088Y-64758862D01*
X124094053Y-64763793D01*
X124094050Y-64763795D01*
X123974525Y-64880843D01*
X123969493Y-64885771D01*
X123871235Y-65038238D01*
X123868826Y-65044858D01*
X123868824Y-65044861D01*
X123822365Y-65172506D01*
X123809197Y-65208685D01*
X123786463Y-65388640D01*
X121516420Y-65388640D01*
X121517977Y-65382828D01*
X121517977Y-65382826D01*
X121519401Y-65377513D01*
X121538212Y-65162500D01*
X121519401Y-64947487D01*
X121505289Y-64894820D01*
X121464962Y-64744317D01*
X121464961Y-64744315D01*
X121463539Y-64739007D01*
X121461216Y-64734025D01*
X121374649Y-64548381D01*
X121374646Y-64548376D01*
X121372323Y-64543394D01*
X121248525Y-64366593D01*
X121095907Y-64213975D01*
X121075414Y-64199625D01*
X120975046Y-64129347D01*
X120969905Y-64125747D01*
X120925578Y-64070291D01*
X120918269Y-63999672D01*
X120950300Y-63936311D01*
X121011501Y-63900326D01*
X121060257Y-63897839D01*
X121239664Y-63923852D01*
X121239667Y-63923852D01*
X121245604Y-63924713D01*
X121456899Y-63914933D01*
X121607912Y-63878539D01*
X121656701Y-63866781D01*
X121656703Y-63866780D01*
X121662534Y-63865375D01*
X121667992Y-63862893D01*
X121667996Y-63862892D01*
X121841596Y-63783960D01*
X121855087Y-63777826D01*
X122027611Y-63655446D01*
X122173881Y-63502650D01*
X122288620Y-63324952D01*
X122367686Y-63128763D01*
X122408228Y-62921163D01*
X122408500Y-62915601D01*
X122408500Y-62059654D01*
X122393452Y-61901934D01*
X122362508Y-61796453D01*
X122354738Y-61769969D01*
X122354755Y-61698973D01*
X122393153Y-61639256D01*
X122457741Y-61609778D01*
X122475643Y-61608500D01*
X124374160Y-61608500D01*
X124442281Y-61628502D01*
X124488774Y-61682158D01*
X124499559Y-61722205D01*
X124504163Y-61769160D01*
X124506387Y-61775845D01*
X124506387Y-61775846D01*
X124526195Y-61835391D01*
X124561418Y-61941273D01*
X124565065Y-61947295D01*
X124565066Y-61947297D01*
X124601976Y-62008242D01*
X124655380Y-62096424D01*
X124781382Y-62226902D01*
X124933159Y-62326222D01*
X124939763Y-62328678D01*
X124939765Y-62328679D01*
X125096558Y-62386990D01*
X125096560Y-62386990D01*
X125103168Y-62389448D01*
X125186995Y-62400633D01*
X125275980Y-62412507D01*
X125275984Y-62412507D01*
X125282961Y-62413438D01*
X125289972Y-62412800D01*
X125289976Y-62412800D01*
X125432459Y-62399832D01*
X125463600Y-62396998D01*
X125470302Y-62394820D01*
X125470304Y-62394820D01*
X125629409Y-62343124D01*
X125629412Y-62343123D01*
X125636108Y-62340947D01*
X125791912Y-62248069D01*
X125923266Y-62122982D01*
X126023643Y-61971902D01*
X126088055Y-61802338D01*
X126100054Y-61716964D01*
X126129341Y-61652291D01*
X126188944Y-61613717D01*
X126224827Y-61608500D01*
X128354340Y-61608500D01*
X128422461Y-61628502D01*
X128443435Y-61645405D01*
X128954595Y-62156565D01*
X128988621Y-62218877D01*
X128991500Y-62245660D01*
X128991500Y-62378569D01*
X128971498Y-62446690D01*
X128917842Y-62493183D01*
X128850583Y-62503683D01*
X128705680Y-62486404D01*
X128698677Y-62487140D01*
X128698676Y-62487140D01*
X128532288Y-62504628D01*
X128532286Y-62504629D01*
X128525288Y-62505364D01*
X128353579Y-62563818D01*
X128347575Y-62567512D01*
X128205095Y-62655166D01*
X128205092Y-62655168D01*
X128199088Y-62658862D01*
X128194053Y-62663793D01*
X128194050Y-62663795D01*
X128079630Y-62775844D01*
X128069493Y-62785771D01*
X127971235Y-62938238D01*
X127968826Y-62944858D01*
X127968824Y-62944861D01*
X127911606Y-63102066D01*
X127909197Y-63108685D01*
X127886463Y-63288640D01*
X127886581Y-63289849D01*
X127866312Y-63355477D01*
X127812012Y-63401216D01*
X127741604Y-63410338D01*
X127693764Y-63392270D01*
X127656666Y-63368727D01*
X127615007Y-63353893D01*
X127492425Y-63310243D01*
X127492420Y-63310242D01*
X127485790Y-63307881D01*
X127478802Y-63307048D01*
X127478799Y-63307047D01*
X127324431Y-63288640D01*
X127305680Y-63286404D01*
X127298677Y-63287140D01*
X127298676Y-63287140D01*
X127132288Y-63304628D01*
X127132286Y-63304629D01*
X127125288Y-63305364D01*
X126953579Y-63363818D01*
X126915914Y-63386990D01*
X126805095Y-63455166D01*
X126805092Y-63455168D01*
X126799088Y-63458862D01*
X126794053Y-63463793D01*
X126794050Y-63463795D01*
X126679775Y-63575702D01*
X126669493Y-63585771D01*
X126571235Y-63738238D01*
X126568826Y-63744858D01*
X126568824Y-63744861D01*
X126514097Y-63895222D01*
X126509197Y-63908685D01*
X126486463Y-64088640D01*
X126504163Y-64269160D01*
X126561418Y-64441273D01*
X126565065Y-64447295D01*
X126565066Y-64447297D01*
X126649817Y-64587238D01*
X126655380Y-64596424D01*
X126660269Y-64601487D01*
X126660270Y-64601488D01*
X126718269Y-64661547D01*
X126781382Y-64726902D01*
X126841005Y-64765918D01*
X126886445Y-64795653D01*
X126933159Y-64826222D01*
X126939763Y-64828678D01*
X126939765Y-64828679D01*
X127096558Y-64886990D01*
X127096560Y-64886990D01*
X127103168Y-64889448D01*
X127186732Y-64900598D01*
X127275980Y-64912507D01*
X127275984Y-64912507D01*
X127282961Y-64913438D01*
X127289972Y-64912800D01*
X127289976Y-64912800D01*
X127432459Y-64899832D01*
X127463600Y-64896998D01*
X127470302Y-64894820D01*
X127470304Y-64894820D01*
X127629409Y-64843124D01*
X127629412Y-64843123D01*
X127636108Y-64840947D01*
X127761970Y-64765918D01*
X127785860Y-64751677D01*
X127785862Y-64751676D01*
X127791912Y-64748069D01*
X127923266Y-64622982D01*
X128023643Y-64471902D01*
X128088055Y-64302338D01*
X128090383Y-64285771D01*
X128112748Y-64126639D01*
X128112748Y-64126636D01*
X128113299Y-64122717D01*
X128113425Y-64113696D01*
X128134377Y-64045861D01*
X128188677Y-64000122D01*
X128259085Y-63991001D01*
X128308406Y-64010024D01*
X128333159Y-64026222D01*
X128339763Y-64028678D01*
X128339765Y-64028679D01*
X128496558Y-64086990D01*
X128496560Y-64086990D01*
X128503168Y-64089448D01*
X128510153Y-64090380D01*
X128510157Y-64090381D01*
X128597306Y-64102009D01*
X128668110Y-64111456D01*
X128732986Y-64140292D01*
X128771974Y-64199625D01*
X128772695Y-64270618D01*
X128757356Y-64304604D01*
X128671235Y-64438238D01*
X128668826Y-64444858D01*
X128668824Y-64444861D01*
X128611606Y-64602066D01*
X128609197Y-64608685D01*
X128586463Y-64788640D01*
X128604163Y-64969160D01*
X128661418Y-65141273D01*
X128665065Y-65147295D01*
X128665066Y-65147297D01*
X128732632Y-65258862D01*
X128755380Y-65296424D01*
X128881382Y-65426902D01*
X128887274Y-65430757D01*
X128887278Y-65430761D01*
X128934493Y-65461657D01*
X128980542Y-65515694D01*
X128991500Y-65567089D01*
X128991500Y-65771088D01*
X128991208Y-65779658D01*
X128988383Y-65821104D01*
X128987275Y-65837352D01*
X128997522Y-65896062D01*
X128998261Y-65900299D01*
X128999223Y-65906821D01*
X129006898Y-65970242D01*
X129009581Y-65977343D01*
X129010222Y-65979952D01*
X129014685Y-65996262D01*
X129015450Y-65998798D01*
X129016757Y-66006284D01*
X129039838Y-66058862D01*
X129042442Y-66064795D01*
X129044933Y-66070899D01*
X129067513Y-66130656D01*
X129071817Y-66136919D01*
X129073054Y-66139285D01*
X129081299Y-66154097D01*
X129082632Y-66156351D01*
X129085685Y-66163305D01*
X129124155Y-66213438D01*
X129124579Y-66213991D01*
X129128459Y-66219332D01*
X129160339Y-66265720D01*
X129160344Y-66265725D01*
X129164643Y-66271981D01*
X129170313Y-66277032D01*
X129170314Y-66277034D01*
X129211170Y-66313435D01*
X129216446Y-66318416D01*
X131654595Y-68756565D01*
X131688621Y-68818877D01*
X131691500Y-68845660D01*
X131691500Y-70365500D01*
X131671498Y-70433621D01*
X131617842Y-70480114D01*
X131565500Y-70491500D01*
X130229158Y-70491500D01*
X130169624Y-70474205D01*
X130168948Y-70475590D01*
X130162609Y-70472498D01*
X130156666Y-70468727D01*
X130142880Y-70463818D01*
X129992425Y-70410243D01*
X129992420Y-70410242D01*
X129985790Y-70407881D01*
X129978802Y-70407048D01*
X129978799Y-70407047D01*
X129855698Y-70392368D01*
X129805680Y-70386404D01*
X129798677Y-70387140D01*
X129798676Y-70387140D01*
X129632288Y-70404628D01*
X129632286Y-70404629D01*
X129625288Y-70405364D01*
X129453579Y-70463818D01*
X129408583Y-70491500D01*
X129305095Y-70555166D01*
X129305092Y-70555168D01*
X129299088Y-70558862D01*
X129294053Y-70563793D01*
X129294050Y-70563795D01*
X129177660Y-70677773D01*
X129169493Y-70685771D01*
X129071235Y-70838238D01*
X129068826Y-70844858D01*
X129068824Y-70844861D01*
X129029946Y-70951677D01*
X129009197Y-71008685D01*
X128986463Y-71188640D01*
X129004163Y-71369160D01*
X129061418Y-71541273D01*
X129065065Y-71547295D01*
X129065066Y-71547297D01*
X129151720Y-71690380D01*
X129155380Y-71696424D01*
X129173971Y-71715675D01*
X129218932Y-71762234D01*
X129251864Y-71825131D01*
X129245564Y-71895847D01*
X129216453Y-71939784D01*
X129179630Y-71975844D01*
X129169493Y-71985771D01*
X129071235Y-72138238D01*
X129068826Y-72144858D01*
X129068824Y-72144861D01*
X129011606Y-72302066D01*
X129009197Y-72308685D01*
X128986463Y-72488640D01*
X129004163Y-72669160D01*
X129061418Y-72841273D01*
X129065065Y-72847295D01*
X129065066Y-72847297D01*
X129151720Y-72990380D01*
X129155380Y-72996424D01*
X129160269Y-73001487D01*
X129160270Y-73001488D01*
X129220440Y-73063795D01*
X129281382Y-73126902D01*
X129287278Y-73130760D01*
X129407908Y-73209698D01*
X129433159Y-73226222D01*
X129439763Y-73228678D01*
X129439765Y-73228679D01*
X129596558Y-73286990D01*
X129596560Y-73286990D01*
X129603168Y-73289448D01*
X129686995Y-73300633D01*
X129775980Y-73312507D01*
X129775984Y-73312507D01*
X129782961Y-73313438D01*
X129789972Y-73312800D01*
X129789976Y-73312800D01*
X129932459Y-73299832D01*
X129963600Y-73296998D01*
X129970300Y-73294821D01*
X129970305Y-73294820D01*
X130041937Y-73271545D01*
X130112905Y-73269518D01*
X130173703Y-73306180D01*
X130203691Y-73364348D01*
X130204163Y-73369160D01*
X130206385Y-73375839D01*
X130206385Y-73375840D01*
X130211659Y-73391693D01*
X130261418Y-73541273D01*
X130265065Y-73547295D01*
X130265066Y-73547297D01*
X130344208Y-73677976D01*
X130355380Y-73696424D01*
X130360269Y-73701487D01*
X130360270Y-73701488D01*
X130377901Y-73719745D01*
X130481382Y-73826902D01*
X130498994Y-73838427D01*
X130593088Y-73900000D01*
X130633159Y-73926222D01*
X130639763Y-73928678D01*
X130639765Y-73928679D01*
X130796558Y-73986990D01*
X130796560Y-73986990D01*
X130803168Y-73989448D01*
X130886995Y-74000633D01*
X130975980Y-74012507D01*
X130975984Y-74012507D01*
X130982961Y-74013438D01*
X130989972Y-74012800D01*
X130989976Y-74012800D01*
X131132459Y-73999832D01*
X131163600Y-73996998D01*
X131170302Y-73994820D01*
X131170304Y-73994820D01*
X131329409Y-73943124D01*
X131329412Y-73943123D01*
X131336108Y-73940947D01*
X131435586Y-73881646D01*
X131485860Y-73851677D01*
X131485862Y-73851676D01*
X131491912Y-73848069D01*
X131491922Y-73848060D01*
X131555676Y-73823797D01*
X131625149Y-73838427D01*
X131675684Y-73888294D01*
X131691500Y-73949413D01*
X131691500Y-84631591D01*
X131671498Y-84699712D01*
X131631524Y-84738907D01*
X131599088Y-84758862D01*
X131594056Y-84763789D01*
X131594053Y-84763792D01*
X131474525Y-84880843D01*
X131469493Y-84885771D01*
X131371235Y-85038238D01*
X131368826Y-85044858D01*
X131368824Y-85044861D01*
X131314315Y-85194624D01*
X131309197Y-85208685D01*
X131286463Y-85388640D01*
X131304163Y-85569160D01*
X131361418Y-85741273D01*
X131365065Y-85747295D01*
X131365066Y-85747297D01*
X131449817Y-85887238D01*
X131455380Y-85896424D01*
X131460269Y-85901487D01*
X131460270Y-85901488D01*
X131518269Y-85961547D01*
X131581382Y-86026902D01*
X131587274Y-86030757D01*
X131587278Y-86030761D01*
X131634493Y-86061657D01*
X131680542Y-86115694D01*
X131691500Y-86167089D01*
X131691500Y-86652026D01*
X131671498Y-86720147D01*
X131617842Y-86766640D01*
X131547568Y-86776744D01*
X131497986Y-86758411D01*
X131432157Y-86716635D01*
X131356666Y-86668727D01*
X131309764Y-86652026D01*
X131192425Y-86610243D01*
X131192420Y-86610242D01*
X131185790Y-86607881D01*
X131178802Y-86607048D01*
X131178799Y-86607047D01*
X131055698Y-86592368D01*
X131005680Y-86586404D01*
X130998677Y-86587140D01*
X130998675Y-86587140D01*
X130825939Y-86605295D01*
X130756101Y-86592523D01*
X130704254Y-86544021D01*
X130694460Y-86519375D01*
X130693397Y-86519745D01*
X130636064Y-86355106D01*
X130636062Y-86355103D01*
X130633745Y-86348448D01*
X130537626Y-86194624D01*
X130532664Y-86189627D01*
X130414778Y-86070915D01*
X130414774Y-86070912D01*
X130409815Y-86065918D01*
X130398697Y-86058862D01*
X130348335Y-86026902D01*
X130256666Y-85968727D01*
X130226957Y-85958148D01*
X130092425Y-85910243D01*
X130092420Y-85910242D01*
X130085790Y-85907881D01*
X130078802Y-85907048D01*
X130078799Y-85907047D01*
X129955698Y-85892368D01*
X129905680Y-85886404D01*
X129898677Y-85887140D01*
X129898676Y-85887140D01*
X129732288Y-85904628D01*
X129732286Y-85904629D01*
X129725288Y-85905364D01*
X129553579Y-85963818D01*
X129539457Y-85972506D01*
X129405095Y-86055166D01*
X129405092Y-86055168D01*
X129399088Y-86058862D01*
X129394053Y-86063793D01*
X129394050Y-86063795D01*
X129358140Y-86098961D01*
X129269493Y-86185771D01*
X129171235Y-86338238D01*
X129168826Y-86344858D01*
X129168824Y-86344861D01*
X129112358Y-86500000D01*
X129109197Y-86508685D01*
X129086463Y-86688640D01*
X129104163Y-86869160D01*
X129161418Y-87041273D01*
X129165065Y-87047295D01*
X129165066Y-87047297D01*
X129244747Y-87178866D01*
X129255380Y-87196424D01*
X129381382Y-87326902D01*
X129406305Y-87343211D01*
X129527262Y-87422363D01*
X129533159Y-87426222D01*
X129539763Y-87428678D01*
X129539765Y-87428679D01*
X129696558Y-87486990D01*
X129696560Y-87486990D01*
X129703168Y-87489448D01*
X129784491Y-87500299D01*
X129875980Y-87512507D01*
X129875984Y-87512507D01*
X129882961Y-87513438D01*
X129889972Y-87512800D01*
X129889976Y-87512800D01*
X130056580Y-87497637D01*
X130056581Y-87497637D01*
X130063600Y-87496998D01*
X130065051Y-87496526D01*
X130133624Y-87502240D01*
X130189957Y-87545449D01*
X130207768Y-87579997D01*
X130261418Y-87741273D01*
X130265065Y-87747295D01*
X130265066Y-87747297D01*
X130312295Y-87825281D01*
X130355380Y-87896424D01*
X130360269Y-87901487D01*
X130360270Y-87901488D01*
X130379547Y-87921450D01*
X130481382Y-88026902D01*
X130526789Y-88056616D01*
X130572835Y-88110651D01*
X130582359Y-88181006D01*
X130552335Y-88245341D01*
X130546889Y-88251141D01*
X127448595Y-91349435D01*
X127386283Y-91383461D01*
X127315468Y-91378396D01*
X127258632Y-91335849D01*
X127233821Y-91269329D01*
X127233500Y-91260340D01*
X127233500Y-91226866D01*
X127226745Y-91164684D01*
X127175615Y-91028295D01*
X127088261Y-90911739D01*
X126971705Y-90824385D01*
X126835316Y-90773255D01*
X126773134Y-90766500D01*
X124976866Y-90766500D01*
X124914684Y-90773255D01*
X124778295Y-90824385D01*
X124661739Y-90911739D01*
X124574385Y-91028295D01*
X124571233Y-91036703D01*
X124529919Y-91146907D01*
X124487277Y-91203671D01*
X124420716Y-91228371D01*
X124351367Y-91213163D01*
X124318743Y-91187476D01*
X124268151Y-91131875D01*
X124268142Y-91131866D01*
X124264670Y-91128051D01*
X124260619Y-91124852D01*
X124260615Y-91124848D01*
X124093414Y-90992800D01*
X124093410Y-90992798D01*
X124089359Y-90989598D01*
X123904435Y-90887515D01*
X123854464Y-90837082D01*
X123839692Y-90767639D01*
X123864808Y-90701234D01*
X123909894Y-90664056D01*
X123997994Y-90620896D01*
X124179860Y-90491173D01*
X124338096Y-90333489D01*
X124343511Y-90325954D01*
X124465435Y-90156277D01*
X124468453Y-90152077D01*
X124487550Y-90113438D01*
X124565136Y-89956453D01*
X124565137Y-89956451D01*
X124567430Y-89951811D01*
X124632370Y-89738069D01*
X124661529Y-89516590D01*
X124661611Y-89513240D01*
X124663074Y-89453365D01*
X124663074Y-89453361D01*
X124663156Y-89450000D01*
X124644852Y-89227361D01*
X124590431Y-89010702D01*
X124501354Y-88805840D01*
X124414067Y-88670915D01*
X124382822Y-88622617D01*
X124382820Y-88622614D01*
X124380014Y-88618277D01*
X124229670Y-88453051D01*
X124225619Y-88449852D01*
X124225615Y-88449848D01*
X124058414Y-88317800D01*
X124058410Y-88317798D01*
X124054359Y-88314598D01*
X123858789Y-88206638D01*
X123853920Y-88204914D01*
X123853916Y-88204912D01*
X123653087Y-88133795D01*
X123653083Y-88133794D01*
X123648212Y-88132069D01*
X123643119Y-88131162D01*
X123643116Y-88131161D01*
X123433373Y-88093800D01*
X123433367Y-88093799D01*
X123428284Y-88092894D01*
X123354452Y-88091992D01*
X123210081Y-88090228D01*
X123210079Y-88090228D01*
X123204911Y-88090165D01*
X122984091Y-88123955D01*
X122771756Y-88193357D01*
X122573607Y-88296507D01*
X122569474Y-88299610D01*
X122569471Y-88299612D01*
X122399100Y-88427530D01*
X122394965Y-88430635D01*
X122391393Y-88434373D01*
X122283729Y-88547037D01*
X122240629Y-88592138D01*
X122133201Y-88749621D01*
X122078293Y-88794621D01*
X122007768Y-88802792D01*
X121944021Y-88771538D01*
X121923324Y-88747054D01*
X121842822Y-88622617D01*
X121842820Y-88622614D01*
X121840014Y-88618277D01*
X121689670Y-88453051D01*
X121685619Y-88449852D01*
X121685615Y-88449848D01*
X121518414Y-88317800D01*
X121518410Y-88317798D01*
X121514359Y-88314598D01*
X121318789Y-88206638D01*
X121313920Y-88204914D01*
X121313916Y-88204912D01*
X121113087Y-88133795D01*
X121113083Y-88133794D01*
X121108212Y-88132069D01*
X121103119Y-88131162D01*
X121103116Y-88131161D01*
X120893373Y-88093800D01*
X120893367Y-88093799D01*
X120888284Y-88092894D01*
X120814452Y-88091992D01*
X120670081Y-88090228D01*
X120670079Y-88090228D01*
X120664911Y-88090165D01*
X120444091Y-88123955D01*
X120231756Y-88193357D01*
X120033607Y-88296507D01*
X120029474Y-88299610D01*
X120029471Y-88299612D01*
X119859100Y-88427530D01*
X119854965Y-88430635D01*
X119851393Y-88434373D01*
X119743729Y-88547037D01*
X119700629Y-88592138D01*
X119593201Y-88749621D01*
X119538293Y-88794621D01*
X119467768Y-88802792D01*
X119404021Y-88771538D01*
X119383324Y-88747054D01*
X119302822Y-88622617D01*
X119302820Y-88622614D01*
X119300014Y-88618277D01*
X119149670Y-88453051D01*
X119145619Y-88449852D01*
X119145615Y-88449848D01*
X118978414Y-88317800D01*
X118978410Y-88317798D01*
X118974359Y-88314598D01*
X118778789Y-88206638D01*
X118773920Y-88204914D01*
X118773916Y-88204912D01*
X118573087Y-88133795D01*
X118573083Y-88133794D01*
X118568212Y-88132069D01*
X118563119Y-88131162D01*
X118563116Y-88131161D01*
X118353373Y-88093800D01*
X118353367Y-88093799D01*
X118348284Y-88092894D01*
X118274452Y-88091992D01*
X118130081Y-88090228D01*
X118130079Y-88090228D01*
X118124911Y-88090165D01*
X117904091Y-88123955D01*
X117691756Y-88193357D01*
X117493607Y-88296507D01*
X117489474Y-88299610D01*
X117489471Y-88299612D01*
X117319100Y-88427530D01*
X117314965Y-88430635D01*
X117311393Y-88434373D01*
X117203729Y-88547037D01*
X117160629Y-88592138D01*
X117053201Y-88749621D01*
X116998293Y-88794621D01*
X116927768Y-88802792D01*
X116864021Y-88771538D01*
X116843324Y-88747054D01*
X116762822Y-88622617D01*
X116762820Y-88622614D01*
X116760014Y-88618277D01*
X116609670Y-88453051D01*
X116605619Y-88449852D01*
X116605615Y-88449848D01*
X116438414Y-88317800D01*
X116438410Y-88317798D01*
X116434359Y-88314598D01*
X116238789Y-88206638D01*
X116233920Y-88204914D01*
X116233916Y-88204912D01*
X116033087Y-88133795D01*
X116033083Y-88133794D01*
X116028212Y-88132069D01*
X116023119Y-88131162D01*
X116023116Y-88131161D01*
X115813373Y-88093800D01*
X115813367Y-88093799D01*
X115808284Y-88092894D01*
X115734452Y-88091992D01*
X115590081Y-88090228D01*
X115590079Y-88090228D01*
X115584911Y-88090165D01*
X115364091Y-88123955D01*
X115151756Y-88193357D01*
X114953607Y-88296507D01*
X114949474Y-88299610D01*
X114949471Y-88299612D01*
X114779100Y-88427530D01*
X114774965Y-88430635D01*
X114771393Y-88434373D01*
X114663729Y-88547037D01*
X114620629Y-88592138D01*
X114513201Y-88749621D01*
X114458293Y-88794621D01*
X114387768Y-88802792D01*
X114324021Y-88771538D01*
X114303324Y-88747054D01*
X114222822Y-88622617D01*
X114222820Y-88622614D01*
X114220014Y-88618277D01*
X114069670Y-88453051D01*
X114065619Y-88449852D01*
X114065615Y-88449848D01*
X113898414Y-88317800D01*
X113898410Y-88317798D01*
X113894359Y-88314598D01*
X113698789Y-88206638D01*
X113693920Y-88204914D01*
X113693916Y-88204912D01*
X113493087Y-88133795D01*
X113493083Y-88133794D01*
X113488212Y-88132069D01*
X113483119Y-88131162D01*
X113483116Y-88131161D01*
X113273373Y-88093800D01*
X113273367Y-88093799D01*
X113268284Y-88092894D01*
X113194452Y-88091992D01*
X113050081Y-88090228D01*
X113050079Y-88090228D01*
X113044911Y-88090165D01*
X112824091Y-88123955D01*
X112611756Y-88193357D01*
X112413607Y-88296507D01*
X112409474Y-88299610D01*
X112409471Y-88299612D01*
X112239100Y-88427530D01*
X112234965Y-88430635D01*
X112163553Y-88505364D01*
X112154283Y-88515064D01*
X112092759Y-88550494D01*
X112021846Y-88547037D01*
X111964060Y-88505791D01*
X111945207Y-88472243D01*
X111903767Y-88361703D01*
X111900615Y-88353295D01*
X111813261Y-88236739D01*
X111696705Y-88149385D01*
X111560316Y-88098255D01*
X111498134Y-88091500D01*
X109701866Y-88091500D01*
X109639684Y-88098255D01*
X109503295Y-88149385D01*
X109386739Y-88236739D01*
X109299385Y-88353295D01*
X109248255Y-88489684D01*
X109241500Y-88551866D01*
X109241500Y-90348134D01*
X109248255Y-90410316D01*
X109299385Y-90546705D01*
X109386739Y-90663261D01*
X109503295Y-90750615D01*
X109639684Y-90801745D01*
X109701866Y-90808500D01*
X109748043Y-90808500D01*
X109816164Y-90828502D01*
X109862657Y-90882158D01*
X109872761Y-90952432D01*
X109843267Y-91017012D01*
X109823697Y-91035259D01*
X109729965Y-91105635D01*
X109690525Y-91146907D01*
X109636280Y-91203671D01*
X109575629Y-91267138D01*
X109528758Y-91335849D01*
X109511257Y-91361504D01*
X109456346Y-91406507D01*
X109407169Y-91416500D01*
X108570660Y-91416500D01*
X108502539Y-91396498D01*
X108481565Y-91379595D01*
X107427924Y-90325954D01*
X107393898Y-90263642D01*
X107398963Y-90192827D01*
X107441510Y-90135991D01*
X107505599Y-90111378D01*
X107625897Y-90100429D01*
X107663600Y-90096998D01*
X107670302Y-90094820D01*
X107670304Y-90094820D01*
X107829409Y-90043124D01*
X107829412Y-90043123D01*
X107836108Y-90040947D01*
X107991912Y-89948069D01*
X108123266Y-89822982D01*
X108223643Y-89671902D01*
X108288055Y-89502338D01*
X108304245Y-89387140D01*
X108312748Y-89326639D01*
X108312748Y-89326636D01*
X108313299Y-89322717D01*
X108313616Y-89300000D01*
X108293397Y-89119745D01*
X108291080Y-89113091D01*
X108236064Y-88955106D01*
X108236062Y-88955103D01*
X108233745Y-88948448D01*
X108147603Y-88810590D01*
X108141359Y-88800598D01*
X108137626Y-88794624D01*
X108090387Y-88747054D01*
X108014778Y-88670915D01*
X108014774Y-88670912D01*
X108009815Y-88665918D01*
X107998697Y-88658862D01*
X107941583Y-88622617D01*
X107856666Y-88568727D01*
X107799775Y-88548469D01*
X107692425Y-88510243D01*
X107692420Y-88510242D01*
X107685790Y-88507881D01*
X107678802Y-88507048D01*
X107678799Y-88507047D01*
X107555698Y-88492368D01*
X107505680Y-88486404D01*
X107498677Y-88487140D01*
X107498676Y-88487140D01*
X107332288Y-88504628D01*
X107332286Y-88504629D01*
X107325288Y-88505364D01*
X107153579Y-88563818D01*
X107147575Y-88567512D01*
X107005095Y-88655166D01*
X107005092Y-88655168D01*
X106999088Y-88658862D01*
X106994053Y-88663793D01*
X106994050Y-88663795D01*
X106909029Y-88747054D01*
X106869493Y-88785771D01*
X106771235Y-88938238D01*
X106768826Y-88944858D01*
X106768824Y-88944861D01*
X106711606Y-89102066D01*
X106709197Y-89108685D01*
X106708314Y-89115675D01*
X106694839Y-89222342D01*
X106686463Y-89288640D01*
X106685603Y-89288531D01*
X106666371Y-89350782D01*
X106612068Y-89396517D01*
X106541659Y-89405633D01*
X106477499Y-89375237D01*
X106472245Y-89370275D01*
X104245405Y-87143435D01*
X104211379Y-87081123D01*
X104208500Y-87054340D01*
X104208500Y-86688640D01*
X109286463Y-86688640D01*
X109304163Y-86869160D01*
X109361418Y-87041273D01*
X109365065Y-87047295D01*
X109365066Y-87047297D01*
X109444747Y-87178866D01*
X109455380Y-87196424D01*
X109581382Y-87326902D01*
X109606305Y-87343211D01*
X109727262Y-87422363D01*
X109733159Y-87426222D01*
X109739763Y-87428678D01*
X109739765Y-87428679D01*
X109896558Y-87486990D01*
X109896560Y-87486990D01*
X109903168Y-87489448D01*
X109984491Y-87500299D01*
X110075980Y-87512507D01*
X110075984Y-87512507D01*
X110082961Y-87513438D01*
X110089972Y-87512800D01*
X110089976Y-87512800D01*
X110232459Y-87499832D01*
X110263600Y-87496998D01*
X110270302Y-87494820D01*
X110270304Y-87494820D01*
X110429409Y-87443124D01*
X110429412Y-87443123D01*
X110436108Y-87440947D01*
X110546119Y-87375367D01*
X110585860Y-87351677D01*
X110585862Y-87351676D01*
X110591912Y-87348069D01*
X110723266Y-87222982D01*
X110823643Y-87071902D01*
X110888055Y-86902338D01*
X110891577Y-86877279D01*
X110912748Y-86726639D01*
X110912748Y-86726636D01*
X110913299Y-86722717D01*
X110913452Y-86711738D01*
X110913561Y-86703962D01*
X110913561Y-86703957D01*
X110913616Y-86700000D01*
X110893397Y-86519745D01*
X110891080Y-86513091D01*
X110886521Y-86500000D01*
X117386496Y-86500000D01*
X117387186Y-86506565D01*
X117405588Y-86681646D01*
X117406458Y-86689928D01*
X117465473Y-86871556D01*
X117560960Y-87036944D01*
X117565378Y-87041851D01*
X117565379Y-87041852D01*
X117608667Y-87089928D01*
X117688747Y-87178866D01*
X117843248Y-87291118D01*
X117849276Y-87293802D01*
X117849278Y-87293803D01*
X117979266Y-87351677D01*
X118017712Y-87368794D01*
X118111112Y-87388647D01*
X118198056Y-87407128D01*
X118198061Y-87407128D01*
X118204513Y-87408500D01*
X118395487Y-87408500D01*
X118401939Y-87407128D01*
X118401944Y-87407128D01*
X118488888Y-87388647D01*
X118582288Y-87368794D01*
X118620734Y-87351677D01*
X118750722Y-87293803D01*
X118750724Y-87293802D01*
X118756752Y-87291118D01*
X118911253Y-87178866D01*
X118991333Y-87089928D01*
X119034621Y-87041852D01*
X119034622Y-87041851D01*
X119039040Y-87036944D01*
X119118105Y-86900000D01*
X125086496Y-86900000D01*
X125087186Y-86906565D01*
X125105533Y-87081123D01*
X125106458Y-87089928D01*
X125165473Y-87271556D01*
X125168776Y-87277278D01*
X125168777Y-87277279D01*
X125202686Y-87336010D01*
X125260960Y-87436944D01*
X125265378Y-87441851D01*
X125265379Y-87441852D01*
X125358658Y-87545449D01*
X125388747Y-87578866D01*
X125543248Y-87691118D01*
X125549276Y-87693802D01*
X125549278Y-87693803D01*
X125699119Y-87760516D01*
X125717712Y-87768794D01*
X125811112Y-87788647D01*
X125898056Y-87807128D01*
X125898061Y-87807128D01*
X125904513Y-87808500D01*
X126095487Y-87808500D01*
X126101939Y-87807128D01*
X126101944Y-87807128D01*
X126188888Y-87788647D01*
X126282288Y-87768794D01*
X126300881Y-87760516D01*
X126450722Y-87693803D01*
X126450724Y-87693802D01*
X126456752Y-87691118D01*
X126611253Y-87578866D01*
X126739040Y-87436944D01*
X126739523Y-87437379D01*
X126791986Y-87396922D01*
X126862722Y-87390845D01*
X126906696Y-87408905D01*
X126927261Y-87422363D01*
X126927263Y-87422364D01*
X126933159Y-87426222D01*
X126939763Y-87428678D01*
X126939765Y-87428679D01*
X127096558Y-87486990D01*
X127096560Y-87486990D01*
X127103168Y-87489448D01*
X127184491Y-87500299D01*
X127275980Y-87512507D01*
X127275984Y-87512507D01*
X127282961Y-87513438D01*
X127289972Y-87512800D01*
X127289976Y-87512800D01*
X127432459Y-87499832D01*
X127463600Y-87496998D01*
X127470302Y-87494820D01*
X127470304Y-87494820D01*
X127629409Y-87443124D01*
X127629412Y-87443123D01*
X127636108Y-87440947D01*
X127746119Y-87375367D01*
X127785860Y-87351677D01*
X127785862Y-87351676D01*
X127791912Y-87348069D01*
X127923266Y-87222982D01*
X128023643Y-87071902D01*
X128088055Y-86902338D01*
X128091577Y-86877279D01*
X128112748Y-86726639D01*
X128112748Y-86726636D01*
X128113299Y-86722717D01*
X128113452Y-86711738D01*
X128113561Y-86703962D01*
X128113561Y-86703957D01*
X128113616Y-86700000D01*
X128101342Y-86590578D01*
X128113626Y-86520654D01*
X128161765Y-86468469D01*
X128187622Y-86456701D01*
X128229406Y-86443125D01*
X128229409Y-86443124D01*
X128236108Y-86440947D01*
X128366771Y-86363056D01*
X128385860Y-86351677D01*
X128385862Y-86351676D01*
X128391912Y-86348069D01*
X128523266Y-86222982D01*
X128623643Y-86071902D01*
X128688055Y-85902338D01*
X128690191Y-85887140D01*
X128712748Y-85726639D01*
X128712748Y-85726636D01*
X128713299Y-85722717D01*
X128713616Y-85700000D01*
X128693397Y-85519745D01*
X128691080Y-85513091D01*
X128636064Y-85355106D01*
X128636062Y-85355103D01*
X128633745Y-85348448D01*
X128537626Y-85194624D01*
X128523941Y-85180843D01*
X128414778Y-85070915D01*
X128414774Y-85070912D01*
X128409815Y-85065918D01*
X128398697Y-85058862D01*
X128350538Y-85028300D01*
X128256666Y-84968727D01*
X128227463Y-84958328D01*
X128092425Y-84910243D01*
X128092420Y-84910242D01*
X128085790Y-84907881D01*
X128078802Y-84907048D01*
X128078799Y-84907047D01*
X127955698Y-84892368D01*
X127905680Y-84886404D01*
X127898677Y-84887140D01*
X127898676Y-84887140D01*
X127732288Y-84904628D01*
X127732286Y-84904629D01*
X127725288Y-84905364D01*
X127553579Y-84963818D01*
X127547575Y-84967512D01*
X127405095Y-85055166D01*
X127405092Y-85055168D01*
X127399088Y-85058862D01*
X127394053Y-85063793D01*
X127394050Y-85063795D01*
X127274525Y-85180843D01*
X127269493Y-85185771D01*
X127171235Y-85338238D01*
X127168826Y-85344858D01*
X127168824Y-85344861D01*
X127145806Y-85408102D01*
X127109197Y-85508685D01*
X127086463Y-85688640D01*
X127091624Y-85741273D01*
X127098535Y-85811764D01*
X127085275Y-85881511D01*
X127036412Y-85933018D01*
X127013742Y-85943337D01*
X126953579Y-85963818D01*
X126939457Y-85972506D01*
X126805095Y-86055166D01*
X126805092Y-86055168D01*
X126799088Y-86058862D01*
X126794053Y-86063793D01*
X126794050Y-86063795D01*
X126700033Y-86155864D01*
X126637368Y-86189235D01*
X126566609Y-86183429D01*
X126537814Y-86167777D01*
X126462094Y-86112763D01*
X126462093Y-86112762D01*
X126456752Y-86108882D01*
X126450724Y-86106198D01*
X126450722Y-86106197D01*
X126288319Y-86033891D01*
X126288318Y-86033891D01*
X126282288Y-86031206D01*
X126188887Y-86011353D01*
X126101944Y-85992872D01*
X126101939Y-85992872D01*
X126095487Y-85991500D01*
X125904513Y-85991500D01*
X125898061Y-85992872D01*
X125898056Y-85992872D01*
X125811113Y-86011353D01*
X125717712Y-86031206D01*
X125711682Y-86033891D01*
X125711681Y-86033891D01*
X125549278Y-86106197D01*
X125549276Y-86106198D01*
X125543248Y-86108882D01*
X125388747Y-86221134D01*
X125384326Y-86226044D01*
X125384325Y-86226045D01*
X125279497Y-86342469D01*
X125260960Y-86363056D01*
X125257659Y-86368774D01*
X125169971Y-86520654D01*
X125165473Y-86528444D01*
X125106458Y-86710072D01*
X125105768Y-86716633D01*
X125105768Y-86716635D01*
X125090474Y-86862151D01*
X125086496Y-86900000D01*
X119118105Y-86900000D01*
X119134527Y-86871556D01*
X119193542Y-86689928D01*
X119194413Y-86681646D01*
X119212814Y-86506565D01*
X119213504Y-86500000D01*
X119197915Y-86351677D01*
X119194232Y-86316635D01*
X119194232Y-86316633D01*
X119193542Y-86310072D01*
X119134527Y-86128444D01*
X119039040Y-85963056D01*
X118989595Y-85908141D01*
X118915675Y-85826045D01*
X118915674Y-85826044D01*
X118911253Y-85821134D01*
X118812157Y-85749136D01*
X118762094Y-85712763D01*
X118762093Y-85712762D01*
X118756752Y-85708882D01*
X118750724Y-85706198D01*
X118750722Y-85706197D01*
X118588319Y-85633891D01*
X118588318Y-85633891D01*
X118582288Y-85631206D01*
X118488887Y-85611353D01*
X118401944Y-85592872D01*
X118401939Y-85592872D01*
X118395487Y-85591500D01*
X118204513Y-85591500D01*
X118198061Y-85592872D01*
X118198056Y-85592872D01*
X118111113Y-85611353D01*
X118017712Y-85631206D01*
X118011682Y-85633891D01*
X118011681Y-85633891D01*
X117849278Y-85706197D01*
X117849276Y-85706198D01*
X117843248Y-85708882D01*
X117837907Y-85712762D01*
X117837906Y-85712763D01*
X117787843Y-85749136D01*
X117688747Y-85821134D01*
X117684326Y-85826044D01*
X117684325Y-85826045D01*
X117610406Y-85908141D01*
X117560960Y-85963056D01*
X117465473Y-86128444D01*
X117406458Y-86310072D01*
X117405768Y-86316633D01*
X117405768Y-86316635D01*
X117402085Y-86351677D01*
X117386496Y-86500000D01*
X110886521Y-86500000D01*
X110836064Y-86355106D01*
X110836062Y-86355103D01*
X110833745Y-86348448D01*
X110737626Y-86194624D01*
X110732664Y-86189627D01*
X110614778Y-86070915D01*
X110614774Y-86070912D01*
X110609815Y-86065918D01*
X110598697Y-86058862D01*
X110548335Y-86026902D01*
X110456666Y-85968727D01*
X110426957Y-85958148D01*
X110292425Y-85910243D01*
X110292420Y-85910242D01*
X110285790Y-85907881D01*
X110278802Y-85907048D01*
X110278799Y-85907047D01*
X110155698Y-85892368D01*
X110105680Y-85886404D01*
X110098677Y-85887140D01*
X110098676Y-85887140D01*
X109932288Y-85904628D01*
X109932286Y-85904629D01*
X109925288Y-85905364D01*
X109753579Y-85963818D01*
X109739457Y-85972506D01*
X109605095Y-86055166D01*
X109605092Y-86055168D01*
X109599088Y-86058862D01*
X109594053Y-86063793D01*
X109594050Y-86063795D01*
X109558140Y-86098961D01*
X109469493Y-86185771D01*
X109371235Y-86338238D01*
X109368826Y-86344858D01*
X109368824Y-86344861D01*
X109312358Y-86500000D01*
X109309197Y-86508685D01*
X109286463Y-86688640D01*
X104208500Y-86688640D01*
X104208500Y-83500000D01*
X120186496Y-83500000D01*
X120206458Y-83689928D01*
X120265473Y-83871556D01*
X120360960Y-84036944D01*
X120488747Y-84178866D01*
X120643248Y-84291118D01*
X120649276Y-84293802D01*
X120649278Y-84293803D01*
X120811681Y-84366109D01*
X120817712Y-84368794D01*
X120911113Y-84388647D01*
X120998056Y-84407128D01*
X120998061Y-84407128D01*
X121004513Y-84408500D01*
X121195487Y-84408500D01*
X121201939Y-84407128D01*
X121201944Y-84407128D01*
X121288887Y-84388647D01*
X121382288Y-84368794D01*
X121388319Y-84366109D01*
X121550722Y-84293803D01*
X121550724Y-84293802D01*
X121556752Y-84291118D01*
X121711253Y-84178866D01*
X121839040Y-84036944D01*
X121934527Y-83871556D01*
X121993542Y-83689928D01*
X122013504Y-83500000D01*
X122002145Y-83391926D01*
X122014917Y-83322087D01*
X122053394Y-83276819D01*
X122064520Y-83268735D01*
X122086753Y-83252582D01*
X122214540Y-83110660D01*
X122296458Y-82968774D01*
X122306723Y-82950995D01*
X122306724Y-82950994D01*
X122310027Y-82945272D01*
X122369042Y-82763644D01*
X122389004Y-82573716D01*
X122372091Y-82412800D01*
X122369732Y-82390351D01*
X122369732Y-82390349D01*
X122369042Y-82383788D01*
X122310027Y-82202160D01*
X122278798Y-82148069D01*
X122217841Y-82042490D01*
X122214540Y-82036772D01*
X122202124Y-82022982D01*
X122091175Y-81899761D01*
X122091174Y-81899760D01*
X122086753Y-81894850D01*
X121932252Y-81782598D01*
X121926224Y-81779914D01*
X121926222Y-81779913D01*
X121763819Y-81707607D01*
X121763818Y-81707607D01*
X121757788Y-81704922D01*
X121664388Y-81685069D01*
X121577444Y-81666588D01*
X121577439Y-81666588D01*
X121570987Y-81665216D01*
X121380013Y-81665216D01*
X121373561Y-81666588D01*
X121373556Y-81666588D01*
X121286612Y-81685069D01*
X121193212Y-81704922D01*
X121187182Y-81707607D01*
X121187181Y-81707607D01*
X121024778Y-81779913D01*
X121024776Y-81779914D01*
X121018748Y-81782598D01*
X120864247Y-81894850D01*
X120859826Y-81899760D01*
X120859825Y-81899761D01*
X120748877Y-82022982D01*
X120736460Y-82036772D01*
X120733159Y-82042490D01*
X120672203Y-82148069D01*
X120640973Y-82202160D01*
X120581958Y-82383788D01*
X120581268Y-82390349D01*
X120581268Y-82390351D01*
X120578909Y-82412800D01*
X120561996Y-82573716D01*
X120562686Y-82580281D01*
X120573355Y-82681790D01*
X120560583Y-82751629D01*
X120522106Y-82796897D01*
X120488747Y-82821134D01*
X120360960Y-82963056D01*
X120357659Y-82968774D01*
X120275741Y-83110660D01*
X120265473Y-83128444D01*
X120206458Y-83310072D01*
X120186496Y-83500000D01*
X104208500Y-83500000D01*
X104208500Y-78580229D01*
X108294874Y-78580229D01*
X108312574Y-78760749D01*
X108369829Y-78932862D01*
X108373476Y-78938884D01*
X108373477Y-78938886D01*
X108459222Y-79080468D01*
X108463791Y-79088013D01*
X108589793Y-79218491D01*
X108595685Y-79222346D01*
X108595689Y-79222350D01*
X108673108Y-79273011D01*
X108719157Y-79327048D01*
X108728278Y-79394431D01*
X108729050Y-79394529D01*
X108706316Y-79574484D01*
X108724016Y-79755004D01*
X108781271Y-79927117D01*
X108784918Y-79933139D01*
X108784919Y-79933141D01*
X108866297Y-80067512D01*
X108875233Y-80082268D01*
X108880122Y-80087331D01*
X108880123Y-80087332D01*
X109001235Y-80212746D01*
X108999557Y-80214366D01*
X109033130Y-80264073D01*
X109034751Y-80335051D01*
X108997742Y-80395638D01*
X108979111Y-80409631D01*
X108899088Y-80458862D01*
X108894053Y-80463793D01*
X108894050Y-80463795D01*
X108774525Y-80580843D01*
X108769493Y-80585771D01*
X108671235Y-80738238D01*
X108668826Y-80744858D01*
X108668824Y-80744861D01*
X108628676Y-80855166D01*
X108609197Y-80908685D01*
X108586463Y-81088640D01*
X108604163Y-81269160D01*
X108661418Y-81441273D01*
X108665065Y-81447295D01*
X108665066Y-81447297D01*
X108708344Y-81518757D01*
X108755380Y-81596424D01*
X108881382Y-81726902D01*
X109033159Y-81826222D01*
X109039763Y-81828678D01*
X109039765Y-81828679D01*
X109196558Y-81886990D01*
X109196560Y-81886990D01*
X109203168Y-81889448D01*
X109280459Y-81899761D01*
X109375980Y-81912507D01*
X109375984Y-81912507D01*
X109382961Y-81913438D01*
X109389972Y-81912800D01*
X109389976Y-81912800D01*
X109533241Y-81899761D01*
X109563600Y-81896998D01*
X109570302Y-81894820D01*
X109570304Y-81894820D01*
X109729409Y-81843124D01*
X109729412Y-81843123D01*
X109736108Y-81840947D01*
X109856532Y-81769160D01*
X109885860Y-81751677D01*
X109885862Y-81751676D01*
X109891912Y-81748069D01*
X110023266Y-81622982D01*
X110123643Y-81471902D01*
X110178784Y-81326744D01*
X110185555Y-81308920D01*
X110185556Y-81308918D01*
X110188055Y-81302338D01*
X110190212Y-81286990D01*
X110212748Y-81126639D01*
X110212748Y-81126636D01*
X110213299Y-81122717D01*
X110213616Y-81100000D01*
X110193397Y-80919745D01*
X110191080Y-80913091D01*
X110147742Y-80788640D01*
X111486463Y-80788640D01*
X111504163Y-80969160D01*
X111561418Y-81141273D01*
X111565065Y-81147295D01*
X111565066Y-81147297D01*
X111620782Y-81239296D01*
X111638961Y-81307926D01*
X111631408Y-81347661D01*
X111609197Y-81408685D01*
X111586463Y-81588640D01*
X111604163Y-81769160D01*
X111661418Y-81941273D01*
X111665065Y-81947295D01*
X111665066Y-81947297D01*
X111722717Y-82042490D01*
X111755380Y-82096424D01*
X111760269Y-82101487D01*
X111760270Y-82101488D01*
X111837121Y-82181068D01*
X111881382Y-82226902D01*
X111887278Y-82230760D01*
X111989477Y-82297637D01*
X112033159Y-82326222D01*
X112039763Y-82328678D01*
X112039765Y-82328679D01*
X112196558Y-82386990D01*
X112196560Y-82386990D01*
X112203168Y-82389448D01*
X112286995Y-82400633D01*
X112375980Y-82412507D01*
X112375984Y-82412507D01*
X112382961Y-82413438D01*
X112389972Y-82412800D01*
X112389976Y-82412800D01*
X112532459Y-82399832D01*
X112563600Y-82396998D01*
X112570302Y-82394820D01*
X112570304Y-82394820D01*
X112729409Y-82343124D01*
X112729412Y-82343123D01*
X112736108Y-82340947D01*
X112891912Y-82248069D01*
X113023266Y-82122982D01*
X113123643Y-81971902D01*
X113165423Y-81861917D01*
X113185555Y-81808920D01*
X113185556Y-81808918D01*
X113188055Y-81802338D01*
X113189034Y-81795369D01*
X113189037Y-81795359D01*
X113190635Y-81783988D01*
X113219924Y-81719315D01*
X113279529Y-81680743D01*
X113350526Y-81680520D01*
X113410372Y-81718715D01*
X113434965Y-81761753D01*
X113461418Y-81841273D01*
X113465065Y-81847295D01*
X113465066Y-81847297D01*
X113544085Y-81977773D01*
X113555380Y-81996424D01*
X113681382Y-82126902D01*
X113833159Y-82226222D01*
X113839763Y-82228678D01*
X113839765Y-82228679D01*
X113996558Y-82286990D01*
X113996560Y-82286990D01*
X114003168Y-82289448D01*
X114086995Y-82300633D01*
X114175980Y-82312507D01*
X114175984Y-82312507D01*
X114182961Y-82313438D01*
X114189972Y-82312800D01*
X114189976Y-82312800D01*
X114332459Y-82299832D01*
X114363600Y-82296998D01*
X114370302Y-82294820D01*
X114370304Y-82294820D01*
X114529409Y-82243124D01*
X114529412Y-82243123D01*
X114536108Y-82240947D01*
X114691912Y-82148069D01*
X114823266Y-82022982D01*
X114923643Y-81871902D01*
X114972529Y-81743211D01*
X114985555Y-81708920D01*
X114985556Y-81708918D01*
X114988055Y-81702338D01*
X115000033Y-81617111D01*
X115012748Y-81526639D01*
X115012748Y-81526636D01*
X115013299Y-81522717D01*
X115013616Y-81500000D01*
X114993397Y-81319745D01*
X114991080Y-81313091D01*
X114936064Y-81155106D01*
X114936062Y-81155103D01*
X114933745Y-81148448D01*
X114837626Y-80994624D01*
X114805379Y-80962151D01*
X114714778Y-80870915D01*
X114714774Y-80870912D01*
X114709815Y-80865918D01*
X114698697Y-80858862D01*
X114635501Y-80818757D01*
X114556666Y-80768727D01*
X114499716Y-80748448D01*
X114392425Y-80710243D01*
X114392420Y-80710242D01*
X114385790Y-80707881D01*
X114378802Y-80707048D01*
X114378799Y-80707047D01*
X114255698Y-80692368D01*
X114205680Y-80686404D01*
X114198677Y-80687140D01*
X114198676Y-80687140D01*
X114032288Y-80704628D01*
X114032286Y-80704629D01*
X114025288Y-80705364D01*
X113853579Y-80763818D01*
X113847575Y-80767512D01*
X113705095Y-80855166D01*
X113705092Y-80855168D01*
X113699088Y-80858862D01*
X113694053Y-80863793D01*
X113694050Y-80863795D01*
X113579630Y-80975844D01*
X113569493Y-80985771D01*
X113471235Y-81138238D01*
X113468826Y-81144858D01*
X113468824Y-81144861D01*
X113415658Y-81290934D01*
X113409197Y-81308685D01*
X113408314Y-81315674D01*
X113406658Y-81322520D01*
X113404411Y-81321976D01*
X113380402Y-81377024D01*
X113321342Y-81416425D01*
X113250356Y-81417640D01*
X113189981Y-81380285D01*
X113164788Y-81337591D01*
X113154457Y-81307926D01*
X113133745Y-81248448D01*
X113080331Y-81162967D01*
X113061195Y-81094599D01*
X113069396Y-81051456D01*
X113088055Y-81002338D01*
X113089733Y-80990401D01*
X113112748Y-80826639D01*
X113112748Y-80826636D01*
X113113299Y-80822717D01*
X113113616Y-80800000D01*
X113093397Y-80619745D01*
X113091080Y-80613091D01*
X113047742Y-80488640D01*
X124586463Y-80488640D01*
X124604163Y-80669160D01*
X124661418Y-80841273D01*
X124665065Y-80847295D01*
X124665066Y-80847297D01*
X124751264Y-80989627D01*
X124755380Y-80996424D01*
X124881382Y-81126902D01*
X125033159Y-81226222D01*
X125039763Y-81228678D01*
X125039765Y-81228679D01*
X125196558Y-81286990D01*
X125196560Y-81286990D01*
X125203168Y-81289448D01*
X125286995Y-81300633D01*
X125375980Y-81312507D01*
X125375984Y-81312507D01*
X125382961Y-81313438D01*
X125389972Y-81312800D01*
X125389976Y-81312800D01*
X125532459Y-81299832D01*
X125563600Y-81296998D01*
X125570302Y-81294820D01*
X125570304Y-81294820D01*
X125729409Y-81243124D01*
X125729412Y-81243123D01*
X125736108Y-81240947D01*
X125866919Y-81162968D01*
X125885860Y-81151677D01*
X125885862Y-81151676D01*
X125891912Y-81148069D01*
X126023266Y-81022982D01*
X126123643Y-80871902D01*
X126188055Y-80702338D01*
X126190191Y-80687140D01*
X126212748Y-80526639D01*
X126212748Y-80526636D01*
X126213299Y-80522717D01*
X126213616Y-80500000D01*
X126193397Y-80319745D01*
X126190723Y-80312066D01*
X126136064Y-80155106D01*
X126136062Y-80155103D01*
X126133745Y-80148448D01*
X126083171Y-80067512D01*
X126041359Y-80000598D01*
X126037626Y-79994624D01*
X126032664Y-79989627D01*
X125914778Y-79870915D01*
X125914774Y-79870912D01*
X125909815Y-79865918D01*
X125898697Y-79858862D01*
X125832723Y-79816994D01*
X125756666Y-79768727D01*
X125718127Y-79755004D01*
X125592425Y-79710243D01*
X125592420Y-79710242D01*
X125585790Y-79707881D01*
X125578802Y-79707048D01*
X125578799Y-79707047D01*
X125451829Y-79691907D01*
X125405680Y-79686404D01*
X125398677Y-79687140D01*
X125398676Y-79687140D01*
X125232288Y-79704628D01*
X125232286Y-79704629D01*
X125225288Y-79705364D01*
X125053579Y-79763818D01*
X125047575Y-79767512D01*
X124905095Y-79855166D01*
X124905092Y-79855168D01*
X124899088Y-79858862D01*
X124894053Y-79863793D01*
X124894050Y-79863795D01*
X124774525Y-79980843D01*
X124769493Y-79985771D01*
X124671235Y-80138238D01*
X124668826Y-80144858D01*
X124668824Y-80144861D01*
X124614315Y-80294624D01*
X124609197Y-80308685D01*
X124586463Y-80488640D01*
X113047742Y-80488640D01*
X113036064Y-80455106D01*
X113036062Y-80455103D01*
X113033745Y-80448448D01*
X112957697Y-80326744D01*
X112941359Y-80300598D01*
X112937626Y-80294624D01*
X112918915Y-80275782D01*
X112814778Y-80170915D01*
X112814774Y-80170912D01*
X112809815Y-80165918D01*
X112798697Y-80158862D01*
X112731221Y-80116041D01*
X112656666Y-80068727D01*
X112611980Y-80052815D01*
X112492425Y-80010243D01*
X112492420Y-80010242D01*
X112485790Y-80007881D01*
X112478802Y-80007048D01*
X112478799Y-80007047D01*
X112355698Y-79992368D01*
X112305680Y-79986404D01*
X112298677Y-79987140D01*
X112298676Y-79987140D01*
X112132288Y-80004628D01*
X112132286Y-80004629D01*
X112125288Y-80005364D01*
X111953579Y-80063818D01*
X111923589Y-80082268D01*
X111805095Y-80155166D01*
X111805092Y-80155168D01*
X111799088Y-80158862D01*
X111794053Y-80163793D01*
X111794050Y-80163795D01*
X111718762Y-80237523D01*
X111669493Y-80285771D01*
X111571235Y-80438238D01*
X111568826Y-80444858D01*
X111568824Y-80444861D01*
X111514315Y-80594624D01*
X111509197Y-80608685D01*
X111486463Y-80788640D01*
X110147742Y-80788640D01*
X110136064Y-80755106D01*
X110136062Y-80755103D01*
X110133745Y-80748448D01*
X110106823Y-80705364D01*
X110041359Y-80600598D01*
X110037626Y-80594624D01*
X109916643Y-80472794D01*
X109882836Y-80410364D01*
X109888148Y-80339566D01*
X109930892Y-80282879D01*
X109941531Y-80275782D01*
X110005710Y-80237523D01*
X110005713Y-80237521D01*
X110011765Y-80233913D01*
X110143119Y-80108826D01*
X110243496Y-79957746D01*
X110289234Y-79837342D01*
X110305408Y-79794764D01*
X110305409Y-79794762D01*
X110307908Y-79788182D01*
X110311332Y-79763818D01*
X110332601Y-79612483D01*
X110332601Y-79612480D01*
X110333152Y-79608561D01*
X110333469Y-79585844D01*
X110313250Y-79405589D01*
X110310933Y-79398935D01*
X110255917Y-79240950D01*
X110255915Y-79240947D01*
X110253598Y-79234292D01*
X110157479Y-79080468D01*
X110086429Y-79008920D01*
X110034631Y-78956759D01*
X110034627Y-78956756D01*
X110029668Y-78951762D01*
X109955568Y-78904737D01*
X109908770Y-78851348D01*
X109903018Y-78812568D01*
X112855058Y-78812568D01*
X112872758Y-78993088D01*
X112930013Y-79165201D01*
X112933660Y-79171223D01*
X112933661Y-79171225D01*
X113012551Y-79301488D01*
X113023975Y-79320352D01*
X113028864Y-79325415D01*
X113028865Y-79325416D01*
X113055727Y-79353232D01*
X113149977Y-79450830D01*
X113155873Y-79454688D01*
X113259293Y-79522364D01*
X113301754Y-79550150D01*
X113308358Y-79552606D01*
X113308360Y-79552607D01*
X113465153Y-79610918D01*
X113465155Y-79610918D01*
X113471763Y-79613376D01*
X113555590Y-79624561D01*
X113644575Y-79636435D01*
X113644579Y-79636435D01*
X113651556Y-79637366D01*
X113658567Y-79636728D01*
X113658571Y-79636728D01*
X113801054Y-79623760D01*
X113832195Y-79620926D01*
X113838897Y-79618748D01*
X113838899Y-79618748D01*
X113998004Y-79567052D01*
X113998007Y-79567051D01*
X114004703Y-79564875D01*
X114160507Y-79471997D01*
X114165613Y-79467135D01*
X114208088Y-79426687D01*
X114271213Y-79394194D01*
X114341883Y-79400987D01*
X114375295Y-79420847D01*
X114376487Y-79421833D01*
X114381382Y-79426902D01*
X114533159Y-79526222D01*
X114539763Y-79528678D01*
X114539765Y-79528679D01*
X114696558Y-79586990D01*
X114696560Y-79586990D01*
X114703168Y-79589448D01*
X114786995Y-79600633D01*
X114875980Y-79612507D01*
X114875984Y-79612507D01*
X114882961Y-79613438D01*
X114889972Y-79612800D01*
X114889976Y-79612800D01*
X115032459Y-79599832D01*
X115063600Y-79596998D01*
X115135119Y-79573760D01*
X115206085Y-79571732D01*
X115264690Y-79606066D01*
X115376483Y-79721830D01*
X115376488Y-79721834D01*
X115381382Y-79726902D01*
X115533159Y-79826222D01*
X115539763Y-79828678D01*
X115539765Y-79828679D01*
X115696558Y-79886990D01*
X115696560Y-79886990D01*
X115703168Y-79889448D01*
X115786995Y-79900633D01*
X115875980Y-79912507D01*
X115875984Y-79912507D01*
X115882961Y-79913438D01*
X115889972Y-79912800D01*
X115889976Y-79912800D01*
X116032459Y-79899832D01*
X116063600Y-79896998D01*
X116070302Y-79894820D01*
X116070304Y-79894820D01*
X116229409Y-79843124D01*
X116229412Y-79843123D01*
X116236108Y-79840947D01*
X116386679Y-79751188D01*
X116455432Y-79733489D01*
X116522842Y-79755771D01*
X116558971Y-79794147D01*
X116576455Y-79823017D01*
X116581344Y-79828080D01*
X116581345Y-79828081D01*
X116593770Y-79840947D01*
X116702457Y-79953495D01*
X116854234Y-80052815D01*
X116860838Y-80055271D01*
X116860840Y-80055272D01*
X117017633Y-80113583D01*
X117017635Y-80113583D01*
X117024243Y-80116041D01*
X117108070Y-80127226D01*
X117197055Y-80139100D01*
X117197059Y-80139100D01*
X117204036Y-80140031D01*
X117211047Y-80139393D01*
X117211051Y-80139393D01*
X117353534Y-80126425D01*
X117384675Y-80123591D01*
X117391377Y-80121413D01*
X117391379Y-80121413D01*
X117550484Y-80069717D01*
X117550487Y-80069716D01*
X117557183Y-80067540D01*
X117669479Y-80000598D01*
X117706935Y-79978270D01*
X117706937Y-79978269D01*
X117712987Y-79974662D01*
X117844341Y-79849575D01*
X117944718Y-79698495D01*
X117987511Y-79585844D01*
X118006630Y-79535513D01*
X118006631Y-79535511D01*
X118009130Y-79528931D01*
X118010110Y-79521959D01*
X118033823Y-79353232D01*
X118033823Y-79353229D01*
X118034374Y-79349310D01*
X118034691Y-79326593D01*
X118014472Y-79146338D01*
X117991534Y-79080468D01*
X117957139Y-78981699D01*
X117957137Y-78981696D01*
X117954820Y-78975041D01*
X117858701Y-78821217D01*
X117850112Y-78812568D01*
X117826351Y-78788640D01*
X119686463Y-78788640D01*
X119704163Y-78969160D01*
X119761418Y-79141273D01*
X119765065Y-79147295D01*
X119765066Y-79147297D01*
X119841201Y-79273011D01*
X119855380Y-79296424D01*
X119860269Y-79301487D01*
X119860270Y-79301488D01*
X119904134Y-79346910D01*
X119981382Y-79426902D01*
X120133159Y-79526222D01*
X120139763Y-79528678D01*
X120139765Y-79528679D01*
X120296558Y-79586990D01*
X120296560Y-79586990D01*
X120303168Y-79589448D01*
X120386995Y-79600633D01*
X120475980Y-79612507D01*
X120475984Y-79612507D01*
X120482961Y-79613438D01*
X120489972Y-79612800D01*
X120489976Y-79612800D01*
X120632459Y-79599832D01*
X120663600Y-79596998D01*
X120670302Y-79594820D01*
X120670304Y-79594820D01*
X120829409Y-79543124D01*
X120829412Y-79543123D01*
X120836108Y-79540947D01*
X120945720Y-79475605D01*
X120985860Y-79451677D01*
X120985862Y-79451676D01*
X120991912Y-79448069D01*
X121123266Y-79322982D01*
X121223643Y-79171902D01*
X121288055Y-79002338D01*
X121290956Y-78981699D01*
X121312748Y-78826639D01*
X121312748Y-78826636D01*
X121313299Y-78822717D01*
X121313452Y-78811738D01*
X121313561Y-78803962D01*
X121313561Y-78803957D01*
X121313616Y-78800000D01*
X121293397Y-78619745D01*
X121290124Y-78610346D01*
X121236064Y-78455106D01*
X121236062Y-78455103D01*
X121233745Y-78448448D01*
X121167523Y-78342469D01*
X121141359Y-78300598D01*
X121137626Y-78294624D01*
X121132664Y-78289627D01*
X121014778Y-78170915D01*
X121014774Y-78170912D01*
X121009815Y-78165918D01*
X120998697Y-78158862D01*
X120899966Y-78096206D01*
X120856666Y-78068727D01*
X120818582Y-78055166D01*
X120692425Y-78010243D01*
X120692420Y-78010242D01*
X120685790Y-78007881D01*
X120678802Y-78007048D01*
X120678799Y-78007047D01*
X120555698Y-77992368D01*
X120505680Y-77986404D01*
X120498677Y-77987140D01*
X120498676Y-77987140D01*
X120332288Y-78004628D01*
X120332286Y-78004629D01*
X120325288Y-78005364D01*
X120153579Y-78063818D01*
X120100933Y-78096206D01*
X120005095Y-78155166D01*
X120005092Y-78155168D01*
X119999088Y-78158862D01*
X119994053Y-78163793D01*
X119994050Y-78163795D01*
X119875060Y-78280319D01*
X119869493Y-78285771D01*
X119771235Y-78438238D01*
X119768826Y-78444858D01*
X119768824Y-78444861D01*
X119722100Y-78573235D01*
X119709197Y-78608685D01*
X119686463Y-78788640D01*
X117826351Y-78788640D01*
X117735853Y-78697508D01*
X117735849Y-78697505D01*
X117730890Y-78692511D01*
X117722580Y-78687237D01*
X117583688Y-78599094D01*
X117577741Y-78595320D01*
X117578342Y-78594373D01*
X117530867Y-78551077D01*
X117518149Y-78519657D01*
X117517897Y-78519745D01*
X117516123Y-78514652D01*
X117473988Y-78393655D01*
X117460564Y-78355106D01*
X117460562Y-78355103D01*
X117458245Y-78348448D01*
X117430953Y-78304771D01*
X117365859Y-78200598D01*
X117362126Y-78194624D01*
X117355273Y-78187723D01*
X117239278Y-78070915D01*
X117239274Y-78070912D01*
X117234315Y-78065918D01*
X117227428Y-78061547D01*
X117137737Y-78004628D01*
X117081166Y-77968727D01*
X117051963Y-77958328D01*
X116916925Y-77910243D01*
X116916920Y-77910242D01*
X116910290Y-77907881D01*
X116903302Y-77907048D01*
X116903299Y-77907047D01*
X116780198Y-77892368D01*
X116730180Y-77886404D01*
X116723177Y-77887140D01*
X116723176Y-77887140D01*
X116556788Y-77904628D01*
X116556786Y-77904629D01*
X116549788Y-77905364D01*
X116378079Y-77963818D01*
X116372075Y-77967512D01*
X116229595Y-78055166D01*
X116229592Y-78055168D01*
X116223588Y-78058862D01*
X116218553Y-78063793D01*
X116218550Y-78063795D01*
X116118121Y-78162143D01*
X116093993Y-78185771D01*
X116062978Y-78233896D01*
X116009266Y-78280319D01*
X115942150Y-78290753D01*
X115905680Y-78286404D01*
X115898677Y-78287140D01*
X115898676Y-78287140D01*
X115732288Y-78304628D01*
X115732286Y-78304629D01*
X115725288Y-78305364D01*
X115695158Y-78315621D01*
X115667542Y-78325022D01*
X115596609Y-78328040D01*
X115537531Y-78294528D01*
X115414778Y-78170915D01*
X115414774Y-78170912D01*
X115409815Y-78165918D01*
X115398697Y-78158862D01*
X115299966Y-78096206D01*
X115256666Y-78068727D01*
X115218582Y-78055166D01*
X115092425Y-78010243D01*
X115092420Y-78010242D01*
X115085790Y-78007881D01*
X115078802Y-78007048D01*
X115078799Y-78007047D01*
X114955698Y-77992368D01*
X114905680Y-77986404D01*
X114898677Y-77987140D01*
X114898676Y-77987140D01*
X114732288Y-78004628D01*
X114732286Y-78004629D01*
X114725288Y-78005364D01*
X114553579Y-78063818D01*
X114500933Y-78096206D01*
X114405095Y-78155166D01*
X114405092Y-78155168D01*
X114399088Y-78158862D01*
X114394053Y-78163793D01*
X114394050Y-78163795D01*
X114371305Y-78186069D01*
X114362344Y-78194845D01*
X114361007Y-78196154D01*
X114298342Y-78229525D01*
X114227583Y-78223719D01*
X114189287Y-78198729D01*
X114188862Y-78199258D01*
X114183540Y-78194979D01*
X114183447Y-78194918D01*
X114178410Y-78189846D01*
X114025261Y-78092655D01*
X113964208Y-78070915D01*
X113861020Y-78034171D01*
X113861015Y-78034170D01*
X113854385Y-78031809D01*
X113847397Y-78030976D01*
X113847394Y-78030975D01*
X113724293Y-78016296D01*
X113674275Y-78010332D01*
X113667272Y-78011068D01*
X113667271Y-78011068D01*
X113500883Y-78028556D01*
X113500881Y-78028557D01*
X113493883Y-78029292D01*
X113322174Y-78087746D01*
X113314195Y-78092655D01*
X113173690Y-78179094D01*
X113173687Y-78179096D01*
X113167683Y-78182790D01*
X113162648Y-78187721D01*
X113162645Y-78187723D01*
X113043266Y-78304628D01*
X113038088Y-78309699D01*
X112939830Y-78462166D01*
X112937421Y-78468786D01*
X112937419Y-78468789D01*
X112880201Y-78625994D01*
X112877792Y-78632613D01*
X112855058Y-78812568D01*
X109903018Y-78812568D01*
X109898309Y-78780817D01*
X109921159Y-78618231D01*
X109921160Y-78618221D01*
X109921710Y-78614306D01*
X109922027Y-78591589D01*
X109901808Y-78411334D01*
X109899491Y-78404680D01*
X109844475Y-78246695D01*
X109844473Y-78246692D01*
X109842156Y-78240037D01*
X109838420Y-78234058D01*
X109749770Y-78092187D01*
X109746037Y-78086213D01*
X109737246Y-78077360D01*
X109623189Y-77962504D01*
X109623185Y-77962501D01*
X109618226Y-77957507D01*
X109607108Y-77950451D01*
X109558949Y-77919889D01*
X109465077Y-77860316D01*
X109435874Y-77849917D01*
X109300836Y-77801832D01*
X109300831Y-77801831D01*
X109294201Y-77799470D01*
X109287213Y-77798637D01*
X109287210Y-77798636D01*
X109164109Y-77783957D01*
X109114091Y-77777993D01*
X109107088Y-77778729D01*
X109107087Y-77778729D01*
X108940699Y-77796217D01*
X108940697Y-77796218D01*
X108933699Y-77796953D01*
X108761990Y-77855407D01*
X108755986Y-77859101D01*
X108613506Y-77946755D01*
X108613503Y-77946757D01*
X108607499Y-77950451D01*
X108602464Y-77955382D01*
X108602461Y-77955384D01*
X108484485Y-78070915D01*
X108477904Y-78077360D01*
X108379646Y-78229827D01*
X108377237Y-78236447D01*
X108377235Y-78236450D01*
X108320017Y-78393655D01*
X108317608Y-78400274D01*
X108294874Y-78580229D01*
X104208500Y-78580229D01*
X104208500Y-76830132D01*
X104221983Y-76774400D01*
X104223643Y-76771902D01*
X104288055Y-76602338D01*
X104288384Y-76600000D01*
X123786496Y-76600000D01*
X123787186Y-76606565D01*
X123803872Y-76765319D01*
X123806458Y-76789928D01*
X123865473Y-76971556D01*
X123960960Y-77136944D01*
X123965378Y-77141851D01*
X123965379Y-77141852D01*
X124033269Y-77217251D01*
X124088747Y-77278866D01*
X124243248Y-77391118D01*
X124249276Y-77393802D01*
X124249278Y-77393803D01*
X124411681Y-77466109D01*
X124417712Y-77468794D01*
X124483365Y-77482749D01*
X124598056Y-77507128D01*
X124598061Y-77507128D01*
X124604513Y-77508500D01*
X124795487Y-77508500D01*
X124801939Y-77507128D01*
X124801944Y-77507128D01*
X124916635Y-77482749D01*
X124982288Y-77468794D01*
X124988319Y-77466109D01*
X125150722Y-77393803D01*
X125150724Y-77393802D01*
X125156752Y-77391118D01*
X125311253Y-77278866D01*
X125439040Y-77136944D01*
X125442199Y-77131472D01*
X125498336Y-77088184D01*
X125569072Y-77082109D01*
X125631864Y-77115240D01*
X125659586Y-77159760D01*
X125660747Y-77159243D01*
X125663431Y-77165272D01*
X125665473Y-77171556D01*
X125668776Y-77177278D01*
X125668777Y-77177279D01*
X125691855Y-77217251D01*
X125760960Y-77336944D01*
X125765378Y-77341851D01*
X125765379Y-77341852D01*
X125879678Y-77468794D01*
X125888747Y-77478866D01*
X126043248Y-77591118D01*
X126049276Y-77593802D01*
X126049278Y-77593803D01*
X126192408Y-77657528D01*
X126217712Y-77668794D01*
X126297168Y-77685683D01*
X126398056Y-77707128D01*
X126398061Y-77707128D01*
X126404513Y-77708500D01*
X126595487Y-77708500D01*
X126601939Y-77707128D01*
X126601944Y-77707128D01*
X126702832Y-77685683D01*
X126782288Y-77668794D01*
X126807592Y-77657528D01*
X126950722Y-77593803D01*
X126950724Y-77593802D01*
X126956752Y-77591118D01*
X127020489Y-77544810D01*
X127087356Y-77520952D01*
X127156508Y-77537032D01*
X127205988Y-77587946D01*
X127220088Y-77657528D01*
X127214384Y-77685679D01*
X127206458Y-77710072D01*
X127205768Y-77716633D01*
X127205768Y-77716635D01*
X127191183Y-77855407D01*
X127186496Y-77900000D01*
X127187186Y-77906565D01*
X127204460Y-78070915D01*
X127206458Y-78089928D01*
X127265473Y-78271556D01*
X127268776Y-78277278D01*
X127268777Y-78277279D01*
X127274470Y-78287140D01*
X127360960Y-78436944D01*
X127365378Y-78441851D01*
X127365379Y-78441852D01*
X127435435Y-78519657D01*
X127488747Y-78578866D01*
X127643248Y-78691118D01*
X127649276Y-78693802D01*
X127649278Y-78693803D01*
X127811681Y-78766109D01*
X127817712Y-78768794D01*
X127878176Y-78781646D01*
X127998056Y-78807128D01*
X127998061Y-78807128D01*
X128004513Y-78808500D01*
X128195487Y-78808500D01*
X128201939Y-78807128D01*
X128201944Y-78807128D01*
X128321824Y-78781646D01*
X128382288Y-78768794D01*
X128388319Y-78766109D01*
X128550722Y-78693803D01*
X128550724Y-78693802D01*
X128556752Y-78691118D01*
X128711253Y-78578866D01*
X128764565Y-78519657D01*
X128834621Y-78441852D01*
X128834622Y-78441851D01*
X128839040Y-78436944D01*
X128925530Y-78287140D01*
X128931223Y-78277279D01*
X128931224Y-78277278D01*
X128934527Y-78271556D01*
X128993542Y-78089928D01*
X128995541Y-78070915D01*
X129012814Y-77906565D01*
X129013504Y-77900000D01*
X129008817Y-77855407D01*
X128994232Y-77716635D01*
X128994232Y-77716633D01*
X128993542Y-77710072D01*
X128934527Y-77528444D01*
X128930202Y-77520952D01*
X128856792Y-77393803D01*
X128839040Y-77363056D01*
X128711253Y-77221134D01*
X128556752Y-77108882D01*
X128550724Y-77106198D01*
X128550722Y-77106197D01*
X128388319Y-77033891D01*
X128388318Y-77033891D01*
X128382288Y-77031206D01*
X128288888Y-77011353D01*
X128201944Y-76992872D01*
X128201939Y-76992872D01*
X128195487Y-76991500D01*
X128004513Y-76991500D01*
X127998061Y-76992872D01*
X127998056Y-76992872D01*
X127911112Y-77011353D01*
X127817712Y-77031206D01*
X127811682Y-77033891D01*
X127811681Y-77033891D01*
X127649278Y-77106197D01*
X127649276Y-77106198D01*
X127643248Y-77108882D01*
X127637907Y-77112762D01*
X127637906Y-77112763D01*
X127579511Y-77155190D01*
X127512644Y-77179048D01*
X127443492Y-77162968D01*
X127394012Y-77112054D01*
X127379912Y-77042472D01*
X127385617Y-77014317D01*
X127391503Y-76996202D01*
X127393542Y-76989928D01*
X127394872Y-76977279D01*
X127412814Y-76806565D01*
X127413504Y-76800000D01*
X127393542Y-76610072D01*
X127334527Y-76428444D01*
X127328935Y-76418757D01*
X127242341Y-76268774D01*
X127239040Y-76263056D01*
X127218497Y-76240240D01*
X127115675Y-76126045D01*
X127115674Y-76126044D01*
X127111253Y-76121134D01*
X126997157Y-76038238D01*
X126962094Y-76012763D01*
X126962093Y-76012762D01*
X126956752Y-76008882D01*
X126950724Y-76006198D01*
X126950722Y-76006197D01*
X126788319Y-75933891D01*
X126788318Y-75933891D01*
X126782288Y-75931206D01*
X126688887Y-75911353D01*
X126601944Y-75892872D01*
X126601939Y-75892872D01*
X126595487Y-75891500D01*
X126404513Y-75891500D01*
X126398061Y-75892872D01*
X126398056Y-75892872D01*
X126311113Y-75911353D01*
X126217712Y-75931206D01*
X126211682Y-75933891D01*
X126211681Y-75933891D01*
X126049278Y-76006197D01*
X126049276Y-76006198D01*
X126043248Y-76008882D01*
X126037907Y-76012762D01*
X126037906Y-76012763D01*
X126002843Y-76038238D01*
X125888747Y-76121134D01*
X125760960Y-76263056D01*
X125757801Y-76268528D01*
X125701664Y-76311816D01*
X125630928Y-76317891D01*
X125568136Y-76284760D01*
X125540414Y-76240240D01*
X125539253Y-76240757D01*
X125536569Y-76234728D01*
X125534527Y-76228444D01*
X125510594Y-76186990D01*
X125481736Y-76137007D01*
X125439040Y-76063056D01*
X125427935Y-76050722D01*
X125315675Y-75926045D01*
X125315674Y-75926044D01*
X125311253Y-75921134D01*
X125201799Y-75841611D01*
X125162094Y-75812763D01*
X125162093Y-75812762D01*
X125156752Y-75808882D01*
X125150724Y-75806198D01*
X125150722Y-75806197D01*
X124988319Y-75733891D01*
X124988318Y-75733891D01*
X124982288Y-75731206D01*
X124888888Y-75711353D01*
X124801944Y-75692872D01*
X124801939Y-75692872D01*
X124795487Y-75691500D01*
X124604513Y-75691500D01*
X124598061Y-75692872D01*
X124598056Y-75692872D01*
X124511112Y-75711353D01*
X124417712Y-75731206D01*
X124411682Y-75733891D01*
X124411681Y-75733891D01*
X124249278Y-75806197D01*
X124249276Y-75806198D01*
X124243248Y-75808882D01*
X124237907Y-75812762D01*
X124237906Y-75812763D01*
X124198201Y-75841611D01*
X124088747Y-75921134D01*
X124084326Y-75926044D01*
X124084325Y-75926045D01*
X123972066Y-76050722D01*
X123960960Y-76063056D01*
X123918264Y-76137007D01*
X123889407Y-76186990D01*
X123865473Y-76228444D01*
X123806458Y-76410072D01*
X123786496Y-76600000D01*
X104288384Y-76600000D01*
X104289617Y-76591225D01*
X104312748Y-76426639D01*
X104312748Y-76426636D01*
X104313299Y-76422717D01*
X104313452Y-76411738D01*
X104313561Y-76403962D01*
X104313561Y-76403957D01*
X104313616Y-76400000D01*
X104293397Y-76219745D01*
X104291080Y-76213091D01*
X104236064Y-76055106D01*
X104236062Y-76055103D01*
X104233745Y-76048448D01*
X104195342Y-75986990D01*
X104141359Y-75900598D01*
X104137626Y-75894624D01*
X104123941Y-75880843D01*
X104014778Y-75770915D01*
X104014774Y-75770912D01*
X104009815Y-75765918D01*
X103998697Y-75758862D01*
X103901214Y-75696998D01*
X103856666Y-75668727D01*
X103827463Y-75658328D01*
X103692425Y-75610243D01*
X103692420Y-75610242D01*
X103685790Y-75607881D01*
X103678802Y-75607048D01*
X103678799Y-75607047D01*
X103555698Y-75592368D01*
X103505680Y-75586404D01*
X103498677Y-75587140D01*
X103498676Y-75587140D01*
X103332288Y-75604628D01*
X103332286Y-75604629D01*
X103325288Y-75605364D01*
X103153579Y-75663818D01*
X103110403Y-75690380D01*
X103005095Y-75755166D01*
X103005092Y-75755168D01*
X102999088Y-75758862D01*
X102994053Y-75763793D01*
X102994050Y-75763795D01*
X102878556Y-75876896D01*
X102869493Y-75885771D01*
X102771235Y-76038238D01*
X102768826Y-76044858D01*
X102768824Y-76044861D01*
X102714243Y-76194820D01*
X102709197Y-76208685D01*
X102686463Y-76388640D01*
X102704163Y-76569160D01*
X102761418Y-76741273D01*
X102765065Y-76747296D01*
X102765066Y-76747297D01*
X102773276Y-76760853D01*
X102791500Y-76826124D01*
X102791500Y-87371088D01*
X102791208Y-87379658D01*
X102788034Y-87426222D01*
X102787275Y-87437352D01*
X102788580Y-87444829D01*
X102788580Y-87444830D01*
X102798261Y-87500299D01*
X102799223Y-87506821D01*
X102806898Y-87570242D01*
X102809581Y-87577343D01*
X102810222Y-87579952D01*
X102814685Y-87596262D01*
X102815450Y-87598798D01*
X102816757Y-87606284D01*
X102822933Y-87620352D01*
X102842442Y-87664795D01*
X102844933Y-87670899D01*
X102867513Y-87730656D01*
X102871817Y-87736919D01*
X102873054Y-87739285D01*
X102881299Y-87754097D01*
X102882632Y-87756351D01*
X102885685Y-87763305D01*
X102919313Y-87807128D01*
X102924579Y-87813991D01*
X102928459Y-87819332D01*
X102960339Y-87865720D01*
X102960344Y-87865725D01*
X102964643Y-87871981D01*
X102970311Y-87877031D01*
X102970312Y-87877032D01*
X103011168Y-87913433D01*
X103016445Y-87918415D01*
X103129421Y-88031392D01*
X103129440Y-88031410D01*
X105729422Y-90631393D01*
X107703557Y-92605528D01*
X107709411Y-92611793D01*
X107747439Y-92655385D01*
X107799729Y-92692136D01*
X107804971Y-92696028D01*
X107855282Y-92735476D01*
X107862201Y-92738600D01*
X107864493Y-92739988D01*
X107879165Y-92748357D01*
X107881525Y-92749622D01*
X107887739Y-92753990D01*
X107894818Y-92756750D01*
X107894820Y-92756751D01*
X107947275Y-92777202D01*
X107953344Y-92779753D01*
X108011573Y-92806045D01*
X108019046Y-92807430D01*
X108021612Y-92808234D01*
X108037835Y-92812855D01*
X108040427Y-92813520D01*
X108047509Y-92816282D01*
X108055044Y-92817274D01*
X108110861Y-92824622D01*
X108117377Y-92825654D01*
X108155770Y-92832770D01*
X108180186Y-92837295D01*
X108187766Y-92836858D01*
X108187767Y-92836858D01*
X108242380Y-92833709D01*
X108249633Y-92833500D01*
X109405234Y-92833500D01*
X109473355Y-92853502D01*
X109512667Y-92893665D01*
X109534987Y-92930088D01*
X109681250Y-93098938D01*
X109853126Y-93241632D01*
X109923595Y-93282811D01*
X109926445Y-93284476D01*
X109975169Y-93336114D01*
X109988240Y-93405897D01*
X109961509Y-93471669D01*
X109921055Y-93505027D01*
X109908607Y-93511507D01*
X109904474Y-93514610D01*
X109904471Y-93514612D01*
X109780567Y-93607642D01*
X109729965Y-93645635D01*
X109575629Y-93807138D01*
X109449743Y-93991680D01*
X109355688Y-94194305D01*
X109295989Y-94409570D01*
X109272251Y-94631695D01*
X109272548Y-94636848D01*
X109272548Y-94636851D01*
X109278011Y-94731590D01*
X109285110Y-94854715D01*
X109286247Y-94859761D01*
X109286248Y-94859767D01*
X109307275Y-94953069D01*
X109334222Y-95072639D01*
X109418266Y-95279616D01*
X109455788Y-95340846D01*
X109532291Y-95465688D01*
X109534987Y-95470088D01*
X109681250Y-95638938D01*
X109788690Y-95728136D01*
X109837978Y-95769056D01*
X109877613Y-95827959D01*
X109879111Y-95898939D01*
X109841996Y-95959462D01*
X109778052Y-95990311D01*
X109757493Y-95992000D01*
X103049328Y-95992000D01*
X103029943Y-95990500D01*
X103015142Y-95988195D01*
X103015139Y-95988195D01*
X103006270Y-95986814D01*
X102989101Y-95989059D01*
X102965161Y-95989892D01*
X102707230Y-95974290D01*
X102692126Y-95972456D01*
X102621219Y-95959462D01*
X102411121Y-95920960D01*
X102396359Y-95917322D01*
X102123592Y-95832325D01*
X102109370Y-95826930D01*
X101968259Y-95763421D01*
X101848860Y-95709684D01*
X101835391Y-95702615D01*
X101590905Y-95554818D01*
X101578383Y-95546175D01*
X101353493Y-95369984D01*
X101342105Y-95359894D01*
X101140106Y-95157895D01*
X101130016Y-95146507D01*
X100953825Y-94921617D01*
X100945182Y-94909095D01*
X100797385Y-94664609D01*
X100790314Y-94651136D01*
X100781565Y-94631695D01*
X100673069Y-94390627D01*
X100667674Y-94376404D01*
X100630838Y-94258193D01*
X100582678Y-94103641D01*
X100579038Y-94088873D01*
X100562088Y-93996375D01*
X100534212Y-93844259D01*
X100527544Y-93807874D01*
X100525710Y-93792770D01*
X100510545Y-93542071D01*
X100511802Y-93515361D01*
X100511805Y-93515141D01*
X100513186Y-93506270D01*
X100511547Y-93493730D01*
X100509064Y-93474749D01*
X100508000Y-93458411D01*
X100508000Y-93429733D01*
X100987822Y-93429733D01*
X100987975Y-93434121D01*
X100987975Y-93434127D01*
X100996372Y-93674568D01*
X100997625Y-93710458D01*
X100998387Y-93714781D01*
X100998388Y-93714788D01*
X101022164Y-93849624D01*
X101046402Y-93987087D01*
X101133203Y-94254235D01*
X101256340Y-94506702D01*
X101258795Y-94510341D01*
X101258798Y-94510347D01*
X101265004Y-94519547D01*
X101413415Y-94739576D01*
X101601371Y-94948322D01*
X101816550Y-95128879D01*
X102054764Y-95277731D01*
X102196522Y-95340846D01*
X102251420Y-95365288D01*
X102311375Y-95391982D01*
X102315603Y-95393194D01*
X102315602Y-95393194D01*
X102568424Y-95465689D01*
X102581390Y-95469407D01*
X102585740Y-95470018D01*
X102585743Y-95470019D01*
X102688690Y-95484487D01*
X102859552Y-95508500D01*
X103070146Y-95508500D01*
X103072332Y-95508347D01*
X103072336Y-95508347D01*
X103275827Y-95494118D01*
X103275832Y-95494117D01*
X103280212Y-95493811D01*
X103554970Y-95435409D01*
X103559099Y-95433906D01*
X103559103Y-95433905D01*
X103814781Y-95340846D01*
X103814785Y-95340844D01*
X103818926Y-95339337D01*
X104066942Y-95207464D01*
X104116507Y-95171453D01*
X104290629Y-95044947D01*
X104290632Y-95044944D01*
X104294192Y-95042358D01*
X104381524Y-94958023D01*
X104386136Y-94953569D01*
X104496252Y-94847231D01*
X104660618Y-94636851D01*
X104666481Y-94629347D01*
X104666482Y-94629346D01*
X104669188Y-94625882D01*
X104671384Y-94622078D01*
X104671389Y-94622071D01*
X104807435Y-94386431D01*
X104809636Y-94382619D01*
X104914862Y-94122176D01*
X104921295Y-94096374D01*
X104981753Y-93853893D01*
X104981754Y-93853888D01*
X104982817Y-93849624D01*
X104984938Y-93829450D01*
X105011719Y-93574636D01*
X105011719Y-93574633D01*
X105012178Y-93570267D01*
X105012025Y-93565873D01*
X105002529Y-93293939D01*
X105002528Y-93293933D01*
X105002375Y-93289542D01*
X104994388Y-93244242D01*
X104967669Y-93092715D01*
X104953598Y-93012913D01*
X104866797Y-92745765D01*
X104863980Y-92739988D01*
X104799874Y-92608554D01*
X104743660Y-92493298D01*
X104741205Y-92489659D01*
X104741202Y-92489653D01*
X104660935Y-92370653D01*
X104586585Y-92260424D01*
X104398629Y-92051678D01*
X104183450Y-91871121D01*
X103945236Y-91722269D01*
X103688625Y-91608018D01*
X103418610Y-91530593D01*
X103414260Y-91529982D01*
X103414257Y-91529981D01*
X103311310Y-91515513D01*
X103140448Y-91491500D01*
X102929854Y-91491500D01*
X102927668Y-91491653D01*
X102927664Y-91491653D01*
X102724173Y-91505882D01*
X102724168Y-91505883D01*
X102719788Y-91506189D01*
X102445030Y-91564591D01*
X102440901Y-91566094D01*
X102440897Y-91566095D01*
X102185219Y-91659154D01*
X102185215Y-91659156D01*
X102181074Y-91660663D01*
X101933058Y-91792536D01*
X101929499Y-91795122D01*
X101929497Y-91795123D01*
X101824895Y-91871121D01*
X101705808Y-91957642D01*
X101503748Y-92152769D01*
X101330812Y-92374118D01*
X101328616Y-92377922D01*
X101328611Y-92377929D01*
X101214794Y-92575067D01*
X101190364Y-92617381D01*
X101085138Y-92877824D01*
X101084073Y-92882097D01*
X101084072Y-92882099D01*
X101029185Y-93102240D01*
X101017183Y-93150376D01*
X101016724Y-93154744D01*
X101016723Y-93154749D01*
X100988821Y-93420229D01*
X100987822Y-93429733D01*
X100508000Y-93429733D01*
X100508000Y-91120679D01*
X100528002Y-91052558D01*
X100581658Y-91006065D01*
X100650664Y-90995786D01*
X100775979Y-91012507D01*
X100775984Y-91012507D01*
X100782961Y-91013438D01*
X100789972Y-91012800D01*
X100789976Y-91012800D01*
X100932459Y-90999832D01*
X100963600Y-90996998D01*
X100970302Y-90994820D01*
X100970304Y-90994820D01*
X101129409Y-90943124D01*
X101129412Y-90943123D01*
X101136108Y-90940947D01*
X101257879Y-90868357D01*
X101285860Y-90851677D01*
X101285862Y-90851676D01*
X101291912Y-90848069D01*
X101423266Y-90722982D01*
X101523643Y-90571902D01*
X101582214Y-90417715D01*
X101585555Y-90408920D01*
X101585556Y-90408918D01*
X101588055Y-90402338D01*
X101593566Y-90363126D01*
X101612748Y-90226639D01*
X101612748Y-90226636D01*
X101613299Y-90222717D01*
X101613616Y-90200000D01*
X101593397Y-90019745D01*
X101591080Y-90013091D01*
X101536064Y-89855106D01*
X101536062Y-89855103D01*
X101533745Y-89848448D01*
X101437626Y-89694624D01*
X101384646Y-89641273D01*
X101314778Y-89570915D01*
X101314774Y-89570912D01*
X101309815Y-89565918D01*
X101156666Y-89468727D01*
X101127463Y-89458328D01*
X100992425Y-89410243D01*
X100992420Y-89410242D01*
X100985790Y-89407881D01*
X100978802Y-89407048D01*
X100978799Y-89407047D01*
X100838285Y-89390292D01*
X100805680Y-89386404D01*
X100798677Y-89387140D01*
X100798676Y-89387140D01*
X100647171Y-89403064D01*
X100577332Y-89390292D01*
X100525486Y-89341790D01*
X100508000Y-89277754D01*
X100508000Y-74288640D01*
X104686463Y-74288640D01*
X104704163Y-74469160D01*
X104761418Y-74641273D01*
X104765065Y-74647295D01*
X104765066Y-74647297D01*
X104811458Y-74723899D01*
X104855380Y-74796424D01*
X104860269Y-74801487D01*
X104860270Y-74801488D01*
X104908124Y-74851042D01*
X104981382Y-74926902D01*
X104987278Y-74930760D01*
X105106360Y-75008685D01*
X105133159Y-75026222D01*
X105139763Y-75028678D01*
X105139765Y-75028679D01*
X105296558Y-75086990D01*
X105296560Y-75086990D01*
X105303168Y-75089448D01*
X105386995Y-75100633D01*
X105475980Y-75112507D01*
X105475984Y-75112507D01*
X105482961Y-75113438D01*
X105489972Y-75112800D01*
X105489976Y-75112800D01*
X105566836Y-75105804D01*
X105612505Y-75101648D01*
X105682157Y-75115393D01*
X105733322Y-75164614D01*
X105743482Y-75187356D01*
X105761418Y-75241273D01*
X105765065Y-75247295D01*
X105765066Y-75247297D01*
X105846147Y-75381178D01*
X105855380Y-75396424D01*
X105860269Y-75401487D01*
X105860270Y-75401488D01*
X105894892Y-75437340D01*
X105981382Y-75526902D01*
X105987278Y-75530760D01*
X106108741Y-75610243D01*
X106133159Y-75626222D01*
X106139763Y-75628678D01*
X106139765Y-75628679D01*
X106296558Y-75686990D01*
X106296560Y-75686990D01*
X106303168Y-75689448D01*
X106386995Y-75700633D01*
X106475980Y-75712507D01*
X106475984Y-75712507D01*
X106482961Y-75713438D01*
X106489972Y-75712800D01*
X106489976Y-75712800D01*
X106632459Y-75699832D01*
X106663600Y-75696998D01*
X106670302Y-75694820D01*
X106670304Y-75694820D01*
X106829409Y-75643124D01*
X106829412Y-75643123D01*
X106836108Y-75640947D01*
X106991912Y-75548069D01*
X107123266Y-75422982D01*
X107223643Y-75271902D01*
X107255272Y-75188640D01*
X108786463Y-75188640D01*
X108804163Y-75369160D01*
X108861418Y-75541273D01*
X108865065Y-75547295D01*
X108865066Y-75547297D01*
X108951720Y-75690380D01*
X108955380Y-75696424D01*
X108960269Y-75701487D01*
X108960270Y-75701488D01*
X109020440Y-75763795D01*
X109081382Y-75826902D01*
X109087278Y-75830760D01*
X109225384Y-75921134D01*
X109233159Y-75926222D01*
X109239763Y-75928678D01*
X109239765Y-75928679D01*
X109396558Y-75986990D01*
X109396560Y-75986990D01*
X109403168Y-75989448D01*
X109486995Y-76000633D01*
X109575980Y-76012507D01*
X109575984Y-76012507D01*
X109582961Y-76013438D01*
X109589972Y-76012800D01*
X109589976Y-76012800D01*
X109732459Y-75999832D01*
X109763600Y-75996998D01*
X109770302Y-75994820D01*
X109770304Y-75994820D01*
X109929409Y-75943124D01*
X109929412Y-75943123D01*
X109936108Y-75940947D01*
X109942159Y-75937340D01*
X109942163Y-75937338D01*
X109953313Y-75930692D01*
X110022068Y-75912993D01*
X110089477Y-75935276D01*
X110108464Y-75951395D01*
X110176483Y-76021830D01*
X110176488Y-76021834D01*
X110181382Y-76026902D01*
X110224482Y-76055106D01*
X110325384Y-76121134D01*
X110333159Y-76126222D01*
X110339763Y-76128678D01*
X110339765Y-76128679D01*
X110496558Y-76186990D01*
X110496560Y-76186990D01*
X110503168Y-76189448D01*
X110586995Y-76200633D01*
X110675980Y-76212507D01*
X110675984Y-76212507D01*
X110682961Y-76213438D01*
X110689972Y-76212800D01*
X110689976Y-76212800D01*
X110832459Y-76199832D01*
X110863600Y-76196998D01*
X110870302Y-76194820D01*
X110870304Y-76194820D01*
X111029409Y-76143124D01*
X111029412Y-76143123D01*
X111036108Y-76140947D01*
X111168811Y-76061840D01*
X111185860Y-76051677D01*
X111185862Y-76051676D01*
X111191912Y-76048069D01*
X111323266Y-75922982D01*
X111423643Y-75771902D01*
X111488055Y-75602338D01*
X111490191Y-75587140D01*
X111512748Y-75426639D01*
X111512748Y-75426636D01*
X111513299Y-75422717D01*
X111513616Y-75400000D01*
X111493397Y-75219745D01*
X111480130Y-75181646D01*
X111436064Y-75055106D01*
X111436062Y-75055103D01*
X111433745Y-75048448D01*
X111378393Y-74959865D01*
X111341359Y-74900598D01*
X111337626Y-74894624D01*
X111294347Y-74851042D01*
X111214778Y-74770915D01*
X111214774Y-74770912D01*
X111209815Y-74765918D01*
X111056666Y-74668727D01*
X111027463Y-74658328D01*
X110892425Y-74610243D01*
X110892420Y-74610242D01*
X110885790Y-74607881D01*
X110878802Y-74607048D01*
X110878799Y-74607047D01*
X110747443Y-74591384D01*
X110705680Y-74586404D01*
X110698677Y-74587140D01*
X110698676Y-74587140D01*
X110532288Y-74604628D01*
X110532286Y-74604629D01*
X110525288Y-74605364D01*
X110435094Y-74636068D01*
X110360249Y-74661547D01*
X110360246Y-74661548D01*
X110353579Y-74663818D01*
X110347580Y-74667509D01*
X110341204Y-74670509D01*
X110340665Y-74669363D01*
X110279160Y-74686111D01*
X110211447Y-74664769D01*
X110192240Y-74648920D01*
X110114778Y-74570915D01*
X110114774Y-74570912D01*
X110109815Y-74565918D01*
X110098697Y-74558862D01*
X110048335Y-74526902D01*
X109956666Y-74468727D01*
X109927463Y-74458328D01*
X109792425Y-74410243D01*
X109792420Y-74410242D01*
X109785790Y-74407881D01*
X109778802Y-74407048D01*
X109778799Y-74407047D01*
X109655698Y-74392368D01*
X109605680Y-74386404D01*
X109598677Y-74387140D01*
X109598676Y-74387140D01*
X109432288Y-74404628D01*
X109432286Y-74404629D01*
X109425288Y-74405364D01*
X109253579Y-74463818D01*
X109247575Y-74467512D01*
X109105095Y-74555166D01*
X109105092Y-74555168D01*
X109099088Y-74558862D01*
X109094053Y-74563793D01*
X109094050Y-74563795D01*
X108974525Y-74680843D01*
X108969493Y-74685771D01*
X108871235Y-74838238D01*
X108868826Y-74844858D01*
X108868824Y-74844861D01*
X108819960Y-74979113D01*
X108809197Y-75008685D01*
X108786463Y-75188640D01*
X107255272Y-75188640D01*
X107283096Y-75115393D01*
X107285555Y-75108920D01*
X107285556Y-75108918D01*
X107288055Y-75102338D01*
X107289035Y-75095367D01*
X107289037Y-75095358D01*
X107290864Y-75082359D01*
X107320153Y-75017685D01*
X107379758Y-74979113D01*
X107450754Y-74978890D01*
X107484625Y-74994462D01*
X107533159Y-75026222D01*
X107539763Y-75028678D01*
X107539765Y-75028679D01*
X107696558Y-75086990D01*
X107696560Y-75086990D01*
X107703168Y-75089448D01*
X107786995Y-75100633D01*
X107875980Y-75112507D01*
X107875984Y-75112507D01*
X107882961Y-75113438D01*
X107889972Y-75112800D01*
X107889976Y-75112800D01*
X108032459Y-75099832D01*
X108063600Y-75096998D01*
X108070302Y-75094820D01*
X108070304Y-75094820D01*
X108229409Y-75043124D01*
X108229412Y-75043123D01*
X108236108Y-75040947D01*
X108372124Y-74959865D01*
X108385860Y-74951677D01*
X108385862Y-74951676D01*
X108391912Y-74948069D01*
X108523266Y-74822982D01*
X108623643Y-74671902D01*
X108674379Y-74538339D01*
X108685555Y-74508920D01*
X108685556Y-74508918D01*
X108688055Y-74502338D01*
X108689035Y-74495366D01*
X108711915Y-74332563D01*
X111547209Y-74332563D01*
X111564909Y-74513083D01*
X111622164Y-74685196D01*
X111625811Y-74691218D01*
X111625812Y-74691220D01*
X111689526Y-74796424D01*
X111716126Y-74840347D01*
X111842128Y-74970825D01*
X111848020Y-74974680D01*
X111848024Y-74974684D01*
X111949504Y-75041090D01*
X111995553Y-75095127D01*
X112005517Y-75162314D01*
X112003075Y-75181646D01*
X111986463Y-75313140D01*
X112004163Y-75493660D01*
X112061418Y-75665773D01*
X112065065Y-75671795D01*
X112065066Y-75671797D01*
X112150438Y-75812763D01*
X112155380Y-75820924D01*
X112160269Y-75825987D01*
X112160270Y-75825988D01*
X112218002Y-75885771D01*
X112281382Y-75951402D01*
X112340947Y-75990380D01*
X112405026Y-76032312D01*
X112433159Y-76050722D01*
X112439763Y-76053178D01*
X112439765Y-76053179D01*
X112596558Y-76111490D01*
X112596560Y-76111490D01*
X112603168Y-76113948D01*
X112686995Y-76125133D01*
X112775980Y-76137007D01*
X112775984Y-76137007D01*
X112782961Y-76137938D01*
X112789972Y-76137300D01*
X112789976Y-76137300D01*
X112932459Y-76124332D01*
X112963600Y-76121498D01*
X112970302Y-76119320D01*
X112970304Y-76119320D01*
X113129409Y-76067624D01*
X113129412Y-76067623D01*
X113136108Y-76065447D01*
X113262034Y-75990380D01*
X113285860Y-75976177D01*
X113285862Y-75976176D01*
X113291912Y-75972569D01*
X113423266Y-75847482D01*
X113523643Y-75696402D01*
X113565428Y-75586404D01*
X113585555Y-75533420D01*
X113585556Y-75533418D01*
X113588055Y-75526838D01*
X113589939Y-75513438D01*
X113594016Y-75484424D01*
X113623305Y-75419751D01*
X113682909Y-75381178D01*
X113753905Y-75380953D01*
X113787779Y-75396526D01*
X113833159Y-75426222D01*
X113839763Y-75428678D01*
X113839765Y-75428679D01*
X113996558Y-75486990D01*
X113996560Y-75486990D01*
X114003168Y-75489448D01*
X114084828Y-75500344D01*
X114175980Y-75512507D01*
X114175984Y-75512507D01*
X114182961Y-75513438D01*
X114189972Y-75512800D01*
X114189976Y-75512800D01*
X114332459Y-75499832D01*
X114363600Y-75496998D01*
X114370302Y-75494820D01*
X114370304Y-75494820D01*
X114529409Y-75443124D01*
X114529412Y-75443123D01*
X114536108Y-75440947D01*
X114656532Y-75369160D01*
X114685860Y-75351677D01*
X114685862Y-75351676D01*
X114691912Y-75348069D01*
X114823266Y-75222982D01*
X114923643Y-75071902D01*
X114936032Y-75039288D01*
X114978921Y-74982710D01*
X115041317Y-74959865D01*
X115041197Y-74958722D01*
X115047764Y-74958032D01*
X115054366Y-74958032D01*
X115060818Y-74956660D01*
X115060823Y-74956660D01*
X115147767Y-74938179D01*
X115241167Y-74918326D01*
X115294403Y-74894624D01*
X115409601Y-74843335D01*
X115409603Y-74843334D01*
X115415631Y-74840650D01*
X115570132Y-74728398D01*
X115583602Y-74713438D01*
X115693500Y-74591384D01*
X115693501Y-74591383D01*
X115697919Y-74586476D01*
X115793406Y-74421088D01*
X115852421Y-74239460D01*
X115857678Y-74189448D01*
X115871693Y-74056097D01*
X115872383Y-74049532D01*
X115861130Y-73942469D01*
X115855473Y-73888640D01*
X118986463Y-73888640D01*
X119004163Y-74069160D01*
X119061418Y-74241273D01*
X119065065Y-74247295D01*
X119065066Y-74247297D01*
X119149817Y-74387238D01*
X119155380Y-74396424D01*
X119160269Y-74401487D01*
X119160270Y-74401488D01*
X119185719Y-74427841D01*
X119281382Y-74526902D01*
X119341005Y-74565918D01*
X119408741Y-74610243D01*
X119433159Y-74626222D01*
X119439763Y-74628678D01*
X119439765Y-74628679D01*
X119596558Y-74686990D01*
X119596560Y-74686990D01*
X119603168Y-74689448D01*
X119686995Y-74700633D01*
X119775980Y-74712507D01*
X119775984Y-74712507D01*
X119782961Y-74713438D01*
X119789972Y-74712800D01*
X119789976Y-74712800D01*
X119932459Y-74699832D01*
X119963600Y-74696998D01*
X119970302Y-74694820D01*
X119970304Y-74694820D01*
X120129409Y-74643124D01*
X120129412Y-74643123D01*
X120136108Y-74640947D01*
X120237076Y-74580758D01*
X120285860Y-74551677D01*
X120285862Y-74551676D01*
X120291912Y-74548069D01*
X120423266Y-74422982D01*
X120523643Y-74271902D01*
X120582989Y-74115675D01*
X120585555Y-74108920D01*
X120585556Y-74108918D01*
X120588055Y-74102338D01*
X120589035Y-74095366D01*
X120612748Y-73926639D01*
X120612748Y-73926636D01*
X120613299Y-73922717D01*
X120613616Y-73900000D01*
X120593397Y-73719745D01*
X120591080Y-73713091D01*
X120536064Y-73555106D01*
X120536062Y-73555103D01*
X120533745Y-73548448D01*
X120506823Y-73505364D01*
X120441359Y-73400598D01*
X120437626Y-73394624D01*
X120428835Y-73385771D01*
X120314778Y-73270915D01*
X120314774Y-73270912D01*
X120309815Y-73265918D01*
X120298697Y-73258862D01*
X120209200Y-73202066D01*
X120156666Y-73168727D01*
X120127463Y-73158328D01*
X119992425Y-73110243D01*
X119992420Y-73110242D01*
X119985790Y-73107881D01*
X119978802Y-73107048D01*
X119978799Y-73107047D01*
X119855698Y-73092368D01*
X119805680Y-73086404D01*
X119798677Y-73087140D01*
X119798676Y-73087140D01*
X119632288Y-73104628D01*
X119632286Y-73104629D01*
X119625288Y-73105364D01*
X119453579Y-73163818D01*
X119421712Y-73183423D01*
X119305095Y-73255166D01*
X119305092Y-73255168D01*
X119299088Y-73258862D01*
X119294053Y-73263793D01*
X119294050Y-73263795D01*
X119179634Y-73375840D01*
X119169493Y-73385771D01*
X119071235Y-73538238D01*
X119068826Y-73544858D01*
X119068824Y-73544861D01*
X119011606Y-73702066D01*
X119009197Y-73708685D01*
X118986463Y-73888640D01*
X115855473Y-73888640D01*
X115853111Y-73866167D01*
X115853111Y-73866165D01*
X115852421Y-73859604D01*
X115793406Y-73677976D01*
X115697919Y-73512588D01*
X115691415Y-73505364D01*
X115574554Y-73375577D01*
X115574553Y-73375576D01*
X115570132Y-73370666D01*
X115459628Y-73290380D01*
X115420973Y-73262295D01*
X115420970Y-73262293D01*
X115415631Y-73258414D01*
X115409603Y-73255730D01*
X115409601Y-73255729D01*
X115247198Y-73183423D01*
X115247197Y-73183423D01*
X115241167Y-73180738D01*
X115147766Y-73160885D01*
X115060823Y-73142404D01*
X115060818Y-73142404D01*
X115054366Y-73141032D01*
X114863392Y-73141032D01*
X114856940Y-73142404D01*
X114856935Y-73142404D01*
X114769992Y-73160885D01*
X114676591Y-73180738D01*
X114670561Y-73183423D01*
X114670560Y-73183423D01*
X114508157Y-73255729D01*
X114508155Y-73255730D01*
X114502127Y-73258414D01*
X114483547Y-73271913D01*
X114416683Y-73295771D01*
X114347531Y-73279692D01*
X114298050Y-73228779D01*
X114290496Y-73211414D01*
X114236064Y-73055106D01*
X114236062Y-73055103D01*
X114233745Y-73048448D01*
X114183171Y-72967512D01*
X114141359Y-72900598D01*
X114137626Y-72894624D01*
X114132664Y-72889627D01*
X114014778Y-72770915D01*
X114014774Y-72770912D01*
X114009815Y-72765918D01*
X113998697Y-72758862D01*
X113901214Y-72696998D01*
X113856666Y-72668727D01*
X113805835Y-72650627D01*
X113692425Y-72610243D01*
X113692420Y-72610242D01*
X113685790Y-72607881D01*
X113678802Y-72607048D01*
X113678799Y-72607047D01*
X113539023Y-72590380D01*
X113505680Y-72586404D01*
X113498677Y-72587140D01*
X113498676Y-72587140D01*
X113332288Y-72604628D01*
X113332286Y-72604629D01*
X113325288Y-72605364D01*
X113153579Y-72663818D01*
X113147575Y-72667512D01*
X113005095Y-72755166D01*
X113005092Y-72755168D01*
X112999088Y-72758862D01*
X112994053Y-72763793D01*
X112994050Y-72763795D01*
X112874525Y-72880843D01*
X112869493Y-72885771D01*
X112771235Y-73038238D01*
X112768826Y-73044858D01*
X112768824Y-73044861D01*
X112714315Y-73194624D01*
X112709197Y-73208685D01*
X112686463Y-73388640D01*
X112687151Y-73395657D01*
X112687151Y-73395658D01*
X112689038Y-73414904D01*
X112675781Y-73484652D01*
X112626919Y-73536160D01*
X112557967Y-73553074D01*
X112546573Y-73551496D01*
X112546536Y-73551804D01*
X112366426Y-73530327D01*
X112359423Y-73531063D01*
X112359422Y-73531063D01*
X112193034Y-73548551D01*
X112193032Y-73548552D01*
X112186034Y-73549287D01*
X112014325Y-73607741D01*
X112008321Y-73611435D01*
X111865841Y-73699089D01*
X111865838Y-73699091D01*
X111859834Y-73702785D01*
X111854799Y-73707716D01*
X111854796Y-73707718D01*
X111738265Y-73821834D01*
X111730239Y-73829694D01*
X111631981Y-73982161D01*
X111629572Y-73988781D01*
X111629570Y-73988784D01*
X111581904Y-74119745D01*
X111569943Y-74152608D01*
X111547209Y-74332563D01*
X108711915Y-74332563D01*
X108712748Y-74326639D01*
X108712748Y-74326636D01*
X108713299Y-74322717D01*
X108713616Y-74300000D01*
X108693397Y-74119745D01*
X108691080Y-74113091D01*
X108636064Y-73955106D01*
X108636062Y-73955103D01*
X108633745Y-73948448D01*
X108537626Y-73794624D01*
X108523941Y-73780843D01*
X108414778Y-73670915D01*
X108414774Y-73670912D01*
X108409815Y-73665918D01*
X108398697Y-73658862D01*
X108350538Y-73628300D01*
X108256666Y-73568727D01*
X108199716Y-73548448D01*
X108092425Y-73510243D01*
X108092420Y-73510242D01*
X108085790Y-73507881D01*
X108078802Y-73507048D01*
X108078799Y-73507047D01*
X107955698Y-73492368D01*
X107905680Y-73486404D01*
X107898677Y-73487140D01*
X107898676Y-73487140D01*
X107732288Y-73504628D01*
X107732286Y-73504629D01*
X107725288Y-73505364D01*
X107553579Y-73563818D01*
X107399793Y-73658428D01*
X107399791Y-73658429D01*
X107399088Y-73658862D01*
X107399012Y-73658738D01*
X107336088Y-73683700D01*
X107266417Y-73670045D01*
X107215188Y-73620891D01*
X107199290Y-73572280D01*
X107194182Y-73526743D01*
X107193397Y-73519745D01*
X107182282Y-73487826D01*
X107136064Y-73355106D01*
X107136062Y-73355103D01*
X107133745Y-73348448D01*
X107090782Y-73279692D01*
X107041359Y-73200598D01*
X107037626Y-73194624D01*
X107009561Y-73166362D01*
X106914778Y-73070915D01*
X106914774Y-73070912D01*
X106909815Y-73065918D01*
X106898697Y-73058862D01*
X106848335Y-73026902D01*
X106756666Y-72968727D01*
X106727463Y-72958328D01*
X106592425Y-72910243D01*
X106592420Y-72910242D01*
X106585790Y-72907881D01*
X106578802Y-72907048D01*
X106578799Y-72907047D01*
X106455698Y-72892368D01*
X106405680Y-72886404D01*
X106398677Y-72887140D01*
X106398676Y-72887140D01*
X106232288Y-72904628D01*
X106232286Y-72904629D01*
X106225288Y-72905364D01*
X106053579Y-72963818D01*
X106047575Y-72967512D01*
X105905095Y-73055166D01*
X105905092Y-73055168D01*
X105899088Y-73058862D01*
X105894053Y-73063793D01*
X105894050Y-73063795D01*
X105774525Y-73180843D01*
X105769493Y-73185771D01*
X105671235Y-73338238D01*
X105668825Y-73344858D01*
X105668824Y-73344861D01*
X105653934Y-73385771D01*
X105648538Y-73400598D01*
X105646820Y-73405317D01*
X105604726Y-73462488D01*
X105538404Y-73487826D01*
X105513508Y-73487337D01*
X105512676Y-73487238D01*
X105512674Y-73487238D01*
X105505680Y-73486404D01*
X105498677Y-73487140D01*
X105498676Y-73487140D01*
X105332288Y-73504628D01*
X105332286Y-73504629D01*
X105325288Y-73505364D01*
X105153579Y-73563818D01*
X105139457Y-73572506D01*
X105005095Y-73655166D01*
X105005092Y-73655168D01*
X104999088Y-73658862D01*
X104994053Y-73663793D01*
X104994050Y-73663795D01*
X104929769Y-73726744D01*
X104869493Y-73785771D01*
X104771235Y-73938238D01*
X104768826Y-73944858D01*
X104768824Y-73944861D01*
X104726134Y-74062151D01*
X104709197Y-74108685D01*
X104686463Y-74288640D01*
X100508000Y-74288640D01*
X100508000Y-71888640D01*
X106386463Y-71888640D01*
X106404163Y-72069160D01*
X106461418Y-72241273D01*
X106465065Y-72247295D01*
X106465066Y-72247297D01*
X106549817Y-72387238D01*
X106555380Y-72396424D01*
X106560269Y-72401487D01*
X106560270Y-72401488D01*
X106620462Y-72463818D01*
X106681382Y-72526902D01*
X106687278Y-72530760D01*
X106808741Y-72610243D01*
X106833159Y-72626222D01*
X106839763Y-72628678D01*
X106839765Y-72628679D01*
X106996558Y-72686990D01*
X106996560Y-72686990D01*
X107003168Y-72689448D01*
X107086995Y-72700633D01*
X107175980Y-72712507D01*
X107175984Y-72712507D01*
X107182961Y-72713438D01*
X107189972Y-72712800D01*
X107189976Y-72712800D01*
X107332459Y-72699832D01*
X107363600Y-72696998D01*
X107370302Y-72694820D01*
X107370304Y-72694820D01*
X107465718Y-72663818D01*
X107500077Y-72652654D01*
X107571045Y-72650627D01*
X107631842Y-72687289D01*
X107655982Y-72728314D01*
X107656240Y-72728195D01*
X107657440Y-72730791D01*
X107658570Y-72732713D01*
X107661418Y-72741273D01*
X107665065Y-72747295D01*
X107665066Y-72747297D01*
X107751264Y-72889627D01*
X107755380Y-72896424D01*
X107760269Y-72901487D01*
X107760270Y-72901488D01*
X107794892Y-72937340D01*
X107881382Y-73026902D01*
X107941005Y-73065918D01*
X108008741Y-73110243D01*
X108033159Y-73126222D01*
X108039763Y-73128678D01*
X108039765Y-73128679D01*
X108196558Y-73186990D01*
X108196560Y-73186990D01*
X108203168Y-73189448D01*
X108286732Y-73200598D01*
X108375980Y-73212507D01*
X108375984Y-73212507D01*
X108382961Y-73213438D01*
X108389972Y-73212800D01*
X108389976Y-73212800D01*
X108532459Y-73199832D01*
X108563600Y-73196998D01*
X108570302Y-73194820D01*
X108570304Y-73194820D01*
X108729409Y-73143124D01*
X108729412Y-73143123D01*
X108736108Y-73140947D01*
X108861970Y-73065918D01*
X108885860Y-73051677D01*
X108885862Y-73051676D01*
X108891912Y-73048069D01*
X109023266Y-72922982D01*
X109123643Y-72771902D01*
X109180448Y-72622364D01*
X109185555Y-72608920D01*
X109185556Y-72608918D01*
X109188055Y-72602338D01*
X109189035Y-72595366D01*
X109212748Y-72426639D01*
X109212748Y-72426636D01*
X109213299Y-72422717D01*
X109213506Y-72407881D01*
X109213561Y-72403962D01*
X109213561Y-72403957D01*
X109213616Y-72400000D01*
X109193397Y-72219745D01*
X109178781Y-72177773D01*
X109136064Y-72055106D01*
X109136062Y-72055103D01*
X109133745Y-72048448D01*
X109037626Y-71894624D01*
X109031684Y-71888640D01*
X108914778Y-71770915D01*
X108914774Y-71770912D01*
X108909815Y-71765918D01*
X108898757Y-71758900D01*
X108801214Y-71696998D01*
X108756666Y-71668727D01*
X108706200Y-71650757D01*
X108592425Y-71610243D01*
X108592420Y-71610242D01*
X108585790Y-71607881D01*
X108578802Y-71607048D01*
X108578799Y-71607047D01*
X108455698Y-71592368D01*
X108405680Y-71586404D01*
X108398677Y-71587140D01*
X108398676Y-71587140D01*
X108232288Y-71604628D01*
X108232286Y-71604629D01*
X108225288Y-71605364D01*
X108131358Y-71637340D01*
X108100811Y-71647739D01*
X108029879Y-71650757D01*
X107968575Y-71614947D01*
X107941215Y-71569900D01*
X107933745Y-71548448D01*
X107837626Y-71394624D01*
X107832664Y-71389627D01*
X107714778Y-71270915D01*
X107714774Y-71270912D01*
X107709815Y-71265918D01*
X107698697Y-71258862D01*
X107617594Y-71207393D01*
X107556666Y-71168727D01*
X107527463Y-71158328D01*
X107392425Y-71110243D01*
X107392420Y-71110242D01*
X107385790Y-71107881D01*
X107378802Y-71107048D01*
X107378799Y-71107047D01*
X107253087Y-71092057D01*
X107205680Y-71086404D01*
X107198677Y-71087140D01*
X107198676Y-71087140D01*
X107032288Y-71104628D01*
X107032286Y-71104629D01*
X107025288Y-71105364D01*
X106853579Y-71163818D01*
X106824600Y-71181646D01*
X106705095Y-71255166D01*
X106705092Y-71255168D01*
X106699088Y-71258862D01*
X106694053Y-71263793D01*
X106694050Y-71263795D01*
X106579630Y-71375844D01*
X106569493Y-71385771D01*
X106471235Y-71538238D01*
X106468826Y-71544858D01*
X106468824Y-71544861D01*
X106411606Y-71702066D01*
X106409197Y-71708685D01*
X106386463Y-71888640D01*
X100508000Y-71888640D01*
X100508000Y-67298155D01*
X100528002Y-67230034D01*
X100581658Y-67183541D01*
X100651932Y-67173437D01*
X100677913Y-67180056D01*
X100703168Y-67189448D01*
X100786995Y-67200633D01*
X100875980Y-67212507D01*
X100875984Y-67212507D01*
X100882961Y-67213438D01*
X100889972Y-67212800D01*
X100889976Y-67212800D01*
X101032459Y-67199832D01*
X101063600Y-67196998D01*
X101070302Y-67194820D01*
X101070304Y-67194820D01*
X101229409Y-67143124D01*
X101229412Y-67143123D01*
X101236108Y-67140947D01*
X101391912Y-67048069D01*
X101523266Y-66922982D01*
X101623643Y-66771902D01*
X101688055Y-66602338D01*
X101713299Y-66422717D01*
X101713616Y-66400000D01*
X101693397Y-66219745D01*
X101691080Y-66213091D01*
X101636064Y-66055106D01*
X101636062Y-66055103D01*
X101633745Y-66048448D01*
X101580863Y-65963818D01*
X101541359Y-65900598D01*
X101537626Y-65894624D01*
X101531684Y-65888640D01*
X105986463Y-65888640D01*
X106004163Y-66069160D01*
X106061418Y-66241273D01*
X106065065Y-66247295D01*
X106065066Y-66247297D01*
X106146875Y-66382380D01*
X106155380Y-66396424D01*
X106160269Y-66401487D01*
X106160270Y-66401488D01*
X106202155Y-66444861D01*
X106281382Y-66526902D01*
X106287278Y-66530760D01*
X106303114Y-66541123D01*
X106349163Y-66595160D01*
X106358686Y-66665515D01*
X106352522Y-66689649D01*
X106313940Y-66795653D01*
X106309197Y-66808685D01*
X106286463Y-66988640D01*
X106304163Y-67169160D01*
X106361418Y-67341273D01*
X106365065Y-67347295D01*
X106365066Y-67347297D01*
X106451720Y-67490380D01*
X106455380Y-67496424D01*
X106460269Y-67501487D01*
X106460270Y-67501488D01*
X106491562Y-67533891D01*
X106581382Y-67626902D01*
X106637796Y-67663818D01*
X106725384Y-67721134D01*
X106733159Y-67726222D01*
X106746682Y-67731251D01*
X106803555Y-67773742D01*
X106828429Y-67840238D01*
X106813404Y-67909627D01*
X106763250Y-67959877D01*
X106759386Y-67961841D01*
X106753579Y-67963818D01*
X106713744Y-67988325D01*
X106605095Y-68055166D01*
X106605092Y-68055168D01*
X106599088Y-68058862D01*
X106594053Y-68063793D01*
X106594050Y-68063795D01*
X106479012Y-68176449D01*
X106469493Y-68185771D01*
X106371235Y-68338238D01*
X106368826Y-68344858D01*
X106368824Y-68344861D01*
X106326134Y-68462151D01*
X106309197Y-68508685D01*
X106286463Y-68688640D01*
X106304163Y-68869160D01*
X106361418Y-69041273D01*
X106365065Y-69047295D01*
X106365066Y-69047297D01*
X106451720Y-69190380D01*
X106455380Y-69196424D01*
X106460269Y-69201487D01*
X106460270Y-69201488D01*
X106522674Y-69266109D01*
X106581382Y-69326902D01*
X106587278Y-69330760D01*
X106689477Y-69397637D01*
X106733159Y-69426222D01*
X106739763Y-69428678D01*
X106739765Y-69428679D01*
X106896558Y-69486990D01*
X106896560Y-69486990D01*
X106903168Y-69489448D01*
X106982250Y-69500000D01*
X107075980Y-69512507D01*
X107075984Y-69512507D01*
X107082961Y-69513438D01*
X107089972Y-69512800D01*
X107089976Y-69512800D01*
X107232459Y-69499832D01*
X107263600Y-69496998D01*
X107270302Y-69494820D01*
X107270304Y-69494820D01*
X107429409Y-69443124D01*
X107429412Y-69443123D01*
X107436108Y-69440947D01*
X107532513Y-69383478D01*
X107585860Y-69351677D01*
X107585862Y-69351676D01*
X107591912Y-69348069D01*
X107723266Y-69222982D01*
X107823643Y-69071902D01*
X107826144Y-69065317D01*
X107826147Y-69065312D01*
X107831260Y-69051852D01*
X107874150Y-68995275D01*
X107940819Y-68970867D01*
X108010100Y-68986378D01*
X108059937Y-69036821D01*
X108061418Y-69041273D01*
X108104720Y-69112773D01*
X108151720Y-69190380D01*
X108155380Y-69196424D01*
X108160269Y-69201487D01*
X108160270Y-69201488D01*
X108222674Y-69266109D01*
X108281382Y-69326902D01*
X108287278Y-69330760D01*
X108389477Y-69397637D01*
X108433159Y-69426222D01*
X108439763Y-69428678D01*
X108439765Y-69428679D01*
X108596558Y-69486990D01*
X108596560Y-69486990D01*
X108603168Y-69489448D01*
X108682250Y-69500000D01*
X108775980Y-69512507D01*
X108775984Y-69512507D01*
X108782961Y-69513438D01*
X108789972Y-69512800D01*
X108789976Y-69512800D01*
X108932459Y-69499832D01*
X108963600Y-69496998D01*
X108970302Y-69494820D01*
X108970304Y-69494820D01*
X109129409Y-69443124D01*
X109129412Y-69443123D01*
X109136108Y-69440947D01*
X109291912Y-69348069D01*
X109331447Y-69310420D01*
X109394571Y-69277927D01*
X109465242Y-69284720D01*
X109487324Y-69296228D01*
X109533159Y-69326222D01*
X109539763Y-69328678D01*
X109539765Y-69328679D01*
X109696558Y-69386990D01*
X109696560Y-69386990D01*
X109703168Y-69389448D01*
X109786995Y-69400633D01*
X109875980Y-69412507D01*
X109875984Y-69412507D01*
X109882961Y-69413438D01*
X109889972Y-69412800D01*
X109889976Y-69412800D01*
X110032459Y-69399832D01*
X110063600Y-69396998D01*
X110070302Y-69394820D01*
X110070304Y-69394820D01*
X110229409Y-69343124D01*
X110229412Y-69343123D01*
X110236108Y-69340947D01*
X110391912Y-69248069D01*
X110495369Y-69149548D01*
X110558494Y-69117056D01*
X110629165Y-69123849D01*
X110630355Y-69124387D01*
X110633159Y-69126222D01*
X110639766Y-69128679D01*
X110639770Y-69128681D01*
X110796558Y-69186990D01*
X110796560Y-69186990D01*
X110803168Y-69189448D01*
X110886995Y-69200633D01*
X110975980Y-69212507D01*
X110975984Y-69212507D01*
X110982961Y-69213438D01*
X110989972Y-69212800D01*
X110989976Y-69212800D01*
X111132459Y-69199832D01*
X111163600Y-69196998D01*
X111170302Y-69194820D01*
X111170304Y-69194820D01*
X111329409Y-69143124D01*
X111329412Y-69143123D01*
X111336108Y-69140947D01*
X111383370Y-69112773D01*
X111452125Y-69095073D01*
X111516881Y-69115570D01*
X111533159Y-69126222D01*
X111539763Y-69128678D01*
X111539765Y-69128679D01*
X111696558Y-69186990D01*
X111696560Y-69186990D01*
X111703168Y-69189448D01*
X111786995Y-69200633D01*
X111875980Y-69212507D01*
X111875984Y-69212507D01*
X111882961Y-69213438D01*
X111889972Y-69212800D01*
X111889976Y-69212800D01*
X112032459Y-69199832D01*
X112063600Y-69196998D01*
X112070302Y-69194820D01*
X112070304Y-69194820D01*
X112229409Y-69143124D01*
X112229412Y-69143123D01*
X112236108Y-69140947D01*
X112391912Y-69048069D01*
X112523266Y-68922982D01*
X112623643Y-68771902D01*
X112665423Y-68661917D01*
X112685555Y-68608920D01*
X112685556Y-68608918D01*
X112688055Y-68602338D01*
X112689799Y-68589928D01*
X112712748Y-68426639D01*
X112712748Y-68426636D01*
X112713299Y-68422717D01*
X112713452Y-68411738D01*
X112713561Y-68403962D01*
X112713561Y-68403957D01*
X112713616Y-68400000D01*
X112693397Y-68219745D01*
X112678320Y-68176449D01*
X112636064Y-68055106D01*
X112636062Y-68055103D01*
X112633745Y-68048448D01*
X112630009Y-68042469D01*
X112541359Y-67900598D01*
X112537626Y-67894624D01*
X112532664Y-67889627D01*
X112414778Y-67770915D01*
X112414774Y-67770912D01*
X112409815Y-67765918D01*
X112398697Y-67758862D01*
X112330479Y-67715570D01*
X112256666Y-67668727D01*
X112208784Y-67651677D01*
X112092425Y-67610243D01*
X112092420Y-67610242D01*
X112085790Y-67607881D01*
X112078802Y-67607048D01*
X112078799Y-67607047D01*
X111955698Y-67592368D01*
X111905680Y-67586404D01*
X111898677Y-67587140D01*
X111898676Y-67587140D01*
X111732288Y-67604628D01*
X111732286Y-67604629D01*
X111725288Y-67605364D01*
X111553579Y-67663818D01*
X111516724Y-67686492D01*
X111448225Y-67705149D01*
X111383192Y-67685559D01*
X111362618Y-67672503D01*
X111362610Y-67672499D01*
X111356666Y-67668727D01*
X111350033Y-67666365D01*
X111192425Y-67610243D01*
X111192420Y-67610242D01*
X111185790Y-67607881D01*
X111178802Y-67607048D01*
X111178799Y-67607047D01*
X111055698Y-67592368D01*
X111005680Y-67586404D01*
X110998677Y-67587140D01*
X110998676Y-67587140D01*
X110832288Y-67604628D01*
X110832286Y-67604629D01*
X110825288Y-67605364D01*
X110653579Y-67663818D01*
X110647575Y-67667512D01*
X110505095Y-67755166D01*
X110505092Y-67755168D01*
X110499088Y-67758862D01*
X110406507Y-67849524D01*
X110343843Y-67882893D01*
X110273085Y-67877087D01*
X110263115Y-67872747D01*
X110262620Y-67872506D01*
X110256666Y-67868727D01*
X110202735Y-67849523D01*
X110092425Y-67810243D01*
X110092420Y-67810242D01*
X110085790Y-67807881D01*
X110078802Y-67807048D01*
X110078799Y-67807047D01*
X109955698Y-67792368D01*
X109905680Y-67786404D01*
X109898677Y-67787140D01*
X109898676Y-67787140D01*
X109732288Y-67804628D01*
X109732286Y-67804629D01*
X109725288Y-67805364D01*
X109553579Y-67863818D01*
X109532011Y-67877087D01*
X109405095Y-67955166D01*
X109405092Y-67955168D01*
X109399088Y-67958862D01*
X109369000Y-67988327D01*
X109306338Y-68021696D01*
X109235579Y-68015891D01*
X109213330Y-68004687D01*
X109213253Y-68004638D01*
X109156666Y-67968727D01*
X109099716Y-67948448D01*
X108992425Y-67910243D01*
X108992420Y-67910242D01*
X108985790Y-67907881D01*
X108978802Y-67907048D01*
X108978799Y-67907047D01*
X108855698Y-67892368D01*
X108805680Y-67886404D01*
X108798677Y-67887140D01*
X108798676Y-67887140D01*
X108632288Y-67904628D01*
X108632286Y-67904629D01*
X108625288Y-67905364D01*
X108453579Y-67963818D01*
X108413744Y-67988325D01*
X108305095Y-68055166D01*
X108305092Y-68055168D01*
X108299088Y-68058862D01*
X108294053Y-68063793D01*
X108294050Y-68063795D01*
X108179012Y-68176449D01*
X108169493Y-68185771D01*
X108071235Y-68338238D01*
X108068826Y-68344858D01*
X108068823Y-68344863D01*
X108068739Y-68345095D01*
X108068645Y-68345223D01*
X108065693Y-68351169D01*
X108064649Y-68350651D01*
X108026646Y-68402268D01*
X107960326Y-68427607D01*
X107890834Y-68413069D01*
X107840234Y-68363268D01*
X107836706Y-68356446D01*
X107836062Y-68355103D01*
X107833745Y-68348448D01*
X107820118Y-68326639D01*
X107741359Y-68200598D01*
X107737626Y-68194624D01*
X107723941Y-68180843D01*
X107614778Y-68070915D01*
X107614774Y-68070912D01*
X107609815Y-68065918D01*
X107598697Y-68058862D01*
X107513330Y-68004687D01*
X107456666Y-67968727D01*
X107450022Y-67966361D01*
X107443697Y-67963276D01*
X107445112Y-67960375D01*
X107399120Y-67927024D01*
X107373301Y-67860888D01*
X107387337Y-67791293D01*
X107436134Y-67740990D01*
X107436108Y-67740947D01*
X107436268Y-67740852D01*
X107436269Y-67740851D01*
X107452377Y-67731249D01*
X107467281Y-67722364D01*
X107483370Y-67712773D01*
X107552125Y-67695073D01*
X107616881Y-67715570D01*
X107625384Y-67721134D01*
X107633159Y-67726222D01*
X107639763Y-67728678D01*
X107639765Y-67728679D01*
X107796558Y-67786990D01*
X107796560Y-67786990D01*
X107803168Y-67789448D01*
X107886995Y-67800633D01*
X107975980Y-67812507D01*
X107975984Y-67812507D01*
X107982961Y-67813438D01*
X107989972Y-67812800D01*
X107989976Y-67812800D01*
X108132459Y-67799832D01*
X108163600Y-67796998D01*
X108170302Y-67794820D01*
X108170304Y-67794820D01*
X108329409Y-67743124D01*
X108329412Y-67743123D01*
X108336108Y-67740947D01*
X108461220Y-67666365D01*
X108485860Y-67651677D01*
X108485862Y-67651676D01*
X108491912Y-67648069D01*
X108623266Y-67522982D01*
X108723643Y-67371902D01*
X108781862Y-67218642D01*
X108785555Y-67208920D01*
X108785556Y-67208918D01*
X108788055Y-67202338D01*
X108791186Y-67180058D01*
X108812748Y-67026639D01*
X108812748Y-67026636D01*
X108813299Y-67022717D01*
X108813616Y-67000000D01*
X108793397Y-66819745D01*
X108791080Y-66813091D01*
X108736064Y-66655106D01*
X108736062Y-66655103D01*
X108733745Y-66648448D01*
X108637626Y-66494624D01*
X108551010Y-66407402D01*
X108517204Y-66344973D01*
X108522516Y-66274175D01*
X108523286Y-66272439D01*
X108523643Y-66271902D01*
X108545852Y-66213438D01*
X108585555Y-66108920D01*
X108585556Y-66108918D01*
X108588055Y-66102338D01*
X108589139Y-66094624D01*
X108612748Y-65926639D01*
X108612748Y-65926636D01*
X108613299Y-65922717D01*
X108613506Y-65907881D01*
X108613561Y-65903962D01*
X108613561Y-65903957D01*
X108613616Y-65900000D01*
X108593397Y-65719745D01*
X108591080Y-65713091D01*
X108536064Y-65555106D01*
X108536062Y-65555103D01*
X108533745Y-65548448D01*
X108491676Y-65481123D01*
X108441359Y-65400598D01*
X108437626Y-65394624D01*
X108425912Y-65382828D01*
X108314778Y-65270915D01*
X108314774Y-65270912D01*
X108309815Y-65265918D01*
X108298935Y-65259013D01*
X108237058Y-65219745D01*
X108156666Y-65168727D01*
X108123803Y-65157025D01*
X107992425Y-65110243D01*
X107992420Y-65110242D01*
X107985790Y-65107881D01*
X107978802Y-65107048D01*
X107978799Y-65107047D01*
X107855698Y-65092368D01*
X107805680Y-65086404D01*
X107798677Y-65087140D01*
X107798676Y-65087140D01*
X107632288Y-65104628D01*
X107632286Y-65104629D01*
X107625288Y-65105364D01*
X107453579Y-65163818D01*
X107365946Y-65217731D01*
X107297447Y-65236388D01*
X107232412Y-65216797D01*
X107162620Y-65172505D01*
X107162616Y-65172503D01*
X107156666Y-65168727D01*
X107123803Y-65157025D01*
X106992425Y-65110243D01*
X106992420Y-65110242D01*
X106985790Y-65107881D01*
X106978802Y-65107048D01*
X106978799Y-65107047D01*
X106855698Y-65092368D01*
X106805680Y-65086404D01*
X106798677Y-65087140D01*
X106798676Y-65087140D01*
X106632288Y-65104628D01*
X106632286Y-65104629D01*
X106625288Y-65105364D01*
X106453579Y-65163818D01*
X106447575Y-65167512D01*
X106305095Y-65255166D01*
X106305092Y-65255168D01*
X106299088Y-65258862D01*
X106294053Y-65263793D01*
X106294050Y-65263795D01*
X106174525Y-65380843D01*
X106169493Y-65385771D01*
X106071235Y-65538238D01*
X106068826Y-65544858D01*
X106068824Y-65544861D01*
X106022365Y-65672506D01*
X106009197Y-65708685D01*
X105986463Y-65888640D01*
X101531684Y-65888640D01*
X101414778Y-65770915D01*
X101414774Y-65770912D01*
X101409815Y-65765918D01*
X101394646Y-65756291D01*
X101330644Y-65715675D01*
X101256666Y-65668727D01*
X101227463Y-65658328D01*
X101092425Y-65610243D01*
X101092420Y-65610242D01*
X101085790Y-65607881D01*
X101078802Y-65607048D01*
X101078799Y-65607047D01*
X100944013Y-65590975D01*
X100905680Y-65586404D01*
X100898677Y-65587140D01*
X100898676Y-65587140D01*
X100732288Y-65604628D01*
X100732286Y-65604629D01*
X100725288Y-65605364D01*
X100674604Y-65622618D01*
X100603673Y-65625636D01*
X100542369Y-65589826D01*
X100510158Y-65526557D01*
X100508000Y-65503340D01*
X100508000Y-63049328D01*
X100509500Y-63029943D01*
X100511805Y-63015142D01*
X100511805Y-63015139D01*
X100513186Y-63006270D01*
X100510941Y-62989101D01*
X100510108Y-62965161D01*
X100512251Y-62929733D01*
X100987822Y-62929733D01*
X100987975Y-62934121D01*
X100987975Y-62934127D01*
X100995866Y-63160073D01*
X100997625Y-63210458D01*
X100998387Y-63214781D01*
X100998388Y-63214788D01*
X101022164Y-63349624D01*
X101046402Y-63487087D01*
X101133203Y-63754235D01*
X101135131Y-63758188D01*
X101135133Y-63758193D01*
X101147701Y-63783960D01*
X101256340Y-64006702D01*
X101258795Y-64010341D01*
X101258798Y-64010347D01*
X101311608Y-64088640D01*
X101413415Y-64239576D01*
X101416360Y-64242847D01*
X101416361Y-64242848D01*
X101441365Y-64270618D01*
X101601371Y-64448322D01*
X101816550Y-64628879D01*
X102054764Y-64777731D01*
X102169195Y-64828679D01*
X102306086Y-64889627D01*
X102311375Y-64891982D01*
X102581390Y-64969407D01*
X102585740Y-64970018D01*
X102585743Y-64970019D01*
X102688690Y-64984487D01*
X102859552Y-65008500D01*
X103070146Y-65008500D01*
X103072332Y-65008347D01*
X103072336Y-65008347D01*
X103275827Y-64994118D01*
X103275832Y-64994117D01*
X103280212Y-64993811D01*
X103554970Y-64935409D01*
X103559099Y-64933906D01*
X103559103Y-64933905D01*
X103814781Y-64840846D01*
X103814785Y-64840844D01*
X103818926Y-64839337D01*
X104066942Y-64707464D01*
X104120259Y-64668727D01*
X104290629Y-64544947D01*
X104290632Y-64544944D01*
X104294192Y-64542358D01*
X104297788Y-64538886D01*
X104408148Y-64432312D01*
X104496252Y-64347231D01*
X104669188Y-64125882D01*
X104671384Y-64122078D01*
X104671389Y-64122071D01*
X104799413Y-63900326D01*
X104809636Y-63882619D01*
X104914862Y-63622176D01*
X104924292Y-63584355D01*
X104981753Y-63353893D01*
X104981754Y-63353888D01*
X104982817Y-63349624D01*
X104983501Y-63343124D01*
X105011719Y-63074636D01*
X105011719Y-63074633D01*
X105012178Y-63070267D01*
X105011177Y-63041589D01*
X105002529Y-62793939D01*
X105002528Y-62793933D01*
X105002375Y-62789542D01*
X105000842Y-62780843D01*
X104954360Y-62517236D01*
X104953598Y-62512913D01*
X104866797Y-62245765D01*
X104857162Y-62226009D01*
X104793958Y-62096424D01*
X104743660Y-61993298D01*
X104741205Y-61989659D01*
X104741202Y-61989653D01*
X104641548Y-61841910D01*
X104586585Y-61760424D01*
X104398629Y-61551678D01*
X104183450Y-61371121D01*
X103945236Y-61222269D01*
X103759299Y-61139484D01*
X103692639Y-61109805D01*
X103692637Y-61109804D01*
X103688625Y-61108018D01*
X103533992Y-61063678D01*
X103422837Y-61031805D01*
X103422836Y-61031805D01*
X103418610Y-61030593D01*
X103414260Y-61029982D01*
X103414257Y-61029981D01*
X103311310Y-61015513D01*
X103140448Y-60991500D01*
X102929854Y-60991500D01*
X102927668Y-60991653D01*
X102927664Y-60991653D01*
X102724173Y-61005882D01*
X102724168Y-61005883D01*
X102719788Y-61006189D01*
X102445030Y-61064591D01*
X102440901Y-61066094D01*
X102440897Y-61066095D01*
X102185219Y-61159154D01*
X102185215Y-61159156D01*
X102181074Y-61160663D01*
X101933058Y-61292536D01*
X101929499Y-61295122D01*
X101929497Y-61295123D01*
X101719465Y-61447720D01*
X101705808Y-61457642D01*
X101702644Y-61460698D01*
X101702641Y-61460700D01*
X101676456Y-61485987D01*
X101503748Y-61652769D01*
X101381750Y-61808920D01*
X101333854Y-61870225D01*
X101330812Y-61874118D01*
X101328616Y-61877922D01*
X101328611Y-61877929D01*
X101223693Y-62059654D01*
X101190364Y-62117381D01*
X101085138Y-62377824D01*
X101084073Y-62382097D01*
X101084072Y-62382099D01*
X101032576Y-62588640D01*
X101017183Y-62650376D01*
X101016724Y-62654744D01*
X101016723Y-62654749D01*
X100989470Y-62914049D01*
X100987822Y-62929733D01*
X100512251Y-62929733D01*
X100525710Y-62707230D01*
X100527544Y-62692126D01*
X100551473Y-62561547D01*
X100579040Y-62411121D01*
X100582679Y-62396353D01*
X100584541Y-62390380D01*
X100667675Y-62123592D01*
X100673070Y-62109370D01*
X100790316Y-61848860D01*
X100797385Y-61835391D01*
X100945182Y-61590905D01*
X100953825Y-61578383D01*
X101130016Y-61353493D01*
X101140106Y-61342105D01*
X101342105Y-61140106D01*
X101353493Y-61130016D01*
X101578383Y-60953825D01*
X101590905Y-60945182D01*
X101835391Y-60797385D01*
X101848860Y-60790316D01*
X102109373Y-60673069D01*
X102123592Y-60667675D01*
X102396359Y-60582678D01*
X102411121Y-60579040D01*
X102621352Y-60540514D01*
X102692126Y-60527544D01*
X102707230Y-60525710D01*
X102957929Y-60510545D01*
X102984639Y-60511802D01*
X102984859Y-60511805D01*
X102993730Y-60513186D01*
X103002632Y-60512022D01*
X103002635Y-60512022D01*
X103025251Y-60509064D01*
X103041589Y-60508000D01*
X112085840Y-60508000D01*
X112153961Y-60528002D01*
G37*
%TD.AperFunction*%
%TD*%
M02*
