M48
; DRILL file {KiCad (6.0.0)} date Mon May 23 22:47:48 2022
; FORMAT={-:-/ absolute / metric / decimal}
; #@! TF.CreationDate,2022-05-23T22:47:48+07:00
; #@! TF.GenerationSoftware,Kicad,Pcbnew,(6.0.0)
; #@! TF.FileFunction,Plated,1,4,PTH
FMAT,2
METRIC
; #@! TA.AperFunction,Plated,PTH,ViaDrill
T1C0.400
; #@! TA.AperFunction,Plated,PTH,ComponentDrill
T2C0.600
; #@! TA.AperFunction,Plated,PTH,ComponentDrill
T3C0.850
; #@! TA.AperFunction,Plated,PTH,ComponentDrill
T4C1.000
%
G90
G05
T1
X100.8Y-86.8
X100.8Y-90.2
X100.9Y-66.4
X103.5Y-76.4
X105.5Y-74.3
X106.4Y-73.7
X106.5Y-74.9
X106.6Y-60.7
X106.8Y-65.9
X107.1Y-67.0
X107.1Y-68.7
X107.2Y-71.9
X107.3Y-60.7
X107.4Y-76.7
X107.5Y-89.3
X107.8Y-65.9
X107.9Y-74.3
X108.0Y-60.7
X108.0Y-67.0
X108.4Y-72.4
X108.7Y-69.8
X108.8Y-68.7
X109.108Y-78.592
X109.4Y-81.1
X109.52Y-79.586
X109.6Y-75.2
X109.9Y-68.6
X110.1Y-86.7
X110.7Y-75.4
X111.0Y-68.4
X111.9Y-68.4
X112.0Y-75.728
X112.3Y-80.8
X112.361Y-74.344
X112.4Y-62.6
X112.4Y-81.6
X112.4Y-82.4
X112.8Y-75.325
X112.9Y-68.5
X113.5Y-73.4
X113.6Y-66.9
X113.669Y-78.824
X114.2Y-74.7
X114.2Y-81.5
X114.6Y-68.3
X114.7Y-66.8
X114.9Y-78.8
X114.959Y-74.05
X115.1Y-70.7
X115.2Y-71.8
X115.2Y-80.0
X115.5Y-69.5
X115.6Y-68.3
X115.9Y-79.1
X116.3Y-66.8
X116.724Y-78.7
X117.221Y-79.327
X117.9Y-66.7
X118.0Y-72.2
X118.3Y-86.5
X118.5Y-70.3
X118.7Y-66.6
X119.2Y-71.0
X119.363Y-86.188
X119.8Y-73.9
X120.0Y-70.3
X120.491Y-77.6
X120.5Y-78.8
X121.1Y-83.5
X121.475Y-82.574
X122.8Y-78.1
X123.1Y-70.9
X123.2Y-67.1
X123.6Y-75.3
X124.1Y-68.4
X124.1Y-69.7
X124.6Y-65.4
X124.7Y-76.6
X125.1Y-87.4
X125.3Y-61.6
X125.4Y-80.5
X125.5Y-64.1
X126.0Y-86.9
X126.5Y-76.8
X127.0Y-69.7
X127.1Y-68.4
X127.3Y-63.3
X127.3Y-64.1
X127.3Y-86.7
X127.9Y-85.7
X128.1Y-77.9
X128.7Y-63.3
X129.4Y-64.8
X129.8Y-71.2
X129.8Y-72.5
X129.9Y-86.7
X131.0Y-73.2
X131.0Y-87.4
X132.1Y-85.4
T3
X115.3Y-65.162
X120.3Y-65.162
T4
X110.6Y-89.45
X110.635Y-92.125
X110.635Y-94.665
X113.14Y-89.45
X113.175Y-92.125
X113.175Y-94.665
X115.68Y-89.45
X115.715Y-92.125
X115.715Y-94.665
X118.22Y-89.45
X118.255Y-92.125
X118.255Y-94.665
X120.76Y-89.45
X120.795Y-92.125
X120.795Y-94.665
X123.3Y-89.45
X123.335Y-92.125
X123.335Y-94.665
X125.875Y-92.125
X125.875Y-94.665
T2
G00X114.3Y-62.812
M15
G01X114.3Y-62.112
M16
G05
G00X121.3Y-62.112
M15
G01X121.3Y-62.812
M16
G05
T0
M30
