%TF.GenerationSoftware,KiCad,Pcbnew,(6.0.0)*%
%TF.CreationDate,2022-05-23T22:47:49+07:00*%
%TF.ProjectId,MINI-FC,4d494e49-2d46-4432-9e6b-696361645f70,rev?*%
%TF.SameCoordinates,Original*%
%TF.FileFunction,Soldermask,Top*%
%TF.FilePolarity,Negative*%
%FSLAX46Y46*%
G04 Gerber Fmt 4.6, Leading zero omitted, Abs format (unit mm)*
G04 Created by KiCad (PCBNEW (6.0.0)) date 2022-05-23 22:47:49*
%MOMM*%
%LPD*%
G01*
G04 APERTURE LIST*
G04 Aperture macros list*
%AMRoundRect*
0 Rectangle with rounded corners*
0 $1 Rounding radius*
0 $2 $3 $4 $5 $6 $7 $8 $9 X,Y pos of 4 corners*
0 Add a 4 corners polygon primitive as box body*
4,1,4,$2,$3,$4,$5,$6,$7,$8,$9,$2,$3,0*
0 Add four circle primitives for the rounded corners*
1,1,$1+$1,$2,$3*
1,1,$1+$1,$4,$5*
1,1,$1+$1,$6,$7*
1,1,$1+$1,$8,$9*
0 Add four rect primitives between the rounded corners*
20,1,$1+$1,$2,$3,$4,$5,0*
20,1,$1+$1,$4,$5,$6,$7,0*
20,1,$1+$1,$6,$7,$8,$9,0*
20,1,$1+$1,$8,$9,$2,$3,0*%
%AMFreePoly0*
4,1,9,3.862500,-0.866500,0.737500,-0.866500,0.737500,-0.450000,-0.737500,-0.450000,-0.737500,0.450000,0.737500,0.450000,0.737500,0.866500,3.862500,0.866500,3.862500,-0.866500,3.862500,-0.866500,$1*%
G04 Aperture macros list end*
%ADD10RoundRect,0.150000X0.825000X0.150000X-0.825000X0.150000X-0.825000X-0.150000X0.825000X-0.150000X0*%
%ADD11RoundRect,0.200000X0.275000X-0.200000X0.275000X0.200000X-0.275000X0.200000X-0.275000X-0.200000X0*%
%ADD12RoundRect,0.200000X0.200000X0.275000X-0.200000X0.275000X-0.200000X-0.275000X0.200000X-0.275000X0*%
%ADD13C,3.000000*%
%ADD14R,1.700000X1.700000*%
%ADD15O,1.700000X1.700000*%
%ADD16RoundRect,0.250000X0.450000X0.425000X-0.450000X0.425000X-0.450000X-0.425000X0.450000X-0.425000X0*%
%ADD17RoundRect,0.200000X-0.275000X0.200000X-0.275000X-0.200000X0.275000X-0.200000X0.275000X0.200000X0*%
%ADD18RoundRect,0.066000X0.154000X-0.404000X0.154000X0.404000X-0.154000X0.404000X-0.154000X-0.404000X0*%
%ADD19R,4.300000X3.400000*%
%ADD20RoundRect,0.075000X-0.662500X-0.075000X0.662500X-0.075000X0.662500X0.075000X-0.662500X0.075000X0*%
%ADD21RoundRect,0.075000X-0.075000X-0.662500X0.075000X-0.662500X0.075000X0.662500X-0.075000X0.662500X0*%
%ADD22RoundRect,0.250000X-0.750000X-0.250000X0.750000X-0.250000X0.750000X0.250000X-0.750000X0.250000X0*%
%ADD23R,0.900000X1.300000*%
%ADD24FreePoly0,90.000000*%
%ADD25RoundRect,0.075000X0.350000X0.075000X-0.350000X0.075000X-0.350000X-0.075000X0.350000X-0.075000X0*%
%ADD26RoundRect,0.075000X-0.075000X0.350000X-0.075000X-0.350000X0.075000X-0.350000X0.075000X0.350000X0*%
%ADD27RoundRect,0.150000X0.587500X0.150000X-0.587500X0.150000X-0.587500X-0.150000X0.587500X-0.150000X0*%
%ADD28RoundRect,0.200000X0.600000X-0.200000X0.600000X0.200000X-0.600000X0.200000X-0.600000X-0.200000X0*%
%ADD29RoundRect,0.250001X1.249999X-0.799999X1.249999X0.799999X-1.249999X0.799999X-1.249999X-0.799999X0*%
%ADD30RoundRect,0.218750X0.256250X-0.218750X0.256250X0.218750X-0.256250X0.218750X-0.256250X-0.218750X0*%
%ADD31RoundRect,0.150000X0.512500X0.150000X-0.512500X0.150000X-0.512500X-0.150000X0.512500X-0.150000X0*%
%ADD32RoundRect,0.218750X-0.218750X-0.256250X0.218750X-0.256250X0.218750X0.256250X-0.218750X0.256250X0*%
%ADD33RoundRect,0.200000X-0.200000X-0.275000X0.200000X-0.275000X0.200000X0.275000X-0.200000X0.275000X0*%
%ADD34RoundRect,0.200000X-0.600000X0.200000X-0.600000X-0.200000X0.600000X-0.200000X0.600000X0.200000X0*%
%ADD35RoundRect,0.250001X-1.249999X0.799999X-1.249999X-0.799999X1.249999X-0.799999X1.249999X0.799999X0*%
%ADD36RoundRect,0.250000X-0.425000X0.450000X-0.425000X-0.450000X0.425000X-0.450000X0.425000X0.450000X0*%
%ADD37R,0.400000X1.350000*%
%ADD38C,1.450000*%
%ADD39R,1.500000X1.900000*%
%ADD40R,1.200000X1.900000*%
%ADD41O,1.200000X1.900000*%
G04 APERTURE END LIST*
D10*
%TO.C,U4*%
X121675000Y-73405000D03*
X121675000Y-72135000D03*
X121675000Y-70865000D03*
X121675000Y-69595000D03*
X116725000Y-69595000D03*
X116725000Y-70865000D03*
X116725000Y-72135000D03*
X116725000Y-73405000D03*
%TD*%
D11*
%TO.C,R4*%
X127300000Y-62525000D03*
X127300000Y-60875000D03*
%TD*%
D12*
%TO.C,R5*%
X105600000Y-67200000D03*
X103950000Y-67200000D03*
%TD*%
D13*
%TO.C,REF\u002A\u002A*%
X133500000Y-93500000D03*
%TD*%
D14*
%TO.C,PWR1*%
X125875000Y-92125000D03*
D15*
X125875000Y-94665000D03*
X123335000Y-92125000D03*
X123335000Y-94665000D03*
X120795000Y-92125000D03*
X120795000Y-94665000D03*
X118255000Y-92125000D03*
X118255000Y-94665000D03*
X115715000Y-92125000D03*
X115715000Y-94665000D03*
X113175000Y-92125000D03*
X113175000Y-94665000D03*
X110635000Y-92125000D03*
X110635000Y-94665000D03*
%TD*%
D16*
%TO.C,C16*%
X112100000Y-66600000D03*
X109400000Y-66600000D03*
%TD*%
D17*
%TO.C,R16*%
X128762500Y-64750000D03*
X128762500Y-66400000D03*
%TD*%
D13*
%TO.C,REF\u002A\u002A*%
X133500000Y-63000000D03*
%TD*%
D18*
%TO.C,U2*%
X123495000Y-85695000D03*
X124765000Y-85695000D03*
X126035000Y-85695000D03*
X127305000Y-85695000D03*
X127305000Y-77905000D03*
X126035000Y-77905000D03*
X124765000Y-77905000D03*
X123495000Y-77905000D03*
D19*
X125400000Y-81800000D03*
%TD*%
D20*
%TO.C,U1*%
X111037500Y-78250000D03*
X111037500Y-78750000D03*
X111037500Y-79250000D03*
X111037500Y-79750000D03*
X111037500Y-80250000D03*
X111037500Y-80750000D03*
X111037500Y-81250000D03*
X111037500Y-81750000D03*
X111037500Y-82250000D03*
X111037500Y-82750000D03*
X111037500Y-83250000D03*
X111037500Y-83750000D03*
D21*
X112450000Y-85162500D03*
X112950000Y-85162500D03*
X113450000Y-85162500D03*
X113950000Y-85162500D03*
X114450000Y-85162500D03*
X114950000Y-85162500D03*
X115450000Y-85162500D03*
X115950000Y-85162500D03*
X116450000Y-85162500D03*
X116950000Y-85162500D03*
X117450000Y-85162500D03*
X117950000Y-85162500D03*
D20*
X119362500Y-83750000D03*
X119362500Y-83250000D03*
X119362500Y-82750000D03*
X119362500Y-82250000D03*
X119362500Y-81750000D03*
X119362500Y-81250000D03*
X119362500Y-80750000D03*
X119362500Y-80250000D03*
X119362500Y-79750000D03*
X119362500Y-79250000D03*
X119362500Y-78750000D03*
X119362500Y-78250000D03*
D21*
X117950000Y-76837500D03*
X117450000Y-76837500D03*
X116950000Y-76837500D03*
X116450000Y-76837500D03*
X115950000Y-76837500D03*
X115450000Y-76837500D03*
X114950000Y-76837500D03*
X114450000Y-76837500D03*
X113950000Y-76837500D03*
X113450000Y-76837500D03*
X112950000Y-76837500D03*
X112450000Y-76837500D03*
%TD*%
D22*
%TO.C,J2*%
X125600000Y-68460000D03*
X125600000Y-69730000D03*
X125600000Y-71000000D03*
X125600000Y-72270000D03*
%TD*%
D23*
%TO.C,U5*%
X109300000Y-64600000D03*
D24*
X110800000Y-64512500D03*
D23*
X112300000Y-64600000D03*
%TD*%
D25*
%TO.C,U3*%
X113500000Y-72800000D03*
X113500000Y-72300000D03*
X113500000Y-71800000D03*
X113500000Y-71300000D03*
X113500000Y-70800000D03*
X113500000Y-70300000D03*
D26*
X112800000Y-69600000D03*
X112300000Y-69600000D03*
X111800000Y-69600000D03*
X111300000Y-69600000D03*
X110800000Y-69600000D03*
X110300000Y-69600000D03*
D25*
X109600000Y-70300000D03*
X109600000Y-70800000D03*
X109600000Y-71300000D03*
X109600000Y-71800000D03*
X109600000Y-72300000D03*
X109600000Y-72800000D03*
D26*
X110300000Y-73500000D03*
X110800000Y-73500000D03*
X111300000Y-73500000D03*
X111800000Y-73500000D03*
X112300000Y-73500000D03*
X112800000Y-73500000D03*
%TD*%
D13*
%TO.C,REF\u002A\u002A*%
X103000000Y-63000000D03*
%TD*%
D27*
%TO.C,Q1*%
X125300000Y-62900000D03*
X125300000Y-61000000D03*
X123425000Y-61950000D03*
%TD*%
D13*
%TO.C,REF\u002A\u002A*%
X103000000Y-93500000D03*
%TD*%
D28*
%TO.C,RCIN2*%
X131000000Y-86725000D03*
X131000000Y-85475000D03*
X131000000Y-84225000D03*
X131000000Y-82975000D03*
X131000000Y-81725000D03*
X131000000Y-80475000D03*
D29*
X133900000Y-77925000D03*
X133900000Y-89275000D03*
%TD*%
D28*
%TO.C,PPM1*%
X131000000Y-72450000D03*
X131000000Y-71200000D03*
X131000000Y-69950000D03*
D29*
X133900000Y-75000000D03*
X133900000Y-67400000D03*
%TD*%
D30*
%TO.C,D1*%
X128800000Y-62475000D03*
X128800000Y-60900000D03*
%TD*%
D12*
%TO.C,R6*%
X105500000Y-89300000D03*
X103850000Y-89300000D03*
%TD*%
D31*
%TO.C,U6*%
X125500000Y-66400000D03*
X125500000Y-65450000D03*
X125500000Y-64500000D03*
X123225000Y-64500000D03*
X123225000Y-66400000D03*
%TD*%
D32*
%TO.C,D3*%
X100812500Y-89300000D03*
X102387500Y-89300000D03*
%TD*%
D33*
%TO.C,R1*%
X100800000Y-87700000D03*
X102450000Y-87700000D03*
%TD*%
D34*
%TO.C,RCIN1*%
X105500000Y-75075000D03*
X105500000Y-76325000D03*
X105500000Y-77575000D03*
X105500000Y-78825000D03*
X105500000Y-80075000D03*
X105500000Y-81325000D03*
D35*
X102600000Y-83875000D03*
X102600000Y-72525000D03*
%TD*%
D14*
%TO.C,PWM_SIG1*%
X110600000Y-89450000D03*
D15*
X113140000Y-89450000D03*
X115680000Y-89450000D03*
X118220000Y-89450000D03*
X120760000Y-89450000D03*
X123300000Y-89450000D03*
%TD*%
D32*
%TO.C,D2*%
X100812500Y-67200000D03*
X102387500Y-67200000D03*
%TD*%
D36*
%TO.C,C17*%
X107200000Y-61800000D03*
X107200000Y-64500000D03*
%TD*%
D11*
%TO.C,R17*%
X127262500Y-66400000D03*
X127262500Y-64750000D03*
%TD*%
D37*
%TO.C,J1*%
X119100000Y-65162500D03*
X118450000Y-65162500D03*
X117800000Y-65162500D03*
X117150000Y-65162500D03*
X116500000Y-65162500D03*
D38*
X120300000Y-65162500D03*
X115300000Y-65162500D03*
D39*
X116800000Y-62462500D03*
D40*
X114900000Y-62462500D03*
X120700000Y-62462500D03*
D41*
X114300000Y-62462500D03*
D39*
X118800000Y-62462500D03*
D41*
X121300000Y-62462500D03*
%TD*%
M02*
