%TF.GenerationSoftware,KiCad,Pcbnew,(6.0.0)*%
%TF.CreationDate,2022-05-23T22:47:49+07:00*%
%TF.ProjectId,MINI-FC,4d494e49-2d46-4432-9e6b-696361645f70,rev?*%
%TF.SameCoordinates,Original*%
%TF.FileFunction,Copper,L1,Top*%
%TF.FilePolarity,Positive*%
%FSLAX46Y46*%
G04 Gerber Fmt 4.6, Leading zero omitted, Abs format (unit mm)*
G04 Created by KiCad (PCBNEW (6.0.0)) date 2022-05-23 22:47:49*
%MOMM*%
%LPD*%
G01*
G04 APERTURE LIST*
G04 Aperture macros list*
%AMRoundRect*
0 Rectangle with rounded corners*
0 $1 Rounding radius*
0 $2 $3 $4 $5 $6 $7 $8 $9 X,Y pos of 4 corners*
0 Add a 4 corners polygon primitive as box body*
4,1,4,$2,$3,$4,$5,$6,$7,$8,$9,$2,$3,0*
0 Add four circle primitives for the rounded corners*
1,1,$1+$1,$2,$3*
1,1,$1+$1,$4,$5*
1,1,$1+$1,$6,$7*
1,1,$1+$1,$8,$9*
0 Add four rect primitives between the rounded corners*
20,1,$1+$1,$2,$3,$4,$5,0*
20,1,$1+$1,$4,$5,$6,$7,0*
20,1,$1+$1,$6,$7,$8,$9,0*
20,1,$1+$1,$8,$9,$2,$3,0*%
%AMFreePoly0*
4,1,9,3.862500,-0.866500,0.737500,-0.866500,0.737500,-0.450000,-0.737500,-0.450000,-0.737500,0.450000,0.737500,0.450000,0.737500,0.866500,3.862500,0.866500,3.862500,-0.866500,3.862500,-0.866500,$1*%
G04 Aperture macros list end*
%TA.AperFunction,SMDPad,CuDef*%
%ADD10RoundRect,0.150000X0.825000X0.150000X-0.825000X0.150000X-0.825000X-0.150000X0.825000X-0.150000X0*%
%TD*%
%TA.AperFunction,SMDPad,CuDef*%
%ADD11RoundRect,0.200000X0.275000X-0.200000X0.275000X0.200000X-0.275000X0.200000X-0.275000X-0.200000X0*%
%TD*%
%TA.AperFunction,SMDPad,CuDef*%
%ADD12RoundRect,0.200000X0.200000X0.275000X-0.200000X0.275000X-0.200000X-0.275000X0.200000X-0.275000X0*%
%TD*%
%TA.AperFunction,ComponentPad*%
%ADD13R,1.700000X1.700000*%
%TD*%
%TA.AperFunction,ComponentPad*%
%ADD14O,1.700000X1.700000*%
%TD*%
%TA.AperFunction,SMDPad,CuDef*%
%ADD15RoundRect,0.250000X0.450000X0.425000X-0.450000X0.425000X-0.450000X-0.425000X0.450000X-0.425000X0*%
%TD*%
%TA.AperFunction,SMDPad,CuDef*%
%ADD16RoundRect,0.200000X-0.275000X0.200000X-0.275000X-0.200000X0.275000X-0.200000X0.275000X0.200000X0*%
%TD*%
%TA.AperFunction,SMDPad,CuDef*%
%ADD17RoundRect,0.066000X0.154000X-0.404000X0.154000X0.404000X-0.154000X0.404000X-0.154000X-0.404000X0*%
%TD*%
%TA.AperFunction,SMDPad,CuDef*%
%ADD18R,4.300000X3.400000*%
%TD*%
%TA.AperFunction,SMDPad,CuDef*%
%ADD19RoundRect,0.075000X-0.662500X-0.075000X0.662500X-0.075000X0.662500X0.075000X-0.662500X0.075000X0*%
%TD*%
%TA.AperFunction,SMDPad,CuDef*%
%ADD20RoundRect,0.075000X-0.075000X-0.662500X0.075000X-0.662500X0.075000X0.662500X-0.075000X0.662500X0*%
%TD*%
%TA.AperFunction,SMDPad,CuDef*%
%ADD21RoundRect,0.250000X-0.750000X-0.250000X0.750000X-0.250000X0.750000X0.250000X-0.750000X0.250000X0*%
%TD*%
%TA.AperFunction,SMDPad,CuDef*%
%ADD22R,0.900000X1.300000*%
%TD*%
%TA.AperFunction,SMDPad,CuDef*%
%ADD23FreePoly0,90.000000*%
%TD*%
%TA.AperFunction,SMDPad,CuDef*%
%ADD24RoundRect,0.075000X0.350000X0.075000X-0.350000X0.075000X-0.350000X-0.075000X0.350000X-0.075000X0*%
%TD*%
%TA.AperFunction,SMDPad,CuDef*%
%ADD25RoundRect,0.075000X-0.075000X0.350000X-0.075000X-0.350000X0.075000X-0.350000X0.075000X0.350000X0*%
%TD*%
%TA.AperFunction,SMDPad,CuDef*%
%ADD26RoundRect,0.150000X0.587500X0.150000X-0.587500X0.150000X-0.587500X-0.150000X0.587500X-0.150000X0*%
%TD*%
%TA.AperFunction,SMDPad,CuDef*%
%ADD27RoundRect,0.200000X0.600000X-0.200000X0.600000X0.200000X-0.600000X0.200000X-0.600000X-0.200000X0*%
%TD*%
%TA.AperFunction,SMDPad,CuDef*%
%ADD28RoundRect,0.250001X1.249999X-0.799999X1.249999X0.799999X-1.249999X0.799999X-1.249999X-0.799999X0*%
%TD*%
%TA.AperFunction,SMDPad,CuDef*%
%ADD29RoundRect,0.218750X0.256250X-0.218750X0.256250X0.218750X-0.256250X0.218750X-0.256250X-0.218750X0*%
%TD*%
%TA.AperFunction,SMDPad,CuDef*%
%ADD30RoundRect,0.150000X0.512500X0.150000X-0.512500X0.150000X-0.512500X-0.150000X0.512500X-0.150000X0*%
%TD*%
%TA.AperFunction,SMDPad,CuDef*%
%ADD31RoundRect,0.218750X-0.218750X-0.256250X0.218750X-0.256250X0.218750X0.256250X-0.218750X0.256250X0*%
%TD*%
%TA.AperFunction,SMDPad,CuDef*%
%ADD32RoundRect,0.200000X-0.200000X-0.275000X0.200000X-0.275000X0.200000X0.275000X-0.200000X0.275000X0*%
%TD*%
%TA.AperFunction,SMDPad,CuDef*%
%ADD33RoundRect,0.200000X-0.600000X0.200000X-0.600000X-0.200000X0.600000X-0.200000X0.600000X0.200000X0*%
%TD*%
%TA.AperFunction,SMDPad,CuDef*%
%ADD34RoundRect,0.250001X-1.249999X0.799999X-1.249999X-0.799999X1.249999X-0.799999X1.249999X0.799999X0*%
%TD*%
%TA.AperFunction,SMDPad,CuDef*%
%ADD35RoundRect,0.250000X-0.425000X0.450000X-0.425000X-0.450000X0.425000X-0.450000X0.425000X0.450000X0*%
%TD*%
%TA.AperFunction,SMDPad,CuDef*%
%ADD36R,0.400000X1.350000*%
%TD*%
%TA.AperFunction,ComponentPad*%
%ADD37C,1.450000*%
%TD*%
%TA.AperFunction,SMDPad,CuDef*%
%ADD38R,1.500000X1.900000*%
%TD*%
%TA.AperFunction,SMDPad,CuDef*%
%ADD39R,1.200000X1.900000*%
%TD*%
%TA.AperFunction,ComponentPad*%
%ADD40O,1.200000X1.900000*%
%TD*%
%TA.AperFunction,ViaPad*%
%ADD41C,0.800000*%
%TD*%
%TA.AperFunction,ViaPad*%
%ADD42C,0.600000*%
%TD*%
%TA.AperFunction,Conductor*%
%ADD43C,0.250000*%
%TD*%
%TA.AperFunction,Conductor*%
%ADD44C,0.300000*%
%TD*%
%TA.AperFunction,Conductor*%
%ADD45C,0.400000*%
%TD*%
G04 APERTURE END LIST*
D10*
%TO.P,U4,1,UD+*%
%TO.N,Net-(R12-Pad2)*%
X121675000Y-73405000D03*
%TO.P,U4,2,UD-*%
%TO.N,Net-(R13-Pad1)*%
X121675000Y-72135000D03*
%TO.P,U4,3,GND*%
%TO.N,GND*%
X121675000Y-70865000D03*
%TO.P,U4,4,~{RTS}*%
%TO.N,unconnected-(U4-Pad4)*%
X121675000Y-69595000D03*
%TO.P,U4,5,VCC*%
%TO.N,VUSB*%
X116725000Y-69595000D03*
%TO.P,U4,6,TXD*%
%TO.N,Net-(R14-Pad1)*%
X116725000Y-70865000D03*
%TO.P,U4,7,RXD*%
%TO.N,Net-(R15-Pad2)*%
X116725000Y-72135000D03*
%TO.P,U4,8,V3*%
%TO.N,Net-(C15-Pad2)*%
X116725000Y-73405000D03*
%TD*%
D11*
%TO.P,R4,1*%
%TO.N,+3V3*%
X127300000Y-62525000D03*
%TO.P,R4,2*%
%TO.N,Net-(D1-Pad2)*%
X127300000Y-60875000D03*
%TD*%
D12*
%TO.P,R5,1*%
%TO.N,LED_PC13*%
X105600000Y-67200000D03*
%TO.P,R5,2*%
%TO.N,Net-(D2-Pad2)*%
X103950000Y-67200000D03*
%TD*%
D13*
%TO.P,PWR1,1,Pin_1*%
%TO.N,+5V*%
X125875000Y-92125000D03*
D14*
%TO.P,PWR1,2,Pin_2*%
%TO.N,GND*%
X125875000Y-94665000D03*
%TO.P,PWR1,3,Pin_3*%
%TO.N,+5V*%
X123335000Y-92125000D03*
%TO.P,PWR1,4,Pin_4*%
%TO.N,GND*%
X123335000Y-94665000D03*
%TO.P,PWR1,5,Pin_5*%
%TO.N,+5V*%
X120795000Y-92125000D03*
%TO.P,PWR1,6,Pin_6*%
%TO.N,GND*%
X120795000Y-94665000D03*
%TO.P,PWR1,7,Pin_7*%
%TO.N,+5V*%
X118255000Y-92125000D03*
%TO.P,PWR1,8,Pin_8*%
%TO.N,GND*%
X118255000Y-94665000D03*
%TO.P,PWR1,9,Pin_9*%
%TO.N,+5V*%
X115715000Y-92125000D03*
%TO.P,PWR1,10,Pin_10*%
%TO.N,GND*%
X115715000Y-94665000D03*
%TO.P,PWR1,11,Pin_11*%
%TO.N,+5V*%
X113175000Y-92125000D03*
%TO.P,PWR1,12,Pin_12*%
%TO.N,GND*%
X113175000Y-94665000D03*
%TO.P,PWR1,13,Pin_13*%
%TO.N,+5V*%
X110635000Y-92125000D03*
%TO.P,PWR1,14,Pin_14*%
%TO.N,GND*%
X110635000Y-94665000D03*
%TD*%
D15*
%TO.P,C16,1*%
%TO.N,+5V*%
X112100000Y-66600000D03*
%TO.P,C16,2*%
%TO.N,GND*%
X109400000Y-66600000D03*
%TD*%
D16*
%TO.P,R16,1*%
%TO.N,+5V*%
X128762500Y-64750000D03*
%TO.P,R16,2*%
%TO.N,Net-(R16-Pad2)*%
X128762500Y-66400000D03*
%TD*%
D17*
%TO.P,U2,1,~{CS}*%
%TO.N,SPI2_CS*%
X123495000Y-85695000D03*
%TO.P,U2,2,DO(IO1)*%
%TO.N,SPI2_MISO*%
X124765000Y-85695000D03*
%TO.P,U2,3,IO2*%
%TO.N,Net-(R8-Pad2)*%
X126035000Y-85695000D03*
%TO.P,U2,4,GND*%
%TO.N,GND*%
X127305000Y-85695000D03*
%TO.P,U2,5,DI(IO0)*%
%TO.N,SPI2_MOSI*%
X127305000Y-77905000D03*
%TO.P,U2,6,CLK*%
%TO.N,SPI2_SCK*%
X126035000Y-77905000D03*
%TO.P,U2,7,IO3*%
%TO.N,Net-(R7-Pad2)*%
X124765000Y-77905000D03*
%TO.P,U2,8,VCC*%
%TO.N,+3V3*%
X123495000Y-77905000D03*
D18*
%TO.P,U2,9,EXP*%
%TO.N,GND*%
X125400000Y-81800000D03*
%TD*%
D19*
%TO.P,U1,1,VBAT*%
%TO.N,+3V3*%
X111037500Y-78250000D03*
%TO.P,U1,2,PC13*%
%TO.N,LED_PC13*%
X111037500Y-78750000D03*
%TO.P,U1,3,PC14*%
%TO.N,unconnected-(U1-Pad3)*%
X111037500Y-79250000D03*
%TO.P,U1,4,PC15*%
%TO.N,unconnected-(U1-Pad4)*%
X111037500Y-79750000D03*
%TO.P,U1,5,PD0*%
%TO.N,HSE_IN*%
X111037500Y-80250000D03*
%TO.P,U1,6,PD1*%
%TO.N,HSE_OUT*%
X111037500Y-80750000D03*
%TO.P,U1,7,NRST*%
%TO.N,NRST*%
X111037500Y-81250000D03*
%TO.P,U1,8,VSSA*%
%TO.N,GND*%
X111037500Y-81750000D03*
%TO.P,U1,9,VDDA*%
%TO.N,+3V3*%
X111037500Y-82250000D03*
%TO.P,U1,10,PA0*%
%TO.N,RC1*%
X111037500Y-82750000D03*
%TO.P,U1,11,PA1*%
%TO.N,RC2*%
X111037500Y-83250000D03*
%TO.P,U1,12,PA2*%
%TO.N,RC3_UART2_TX*%
X111037500Y-83750000D03*
D20*
%TO.P,U1,13,PA3*%
%TO.N,RC4_UART2_RX*%
X112450000Y-85162500D03*
%TO.P,U1,14,PA4*%
%TO.N,unconnected-(U1-Pad14)*%
X112950000Y-85162500D03*
%TO.P,U1,15,PA5*%
%TO.N,unconnected-(U1-Pad15)*%
X113450000Y-85162500D03*
%TO.P,U1,16,PA6*%
%TO.N,PWM1*%
X113950000Y-85162500D03*
%TO.P,U1,17,PA7*%
%TO.N,PWM2*%
X114450000Y-85162500D03*
%TO.P,U1,18,PB0*%
%TO.N,PWM3*%
X114950000Y-85162500D03*
%TO.P,U1,19,PB1*%
%TO.N,PWM4*%
X115450000Y-85162500D03*
%TO.P,U1,20,PB2*%
%TO.N,unconnected-(U1-Pad20)*%
X115950000Y-85162500D03*
%TO.P,U1,21,PB10*%
%TO.N,PWM5*%
X116450000Y-85162500D03*
%TO.P,U1,22,PB11*%
%TO.N,PWM6*%
X116950000Y-85162500D03*
%TO.P,U1,23,VSS*%
%TO.N,GND*%
X117450000Y-85162500D03*
%TO.P,U1,24,VDD*%
%TO.N,+3V3*%
X117950000Y-85162500D03*
D19*
%TO.P,U1,25,PB12*%
%TO.N,SPI2_CS*%
X119362500Y-83750000D03*
%TO.P,U1,26,PB13*%
%TO.N,SPI2_SCK*%
X119362500Y-83250000D03*
%TO.P,U1,27,PB14*%
%TO.N,SPI2_MISO*%
X119362500Y-82750000D03*
%TO.P,U1,28,PB15*%
%TO.N,SPI2_MOSI*%
X119362500Y-82250000D03*
%TO.P,U1,29,PA8*%
%TO.N,RC8*%
X119362500Y-81750000D03*
%TO.P,U1,30,PA9*%
%TO.N,RC7*%
X119362500Y-81250000D03*
%TO.P,U1,31,PA10*%
%TO.N,RC6*%
X119362500Y-80750000D03*
%TO.P,U1,32,PA11*%
%TO.N,RC5*%
X119362500Y-80250000D03*
%TO.P,U1,33,PA12*%
%TO.N,PPM*%
X119362500Y-79750000D03*
%TO.P,U1,34,PA13*%
%TO.N,SWDIO*%
X119362500Y-79250000D03*
%TO.P,U1,35,VSS*%
%TO.N,GND*%
X119362500Y-78750000D03*
%TO.P,U1,36,VDD*%
%TO.N,+3V3*%
X119362500Y-78250000D03*
D20*
%TO.P,U1,37,PA14*%
%TO.N,SWCLK*%
X117950000Y-76837500D03*
%TO.P,U1,38,PA15*%
%TO.N,LED_STATUS*%
X117450000Y-76837500D03*
%TO.P,U1,39,PB3*%
%TO.N,unconnected-(U1-Pad39)*%
X116950000Y-76837500D03*
%TO.P,U1,40,PB4*%
%TO.N,unconnected-(U1-Pad40)*%
X116450000Y-76837500D03*
%TO.P,U1,41,PB5*%
%TO.N,unconnected-(U1-Pad41)*%
X115950000Y-76837500D03*
%TO.P,U1,42,PB6*%
%TO.N,UART1_TX*%
X115450000Y-76837500D03*
%TO.P,U1,43,PB7*%
%TO.N,UART1_RX*%
X114950000Y-76837500D03*
%TO.P,U1,44,BOOT0*%
%TO.N,BOOT*%
X114450000Y-76837500D03*
%TO.P,U1,45,PB8*%
%TO.N,I2C1_SLC*%
X113950000Y-76837500D03*
%TO.P,U1,46,PB9*%
%TO.N,I2C1_SDA*%
X113450000Y-76837500D03*
%TO.P,U1,47,VSS*%
%TO.N,GND*%
X112950000Y-76837500D03*
%TO.P,U1,48,VDD*%
%TO.N,+3V3*%
X112450000Y-76837500D03*
%TD*%
D21*
%TO.P,J2,1,Pin_1*%
%TO.N,GND*%
X125600000Y-68460000D03*
%TO.P,J2,2,Pin_2*%
%TO.N,+3V3*%
X125600000Y-69730000D03*
%TO.P,J2,3,Pin_3*%
%TO.N,SWCLK*%
X125600000Y-71000000D03*
%TO.P,J2,4,Pin_4*%
%TO.N,SWDIO*%
X125600000Y-72270000D03*
%TD*%
D22*
%TO.P,U5,1,GND*%
%TO.N,GND*%
X109300000Y-64600000D03*
D23*
%TO.P,U5,2,VO*%
%TO.N,+3V3*%
X110800000Y-64512500D03*
D22*
%TO.P,U5,3,VI*%
%TO.N,+5V*%
X112300000Y-64600000D03*
%TD*%
D24*
%TO.P,U3,1,CLKIN*%
%TO.N,GND*%
X113500000Y-72800000D03*
%TO.P,U3,2*%
%TO.N,N/C*%
X113500000Y-72300000D03*
%TO.P,U3,3*%
X113500000Y-71800000D03*
%TO.P,U3,4*%
X113500000Y-71300000D03*
%TO.P,U3,5*%
X113500000Y-70800000D03*
%TO.P,U3,6,AUX_SDA*%
%TO.N,unconnected-(U3-Pad6)*%
X113500000Y-70300000D03*
D25*
%TO.P,U3,7,AUX_SCL*%
%TO.N,unconnected-(U3-Pad7)*%
X112800000Y-69600000D03*
%TO.P,U3,8,VDDIO*%
%TO.N,+3V3*%
X112300000Y-69600000D03*
%TO.P,U3,9,AD0*%
%TO.N,Net-(R11-Pad1)*%
X111800000Y-69600000D03*
%TO.P,U3,10,REGOUT*%
%TO.N,Net-(C11-Pad2)*%
X111300000Y-69600000D03*
%TO.P,U3,11,FSYNC*%
%TO.N,GND*%
X110800000Y-69600000D03*
%TO.P,U3,12,INT*%
%TO.N,unconnected-(U3-Pad12)*%
X110300000Y-69600000D03*
D24*
%TO.P,U3,13,VDD*%
%TO.N,+3V3*%
X109600000Y-70300000D03*
%TO.P,U3,14*%
%TO.N,N/C*%
X109600000Y-70800000D03*
%TO.P,U3,15*%
X109600000Y-71300000D03*
%TO.P,U3,16*%
X109600000Y-71800000D03*
%TO.P,U3,17*%
X109600000Y-72300000D03*
%TO.P,U3,18,GND*%
%TO.N,GND*%
X109600000Y-72800000D03*
D25*
%TO.P,U3,19*%
%TO.N,N/C*%
X110300000Y-73500000D03*
%TO.P,U3,20,CPOUT*%
%TO.N,Net-(C13-Pad2)*%
X110800000Y-73500000D03*
%TO.P,U3,21*%
%TO.N,N/C*%
X111300000Y-73500000D03*
%TO.P,U3,22*%
X111800000Y-73500000D03*
%TO.P,U3,23,SCL*%
%TO.N,I2C1_SLC*%
X112300000Y-73500000D03*
%TO.P,U3,24,SDA*%
%TO.N,I2C1_SDA*%
X112800000Y-73500000D03*
%TD*%
D26*
%TO.P,Q1,1,G*%
%TO.N,Net-(Q1-Pad1)*%
X125300000Y-62900000D03*
%TO.P,Q1,2,S*%
%TO.N,+5V*%
X125300000Y-61000000D03*
%TO.P,Q1,3,D*%
%TO.N,VUSB*%
X123425000Y-61950000D03*
%TD*%
D27*
%TO.P,RCIN2,1,Pin_1*%
%TO.N,GND*%
X131000000Y-86725000D03*
%TO.P,RCIN2,2,Pin_2*%
%TO.N,+5V*%
X131000000Y-85475000D03*
%TO.P,RCIN2,3,Pin_3*%
%TO.N,RC8*%
X131000000Y-84225000D03*
%TO.P,RCIN2,4,Pin_4*%
%TO.N,RC7*%
X131000000Y-82975000D03*
%TO.P,RCIN2,5,Pin_5*%
%TO.N,RC6*%
X131000000Y-81725000D03*
%TO.P,RCIN2,6,Pin_6*%
%TO.N,RC5*%
X131000000Y-80475000D03*
D28*
%TO.P,RCIN2,MP*%
%TO.N,N/C*%
X133900000Y-77925000D03*
X133900000Y-89275000D03*
%TD*%
D27*
%TO.P,PPM1,1,Pin_1*%
%TO.N,GND*%
X131000000Y-72450000D03*
%TO.P,PPM1,2,Pin_2*%
%TO.N,+5V*%
X131000000Y-71200000D03*
%TO.P,PPM1,3,Pin_3*%
%TO.N,PPM*%
X131000000Y-69950000D03*
D28*
%TO.P,PPM1,MP*%
%TO.N,N/C*%
X133900000Y-75000000D03*
X133900000Y-67400000D03*
%TD*%
D29*
%TO.P,D1,1,K*%
%TO.N,GND*%
X128800000Y-62475000D03*
%TO.P,D1,2,A*%
%TO.N,Net-(D1-Pad2)*%
X128800000Y-60900000D03*
%TD*%
D12*
%TO.P,R6,1*%
%TO.N,LED_STATUS*%
X105500000Y-89300000D03*
%TO.P,R6,2*%
%TO.N,Net-(D3-Pad2)*%
X103850000Y-89300000D03*
%TD*%
D30*
%TO.P,U6,1,+*%
%TO.N,Net-(R16-Pad2)*%
X125500000Y-66400000D03*
%TO.P,U6,2,V-*%
%TO.N,GND*%
X125500000Y-65450000D03*
%TO.P,U6,3,-*%
%TO.N,+3V3*%
X125500000Y-64500000D03*
%TO.P,U6,4*%
%TO.N,Net-(Q1-Pad1)*%
X123225000Y-64500000D03*
%TO.P,U6,5,V+*%
%TO.N,+3V3*%
X123225000Y-66400000D03*
%TD*%
D31*
%TO.P,D3,1,K*%
%TO.N,GND*%
X100812500Y-89300000D03*
%TO.P,D3,2,A*%
%TO.N,Net-(D3-Pad2)*%
X102387500Y-89300000D03*
%TD*%
D32*
%TO.P,R1,1*%
%TO.N,+3V3*%
X100800000Y-87700000D03*
%TO.P,R1,2*%
%TO.N,NRST*%
X102450000Y-87700000D03*
%TD*%
D33*
%TO.P,RCIN1,1,Pin_1*%
%TO.N,GND*%
X105500000Y-75075000D03*
%TO.P,RCIN1,2,Pin_2*%
%TO.N,+5V*%
X105500000Y-76325000D03*
%TO.P,RCIN1,3,Pin_3*%
%TO.N,RC1*%
X105500000Y-77575000D03*
%TO.P,RCIN1,4,Pin_4*%
%TO.N,RC2*%
X105500000Y-78825000D03*
%TO.P,RCIN1,5,Pin_5*%
%TO.N,RC3_UART2_TX*%
X105500000Y-80075000D03*
%TO.P,RCIN1,6,Pin_6*%
%TO.N,RC4_UART2_RX*%
X105500000Y-81325000D03*
D34*
%TO.P,RCIN1,MP*%
%TO.N,N/C*%
X102600000Y-83875000D03*
X102600000Y-72525000D03*
%TD*%
D13*
%TO.P,PWM_SIG1,1,Pin_1*%
%TO.N,PWM1*%
X110600000Y-89450000D03*
D14*
%TO.P,PWM_SIG1,2,Pin_2*%
%TO.N,PWM2*%
X113140000Y-89450000D03*
%TO.P,PWM_SIG1,3,Pin_3*%
%TO.N,PWM3*%
X115680000Y-89450000D03*
%TO.P,PWM_SIG1,4,Pin_4*%
%TO.N,PWM4*%
X118220000Y-89450000D03*
%TO.P,PWM_SIG1,5,Pin_5*%
%TO.N,PWM5*%
X120760000Y-89450000D03*
%TO.P,PWM_SIG1,6,Pin_6*%
%TO.N,PWM6*%
X123300000Y-89450000D03*
%TD*%
D31*
%TO.P,D2,1,K*%
%TO.N,GND*%
X100812500Y-67200000D03*
%TO.P,D2,2,A*%
%TO.N,Net-(D2-Pad2)*%
X102387500Y-67200000D03*
%TD*%
D35*
%TO.P,C17,1*%
%TO.N,+3V3*%
X107200000Y-61800000D03*
%TO.P,C17,2*%
%TO.N,GND*%
X107200000Y-64500000D03*
%TD*%
D11*
%TO.P,R17,1*%
%TO.N,Net-(R16-Pad2)*%
X127262500Y-66400000D03*
%TO.P,R17,2*%
%TO.N,GND*%
X127262500Y-64750000D03*
%TD*%
D36*
%TO.P,J1,1,VBUS*%
%TO.N,VUSB*%
X119100000Y-65162500D03*
%TO.P,J1,2,D-*%
%TO.N,Net-(J1-Pad2)*%
X118450000Y-65162500D03*
%TO.P,J1,3,D+*%
%TO.N,Net-(J1-Pad3)*%
X117800000Y-65162500D03*
%TO.P,J1,4,ID*%
%TO.N,unconnected-(J1-Pad4)*%
X117150000Y-65162500D03*
%TO.P,J1,5,GND*%
%TO.N,GND*%
X116500000Y-65162500D03*
D37*
%TO.P,J1,6,Shield*%
X120300000Y-65162500D03*
X115300000Y-65162500D03*
D38*
X116800000Y-62462500D03*
D39*
X114900000Y-62462500D03*
X120700000Y-62462500D03*
D40*
X114300000Y-62462500D03*
D38*
X118800000Y-62462500D03*
D40*
X121300000Y-62462500D03*
%TD*%
D41*
%TO.N,+3V3*%
X119363261Y-86187859D03*
D42*
X115200000Y-80000000D03*
X106600000Y-60700000D03*
X108700000Y-69800000D03*
X112400000Y-82400000D03*
X107300000Y-60700000D03*
X123600000Y-75300000D03*
D41*
X124100000Y-69700000D03*
D42*
X123200000Y-67100000D03*
D41*
X127000000Y-69700000D03*
D42*
X113600000Y-66900000D03*
D41*
X107400000Y-76700000D03*
D42*
X120491219Y-77600000D03*
X112900000Y-68500000D03*
X122800000Y-78100000D03*
X125500000Y-64100000D03*
X125100000Y-87400000D03*
X127300000Y-63300000D03*
X108000000Y-60700000D03*
X100800000Y-86800000D03*
X112000000Y-75728254D03*
%TO.N,GND*%
X127300000Y-64100000D03*
X129900000Y-86700000D03*
X128700000Y-63300000D03*
D41*
X127100000Y-68400000D03*
D42*
X107100000Y-67000000D03*
X120500000Y-78800000D03*
X127900000Y-85700000D03*
X115200000Y-71800000D03*
X106800000Y-65900000D03*
X124600000Y-65400000D03*
X131000000Y-87400000D03*
X105500000Y-74300000D03*
X129800000Y-72500000D03*
X119200000Y-71000000D03*
D41*
X118300000Y-86500000D03*
D42*
X125400000Y-80500000D03*
X108400000Y-72400000D03*
D41*
X124100000Y-68400000D03*
D42*
X116300000Y-66800000D03*
X100800000Y-90200000D03*
X123100000Y-70900000D03*
X106500000Y-74900000D03*
X109600000Y-75200000D03*
X108000000Y-67000000D03*
X112800000Y-75324500D03*
X114700000Y-66800000D03*
X114600000Y-68300000D03*
X108800000Y-68700000D03*
X107800000Y-65900000D03*
X114200000Y-81500000D03*
X110700000Y-75400000D03*
X131000000Y-73200000D03*
X109900000Y-68600000D03*
X127300000Y-86700000D03*
X112400000Y-81600000D03*
X107200000Y-71900000D03*
X107100000Y-68700000D03*
X113500000Y-73400000D03*
X100900000Y-66400000D03*
%TO.N,HSE_IN*%
X109519853Y-79585844D03*
%TO.N,Net-(C11-Pad2)*%
X111000000Y-68400000D03*
%TO.N,Net-(C13-Pad2)*%
X107900000Y-74300000D03*
%TO.N,VUSB*%
X115600000Y-68300000D03*
X115500000Y-69500000D03*
%TO.N,Net-(C15-Pad2)*%
X119800000Y-73900000D03*
%TO.N,+5V*%
X103500000Y-76400000D03*
X125300000Y-61600000D03*
X129800000Y-71200000D03*
X112400000Y-62600000D03*
X132100000Y-85400000D03*
X129400000Y-64800000D03*
%TO.N,Net-(J1-Pad2)*%
X118700000Y-66600000D03*
%TO.N,Net-(J1-Pad3)*%
X117900000Y-66700000D03*
%TO.N,NRST*%
X112300000Y-80800000D03*
X110100000Y-86700000D03*
D41*
%TO.N,BOOT*%
X114958879Y-74049532D03*
D42*
%TO.N,HSE_OUT*%
X109400000Y-81100000D03*
%TO.N,LED_PC13*%
X109108411Y-78591589D03*
X106400000Y-73700000D03*
%TO.N,LED_STATUS*%
X117221075Y-79326593D03*
X107500000Y-89300000D03*
D41*
%TO.N,Net-(R7-Pad2)*%
X124700000Y-76600000D03*
%TO.N,Net-(R8-Pad2)*%
X126000000Y-86900000D03*
D42*
%TO.N,I2C1_SDA*%
X113668595Y-78823928D03*
%TO.N,I2C1_SLC*%
X114900000Y-78800000D03*
X112360746Y-74343923D03*
X114200000Y-74700000D03*
%TO.N,Net-(R11-Pad1)*%
X111900000Y-68400000D03*
%TO.N,Net-(R12-Pad2)*%
X118500000Y-70300000D03*
%TO.N,Net-(R13-Pad1)*%
X120000000Y-70300000D03*
%TO.N,Net-(R14-Pad1)*%
X115100000Y-70700000D03*
%TO.N,UART1_RX*%
X115900000Y-79100000D03*
%TO.N,UART1_TX*%
X116724500Y-78700000D03*
%TO.N,Net-(R15-Pad2)*%
X118000000Y-72200000D03*
D41*
%TO.N,SPI2_SCK*%
X126500000Y-76800000D03*
X121100000Y-83500000D03*
%TO.N,SPI2_MOSI*%
X121475500Y-82573716D03*
X128100000Y-77900000D03*
%TD*%
D43*
%TO.N,+3V3*%
X109850000Y-78250000D02*
X111037500Y-78250000D01*
X109600000Y-70300000D02*
X109200000Y-70300000D01*
X118337902Y-85162500D02*
X119363261Y-86187859D01*
D44*
X123225000Y-67075000D02*
X123200000Y-67100000D01*
D43*
X127000000Y-69700000D02*
X126970000Y-69730000D01*
X100800000Y-87700000D02*
X100800000Y-86800000D01*
D44*
X125500000Y-64500000D02*
X125500000Y-64100000D01*
D43*
X109200000Y-70300000D02*
X108700000Y-69800000D01*
X125600000Y-69730000D02*
X124130000Y-69730000D01*
X112250000Y-82250000D02*
X111037500Y-82250000D01*
X126970000Y-69730000D02*
X125600000Y-69730000D01*
X112300000Y-69100000D02*
X112900000Y-68500000D01*
X120491219Y-77600000D02*
X119841219Y-78250000D01*
D44*
X127300000Y-62525000D02*
X127300000Y-63300000D01*
X122995000Y-77905000D02*
X122800000Y-78100000D01*
D43*
X112300000Y-69600000D02*
X112300000Y-69100000D01*
D44*
X123225000Y-66400000D02*
X123225000Y-67075000D01*
D43*
X108300000Y-76700000D02*
X109850000Y-78250000D01*
X112450000Y-76178254D02*
X112450000Y-76837500D01*
X117950000Y-85162500D02*
X118337902Y-85162500D01*
X107400000Y-76700000D02*
X108300000Y-76700000D01*
X112000000Y-75728254D02*
X112450000Y-76178254D01*
X124130000Y-69730000D02*
X124100000Y-69700000D01*
D44*
X123495000Y-77905000D02*
X122995000Y-77905000D01*
D43*
X112400000Y-82400000D02*
X112250000Y-82250000D01*
X119841219Y-78250000D02*
X119362500Y-78250000D01*
%TO.N,GND*%
X110316807Y-68600000D02*
X109900000Y-68600000D01*
X105500000Y-75075000D02*
X105500000Y-74300000D01*
X105500000Y-75075000D02*
X106325000Y-75075000D01*
D44*
X125400000Y-81800000D02*
X125400000Y-80500000D01*
D43*
X121675000Y-70865000D02*
X123065000Y-70865000D01*
X127305000Y-86695000D02*
X127300000Y-86700000D01*
X110800000Y-69600000D02*
X110800000Y-69083193D01*
X120500000Y-78800000D02*
X120450000Y-78750000D01*
D44*
X128800000Y-62475000D02*
X128800000Y-63200000D01*
X126450000Y-65450000D02*
X127150000Y-64750000D01*
D43*
X118300000Y-86500000D02*
X118100000Y-86300000D01*
X123065000Y-70865000D02*
X123100000Y-70900000D01*
X131000000Y-72450000D02*
X131000000Y-73200000D01*
X117450000Y-86150000D02*
X117450000Y-85162500D01*
X129800000Y-72500000D02*
X129850000Y-72450000D01*
X100812500Y-90187500D02*
X100800000Y-90200000D01*
X117600000Y-86300000D02*
X117450000Y-86150000D01*
D44*
X127262500Y-64750000D02*
X127262500Y-64137500D01*
X116500000Y-65162500D02*
X116500000Y-66600000D01*
X125500000Y-65450000D02*
X124650000Y-65450000D01*
D43*
X125600000Y-68460000D02*
X127040000Y-68460000D01*
X110800000Y-69083193D02*
X110316807Y-68600000D01*
D44*
X127150000Y-64750000D02*
X127262500Y-64750000D01*
D43*
X125600000Y-68460000D02*
X124160000Y-68460000D01*
X113500000Y-73400000D02*
X113500000Y-72800000D01*
D44*
X125500000Y-65450000D02*
X126450000Y-65450000D01*
D43*
X112800000Y-75324500D02*
X112950000Y-75474500D01*
X112250000Y-81750000D02*
X112400000Y-81600000D01*
D44*
X116500000Y-66600000D02*
X116300000Y-66800000D01*
X127262500Y-64137500D02*
X127300000Y-64100000D01*
D43*
X129850000Y-72450000D02*
X131000000Y-72450000D01*
D45*
X100812500Y-66487500D02*
X100900000Y-66400000D01*
D43*
X127040000Y-68460000D02*
X127100000Y-68400000D01*
X109600000Y-72800000D02*
X108800000Y-72800000D01*
D44*
X128800000Y-63200000D02*
X128700000Y-63300000D01*
X116500000Y-65162500D02*
X116500000Y-62762500D01*
D43*
X127305000Y-85695000D02*
X127895000Y-85695000D01*
X124160000Y-68460000D02*
X124100000Y-68400000D01*
X131000000Y-86725000D02*
X131000000Y-87400000D01*
X120450000Y-78750000D02*
X119362500Y-78750000D01*
X100812500Y-89300000D02*
X100812500Y-90187500D01*
X129925000Y-86725000D02*
X129900000Y-86700000D01*
D45*
X100812500Y-67200000D02*
X100812500Y-66487500D01*
D43*
X106325000Y-75075000D02*
X106500000Y-74900000D01*
X127895000Y-85695000D02*
X127900000Y-85700000D01*
D44*
X120700000Y-62462500D02*
X114900000Y-62462500D01*
X116500000Y-62762500D02*
X116800000Y-62462500D01*
D43*
X108800000Y-72800000D02*
X108400000Y-72400000D01*
X131000000Y-86725000D02*
X129925000Y-86725000D01*
X112950000Y-75474500D02*
X112950000Y-76837500D01*
X111037500Y-81750000D02*
X112250000Y-81750000D01*
X127305000Y-85695000D02*
X127305000Y-86695000D01*
D44*
X124650000Y-65450000D02*
X124600000Y-65400000D01*
D43*
X118100000Y-86300000D02*
X117600000Y-86300000D01*
%TO.N,HSE_IN*%
X110184009Y-80250000D02*
X111037500Y-80250000D01*
X109519853Y-79585844D02*
X110184009Y-80250000D01*
%TO.N,Net-(C11-Pad2)*%
X111000000Y-68400000D02*
X111300000Y-68700000D01*
X111300000Y-68700000D02*
X111300000Y-69600000D01*
%TO.N,Net-(C13-Pad2)*%
X110600000Y-74500000D02*
X110800000Y-74300000D01*
X107900000Y-74300000D02*
X108100000Y-74500000D01*
X108100000Y-74500000D02*
X110600000Y-74500000D01*
X110800000Y-74300000D02*
X110800000Y-73500000D01*
D44*
%TO.N,VUSB*%
X119500000Y-66281452D02*
X119100000Y-65881452D01*
X119718548Y-66500000D02*
X121200000Y-66500000D01*
X122500000Y-62200000D02*
X122750000Y-61950000D01*
X119500000Y-66281452D02*
X119718548Y-66500000D01*
X119600000Y-67700000D02*
X119600000Y-66381452D01*
X122750000Y-61950000D02*
X123425000Y-61950000D01*
X115700000Y-68200000D02*
X119100000Y-68200000D01*
X121200000Y-66500000D02*
X121900000Y-65800000D01*
X115500000Y-69500000D02*
X115595000Y-69595000D01*
X119100000Y-68200000D02*
X119600000Y-67700000D01*
X122500000Y-63300000D02*
X122500000Y-62200000D01*
X121900000Y-65800000D02*
X121900000Y-63900000D01*
X119600000Y-66381452D02*
X119500000Y-66281452D01*
X115600000Y-68300000D02*
X115700000Y-68200000D01*
X119100000Y-65881452D02*
X119100000Y-65162500D01*
X121900000Y-63900000D02*
X122500000Y-63300000D01*
X115595000Y-69595000D02*
X116725000Y-69595000D01*
D43*
%TO.N,Net-(C15-Pad2)*%
X119305000Y-73405000D02*
X116725000Y-73405000D01*
X119800000Y-73900000D02*
X119305000Y-73405000D01*
D45*
%TO.N,+5V*%
X112300000Y-64600000D02*
X112300000Y-66400000D01*
X112400000Y-64500000D02*
X112300000Y-64600000D01*
X112300000Y-66400000D02*
X112100000Y-66600000D01*
X105425000Y-76400000D02*
X105500000Y-76325000D01*
X103500000Y-76400000D02*
X105425000Y-76400000D01*
X129400000Y-64800000D02*
X128812500Y-64800000D01*
X128812500Y-64800000D02*
X128762500Y-64750000D01*
X131000000Y-71200000D02*
X129800000Y-71200000D01*
X132025000Y-85475000D02*
X132100000Y-85400000D01*
X131000000Y-85475000D02*
X132025000Y-85475000D01*
X125300000Y-61000000D02*
X125300000Y-61600000D01*
X112400000Y-62600000D02*
X112400000Y-64500000D01*
D44*
%TO.N,Net-(D1-Pad2)*%
X128800000Y-60900000D02*
X127325000Y-60900000D01*
X127325000Y-60900000D02*
X127300000Y-60875000D01*
D45*
%TO.N,Net-(D2-Pad2)*%
X103950000Y-67200000D02*
X102387500Y-67200000D01*
D43*
%TO.N,Net-(D3-Pad2)*%
X103850000Y-89300000D02*
X102387500Y-89300000D01*
%TO.N,Net-(J1-Pad2)*%
X118450000Y-66350000D02*
X118450000Y-65162500D01*
X118700000Y-66600000D02*
X118450000Y-66350000D01*
%TO.N,Net-(J1-Pad3)*%
X117800000Y-66600000D02*
X117900000Y-66700000D01*
X117800000Y-65162500D02*
X117800000Y-66600000D01*
%TO.N,PPM*%
X128650000Y-70350000D02*
X129050000Y-69950000D01*
X129050000Y-69950000D02*
X131000000Y-69950000D01*
X127000000Y-75300000D02*
X128650000Y-73650000D01*
X122100000Y-77800000D02*
X124600000Y-75300000D01*
X122100000Y-78500000D02*
X122100000Y-77800000D01*
X124600000Y-75300000D02*
X127000000Y-75300000D01*
X128650000Y-73650000D02*
X128650000Y-70350000D01*
X119362500Y-79750000D02*
X120850000Y-79750000D01*
X120850000Y-79750000D02*
X122100000Y-78500000D01*
%TO.N,PWM1*%
X113950000Y-85162500D02*
X113950000Y-86750000D01*
X111250000Y-89450000D02*
X110600000Y-89450000D01*
X113950000Y-86750000D02*
X111250000Y-89450000D01*
%TO.N,PWM2*%
X114450000Y-87150000D02*
X114450000Y-85162500D01*
X113140000Y-88460000D02*
X114450000Y-87150000D01*
X113140000Y-89450000D02*
X113140000Y-88460000D01*
%TO.N,PWM3*%
X115680000Y-88080000D02*
X115680000Y-89450000D01*
X114950000Y-87350000D02*
X115680000Y-88080000D01*
X114950000Y-85162500D02*
X114950000Y-87350000D01*
%TO.N,PWM4*%
X115450000Y-85162500D02*
X115450000Y-86900000D01*
X118000000Y-89450000D02*
X118220000Y-89450000D01*
X115450000Y-86900000D02*
X118000000Y-89450000D01*
%TO.N,PWM5*%
X116450000Y-87100000D02*
X117300000Y-87950000D01*
X116450000Y-85162500D02*
X116450000Y-87100000D01*
X119260000Y-87950000D02*
X120760000Y-89450000D01*
X117300000Y-87950000D02*
X119260000Y-87950000D01*
%TO.N,PWM6*%
X123300000Y-88550000D02*
X123300000Y-89450000D01*
X122200000Y-87450000D02*
X123300000Y-88550000D01*
X116950000Y-85162500D02*
X116950000Y-86950000D01*
X117450000Y-87450000D02*
X122200000Y-87450000D01*
X116950000Y-86950000D02*
X117450000Y-87450000D01*
D44*
%TO.N,Net-(Q1-Pad1)*%
X123225000Y-64500000D02*
X123800000Y-64500000D01*
X124300000Y-62900000D02*
X125300000Y-62900000D01*
X124000000Y-64300000D02*
X124000000Y-63200000D01*
X124000000Y-63200000D02*
X124300000Y-62900000D01*
X123800000Y-64500000D02*
X124000000Y-64300000D01*
D43*
%TO.N,NRST*%
X109100000Y-87700000D02*
X102450000Y-87700000D01*
X111037500Y-81250000D02*
X111850000Y-81250000D01*
X111850000Y-81250000D02*
X112300000Y-80800000D01*
X110100000Y-86700000D02*
X109100000Y-87700000D01*
%TO.N,BOOT*%
X114500000Y-75700000D02*
X114958879Y-75241121D01*
X114958879Y-75241121D02*
X114958879Y-74049532D01*
X114450000Y-75750000D02*
X114500000Y-75700000D01*
X114450000Y-76837500D02*
X114450000Y-75750000D01*
%TO.N,HSE_OUT*%
X109750000Y-80750000D02*
X111037500Y-80750000D01*
X109400000Y-81100000D02*
X109750000Y-80750000D01*
%TO.N,LED_PC13*%
X109450000Y-78750000D02*
X109300000Y-78600000D01*
X109300000Y-78600000D02*
X109291589Y-78591589D01*
X106400000Y-73700000D02*
X106400000Y-67500000D01*
X106100000Y-67200000D02*
X105600000Y-67200000D01*
X109291589Y-78591589D02*
X109108411Y-78591589D01*
X111037500Y-78750000D02*
X109450000Y-78750000D01*
X106400000Y-67500000D02*
X106100000Y-67200000D01*
%TO.N,LED_STATUS*%
X107500000Y-89300000D02*
X105500000Y-89300000D01*
X117221075Y-79326593D02*
X117450000Y-79097668D01*
X117450000Y-79097668D02*
X117450000Y-76837500D01*
%TO.N,Net-(R7-Pad2)*%
X124765000Y-77905000D02*
X124765000Y-76665000D01*
X124765000Y-76665000D02*
X124700000Y-76600000D01*
%TO.N,Net-(R8-Pad2)*%
X126035000Y-85695000D02*
X126035000Y-86865000D01*
X126035000Y-86865000D02*
X126000000Y-86900000D01*
%TO.N,I2C1_SDA*%
X113450000Y-78605333D02*
X113668595Y-78823928D01*
X113450000Y-76837500D02*
X113450000Y-78605333D01*
X112800000Y-73900000D02*
X112800000Y-73500000D01*
X113450000Y-74550000D02*
X112800000Y-73900000D01*
X113450000Y-76837500D02*
X113450000Y-74550000D01*
%TO.N,I2C1_SLC*%
X113950000Y-74950000D02*
X113950000Y-76837500D01*
X114200000Y-74700000D02*
X113950000Y-74950000D01*
X114600000Y-78800000D02*
X113950000Y-78150000D01*
X112300000Y-74283177D02*
X112300000Y-73500000D01*
X114900000Y-78800000D02*
X114600000Y-78800000D01*
X113950000Y-78150000D02*
X113950000Y-76837500D01*
X112360746Y-74343923D02*
X112300000Y-74283177D01*
%TO.N,Net-(R11-Pad1)*%
X111800000Y-68500000D02*
X111900000Y-68400000D01*
X111800000Y-69600000D02*
X111800000Y-68500000D01*
%TO.N,Net-(R12-Pad2)*%
X120305000Y-73405000D02*
X121675000Y-73405000D01*
X118500000Y-71600000D02*
X120305000Y-73405000D01*
X118500000Y-70300000D02*
X118500000Y-71600000D01*
%TO.N,Net-(R13-Pad1)*%
X120535000Y-72135000D02*
X120200000Y-71800000D01*
X121675000Y-72135000D02*
X120535000Y-72135000D01*
X120000000Y-71600000D02*
X120000000Y-70300000D01*
X120200000Y-71800000D02*
X120000000Y-71600000D01*
%TO.N,Net-(R14-Pad1)*%
X116725000Y-70865000D02*
X115265000Y-70865000D01*
X115265000Y-70865000D02*
X115100000Y-70700000D01*
%TO.N,UART1_RX*%
X115900000Y-78916807D02*
X115100000Y-78116807D01*
X115900000Y-79100000D02*
X115900000Y-78916807D01*
X115100000Y-78100000D02*
X114950000Y-77950000D01*
X114950000Y-77950000D02*
X114950000Y-76837500D01*
X115100000Y-78116807D02*
X115100000Y-78100000D01*
%TO.N,UART1_TX*%
X115450000Y-76837500D02*
X115450000Y-77640006D01*
X116509994Y-78700000D02*
X116724500Y-78700000D01*
X115450000Y-77640006D02*
X116509994Y-78700000D01*
%TO.N,Net-(R15-Pad2)*%
X116790000Y-72200000D02*
X116725000Y-72135000D01*
X118000000Y-72200000D02*
X116790000Y-72200000D01*
D44*
%TO.N,Net-(R16-Pad2)*%
X127262500Y-66400000D02*
X125500000Y-66400000D01*
X127262500Y-66400000D02*
X128762500Y-66400000D01*
D43*
%TO.N,RC4_UART2_RX*%
X110200000Y-85200000D02*
X112412500Y-85200000D01*
X105500000Y-81325000D02*
X106325000Y-81325000D01*
X106325000Y-81325000D02*
X110200000Y-85200000D01*
X112412500Y-85200000D02*
X112450000Y-85162500D01*
%TO.N,RC3_UART2_TX*%
X107500000Y-80450000D02*
X107500000Y-81835718D01*
X107125000Y-80075000D02*
X107500000Y-80450000D01*
X107500000Y-81835718D02*
X109414282Y-83750000D01*
X105500000Y-80075000D02*
X107125000Y-80075000D01*
X109414282Y-83750000D02*
X111037500Y-83750000D01*
%TO.N,RC2*%
X108000000Y-81700000D02*
X109550000Y-83250000D01*
X109550000Y-83250000D02*
X111037500Y-83250000D01*
X108000000Y-79700000D02*
X108000000Y-81700000D01*
X107125000Y-78825000D02*
X108000000Y-79700000D01*
X105500000Y-78825000D02*
X107125000Y-78825000D01*
%TO.N,RC1*%
X108500000Y-78800000D02*
X107275000Y-77575000D01*
X111037500Y-82750000D02*
X109850000Y-82750000D01*
X107275000Y-77575000D02*
X105500000Y-77575000D01*
X108500000Y-81400000D02*
X108500000Y-78800000D01*
X109850000Y-82750000D02*
X108500000Y-81400000D01*
%TO.N,RC5*%
X128200000Y-79000000D02*
X122264282Y-79000000D01*
X121014282Y-80250000D02*
X119362500Y-80250000D01*
X131000000Y-80475000D02*
X129675000Y-80475000D01*
X122264282Y-79000000D02*
X121014282Y-80250000D01*
X129675000Y-80475000D02*
X128200000Y-79000000D01*
%TO.N,RC6*%
X130025000Y-81725000D02*
X127800000Y-79500000D01*
X127800000Y-79500000D02*
X122500000Y-79500000D01*
X121250000Y-80750000D02*
X119362500Y-80750000D01*
X122500000Y-79500000D02*
X121250000Y-80750000D01*
X131000000Y-81725000D02*
X130025000Y-81725000D01*
%TO.N,RC7*%
X123050480Y-84050480D02*
X128749520Y-84050480D01*
X119362500Y-81250000D02*
X122050000Y-81250000D01*
X122050000Y-81250000D02*
X122700000Y-81900000D01*
X122700000Y-83700000D02*
X123050480Y-84050480D01*
X129825000Y-82975000D02*
X131000000Y-82975000D01*
X122700000Y-81900000D02*
X122700000Y-83700000D01*
X128749520Y-84050480D02*
X129825000Y-82975000D01*
%TO.N,RC8*%
X122200000Y-83900000D02*
X122800000Y-84500000D01*
X130075000Y-84225000D02*
X131000000Y-84225000D01*
X129800000Y-84500000D02*
X130075000Y-84225000D01*
X121850000Y-81750000D02*
X122200000Y-82100000D01*
X119362500Y-81750000D02*
X121850000Y-81750000D01*
X122200000Y-82100000D02*
X122200000Y-83900000D01*
X122800000Y-84500000D02*
X129800000Y-84500000D01*
%TO.N,SPI2_CS*%
X120250000Y-83750000D02*
X122195000Y-85695000D01*
X119362500Y-83750000D02*
X120250000Y-83750000D01*
X122195000Y-85695000D02*
X123495000Y-85695000D01*
%TO.N,SPI2_SCK*%
X126500000Y-76800000D02*
X126035000Y-77265000D01*
X126035000Y-77265000D02*
X126035000Y-77905000D01*
X120850000Y-83250000D02*
X119362500Y-83250000D01*
X121100000Y-83500000D02*
X120850000Y-83250000D01*
%TO.N,SPI2_MISO*%
X118100000Y-82900000D02*
X118100000Y-83900000D01*
X119362500Y-82750000D02*
X118250000Y-82750000D01*
X124765000Y-86635000D02*
X124765000Y-85695000D01*
X118100000Y-83900000D02*
X121100000Y-86900000D01*
X124700000Y-85760000D02*
X124765000Y-85695000D01*
X124500000Y-86900000D02*
X124765000Y-86635000D01*
X121100000Y-86900000D02*
X124500000Y-86900000D01*
X118250000Y-82750000D02*
X118100000Y-82900000D01*
%TO.N,SPI2_MOSI*%
X121475500Y-82573716D02*
X121151784Y-82250000D01*
X128100000Y-77900000D02*
X127310000Y-77900000D01*
X121151784Y-82250000D02*
X119362500Y-82250000D01*
X127310000Y-77900000D02*
X127305000Y-77905000D01*
%TO.N,SWDIO*%
X119362500Y-79250000D02*
X118150000Y-79250000D01*
X118000000Y-78200000D02*
X118800000Y-77400000D01*
X124330000Y-72270000D02*
X125600000Y-72270000D01*
X122816807Y-75200000D02*
X124100000Y-73916807D01*
X118800000Y-77400000D02*
X118800000Y-76100000D01*
X124100000Y-72500000D02*
X124330000Y-72270000D01*
X118000000Y-79100000D02*
X118000000Y-78200000D01*
X118800000Y-76100000D02*
X119700000Y-75200000D01*
X118150000Y-79250000D02*
X118000000Y-79100000D01*
X119700000Y-75200000D02*
X122816807Y-75200000D01*
X124100000Y-73916807D02*
X124100000Y-72500000D01*
%TO.N,SWCLK*%
X122500000Y-74600000D02*
X123500000Y-73600000D01*
X123500000Y-71500000D02*
X124000000Y-71000000D01*
X117950000Y-76837500D02*
X117950000Y-75950000D01*
X124000000Y-71000000D02*
X125600000Y-71000000D01*
X123500000Y-73600000D02*
X123500000Y-71500000D01*
X119300000Y-74600000D02*
X122500000Y-74600000D01*
X117950000Y-75950000D02*
X119300000Y-74600000D01*
%TD*%
%TA.AperFunction,Conductor*%
%TO.N,+3V3*%
G36*
X111070160Y-60522878D02*
G01*
X111144627Y-60562681D01*
X111165158Y-60576399D01*
X111297521Y-60685026D01*
X111314974Y-60702479D01*
X111423601Y-60834842D01*
X111437319Y-60855372D01*
X111518029Y-61006371D01*
X111527482Y-61029190D01*
X111577185Y-61193043D01*
X111582002Y-61217263D01*
X111599393Y-61393837D01*
X111600000Y-61406187D01*
X111600000Y-62473561D01*
X111599006Y-62489353D01*
X111586463Y-62588640D01*
X111591953Y-62644628D01*
X111599399Y-62720572D01*
X111600000Y-62732867D01*
X111600000Y-63438827D01*
X111579998Y-63506948D01*
X111549567Y-63539652D01*
X111486739Y-63586739D01*
X111399385Y-63703295D01*
X111396233Y-63711704D01*
X111396232Y-63711705D01*
X111381713Y-63750434D01*
X111344480Y-63800000D01*
X111200000Y-63800000D01*
X111200000Y-64790083D01*
X111198449Y-64809793D01*
X111183545Y-64903895D01*
X111171363Y-64941388D01*
X111132666Y-65017335D01*
X111109494Y-65049227D01*
X111049227Y-65109494D01*
X111017335Y-65132666D01*
X110941388Y-65171363D01*
X110903895Y-65183545D01*
X110819710Y-65196878D01*
X110780290Y-65196878D01*
X110696105Y-65183545D01*
X110658612Y-65171363D01*
X110582665Y-65132666D01*
X110550773Y-65109494D01*
X110490506Y-65049227D01*
X110467334Y-65017335D01*
X110428637Y-64941388D01*
X110416455Y-64903895D01*
X110401551Y-64809793D01*
X110400000Y-64790083D01*
X110400000Y-63100000D01*
X107206187Y-63100000D01*
X107193837Y-63099393D01*
X107017260Y-63082001D01*
X106993043Y-63077185D01*
X106829190Y-63027482D01*
X106806371Y-63018029D01*
X106747583Y-62986607D01*
X106655369Y-62937317D01*
X106634842Y-62923601D01*
X106502479Y-62814974D01*
X106485026Y-62797521D01*
X106376399Y-62665158D01*
X106362681Y-62644628D01*
X106281971Y-62493629D01*
X106272518Y-62470809D01*
X106222815Y-62306957D01*
X106217998Y-62282737D01*
X106200607Y-62106163D01*
X106200000Y-62093813D01*
X106200000Y-61406187D01*
X106200607Y-61393837D01*
X106217998Y-61217263D01*
X106222815Y-61193043D01*
X106272518Y-61029190D01*
X106281971Y-61006371D01*
X106362681Y-60855372D01*
X106376399Y-60834842D01*
X106485026Y-60702479D01*
X106502479Y-60685026D01*
X106634842Y-60576399D01*
X106655373Y-60562681D01*
X106729840Y-60522878D01*
X106789235Y-60508000D01*
X111010765Y-60508000D01*
X111070160Y-60522878D01*
G37*
%TD.AperFunction*%
%TD*%
%TA.AperFunction,Conductor*%
%TO.N,GND*%
G36*
X109025345Y-63501078D02*
G01*
X109177443Y-63521102D01*
X109209216Y-63529615D01*
X109321488Y-63576120D01*
X109341989Y-63584612D01*
X109397270Y-63629160D01*
X109419771Y-63701021D01*
X109419771Y-63775000D01*
X109425000Y-63848111D01*
X109466196Y-63988411D01*
X109491465Y-64027730D01*
X109540378Y-64103841D01*
X109540380Y-64103844D01*
X109545250Y-64111421D01*
X109552060Y-64117322D01*
X109655757Y-64207176D01*
X109653397Y-64209899D01*
X109688621Y-64250560D01*
X109700000Y-64302886D01*
X109700000Y-65900000D01*
X109850000Y-65900000D01*
X109892391Y-65911358D01*
X109948874Y-65943970D01*
X109956030Y-65951126D01*
X109988642Y-66007611D01*
X109995707Y-66033979D01*
X110000000Y-66066589D01*
X110000000Y-66642922D01*
X109999208Y-66657030D01*
X109982785Y-66802786D01*
X109976506Y-66830293D01*
X109930416Y-66962012D01*
X109918174Y-66987433D01*
X109843926Y-67105598D01*
X109826334Y-67127657D01*
X109727657Y-67226334D01*
X109705598Y-67243926D01*
X109587433Y-67318174D01*
X109562012Y-67330416D01*
X109430293Y-67376506D01*
X109402786Y-67382785D01*
X109295271Y-67394899D01*
X109257028Y-67399208D01*
X109242922Y-67400000D01*
X107358259Y-67400000D01*
X107341812Y-67398922D01*
X107224096Y-67383424D01*
X107192325Y-67374911D01*
X107090324Y-67332661D01*
X107061841Y-67316217D01*
X107017875Y-67282481D01*
X106988571Y-67244899D01*
X106986019Y-67246408D01*
X106975707Y-67228972D01*
X106967012Y-67211224D01*
X106959552Y-67192383D01*
X106933564Y-67156613D01*
X106927048Y-67146693D01*
X106908578Y-67115463D01*
X106904542Y-67108638D01*
X106898936Y-67103031D01*
X106890220Y-67094315D01*
X106877379Y-67079281D01*
X106870131Y-67069305D01*
X106870130Y-67069304D01*
X106865472Y-67062893D01*
X106859365Y-67057841D01*
X106853938Y-67052062D01*
X106855445Y-67050646D01*
X106826855Y-67011939D01*
X106825090Y-67007678D01*
X106816576Y-66975905D01*
X106801078Y-66858187D01*
X106800000Y-66841741D01*
X106800000Y-66300000D01*
X106550000Y-66300000D01*
X106478907Y-66285859D01*
X106433490Y-66267046D01*
X106413671Y-66253804D01*
X106394061Y-66240700D01*
X106359300Y-66205939D01*
X106332955Y-66166512D01*
X106314140Y-66121089D01*
X106302421Y-66062170D01*
X106300000Y-66037590D01*
X106300000Y-64506187D01*
X106300607Y-64493837D01*
X106317998Y-64317263D01*
X106322815Y-64293043D01*
X106372518Y-64129190D01*
X106381971Y-64106371D01*
X106435561Y-64006110D01*
X106462683Y-63955369D01*
X106476399Y-63934842D01*
X106585026Y-63802479D01*
X106602479Y-63785026D01*
X106734842Y-63676399D01*
X106755369Y-63662683D01*
X106906371Y-63581971D01*
X106929191Y-63572518D01*
X107093043Y-63522815D01*
X107117260Y-63517999D01*
X107293837Y-63500607D01*
X107306187Y-63500000D01*
X109008899Y-63500000D01*
X109025345Y-63501078D01*
G37*
%TD.AperFunction*%
%TD*%
M02*
