%TF.GenerationSoftware,KiCad,Pcbnew,(6.0.0)*%
%TF.CreationDate,2022-05-23T22:47:49+07:00*%
%TF.ProjectId,MINI-FC,4d494e49-2d46-4432-9e6b-696361645f70,rev?*%
%TF.SameCoordinates,Original*%
%TF.FileFunction,Copper,L3,Inr*%
%TF.FilePolarity,Positive*%
%FSLAX46Y46*%
G04 Gerber Fmt 4.6, Leading zero omitted, Abs format (unit mm)*
G04 Created by KiCad (PCBNEW (6.0.0)) date 2022-05-23 22:47:49*
%MOMM*%
%LPD*%
G01*
G04 APERTURE LIST*
%TA.AperFunction,ComponentPad*%
%ADD10R,1.700000X1.700000*%
%TD*%
%TA.AperFunction,ComponentPad*%
%ADD11O,1.700000X1.700000*%
%TD*%
%TA.AperFunction,ComponentPad*%
%ADD12C,1.450000*%
%TD*%
%TA.AperFunction,ComponentPad*%
%ADD13O,1.200000X1.900000*%
%TD*%
%TA.AperFunction,ViaPad*%
%ADD14C,0.800000*%
%TD*%
%TA.AperFunction,ViaPad*%
%ADD15C,0.600000*%
%TD*%
G04 APERTURE END LIST*
D10*
%TO.N,+5V*%
%TO.C,PWR1*%
X125875000Y-92125000D03*
D11*
%TO.N,GND*%
X125875000Y-94665000D03*
%TO.N,+5V*%
X123335000Y-92125000D03*
%TO.N,GND*%
X123335000Y-94665000D03*
%TO.N,+5V*%
X120795000Y-92125000D03*
%TO.N,GND*%
X120795000Y-94665000D03*
%TO.N,+5V*%
X118255000Y-92125000D03*
%TO.N,GND*%
X118255000Y-94665000D03*
%TO.N,+5V*%
X115715000Y-92125000D03*
%TO.N,GND*%
X115715000Y-94665000D03*
%TO.N,+5V*%
X113175000Y-92125000D03*
%TO.N,GND*%
X113175000Y-94665000D03*
%TO.N,+5V*%
X110635000Y-92125000D03*
%TO.N,GND*%
X110635000Y-94665000D03*
%TD*%
D10*
%TO.N,PWM1*%
%TO.C,PWM_SIG1*%
X110600000Y-89450000D03*
D11*
%TO.N,PWM2*%
X113140000Y-89450000D03*
%TO.N,PWM3*%
X115680000Y-89450000D03*
%TO.N,PWM4*%
X118220000Y-89450000D03*
%TO.N,PWM5*%
X120760000Y-89450000D03*
%TO.N,PWM6*%
X123300000Y-89450000D03*
%TD*%
D12*
%TO.N,GND*%
%TO.C,J1*%
X120300000Y-65162500D03*
X115300000Y-65162500D03*
D13*
X114300000Y-62462500D03*
X121300000Y-62462500D03*
%TD*%
D14*
%TO.N,+3V3*%
X119363261Y-86187859D03*
D15*
X115200000Y-80000000D03*
X106600000Y-60700000D03*
X108700000Y-69800000D03*
X112400000Y-82400000D03*
X107300000Y-60700000D03*
X123600000Y-75300000D03*
D14*
X124100000Y-69700000D03*
D15*
X123200000Y-67100000D03*
D14*
X127000000Y-69700000D03*
D15*
X113600000Y-66900000D03*
D14*
X107400000Y-76700000D03*
D15*
X120491219Y-77600000D03*
X112900000Y-68500000D03*
X122800000Y-78100000D03*
X125500000Y-64100000D03*
X125100000Y-87400000D03*
X127300000Y-63300000D03*
X108000000Y-60700000D03*
X100800000Y-86800000D03*
X112000000Y-75728254D03*
%TO.N,GND*%
X127300000Y-64100000D03*
X129900000Y-86700000D03*
X128700000Y-63300000D03*
D14*
X127100000Y-68400000D03*
D15*
X107100000Y-67000000D03*
X120500000Y-78800000D03*
X127900000Y-85700000D03*
X115200000Y-71800000D03*
X106800000Y-65900000D03*
X124600000Y-65400000D03*
X131000000Y-87400000D03*
X105500000Y-74300000D03*
X129800000Y-72500000D03*
X119200000Y-71000000D03*
D14*
X118300000Y-86500000D03*
D15*
X125400000Y-80500000D03*
X108400000Y-72400000D03*
D14*
X124100000Y-68400000D03*
D15*
X116300000Y-66800000D03*
X100800000Y-90200000D03*
X123100000Y-70900000D03*
X106500000Y-74900000D03*
X109600000Y-75200000D03*
X108000000Y-67000000D03*
X112800000Y-75324500D03*
X114700000Y-66800000D03*
X114600000Y-68300000D03*
X108800000Y-68700000D03*
X107800000Y-65900000D03*
X114200000Y-81500000D03*
X110700000Y-75400000D03*
X131000000Y-73200000D03*
X109900000Y-68600000D03*
X127300000Y-86700000D03*
X112400000Y-81600000D03*
X107200000Y-71900000D03*
X107100000Y-68700000D03*
X113500000Y-73400000D03*
X100900000Y-66400000D03*
%TO.N,HSE_IN*%
X109519853Y-79585844D03*
%TO.N,Net-(C11-Pad2)*%
X111000000Y-68400000D03*
%TO.N,Net-(C13-Pad2)*%
X107900000Y-74300000D03*
%TO.N,VUSB*%
X115600000Y-68300000D03*
X115500000Y-69500000D03*
%TO.N,Net-(C15-Pad2)*%
X119800000Y-73900000D03*
%TO.N,+5V*%
X103500000Y-76400000D03*
X125300000Y-61600000D03*
X129800000Y-71200000D03*
X112400000Y-62600000D03*
X132100000Y-85400000D03*
X129400000Y-64800000D03*
%TO.N,Net-(J1-Pad2)*%
X118700000Y-66600000D03*
%TO.N,Net-(J1-Pad3)*%
X117900000Y-66700000D03*
%TO.N,NRST*%
X112300000Y-80800000D03*
X110100000Y-86700000D03*
D14*
%TO.N,BOOT*%
X114958879Y-74049532D03*
D15*
%TO.N,HSE_OUT*%
X109400000Y-81100000D03*
%TO.N,LED_PC13*%
X109108411Y-78591589D03*
X106400000Y-73700000D03*
%TO.N,LED_STATUS*%
X117221075Y-79326593D03*
X107500000Y-89300000D03*
D14*
%TO.N,Net-(R7-Pad2)*%
X124700000Y-76600000D03*
%TO.N,Net-(R8-Pad2)*%
X126000000Y-86900000D03*
D15*
%TO.N,I2C1_SDA*%
X113668595Y-78823928D03*
%TO.N,I2C1_SLC*%
X114900000Y-78800000D03*
X112360746Y-74343923D03*
X114200000Y-74700000D03*
%TO.N,Net-(R11-Pad1)*%
X111900000Y-68400000D03*
%TO.N,Net-(R12-Pad2)*%
X118500000Y-70300000D03*
%TO.N,Net-(R13-Pad1)*%
X120000000Y-70300000D03*
%TO.N,Net-(R14-Pad1)*%
X115100000Y-70700000D03*
%TO.N,UART1_RX*%
X115900000Y-79100000D03*
%TO.N,UART1_TX*%
X116724500Y-78700000D03*
%TO.N,Net-(R15-Pad2)*%
X118000000Y-72200000D03*
D14*
%TO.N,SPI2_SCK*%
X126500000Y-76800000D03*
X121100000Y-83500000D03*
%TO.N,SPI2_MOSI*%
X121475500Y-82573716D03*
X128100000Y-77900000D03*
%TD*%
%TA.AperFunction,Conductor*%
%TO.N,GND*%
G36*
X105734486Y-60528002D02*
G01*
X105780979Y-60581658D01*
X105791371Y-60649792D01*
X105786463Y-60688640D01*
X105804163Y-60869160D01*
X105861418Y-61041273D01*
X105865065Y-61047295D01*
X105865066Y-61047297D01*
X105933723Y-61160663D01*
X105955380Y-61196424D01*
X105960269Y-61201487D01*
X105960270Y-61201488D01*
X105999845Y-61242469D01*
X106081382Y-61326902D01*
X106145392Y-61368789D01*
X106213093Y-61413091D01*
X106233159Y-61426222D01*
X106239763Y-61428678D01*
X106239765Y-61428679D01*
X106396558Y-61486990D01*
X106396560Y-61486990D01*
X106403168Y-61489448D01*
X106486995Y-61500633D01*
X106575980Y-61512507D01*
X106575984Y-61512507D01*
X106582961Y-61513438D01*
X106589972Y-61512800D01*
X106589976Y-61512800D01*
X106732459Y-61499832D01*
X106763600Y-61496998D01*
X106770300Y-61494821D01*
X106770305Y-61494820D01*
X106913934Y-61448152D01*
X106984902Y-61446125D01*
X106996789Y-61449887D01*
X107096563Y-61486992D01*
X107096566Y-61486993D01*
X107103168Y-61489448D01*
X107110149Y-61490379D01*
X107110151Y-61490380D01*
X107275980Y-61512507D01*
X107275984Y-61512507D01*
X107282961Y-61513438D01*
X107289972Y-61512800D01*
X107289976Y-61512800D01*
X107432459Y-61499832D01*
X107463600Y-61496998D01*
X107470300Y-61494821D01*
X107470305Y-61494820D01*
X107613934Y-61448152D01*
X107684902Y-61446125D01*
X107696789Y-61449887D01*
X107796563Y-61486992D01*
X107796566Y-61486993D01*
X107803168Y-61489448D01*
X107810149Y-61490379D01*
X107810151Y-61490380D01*
X107975980Y-61512507D01*
X107975984Y-61512507D01*
X107982961Y-61513438D01*
X107989972Y-61512800D01*
X107989976Y-61512800D01*
X108132459Y-61499832D01*
X108163600Y-61496998D01*
X108170302Y-61494820D01*
X108170304Y-61494820D01*
X108329409Y-61443124D01*
X108329412Y-61443123D01*
X108336108Y-61440947D01*
X108457154Y-61368789D01*
X108485860Y-61351677D01*
X108485862Y-61351676D01*
X108491912Y-61348069D01*
X108623266Y-61222982D01*
X108723643Y-61071902D01*
X108768497Y-60953825D01*
X108785555Y-60908920D01*
X108785556Y-60908918D01*
X108788055Y-60902338D01*
X108789035Y-60895366D01*
X108812748Y-60726639D01*
X108812748Y-60726636D01*
X108813299Y-60722717D01*
X108813616Y-60700000D01*
X108807788Y-60648045D01*
X108820072Y-60578120D01*
X108868210Y-60525936D01*
X108933003Y-60508000D01*
X133450672Y-60508000D01*
X133470057Y-60509500D01*
X133484858Y-60511805D01*
X133484861Y-60511805D01*
X133493730Y-60513186D01*
X133510899Y-60510941D01*
X133534839Y-60510108D01*
X133792770Y-60525710D01*
X133807874Y-60527544D01*
X133878648Y-60540514D01*
X134088879Y-60579040D01*
X134103641Y-60582678D01*
X134376408Y-60667675D01*
X134390627Y-60673069D01*
X134651140Y-60790316D01*
X134664609Y-60797385D01*
X134909095Y-60945182D01*
X134921617Y-60953825D01*
X135146507Y-61130016D01*
X135157895Y-61140106D01*
X135359894Y-61342105D01*
X135369984Y-61353493D01*
X135546175Y-61578383D01*
X135554818Y-61590905D01*
X135702615Y-61835391D01*
X135709684Y-61848860D01*
X135826930Y-62109370D01*
X135832325Y-62123592D01*
X135915460Y-62390380D01*
X135917321Y-62396353D01*
X135920960Y-62411121D01*
X135940407Y-62517236D01*
X135972456Y-62692126D01*
X135974290Y-62707230D01*
X135989455Y-62957929D01*
X135988198Y-62984639D01*
X135988195Y-62984859D01*
X135986814Y-62993730D01*
X135987978Y-63002632D01*
X135987978Y-63002635D01*
X135990936Y-63025251D01*
X135992000Y-63041589D01*
X135992000Y-93450672D01*
X135990500Y-93470057D01*
X135988407Y-93483500D01*
X135986814Y-93493730D01*
X135988454Y-93506270D01*
X135989059Y-93510897D01*
X135989892Y-93534839D01*
X135974290Y-93792770D01*
X135972456Y-93807874D01*
X135932518Y-94025814D01*
X135920962Y-94088873D01*
X135917322Y-94103641D01*
X135869162Y-94258193D01*
X135832326Y-94376404D01*
X135826931Y-94390627D01*
X135823081Y-94399183D01*
X135709686Y-94651136D01*
X135702615Y-94664609D01*
X135554818Y-94909095D01*
X135546175Y-94921617D01*
X135369984Y-95146507D01*
X135359894Y-95157895D01*
X135157895Y-95359894D01*
X135146507Y-95369984D01*
X134921617Y-95546175D01*
X134909095Y-95554818D01*
X134664609Y-95702615D01*
X134651140Y-95709684D01*
X134531741Y-95763421D01*
X134390630Y-95826930D01*
X134376408Y-95832325D01*
X134103641Y-95917322D01*
X134088879Y-95920960D01*
X133878781Y-95959462D01*
X133807874Y-95972456D01*
X133792770Y-95974290D01*
X133542071Y-95989455D01*
X133515361Y-95988198D01*
X133515141Y-95988195D01*
X133506270Y-95986814D01*
X133497368Y-95987978D01*
X133497365Y-95987978D01*
X133474749Y-95990936D01*
X133458411Y-95992000D01*
X126746908Y-95992000D01*
X126678787Y-95971998D01*
X126632294Y-95918342D01*
X126622190Y-95848068D01*
X126651684Y-95783488D01*
X126673740Y-95763421D01*
X126750327Y-95708792D01*
X126758200Y-95702139D01*
X126909052Y-95551812D01*
X126915730Y-95543965D01*
X127040003Y-95371020D01*
X127045313Y-95362183D01*
X127139670Y-95171267D01*
X127143469Y-95161672D01*
X127205377Y-94957910D01*
X127207555Y-94947837D01*
X127208986Y-94936962D01*
X127206775Y-94922778D01*
X127193617Y-94919000D01*
X109318225Y-94919000D01*
X109304694Y-94922973D01*
X109303257Y-94932966D01*
X109333565Y-95067446D01*
X109336645Y-95077275D01*
X109416770Y-95274603D01*
X109421413Y-95283794D01*
X109532694Y-95465388D01*
X109538777Y-95473699D01*
X109678213Y-95634667D01*
X109685580Y-95641883D01*
X109838761Y-95769056D01*
X109878396Y-95827959D01*
X109879894Y-95898939D01*
X109842779Y-95959462D01*
X109778835Y-95990311D01*
X109758276Y-95992000D01*
X103049328Y-95992000D01*
X103029943Y-95990500D01*
X103015142Y-95988195D01*
X103015139Y-95988195D01*
X103006270Y-95986814D01*
X102989101Y-95989059D01*
X102965161Y-95989892D01*
X102707230Y-95974290D01*
X102692126Y-95972456D01*
X102621219Y-95959462D01*
X102411121Y-95920960D01*
X102396359Y-95917322D01*
X102123592Y-95832325D01*
X102109370Y-95826930D01*
X101968259Y-95763421D01*
X101848860Y-95709684D01*
X101835391Y-95702615D01*
X101590905Y-95554818D01*
X101578383Y-95546175D01*
X101353493Y-95369984D01*
X101342105Y-95359894D01*
X101140106Y-95157895D01*
X101130016Y-95146507D01*
X100953825Y-94921617D01*
X100945182Y-94909095D01*
X100797385Y-94664609D01*
X100790314Y-94651136D01*
X100676920Y-94399183D01*
X100673069Y-94390627D01*
X100667674Y-94376404D01*
X100630838Y-94258193D01*
X100582678Y-94103641D01*
X100579038Y-94088873D01*
X100567483Y-94025814D01*
X100527544Y-93807874D01*
X100525710Y-93792770D01*
X100510545Y-93542071D01*
X100511802Y-93515361D01*
X100511805Y-93515141D01*
X100513186Y-93506270D01*
X100511547Y-93493730D01*
X100509064Y-93474749D01*
X100508000Y-93458411D01*
X100508000Y-93429733D01*
X100987822Y-93429733D01*
X100987975Y-93434121D01*
X100987975Y-93434127D01*
X100996271Y-93671677D01*
X100997625Y-93710458D01*
X100998387Y-93714781D01*
X100998388Y-93714788D01*
X101022164Y-93849624D01*
X101046402Y-93987087D01*
X101133203Y-94254235D01*
X101256340Y-94506702D01*
X101258795Y-94510341D01*
X101258798Y-94510347D01*
X101265004Y-94519547D01*
X101413415Y-94739576D01*
X101601371Y-94948322D01*
X101604733Y-94951143D01*
X101604734Y-94951144D01*
X101669105Y-95005157D01*
X101816550Y-95128879D01*
X102054764Y-95277731D01*
X102193133Y-95339337D01*
X102251420Y-95365288D01*
X102311375Y-95391982D01*
X102315603Y-95393194D01*
X102315602Y-95393194D01*
X102567357Y-95465383D01*
X102581390Y-95469407D01*
X102585740Y-95470018D01*
X102585743Y-95470019D01*
X102688690Y-95484487D01*
X102859552Y-95508500D01*
X103070146Y-95508500D01*
X103072332Y-95508347D01*
X103072336Y-95508347D01*
X103275827Y-95494118D01*
X103275832Y-95494117D01*
X103280212Y-95493811D01*
X103554970Y-95435409D01*
X103559099Y-95433906D01*
X103559103Y-95433905D01*
X103814781Y-95340846D01*
X103814785Y-95340844D01*
X103818926Y-95339337D01*
X104066942Y-95207464D01*
X104129970Y-95161672D01*
X104290629Y-95044947D01*
X104290632Y-95044944D01*
X104294192Y-95042358D01*
X104381641Y-94957910D01*
X104493087Y-94850287D01*
X104496252Y-94847231D01*
X104669188Y-94625882D01*
X104671384Y-94622078D01*
X104671389Y-94622071D01*
X104807435Y-94386431D01*
X104809636Y-94382619D01*
X104914862Y-94122176D01*
X104921295Y-94096374D01*
X104981753Y-93853893D01*
X104981754Y-93853888D01*
X104982817Y-93849624D01*
X104984047Y-93837926D01*
X105011719Y-93574636D01*
X105011719Y-93574633D01*
X105012178Y-93570267D01*
X105012025Y-93565873D01*
X105002529Y-93293939D01*
X105002528Y-93293933D01*
X105002375Y-93289542D01*
X105001535Y-93284774D01*
X104967669Y-93092715D01*
X104953598Y-93012913D01*
X104866797Y-92745765D01*
X104861464Y-92734829D01*
X104760388Y-92527596D01*
X104743660Y-92493298D01*
X104741205Y-92489659D01*
X104741202Y-92489653D01*
X104626612Y-92319767D01*
X104586585Y-92260424D01*
X104398629Y-92051678D01*
X104183450Y-91871121D01*
X103945236Y-91722269D01*
X103688625Y-91608018D01*
X103418610Y-91530593D01*
X103414260Y-91529982D01*
X103414257Y-91529981D01*
X103311310Y-91515513D01*
X103140448Y-91491500D01*
X102929854Y-91491500D01*
X102927668Y-91491653D01*
X102927664Y-91491653D01*
X102724173Y-91505882D01*
X102724168Y-91505883D01*
X102719788Y-91506189D01*
X102445030Y-91564591D01*
X102440901Y-91566094D01*
X102440897Y-91566095D01*
X102185219Y-91659154D01*
X102185215Y-91659156D01*
X102181074Y-91660663D01*
X101933058Y-91792536D01*
X101929499Y-91795122D01*
X101929497Y-91795123D01*
X101819959Y-91874707D01*
X101705808Y-91957642D01*
X101503748Y-92152769D01*
X101330812Y-92374118D01*
X101328616Y-92377922D01*
X101328611Y-92377929D01*
X101214794Y-92575067D01*
X101190364Y-92617381D01*
X101085138Y-92877824D01*
X101084073Y-92882097D01*
X101084072Y-92882099D01*
X101029185Y-93102240D01*
X101017183Y-93150376D01*
X101016724Y-93154744D01*
X101016723Y-93154749D01*
X100991559Y-93394174D01*
X100987822Y-93429733D01*
X100508000Y-93429733D01*
X100508000Y-90348134D01*
X109241500Y-90348134D01*
X109248255Y-90410316D01*
X109299385Y-90546705D01*
X109386739Y-90663261D01*
X109503295Y-90750615D01*
X109639684Y-90801745D01*
X109701866Y-90808500D01*
X109748043Y-90808500D01*
X109816164Y-90828502D01*
X109862657Y-90882158D01*
X109872761Y-90952432D01*
X109843267Y-91017012D01*
X109823697Y-91035259D01*
X109729965Y-91105635D01*
X109690525Y-91146907D01*
X109636280Y-91203671D01*
X109575629Y-91267138D01*
X109449743Y-91451680D01*
X109424441Y-91506189D01*
X109377174Y-91608018D01*
X109355688Y-91654305D01*
X109295989Y-91869570D01*
X109272251Y-92091695D01*
X109285110Y-92314715D01*
X109286247Y-92319761D01*
X109286248Y-92319767D01*
X109297716Y-92370653D01*
X109334222Y-92532639D01*
X109418266Y-92739616D01*
X109455685Y-92800678D01*
X109532291Y-92925688D01*
X109534987Y-92930088D01*
X109681250Y-93098938D01*
X109853126Y-93241632D01*
X109926955Y-93284774D01*
X109975679Y-93336412D01*
X109988750Y-93406195D01*
X109962019Y-93471967D01*
X109921562Y-93505327D01*
X109913457Y-93509546D01*
X109904738Y-93515036D01*
X109734433Y-93642905D01*
X109726726Y-93649748D01*
X109579590Y-93803717D01*
X109573104Y-93811727D01*
X109453098Y-93987649D01*
X109448000Y-93996623D01*
X109358338Y-94189783D01*
X109354775Y-94199470D01*
X109299389Y-94399183D01*
X109300912Y-94407607D01*
X109313292Y-94411000D01*
X127193344Y-94411000D01*
X127206875Y-94407027D01*
X127208180Y-94397947D01*
X127166214Y-94230875D01*
X127162894Y-94221124D01*
X127077972Y-94025814D01*
X127073105Y-94016739D01*
X126957426Y-93837926D01*
X126951136Y-93829757D01*
X126807293Y-93671677D01*
X126776241Y-93607831D01*
X126784635Y-93537333D01*
X126829812Y-93482564D01*
X126856256Y-93468895D01*
X126960720Y-93429733D01*
X131487822Y-93429733D01*
X131487975Y-93434121D01*
X131487975Y-93434127D01*
X131496271Y-93671677D01*
X131497625Y-93710458D01*
X131498387Y-93714781D01*
X131498388Y-93714788D01*
X131522164Y-93849624D01*
X131546402Y-93987087D01*
X131633203Y-94254235D01*
X131756340Y-94506702D01*
X131758795Y-94510341D01*
X131758798Y-94510347D01*
X131765004Y-94519547D01*
X131913415Y-94739576D01*
X132101371Y-94948322D01*
X132104733Y-94951143D01*
X132104734Y-94951144D01*
X132169105Y-95005157D01*
X132316550Y-95128879D01*
X132554764Y-95277731D01*
X132693133Y-95339337D01*
X132751420Y-95365288D01*
X132811375Y-95391982D01*
X132815603Y-95393194D01*
X132815602Y-95393194D01*
X133067357Y-95465383D01*
X133081390Y-95469407D01*
X133085740Y-95470018D01*
X133085743Y-95470019D01*
X133188690Y-95484487D01*
X133359552Y-95508500D01*
X133570146Y-95508500D01*
X133572332Y-95508347D01*
X133572336Y-95508347D01*
X133775827Y-95494118D01*
X133775832Y-95494117D01*
X133780212Y-95493811D01*
X134054970Y-95435409D01*
X134059099Y-95433906D01*
X134059103Y-95433905D01*
X134314781Y-95340846D01*
X134314785Y-95340844D01*
X134318926Y-95339337D01*
X134566942Y-95207464D01*
X134629970Y-95161672D01*
X134790629Y-95044947D01*
X134790632Y-95044944D01*
X134794192Y-95042358D01*
X134881641Y-94957910D01*
X134993087Y-94850287D01*
X134996252Y-94847231D01*
X135169188Y-94625882D01*
X135171384Y-94622078D01*
X135171389Y-94622071D01*
X135307435Y-94386431D01*
X135309636Y-94382619D01*
X135414862Y-94122176D01*
X135421295Y-94096374D01*
X135481753Y-93853893D01*
X135481754Y-93853888D01*
X135482817Y-93849624D01*
X135484047Y-93837926D01*
X135511719Y-93574636D01*
X135511719Y-93574633D01*
X135512178Y-93570267D01*
X135512025Y-93565873D01*
X135502529Y-93293939D01*
X135502528Y-93293933D01*
X135502375Y-93289542D01*
X135501535Y-93284774D01*
X135467669Y-93092715D01*
X135453598Y-93012913D01*
X135366797Y-92745765D01*
X135361464Y-92734829D01*
X135260388Y-92527596D01*
X135243660Y-92493298D01*
X135241205Y-92489659D01*
X135241202Y-92489653D01*
X135126612Y-92319767D01*
X135086585Y-92260424D01*
X134898629Y-92051678D01*
X134683450Y-91871121D01*
X134445236Y-91722269D01*
X134188625Y-91608018D01*
X133918610Y-91530593D01*
X133914260Y-91529982D01*
X133914257Y-91529981D01*
X133811310Y-91515513D01*
X133640448Y-91491500D01*
X133429854Y-91491500D01*
X133427668Y-91491653D01*
X133427664Y-91491653D01*
X133224173Y-91505882D01*
X133224168Y-91505883D01*
X133219788Y-91506189D01*
X132945030Y-91564591D01*
X132940901Y-91566094D01*
X132940897Y-91566095D01*
X132685219Y-91659154D01*
X132685215Y-91659156D01*
X132681074Y-91660663D01*
X132433058Y-91792536D01*
X132429499Y-91795122D01*
X132429497Y-91795123D01*
X132319959Y-91874707D01*
X132205808Y-91957642D01*
X132003748Y-92152769D01*
X131830812Y-92374118D01*
X131828616Y-92377922D01*
X131828611Y-92377929D01*
X131714794Y-92575067D01*
X131690364Y-92617381D01*
X131585138Y-92877824D01*
X131584073Y-92882097D01*
X131584072Y-92882099D01*
X131529185Y-93102240D01*
X131517183Y-93150376D01*
X131516724Y-93154744D01*
X131516723Y-93154749D01*
X131491559Y-93394174D01*
X131487822Y-93429733D01*
X126960720Y-93429733D01*
X126963297Y-93428767D01*
X126971705Y-93425615D01*
X127088261Y-93338261D01*
X127175615Y-93221705D01*
X127226745Y-93085316D01*
X127233500Y-93023134D01*
X127233500Y-91226866D01*
X127226745Y-91164684D01*
X127175615Y-91028295D01*
X127088261Y-90911739D01*
X126971705Y-90824385D01*
X126835316Y-90773255D01*
X126773134Y-90766500D01*
X124976866Y-90766500D01*
X124914684Y-90773255D01*
X124778295Y-90824385D01*
X124661739Y-90911739D01*
X124574385Y-91028295D01*
X124571233Y-91036703D01*
X124529919Y-91146907D01*
X124487277Y-91203671D01*
X124420716Y-91228371D01*
X124351367Y-91213163D01*
X124318743Y-91187476D01*
X124268151Y-91131875D01*
X124268142Y-91131866D01*
X124264670Y-91128051D01*
X124260619Y-91124852D01*
X124260615Y-91124848D01*
X124093414Y-90992800D01*
X124093410Y-90992798D01*
X124089359Y-90989598D01*
X123904435Y-90887515D01*
X123854464Y-90837082D01*
X123839692Y-90767639D01*
X123864808Y-90701234D01*
X123909894Y-90664056D01*
X123997994Y-90620896D01*
X124179860Y-90491173D01*
X124338096Y-90333489D01*
X124468453Y-90152077D01*
X124487550Y-90113438D01*
X124565136Y-89956453D01*
X124565137Y-89956451D01*
X124567430Y-89951811D01*
X124632370Y-89738069D01*
X124661529Y-89516590D01*
X124661611Y-89513240D01*
X124663074Y-89453365D01*
X124663074Y-89453361D01*
X124663156Y-89450000D01*
X124644852Y-89227361D01*
X124590431Y-89010702D01*
X124501354Y-88805840D01*
X124414067Y-88670915D01*
X124382822Y-88622617D01*
X124382820Y-88622614D01*
X124380014Y-88618277D01*
X124229670Y-88453051D01*
X124225619Y-88449852D01*
X124225615Y-88449848D01*
X124058414Y-88317800D01*
X124058410Y-88317798D01*
X124054359Y-88314598D01*
X123858789Y-88206638D01*
X123853920Y-88204914D01*
X123853916Y-88204912D01*
X123653087Y-88133795D01*
X123653083Y-88133794D01*
X123648212Y-88132069D01*
X123643119Y-88131162D01*
X123643116Y-88131161D01*
X123433373Y-88093800D01*
X123433367Y-88093799D01*
X123428284Y-88092894D01*
X123354452Y-88091992D01*
X123210081Y-88090228D01*
X123210079Y-88090228D01*
X123204911Y-88090165D01*
X122984091Y-88123955D01*
X122771756Y-88193357D01*
X122573607Y-88296507D01*
X122569474Y-88299610D01*
X122569471Y-88299612D01*
X122399100Y-88427530D01*
X122394965Y-88430635D01*
X122391393Y-88434373D01*
X122283729Y-88547037D01*
X122240629Y-88592138D01*
X122133201Y-88749621D01*
X122078293Y-88794621D01*
X122007768Y-88802792D01*
X121944021Y-88771538D01*
X121923324Y-88747054D01*
X121842822Y-88622617D01*
X121842820Y-88622614D01*
X121840014Y-88618277D01*
X121689670Y-88453051D01*
X121685619Y-88449852D01*
X121685615Y-88449848D01*
X121518414Y-88317800D01*
X121518410Y-88317798D01*
X121514359Y-88314598D01*
X121318789Y-88206638D01*
X121313920Y-88204914D01*
X121313916Y-88204912D01*
X121113087Y-88133795D01*
X121113083Y-88133794D01*
X121108212Y-88132069D01*
X121103119Y-88131162D01*
X121103116Y-88131161D01*
X120893373Y-88093800D01*
X120893367Y-88093799D01*
X120888284Y-88092894D01*
X120814452Y-88091992D01*
X120670081Y-88090228D01*
X120670079Y-88090228D01*
X120664911Y-88090165D01*
X120444091Y-88123955D01*
X120231756Y-88193357D01*
X120033607Y-88296507D01*
X120029474Y-88299610D01*
X120029471Y-88299612D01*
X119859100Y-88427530D01*
X119854965Y-88430635D01*
X119851393Y-88434373D01*
X119743729Y-88547037D01*
X119700629Y-88592138D01*
X119593201Y-88749621D01*
X119538293Y-88794621D01*
X119467768Y-88802792D01*
X119404021Y-88771538D01*
X119383324Y-88747054D01*
X119302822Y-88622617D01*
X119302820Y-88622614D01*
X119300014Y-88618277D01*
X119149670Y-88453051D01*
X119145619Y-88449852D01*
X119145615Y-88449848D01*
X118978414Y-88317800D01*
X118978410Y-88317798D01*
X118974359Y-88314598D01*
X118778789Y-88206638D01*
X118773920Y-88204914D01*
X118773916Y-88204912D01*
X118573087Y-88133795D01*
X118573083Y-88133794D01*
X118568212Y-88132069D01*
X118563119Y-88131162D01*
X118563116Y-88131161D01*
X118353373Y-88093800D01*
X118353367Y-88093799D01*
X118348284Y-88092894D01*
X118274452Y-88091992D01*
X118130081Y-88090228D01*
X118130079Y-88090228D01*
X118124911Y-88090165D01*
X117904091Y-88123955D01*
X117691756Y-88193357D01*
X117493607Y-88296507D01*
X117489474Y-88299610D01*
X117489471Y-88299612D01*
X117319100Y-88427530D01*
X117314965Y-88430635D01*
X117311393Y-88434373D01*
X117203729Y-88547037D01*
X117160629Y-88592138D01*
X117053201Y-88749621D01*
X116998293Y-88794621D01*
X116927768Y-88802792D01*
X116864021Y-88771538D01*
X116843324Y-88747054D01*
X116762822Y-88622617D01*
X116762820Y-88622614D01*
X116760014Y-88618277D01*
X116609670Y-88453051D01*
X116605619Y-88449852D01*
X116605615Y-88449848D01*
X116438414Y-88317800D01*
X116438410Y-88317798D01*
X116434359Y-88314598D01*
X116238789Y-88206638D01*
X116233920Y-88204914D01*
X116233916Y-88204912D01*
X116033087Y-88133795D01*
X116033083Y-88133794D01*
X116028212Y-88132069D01*
X116023119Y-88131162D01*
X116023116Y-88131161D01*
X115813373Y-88093800D01*
X115813367Y-88093799D01*
X115808284Y-88092894D01*
X115734452Y-88091992D01*
X115590081Y-88090228D01*
X115590079Y-88090228D01*
X115584911Y-88090165D01*
X115364091Y-88123955D01*
X115151756Y-88193357D01*
X114953607Y-88296507D01*
X114949474Y-88299610D01*
X114949471Y-88299612D01*
X114779100Y-88427530D01*
X114774965Y-88430635D01*
X114771393Y-88434373D01*
X114663729Y-88547037D01*
X114620629Y-88592138D01*
X114513201Y-88749621D01*
X114458293Y-88794621D01*
X114387768Y-88802792D01*
X114324021Y-88771538D01*
X114303324Y-88747054D01*
X114222822Y-88622617D01*
X114222820Y-88622614D01*
X114220014Y-88618277D01*
X114069670Y-88453051D01*
X114065619Y-88449852D01*
X114065615Y-88449848D01*
X113898414Y-88317800D01*
X113898410Y-88317798D01*
X113894359Y-88314598D01*
X113698789Y-88206638D01*
X113693920Y-88204914D01*
X113693916Y-88204912D01*
X113493087Y-88133795D01*
X113493083Y-88133794D01*
X113488212Y-88132069D01*
X113483119Y-88131162D01*
X113483116Y-88131161D01*
X113273373Y-88093800D01*
X113273367Y-88093799D01*
X113268284Y-88092894D01*
X113194452Y-88091992D01*
X113050081Y-88090228D01*
X113050079Y-88090228D01*
X113044911Y-88090165D01*
X112824091Y-88123955D01*
X112611756Y-88193357D01*
X112413607Y-88296507D01*
X112409474Y-88299610D01*
X112409471Y-88299612D01*
X112239100Y-88427530D01*
X112234965Y-88430635D01*
X112163553Y-88505364D01*
X112154283Y-88515064D01*
X112092759Y-88550494D01*
X112021846Y-88547037D01*
X111964060Y-88505791D01*
X111945207Y-88472243D01*
X111903767Y-88361703D01*
X111900615Y-88353295D01*
X111813261Y-88236739D01*
X111696705Y-88149385D01*
X111560316Y-88098255D01*
X111498134Y-88091500D01*
X109701866Y-88091500D01*
X109639684Y-88098255D01*
X109503295Y-88149385D01*
X109386739Y-88236739D01*
X109299385Y-88353295D01*
X109248255Y-88489684D01*
X109241500Y-88551866D01*
X109241500Y-90348134D01*
X100508000Y-90348134D01*
X100508000Y-89288640D01*
X106686463Y-89288640D01*
X106704163Y-89469160D01*
X106761418Y-89641273D01*
X106765065Y-89647295D01*
X106765066Y-89647297D01*
X106775978Y-89665314D01*
X106855380Y-89796424D01*
X106981382Y-89926902D01*
X107133159Y-90026222D01*
X107139763Y-90028678D01*
X107139765Y-90028679D01*
X107296558Y-90086990D01*
X107296560Y-90086990D01*
X107303168Y-90089448D01*
X107386995Y-90100633D01*
X107475980Y-90112507D01*
X107475984Y-90112507D01*
X107482961Y-90113438D01*
X107489972Y-90112800D01*
X107489976Y-90112800D01*
X107632459Y-90099832D01*
X107663600Y-90096998D01*
X107670302Y-90094820D01*
X107670304Y-90094820D01*
X107829409Y-90043124D01*
X107829412Y-90043123D01*
X107836108Y-90040947D01*
X107991912Y-89948069D01*
X108123266Y-89822982D01*
X108223643Y-89671902D01*
X108288055Y-89502338D01*
X108289035Y-89495366D01*
X108312748Y-89326639D01*
X108312748Y-89326636D01*
X108313299Y-89322717D01*
X108313616Y-89300000D01*
X108293397Y-89119745D01*
X108291080Y-89113091D01*
X108236064Y-88955106D01*
X108236062Y-88955103D01*
X108233745Y-88948448D01*
X108147603Y-88810590D01*
X108141359Y-88800598D01*
X108137626Y-88794624D01*
X108090387Y-88747054D01*
X108014778Y-88670915D01*
X108014774Y-88670912D01*
X108009815Y-88665918D01*
X107998697Y-88658862D01*
X107941583Y-88622617D01*
X107856666Y-88568727D01*
X107799775Y-88548469D01*
X107692425Y-88510243D01*
X107692420Y-88510242D01*
X107685790Y-88507881D01*
X107678802Y-88507048D01*
X107678799Y-88507047D01*
X107555698Y-88492368D01*
X107505680Y-88486404D01*
X107498677Y-88487140D01*
X107498676Y-88487140D01*
X107332288Y-88504628D01*
X107332286Y-88504629D01*
X107325288Y-88505364D01*
X107153579Y-88563818D01*
X107147575Y-88567512D01*
X107005095Y-88655166D01*
X107005092Y-88655168D01*
X106999088Y-88658862D01*
X106994053Y-88663793D01*
X106994050Y-88663795D01*
X106909029Y-88747054D01*
X106869493Y-88785771D01*
X106771235Y-88938238D01*
X106768826Y-88944858D01*
X106768824Y-88944861D01*
X106711606Y-89102066D01*
X106709197Y-89108685D01*
X106686463Y-89288640D01*
X100508000Y-89288640D01*
X100508000Y-87720679D01*
X100528002Y-87652558D01*
X100581658Y-87606065D01*
X100650664Y-87595786D01*
X100775979Y-87612507D01*
X100775984Y-87612507D01*
X100782961Y-87613438D01*
X100789972Y-87612800D01*
X100789976Y-87612800D01*
X100932459Y-87599832D01*
X100963600Y-87596998D01*
X100970302Y-87594820D01*
X100970304Y-87594820D01*
X101129409Y-87543124D01*
X101129412Y-87543123D01*
X101136108Y-87540947D01*
X101291912Y-87448069D01*
X101423266Y-87322982D01*
X101523643Y-87171902D01*
X101568442Y-87053968D01*
X101585555Y-87008920D01*
X101585556Y-87008918D01*
X101588055Y-87002338D01*
X101603605Y-86891693D01*
X101612748Y-86826639D01*
X101612748Y-86826636D01*
X101613299Y-86822717D01*
X101613616Y-86800000D01*
X101601125Y-86688640D01*
X109286463Y-86688640D01*
X109304163Y-86869160D01*
X109361418Y-87041273D01*
X109365065Y-87047295D01*
X109365066Y-87047297D01*
X109444085Y-87177773D01*
X109455380Y-87196424D01*
X109460269Y-87201487D01*
X109460270Y-87201488D01*
X109475357Y-87217111D01*
X109581382Y-87326902D01*
X109587278Y-87330760D01*
X109686445Y-87395653D01*
X109733159Y-87426222D01*
X109739763Y-87428678D01*
X109739765Y-87428679D01*
X109896558Y-87486990D01*
X109896560Y-87486990D01*
X109903168Y-87489448D01*
X109986995Y-87500633D01*
X110075980Y-87512507D01*
X110075984Y-87512507D01*
X110082961Y-87513438D01*
X110089972Y-87512800D01*
X110089976Y-87512800D01*
X110232459Y-87499832D01*
X110263600Y-87496998D01*
X110270302Y-87494820D01*
X110270304Y-87494820D01*
X110429409Y-87443124D01*
X110429412Y-87443123D01*
X110436108Y-87440947D01*
X110523854Y-87388640D01*
X124286463Y-87388640D01*
X124304163Y-87569160D01*
X124361418Y-87741273D01*
X124365065Y-87747295D01*
X124365066Y-87747297D01*
X124433462Y-87860232D01*
X124455380Y-87896424D01*
X124581382Y-88026902D01*
X124733159Y-88126222D01*
X124739763Y-88128678D01*
X124739765Y-88128679D01*
X124896558Y-88186990D01*
X124896560Y-88186990D01*
X124903168Y-88189448D01*
X124986995Y-88200633D01*
X125075980Y-88212507D01*
X125075984Y-88212507D01*
X125082961Y-88213438D01*
X125089972Y-88212800D01*
X125089976Y-88212800D01*
X125232459Y-88199832D01*
X125263600Y-88196998D01*
X125270302Y-88194820D01*
X125270304Y-88194820D01*
X125429409Y-88143124D01*
X125429412Y-88143123D01*
X125436108Y-88140947D01*
X125591912Y-88048069D01*
X125723266Y-87922982D01*
X125764957Y-87860232D01*
X125819315Y-87814561D01*
X125891406Y-87807193D01*
X125891485Y-87806437D01*
X125895094Y-87806816D01*
X125896104Y-87806713D01*
X125898052Y-87807127D01*
X125898055Y-87807127D01*
X125904513Y-87808500D01*
X126095487Y-87808500D01*
X126101939Y-87807128D01*
X126101944Y-87807128D01*
X126188888Y-87788647D01*
X126282288Y-87768794D01*
X126288319Y-87766109D01*
X126450722Y-87693803D01*
X126450724Y-87693802D01*
X126456752Y-87691118D01*
X126611253Y-87578866D01*
X126643435Y-87543124D01*
X126734621Y-87441852D01*
X126734622Y-87441851D01*
X126739040Y-87436944D01*
X126797314Y-87336010D01*
X126831223Y-87277279D01*
X126831224Y-87277278D01*
X126834527Y-87271556D01*
X126893542Y-87089928D01*
X126913504Y-86900000D01*
X126902580Y-86796062D01*
X126894232Y-86716635D01*
X126894232Y-86716633D01*
X126893542Y-86710072D01*
X126834527Y-86528444D01*
X126739040Y-86363056D01*
X126720504Y-86342469D01*
X126615675Y-86226045D01*
X126615674Y-86226044D01*
X126611253Y-86221134D01*
X126484000Y-86128679D01*
X126462094Y-86112763D01*
X126462093Y-86112762D01*
X126456752Y-86108882D01*
X126450724Y-86106198D01*
X126450722Y-86106197D01*
X126288319Y-86033891D01*
X126288318Y-86033891D01*
X126282288Y-86031206D01*
X126188887Y-86011353D01*
X126101944Y-85992872D01*
X126101939Y-85992872D01*
X126095487Y-85991500D01*
X125904513Y-85991500D01*
X125898061Y-85992872D01*
X125898056Y-85992872D01*
X125811113Y-86011353D01*
X125717712Y-86031206D01*
X125711682Y-86033891D01*
X125711681Y-86033891D01*
X125549278Y-86106197D01*
X125549276Y-86106198D01*
X125543248Y-86108882D01*
X125537907Y-86112762D01*
X125537906Y-86112763D01*
X125516000Y-86128679D01*
X125388747Y-86221134D01*
X125384326Y-86226044D01*
X125384325Y-86226045D01*
X125279497Y-86342469D01*
X125260960Y-86363056D01*
X125165811Y-86527859D01*
X125114429Y-86576852D01*
X125069864Y-86590168D01*
X124974572Y-86600184D01*
X124932289Y-86604628D01*
X124932288Y-86604628D01*
X124925288Y-86605364D01*
X124753579Y-86663818D01*
X124747575Y-86667512D01*
X124605095Y-86755166D01*
X124605092Y-86755168D01*
X124599088Y-86758862D01*
X124594053Y-86763793D01*
X124594050Y-86763795D01*
X124484977Y-86870608D01*
X124469493Y-86885771D01*
X124371235Y-87038238D01*
X124368826Y-87044858D01*
X124368824Y-87044861D01*
X124311606Y-87202066D01*
X124309197Y-87208685D01*
X124286463Y-87388640D01*
X110523854Y-87388640D01*
X110591912Y-87348069D01*
X110723266Y-87222982D01*
X110823643Y-87071902D01*
X110888055Y-86902338D01*
X110891076Y-86880843D01*
X110912748Y-86726639D01*
X110912748Y-86726636D01*
X110913299Y-86722717D01*
X110913452Y-86711738D01*
X110913561Y-86703962D01*
X110913561Y-86703957D01*
X110913616Y-86700000D01*
X110893397Y-86519745D01*
X110891080Y-86513091D01*
X110836064Y-86355106D01*
X110836062Y-86355103D01*
X110833745Y-86348448D01*
X110737626Y-86194624D01*
X110730908Y-86187859D01*
X118449757Y-86187859D01*
X118469719Y-86377787D01*
X118528734Y-86559415D01*
X118624221Y-86724803D01*
X118628639Y-86729710D01*
X118628640Y-86729711D01*
X118695496Y-86803962D01*
X118752008Y-86866725D01*
X118906509Y-86978977D01*
X118912537Y-86981661D01*
X118912539Y-86981662D01*
X119059959Y-87047297D01*
X119080973Y-87056653D01*
X119152714Y-87071902D01*
X119261317Y-87094987D01*
X119261322Y-87094987D01*
X119267774Y-87096359D01*
X119458748Y-87096359D01*
X119465200Y-87094987D01*
X119465205Y-87094987D01*
X119573808Y-87071902D01*
X119645549Y-87056653D01*
X119666563Y-87047297D01*
X119813983Y-86981662D01*
X119813985Y-86981661D01*
X119820013Y-86978977D01*
X119974514Y-86866725D01*
X120031026Y-86803962D01*
X120097882Y-86729711D01*
X120097883Y-86729710D01*
X120102301Y-86724803D01*
X120197788Y-86559415D01*
X120256803Y-86377787D01*
X120276765Y-86187859D01*
X120260300Y-86031206D01*
X120257493Y-86004494D01*
X120257493Y-86004492D01*
X120256803Y-85997931D01*
X120197788Y-85816303D01*
X120102301Y-85650915D01*
X119974514Y-85508993D01*
X119820013Y-85396741D01*
X119813985Y-85394057D01*
X119813983Y-85394056D01*
X119801818Y-85388640D01*
X131286463Y-85388640D01*
X131304163Y-85569160D01*
X131361418Y-85741273D01*
X131365065Y-85747295D01*
X131365066Y-85747297D01*
X131449817Y-85887238D01*
X131455380Y-85896424D01*
X131460269Y-85901487D01*
X131460270Y-85901488D01*
X131466204Y-85907633D01*
X131581382Y-86026902D01*
X131641005Y-86065918D01*
X131706661Y-86108882D01*
X131733159Y-86126222D01*
X131739763Y-86128678D01*
X131739765Y-86128679D01*
X131896558Y-86186990D01*
X131896560Y-86186990D01*
X131903168Y-86189448D01*
X131986732Y-86200598D01*
X132075980Y-86212507D01*
X132075984Y-86212507D01*
X132082961Y-86213438D01*
X132089972Y-86212800D01*
X132089976Y-86212800D01*
X132232459Y-86199832D01*
X132263600Y-86196998D01*
X132270302Y-86194820D01*
X132270304Y-86194820D01*
X132429409Y-86143124D01*
X132429412Y-86143123D01*
X132436108Y-86140947D01*
X132557258Y-86068727D01*
X132585860Y-86051677D01*
X132585862Y-86051676D01*
X132591912Y-86048069D01*
X132723266Y-85922982D01*
X132823643Y-85771902D01*
X132888055Y-85602338D01*
X132889035Y-85595366D01*
X132912748Y-85426639D01*
X132912748Y-85426636D01*
X132913299Y-85422717D01*
X132913616Y-85400000D01*
X132893397Y-85219745D01*
X132891080Y-85213091D01*
X132836064Y-85055106D01*
X132836062Y-85055103D01*
X132833745Y-85048448D01*
X132737626Y-84894624D01*
X132723941Y-84880843D01*
X132614778Y-84770915D01*
X132614774Y-84770912D01*
X132609815Y-84765918D01*
X132598697Y-84758862D01*
X132550538Y-84728300D01*
X132456666Y-84668727D01*
X132427463Y-84658328D01*
X132292425Y-84610243D01*
X132292420Y-84610242D01*
X132285790Y-84607881D01*
X132278802Y-84607048D01*
X132278799Y-84607047D01*
X132155698Y-84592368D01*
X132105680Y-84586404D01*
X132098677Y-84587140D01*
X132098676Y-84587140D01*
X131932288Y-84604628D01*
X131932286Y-84604629D01*
X131925288Y-84605364D01*
X131753579Y-84663818D01*
X131747575Y-84667512D01*
X131605095Y-84755166D01*
X131605092Y-84755168D01*
X131599088Y-84758862D01*
X131594053Y-84763793D01*
X131594050Y-84763795D01*
X131474525Y-84880843D01*
X131469493Y-84885771D01*
X131371235Y-85038238D01*
X131368826Y-85044858D01*
X131368824Y-85044861D01*
X131311606Y-85202066D01*
X131309197Y-85208685D01*
X131286463Y-85388640D01*
X119801818Y-85388640D01*
X119651580Y-85321750D01*
X119651579Y-85321750D01*
X119645549Y-85319065D01*
X119552148Y-85299212D01*
X119465205Y-85280731D01*
X119465200Y-85280731D01*
X119458748Y-85279359D01*
X119267774Y-85279359D01*
X119261322Y-85280731D01*
X119261317Y-85280731D01*
X119174374Y-85299212D01*
X119080973Y-85319065D01*
X119074943Y-85321750D01*
X119074942Y-85321750D01*
X118912539Y-85394056D01*
X118912537Y-85394057D01*
X118906509Y-85396741D01*
X118752008Y-85508993D01*
X118624221Y-85650915D01*
X118528734Y-85816303D01*
X118469719Y-85997931D01*
X118469029Y-86004492D01*
X118469029Y-86004494D01*
X118466222Y-86031206D01*
X118449757Y-86187859D01*
X110730908Y-86187859D01*
X110705371Y-86162143D01*
X110614778Y-86070915D01*
X110614774Y-86070912D01*
X110609815Y-86065918D01*
X110598697Y-86058862D01*
X110548335Y-86026902D01*
X110456666Y-85968727D01*
X110381018Y-85941790D01*
X110292425Y-85910243D01*
X110292420Y-85910242D01*
X110285790Y-85907881D01*
X110278802Y-85907048D01*
X110278799Y-85907047D01*
X110155698Y-85892368D01*
X110105680Y-85886404D01*
X110098677Y-85887140D01*
X110098676Y-85887140D01*
X109932288Y-85904628D01*
X109932286Y-85904629D01*
X109925288Y-85905364D01*
X109753579Y-85963818D01*
X109708583Y-85991500D01*
X109605095Y-86055166D01*
X109605092Y-86055168D01*
X109599088Y-86058862D01*
X109594053Y-86063793D01*
X109594050Y-86063795D01*
X109493621Y-86162143D01*
X109469493Y-86185771D01*
X109371235Y-86338238D01*
X109368826Y-86344858D01*
X109368824Y-86344861D01*
X109328698Y-86455106D01*
X109309197Y-86508685D01*
X109286463Y-86688640D01*
X101601125Y-86688640D01*
X101593397Y-86619745D01*
X101583098Y-86590169D01*
X101536064Y-86455106D01*
X101536062Y-86455103D01*
X101533745Y-86448448D01*
X101437626Y-86294624D01*
X101369524Y-86226045D01*
X101314778Y-86170915D01*
X101314774Y-86170912D01*
X101309815Y-86165918D01*
X101156666Y-86068727D01*
X101108784Y-86051677D01*
X100992425Y-86010243D01*
X100992420Y-86010242D01*
X100985790Y-86007881D01*
X100978802Y-86007048D01*
X100978799Y-86007047D01*
X100838285Y-85990292D01*
X100805680Y-85986404D01*
X100798677Y-85987140D01*
X100798676Y-85987140D01*
X100647171Y-86003064D01*
X100577332Y-85990292D01*
X100525486Y-85941790D01*
X100508000Y-85877754D01*
X100508000Y-83500000D01*
X120186496Y-83500000D01*
X120206458Y-83689928D01*
X120265473Y-83871556D01*
X120360960Y-84036944D01*
X120488747Y-84178866D01*
X120643248Y-84291118D01*
X120649276Y-84293802D01*
X120649278Y-84293803D01*
X120811681Y-84366109D01*
X120817712Y-84368794D01*
X120911113Y-84388647D01*
X120998056Y-84407128D01*
X120998061Y-84407128D01*
X121004513Y-84408500D01*
X121195487Y-84408500D01*
X121201939Y-84407128D01*
X121201944Y-84407128D01*
X121288887Y-84388647D01*
X121382288Y-84368794D01*
X121388319Y-84366109D01*
X121550722Y-84293803D01*
X121550724Y-84293802D01*
X121556752Y-84291118D01*
X121711253Y-84178866D01*
X121839040Y-84036944D01*
X121934527Y-83871556D01*
X121993542Y-83689928D01*
X122013504Y-83500000D01*
X122002145Y-83391926D01*
X122014917Y-83322087D01*
X122053394Y-83276819D01*
X122064520Y-83268735D01*
X122086753Y-83252582D01*
X122091175Y-83247671D01*
X122210121Y-83115568D01*
X122210122Y-83115567D01*
X122214540Y-83110660D01*
X122296458Y-82968774D01*
X122306723Y-82950995D01*
X122306724Y-82950994D01*
X122310027Y-82945272D01*
X122369042Y-82763644D01*
X122389004Y-82573716D01*
X122373134Y-82422717D01*
X122369732Y-82390351D01*
X122369732Y-82390349D01*
X122369042Y-82383788D01*
X122310027Y-82202160D01*
X122214540Y-82036772D01*
X122102652Y-81912507D01*
X122091175Y-81899761D01*
X122091174Y-81899760D01*
X122086753Y-81894850D01*
X121932252Y-81782598D01*
X121926224Y-81779914D01*
X121926222Y-81779913D01*
X121763819Y-81707607D01*
X121763818Y-81707607D01*
X121757788Y-81704922D01*
X121664388Y-81685069D01*
X121577444Y-81666588D01*
X121577439Y-81666588D01*
X121570987Y-81665216D01*
X121380013Y-81665216D01*
X121373561Y-81666588D01*
X121373556Y-81666588D01*
X121286612Y-81685069D01*
X121193212Y-81704922D01*
X121187182Y-81707607D01*
X121187181Y-81707607D01*
X121024778Y-81779913D01*
X121024776Y-81779914D01*
X121018748Y-81782598D01*
X120864247Y-81894850D01*
X120859826Y-81899760D01*
X120859825Y-81899761D01*
X120848349Y-81912507D01*
X120736460Y-82036772D01*
X120640973Y-82202160D01*
X120581958Y-82383788D01*
X120581268Y-82390349D01*
X120581268Y-82390351D01*
X120577866Y-82422717D01*
X120561996Y-82573716D01*
X120562686Y-82580281D01*
X120573355Y-82681790D01*
X120560583Y-82751629D01*
X120522106Y-82796897D01*
X120488747Y-82821134D01*
X120360960Y-82963056D01*
X120321871Y-83030760D01*
X120275741Y-83110660D01*
X120265473Y-83128444D01*
X120206458Y-83310072D01*
X120186496Y-83500000D01*
X100508000Y-83500000D01*
X100508000Y-78580229D01*
X108294874Y-78580229D01*
X108312574Y-78760749D01*
X108369829Y-78932862D01*
X108373476Y-78938884D01*
X108373477Y-78938886D01*
X108459222Y-79080468D01*
X108463791Y-79088013D01*
X108589793Y-79218491D01*
X108595685Y-79222346D01*
X108595689Y-79222350D01*
X108673108Y-79273011D01*
X108719157Y-79327048D01*
X108728278Y-79394431D01*
X108729050Y-79394529D01*
X108706316Y-79574484D01*
X108724016Y-79755004D01*
X108781271Y-79927117D01*
X108784918Y-79933139D01*
X108784919Y-79933141D01*
X108866297Y-80067512D01*
X108875233Y-80082268D01*
X108880122Y-80087331D01*
X108880123Y-80087332D01*
X109001235Y-80212746D01*
X108999557Y-80214366D01*
X109033130Y-80264073D01*
X109034751Y-80335051D01*
X108997742Y-80395638D01*
X108979111Y-80409631D01*
X108899088Y-80458862D01*
X108894053Y-80463793D01*
X108894050Y-80463795D01*
X108828649Y-80527841D01*
X108769493Y-80585771D01*
X108671235Y-80738238D01*
X108668826Y-80744858D01*
X108668824Y-80744861D01*
X108649848Y-80796998D01*
X108609197Y-80908685D01*
X108586463Y-81088640D01*
X108604163Y-81269160D01*
X108661418Y-81441273D01*
X108665065Y-81447295D01*
X108665066Y-81447297D01*
X108712865Y-81526222D01*
X108755380Y-81596424D01*
X108760269Y-81601487D01*
X108760270Y-81601488D01*
X108820462Y-81663818D01*
X108881382Y-81726902D01*
X109033159Y-81826222D01*
X109039763Y-81828678D01*
X109039765Y-81828679D01*
X109196558Y-81886990D01*
X109196560Y-81886990D01*
X109203168Y-81889448D01*
X109280459Y-81899761D01*
X109375980Y-81912507D01*
X109375984Y-81912507D01*
X109382961Y-81913438D01*
X109389972Y-81912800D01*
X109389976Y-81912800D01*
X109533241Y-81899761D01*
X109563600Y-81896998D01*
X109570302Y-81894820D01*
X109570304Y-81894820D01*
X109729409Y-81843124D01*
X109729412Y-81843123D01*
X109736108Y-81840947D01*
X109861970Y-81765918D01*
X109885860Y-81751677D01*
X109885862Y-81751676D01*
X109891912Y-81748069D01*
X110023266Y-81622982D01*
X110123643Y-81471902D01*
X110188055Y-81302338D01*
X110189733Y-81290401D01*
X110212748Y-81126639D01*
X110212748Y-81126636D01*
X110213299Y-81122717D01*
X110213616Y-81100000D01*
X110193397Y-80919745D01*
X110191080Y-80913091D01*
X110147742Y-80788640D01*
X111486463Y-80788640D01*
X111504163Y-80969160D01*
X111561418Y-81141273D01*
X111565065Y-81147295D01*
X111565066Y-81147297D01*
X111634624Y-81262151D01*
X111655380Y-81296424D01*
X111781382Y-81426902D01*
X111806305Y-81443211D01*
X111933159Y-81526222D01*
X111931497Y-81528761D01*
X111973440Y-81568101D01*
X111990745Y-81636956D01*
X111968077Y-81704237D01*
X111930867Y-81739312D01*
X111899088Y-81758862D01*
X111894053Y-81763793D01*
X111894050Y-81763795D01*
X111774525Y-81880843D01*
X111769493Y-81885771D01*
X111671235Y-82038238D01*
X111668826Y-82044858D01*
X111668824Y-82044861D01*
X111613655Y-82196437D01*
X111609197Y-82208685D01*
X111586463Y-82388640D01*
X111604163Y-82569160D01*
X111661418Y-82741273D01*
X111665065Y-82747295D01*
X111665066Y-82747297D01*
X111707432Y-82817251D01*
X111755380Y-82896424D01*
X111760269Y-82901487D01*
X111760270Y-82901488D01*
X111819726Y-82963056D01*
X111881382Y-83026902D01*
X111887278Y-83030760D01*
X112009378Y-83110660D01*
X112033159Y-83126222D01*
X112039763Y-83128678D01*
X112039765Y-83128679D01*
X112196558Y-83186990D01*
X112196560Y-83186990D01*
X112203168Y-83189448D01*
X112286995Y-83200633D01*
X112375980Y-83212507D01*
X112375984Y-83212507D01*
X112382961Y-83213438D01*
X112389972Y-83212800D01*
X112389976Y-83212800D01*
X112532459Y-83199832D01*
X112563600Y-83196998D01*
X112570302Y-83194820D01*
X112570304Y-83194820D01*
X112729409Y-83143124D01*
X112729412Y-83143123D01*
X112736108Y-83140947D01*
X112891912Y-83048069D01*
X113023266Y-82922982D01*
X113123643Y-82771902D01*
X113188055Y-82602338D01*
X113191155Y-82580281D01*
X113212748Y-82426639D01*
X113212748Y-82426636D01*
X113213299Y-82422717D01*
X113213616Y-82400000D01*
X113193397Y-82219745D01*
X113191080Y-82213091D01*
X113136064Y-82055106D01*
X113136062Y-82055103D01*
X113133745Y-82048448D01*
X113037626Y-81894624D01*
X113023941Y-81880843D01*
X112914778Y-81770915D01*
X112914774Y-81770912D01*
X112909815Y-81765918D01*
X112898697Y-81758862D01*
X112767375Y-81675523D01*
X112720576Y-81622134D01*
X112710071Y-81551919D01*
X112739195Y-81487171D01*
X112770370Y-81460911D01*
X112791912Y-81448069D01*
X112923266Y-81322982D01*
X113023643Y-81171902D01*
X113088055Y-81002338D01*
X113089035Y-80995366D01*
X113112748Y-80826639D01*
X113112748Y-80826636D01*
X113113299Y-80822717D01*
X113113616Y-80800000D01*
X113093397Y-80619745D01*
X113091080Y-80613091D01*
X113036064Y-80455106D01*
X113036062Y-80455103D01*
X113033745Y-80448448D01*
X112957726Y-80326791D01*
X112941359Y-80300598D01*
X112937626Y-80294624D01*
X112918915Y-80275782D01*
X112814778Y-80170915D01*
X112814774Y-80170912D01*
X112809815Y-80165918D01*
X112798697Y-80158862D01*
X112731221Y-80116041D01*
X112656666Y-80068727D01*
X112611980Y-80052815D01*
X112492425Y-80010243D01*
X112492420Y-80010242D01*
X112485790Y-80007881D01*
X112478802Y-80007048D01*
X112478799Y-80007047D01*
X112324431Y-79988640D01*
X112305680Y-79986404D01*
X112298677Y-79987140D01*
X112298676Y-79987140D01*
X112132288Y-80004628D01*
X112132286Y-80004629D01*
X112125288Y-80005364D01*
X111953579Y-80063818D01*
X111923589Y-80082268D01*
X111805095Y-80155166D01*
X111805092Y-80155168D01*
X111799088Y-80158862D01*
X111794053Y-80163793D01*
X111794050Y-80163795D01*
X111718762Y-80237523D01*
X111669493Y-80285771D01*
X111571235Y-80438238D01*
X111568826Y-80444858D01*
X111568824Y-80444861D01*
X111514315Y-80594624D01*
X111509197Y-80608685D01*
X111486463Y-80788640D01*
X110147742Y-80788640D01*
X110136064Y-80755106D01*
X110136062Y-80755103D01*
X110133745Y-80748448D01*
X110037626Y-80594624D01*
X109916643Y-80472794D01*
X109882836Y-80410364D01*
X109888148Y-80339566D01*
X109930892Y-80282879D01*
X109941531Y-80275782D01*
X110005710Y-80237523D01*
X110005713Y-80237521D01*
X110011765Y-80233913D01*
X110143119Y-80108826D01*
X110243496Y-79957746D01*
X110307908Y-79788182D01*
X110308888Y-79781210D01*
X110332601Y-79612483D01*
X110332601Y-79612480D01*
X110333152Y-79608561D01*
X110333469Y-79585844D01*
X110313250Y-79405589D01*
X110310933Y-79398935D01*
X110255917Y-79240950D01*
X110255915Y-79240947D01*
X110253598Y-79234292D01*
X110157479Y-79080468D01*
X110152517Y-79075471D01*
X110034631Y-78956759D01*
X110034627Y-78956756D01*
X110029668Y-78951762D01*
X109955568Y-78904737D01*
X109908770Y-78851348D01*
X109903018Y-78812568D01*
X112855058Y-78812568D01*
X112872758Y-78993088D01*
X112930013Y-79165201D01*
X112933660Y-79171223D01*
X112933661Y-79171225D01*
X112995305Y-79273011D01*
X113023975Y-79320352D01*
X113028864Y-79325415D01*
X113028865Y-79325416D01*
X113055727Y-79353232D01*
X113149977Y-79450830D01*
X113174894Y-79467135D01*
X113258674Y-79521959D01*
X113301754Y-79550150D01*
X113308358Y-79552606D01*
X113308360Y-79552607D01*
X113465153Y-79610918D01*
X113465155Y-79610918D01*
X113471763Y-79613376D01*
X113555590Y-79624561D01*
X113644575Y-79636435D01*
X113644579Y-79636435D01*
X113651556Y-79637366D01*
X113658567Y-79636728D01*
X113658571Y-79636728D01*
X113801054Y-79623760D01*
X113832195Y-79620926D01*
X113838897Y-79618748D01*
X113838899Y-79618748D01*
X113998004Y-79567052D01*
X113998007Y-79567051D01*
X114004703Y-79564875D01*
X114160507Y-79471997D01*
X114165613Y-79467135D01*
X114208088Y-79426687D01*
X114271213Y-79394194D01*
X114341883Y-79400987D01*
X114375295Y-79420847D01*
X114376487Y-79421833D01*
X114381382Y-79426902D01*
X114435683Y-79462436D01*
X114481729Y-79516471D01*
X114491253Y-79586826D01*
X114476703Y-79625271D01*
X114478184Y-79626006D01*
X114475053Y-79632314D01*
X114471235Y-79638238D01*
X114468825Y-79644860D01*
X114416660Y-79788182D01*
X114409197Y-79808685D01*
X114386463Y-79988640D01*
X114404163Y-80169160D01*
X114461418Y-80341273D01*
X114465065Y-80347295D01*
X114465066Y-80347297D01*
X114532632Y-80458862D01*
X114555380Y-80496424D01*
X114681382Y-80626902D01*
X114833159Y-80726222D01*
X114839763Y-80728678D01*
X114839765Y-80728679D01*
X114996558Y-80786990D01*
X114996560Y-80786990D01*
X115003168Y-80789448D01*
X115082250Y-80800000D01*
X115175980Y-80812507D01*
X115175984Y-80812507D01*
X115182961Y-80813438D01*
X115189972Y-80812800D01*
X115189976Y-80812800D01*
X115332459Y-80799832D01*
X115363600Y-80796998D01*
X115370302Y-80794820D01*
X115370304Y-80794820D01*
X115529409Y-80743124D01*
X115529412Y-80743123D01*
X115536108Y-80740947D01*
X115691912Y-80648069D01*
X115823266Y-80522982D01*
X115923643Y-80371902D01*
X115983486Y-80214366D01*
X115985555Y-80208920D01*
X115985556Y-80208918D01*
X115988055Y-80202338D01*
X115989035Y-80195366D01*
X116012748Y-80026639D01*
X116012748Y-80026636D01*
X116013299Y-80022717D01*
X116013506Y-80007881D01*
X116013574Y-80003040D01*
X116034526Y-79935205D01*
X116088827Y-79889467D01*
X116100626Y-79884968D01*
X116229409Y-79843124D01*
X116229412Y-79843123D01*
X116236108Y-79840947D01*
X116386679Y-79751188D01*
X116455432Y-79733489D01*
X116522842Y-79755771D01*
X116558971Y-79794147D01*
X116572009Y-79815675D01*
X116576455Y-79823017D01*
X116581344Y-79828080D01*
X116581345Y-79828081D01*
X116593770Y-79840947D01*
X116702457Y-79953495D01*
X116854234Y-80052815D01*
X116860838Y-80055271D01*
X116860840Y-80055272D01*
X117017633Y-80113583D01*
X117017635Y-80113583D01*
X117024243Y-80116041D01*
X117108070Y-80127226D01*
X117197055Y-80139100D01*
X117197059Y-80139100D01*
X117204036Y-80140031D01*
X117211047Y-80139393D01*
X117211051Y-80139393D01*
X117353534Y-80126425D01*
X117384675Y-80123591D01*
X117391377Y-80121413D01*
X117391379Y-80121413D01*
X117550484Y-80069717D01*
X117550487Y-80069716D01*
X117557183Y-80067540D01*
X117670482Y-80000000D01*
X117706935Y-79978270D01*
X117706937Y-79978269D01*
X117712987Y-79974662D01*
X117844341Y-79849575D01*
X117944718Y-79698495D01*
X117987511Y-79585844D01*
X118006630Y-79535513D01*
X118006631Y-79535511D01*
X118009130Y-79528931D01*
X118010881Y-79516471D01*
X118033823Y-79353232D01*
X118033823Y-79353229D01*
X118034374Y-79349310D01*
X118034691Y-79326593D01*
X118014472Y-79146338D01*
X117991534Y-79080468D01*
X117957139Y-78981699D01*
X117957137Y-78981696D01*
X117954820Y-78975041D01*
X117858701Y-78821217D01*
X117850112Y-78812568D01*
X117735853Y-78697508D01*
X117735849Y-78697505D01*
X117730890Y-78692511D01*
X117722580Y-78687237D01*
X117583688Y-78599094D01*
X117577741Y-78595320D01*
X117578342Y-78594373D01*
X117530867Y-78551077D01*
X117518149Y-78519657D01*
X117517897Y-78519745D01*
X117516123Y-78514652D01*
X117476293Y-78400274D01*
X117460564Y-78355106D01*
X117460562Y-78355103D01*
X117458245Y-78348448D01*
X117430953Y-78304771D01*
X117365859Y-78200598D01*
X117362126Y-78194624D01*
X117355273Y-78187723D01*
X117239278Y-78070915D01*
X117239274Y-78070912D01*
X117234315Y-78065918D01*
X117227428Y-78061547D01*
X117137737Y-78004628D01*
X117081166Y-77968727D01*
X117051963Y-77958328D01*
X116916925Y-77910243D01*
X116916920Y-77910242D01*
X116910290Y-77907881D01*
X116903302Y-77907048D01*
X116903299Y-77907047D01*
X116780198Y-77892368D01*
X116730180Y-77886404D01*
X116723177Y-77887140D01*
X116723176Y-77887140D01*
X116556788Y-77904628D01*
X116556786Y-77904629D01*
X116549788Y-77905364D01*
X116378079Y-77963818D01*
X116372075Y-77967512D01*
X116229595Y-78055166D01*
X116229592Y-78055168D01*
X116223588Y-78058862D01*
X116218553Y-78063793D01*
X116218550Y-78063795D01*
X116118121Y-78162143D01*
X116093993Y-78185771D01*
X116062978Y-78233896D01*
X116009266Y-78280319D01*
X115942150Y-78290753D01*
X115905680Y-78286404D01*
X115898677Y-78287140D01*
X115898676Y-78287140D01*
X115732288Y-78304628D01*
X115732286Y-78304629D01*
X115725288Y-78305364D01*
X115695158Y-78315621D01*
X115667542Y-78325022D01*
X115596609Y-78328040D01*
X115537531Y-78294528D01*
X115414778Y-78170915D01*
X115414774Y-78170912D01*
X115409815Y-78165918D01*
X115398697Y-78158862D01*
X115332907Y-78117111D01*
X115256666Y-78068727D01*
X115218582Y-78055166D01*
X115092425Y-78010243D01*
X115092420Y-78010242D01*
X115085790Y-78007881D01*
X115078802Y-78007048D01*
X115078799Y-78007047D01*
X114955698Y-77992368D01*
X114905680Y-77986404D01*
X114898677Y-77987140D01*
X114898676Y-77987140D01*
X114732288Y-78004628D01*
X114732286Y-78004629D01*
X114725288Y-78005364D01*
X114553579Y-78063818D01*
X114501832Y-78095653D01*
X114405095Y-78155166D01*
X114405092Y-78155168D01*
X114399088Y-78158862D01*
X114394053Y-78163793D01*
X114394050Y-78163795D01*
X114371305Y-78186069D01*
X114362344Y-78194845D01*
X114361007Y-78196154D01*
X114298342Y-78229525D01*
X114227583Y-78223719D01*
X114189287Y-78198729D01*
X114188862Y-78199258D01*
X114183540Y-78194979D01*
X114183447Y-78194918D01*
X114178410Y-78189846D01*
X114025261Y-78092655D01*
X113964208Y-78070915D01*
X113861020Y-78034171D01*
X113861015Y-78034170D01*
X113854385Y-78031809D01*
X113847397Y-78030976D01*
X113847394Y-78030975D01*
X113724293Y-78016296D01*
X113674275Y-78010332D01*
X113667272Y-78011068D01*
X113667271Y-78011068D01*
X113500883Y-78028556D01*
X113500881Y-78028557D01*
X113493883Y-78029292D01*
X113322174Y-78087746D01*
X113274442Y-78117111D01*
X113173690Y-78179094D01*
X113173687Y-78179096D01*
X113167683Y-78182790D01*
X113162648Y-78187721D01*
X113162645Y-78187723D01*
X113043266Y-78304628D01*
X113038088Y-78309699D01*
X112939830Y-78462166D01*
X112937421Y-78468786D01*
X112937419Y-78468789D01*
X112884455Y-78614306D01*
X112877792Y-78632613D01*
X112855058Y-78812568D01*
X109903018Y-78812568D01*
X109898309Y-78780817D01*
X109921159Y-78618231D01*
X109921160Y-78618221D01*
X109921710Y-78614306D01*
X109922027Y-78591589D01*
X109901808Y-78411334D01*
X109899491Y-78404680D01*
X109844475Y-78246695D01*
X109844473Y-78246692D01*
X109842156Y-78240037D01*
X109838420Y-78234058D01*
X109749770Y-78092187D01*
X109746037Y-78086213D01*
X109737246Y-78077360D01*
X109623189Y-77962504D01*
X109623185Y-77962501D01*
X109618226Y-77957507D01*
X109607108Y-77950451D01*
X109548237Y-77913091D01*
X109465077Y-77860316D01*
X109435874Y-77849917D01*
X109300836Y-77801832D01*
X109300831Y-77801831D01*
X109294201Y-77799470D01*
X109287213Y-77798637D01*
X109287210Y-77798636D01*
X109164109Y-77783957D01*
X109114091Y-77777993D01*
X109107088Y-77778729D01*
X109107087Y-77778729D01*
X108940699Y-77796217D01*
X108940697Y-77796218D01*
X108933699Y-77796953D01*
X108761990Y-77855407D01*
X108755986Y-77859101D01*
X108613506Y-77946755D01*
X108613503Y-77946757D01*
X108607499Y-77950451D01*
X108602464Y-77955382D01*
X108602461Y-77955384D01*
X108484485Y-78070915D01*
X108477904Y-78077360D01*
X108379646Y-78229827D01*
X108377237Y-78236447D01*
X108377235Y-78236450D01*
X108322443Y-78386990D01*
X108317608Y-78400274D01*
X108294874Y-78580229D01*
X100508000Y-78580229D01*
X100508000Y-76388640D01*
X102686463Y-76388640D01*
X102704163Y-76569160D01*
X102761418Y-76741273D01*
X102765065Y-76747295D01*
X102765066Y-76747297D01*
X102801607Y-76807633D01*
X102855380Y-76896424D01*
X102860269Y-76901487D01*
X102860270Y-76901488D01*
X102920440Y-76963795D01*
X102981382Y-77026902D01*
X103006305Y-77043211D01*
X103116377Y-77115240D01*
X103133159Y-77126222D01*
X103139763Y-77128678D01*
X103139765Y-77128679D01*
X103296558Y-77186990D01*
X103296560Y-77186990D01*
X103303168Y-77189448D01*
X103386995Y-77200633D01*
X103475980Y-77212507D01*
X103475984Y-77212507D01*
X103482961Y-77213438D01*
X103489972Y-77212800D01*
X103489976Y-77212800D01*
X103632459Y-77199832D01*
X103663600Y-77196998D01*
X103670302Y-77194820D01*
X103670304Y-77194820D01*
X103829409Y-77143124D01*
X103829412Y-77143123D01*
X103836108Y-77140947D01*
X103952512Y-77071556D01*
X103985860Y-77051677D01*
X103985862Y-77051676D01*
X103991912Y-77048069D01*
X104123266Y-76922982D01*
X104223643Y-76771902D01*
X104250956Y-76700000D01*
X106486496Y-76700000D01*
X106487186Y-76706565D01*
X106497929Y-76808775D01*
X106506458Y-76889928D01*
X106565473Y-77071556D01*
X106660960Y-77236944D01*
X106665378Y-77241851D01*
X106665379Y-77241852D01*
X106745852Y-77331226D01*
X106788747Y-77378866D01*
X106839410Y-77415675D01*
X106926385Y-77478866D01*
X106943248Y-77491118D01*
X106949276Y-77493802D01*
X106949278Y-77493803D01*
X107111681Y-77566109D01*
X107117712Y-77568794D01*
X107178176Y-77581646D01*
X107298056Y-77607128D01*
X107298061Y-77607128D01*
X107304513Y-77608500D01*
X107495487Y-77608500D01*
X107501939Y-77607128D01*
X107501944Y-77607128D01*
X107588921Y-77588640D01*
X119677682Y-77588640D01*
X119695382Y-77769160D01*
X119752637Y-77941273D01*
X119756284Y-77947295D01*
X119756285Y-77947297D01*
X119837389Y-78081216D01*
X119846599Y-78096424D01*
X119851488Y-78101487D01*
X119851489Y-78101488D01*
X119911659Y-78163795D01*
X119972601Y-78226902D01*
X119997524Y-78243211D01*
X120092504Y-78305364D01*
X120124378Y-78326222D01*
X120130982Y-78328678D01*
X120130984Y-78328679D01*
X120287777Y-78386990D01*
X120287779Y-78386990D01*
X120294387Y-78389448D01*
X120378214Y-78400633D01*
X120467199Y-78412507D01*
X120467203Y-78412507D01*
X120474180Y-78413438D01*
X120481191Y-78412800D01*
X120481195Y-78412800D01*
X120623678Y-78399832D01*
X120654819Y-78396998D01*
X120661521Y-78394820D01*
X120661523Y-78394820D01*
X120820628Y-78343124D01*
X120820631Y-78343123D01*
X120827327Y-78340947D01*
X120947751Y-78269160D01*
X120977079Y-78251677D01*
X120977081Y-78251676D01*
X120983131Y-78248069D01*
X121114485Y-78122982D01*
X121137302Y-78088640D01*
X121986463Y-78088640D01*
X122004163Y-78269160D01*
X122061418Y-78441273D01*
X122065065Y-78447295D01*
X122065066Y-78447297D01*
X122144747Y-78578866D01*
X122155380Y-78596424D01*
X122160269Y-78601487D01*
X122160270Y-78601488D01*
X122197078Y-78639603D01*
X122281382Y-78726902D01*
X122287278Y-78730760D01*
X122425511Y-78821217D01*
X122433159Y-78826222D01*
X122439763Y-78828678D01*
X122439765Y-78828679D01*
X122596558Y-78886990D01*
X122596560Y-78886990D01*
X122603168Y-78889448D01*
X122686995Y-78900633D01*
X122775980Y-78912507D01*
X122775984Y-78912507D01*
X122782961Y-78913438D01*
X122789972Y-78912800D01*
X122789976Y-78912800D01*
X122932459Y-78899832D01*
X122963600Y-78896998D01*
X122970302Y-78894820D01*
X122970304Y-78894820D01*
X123129409Y-78843124D01*
X123129412Y-78843123D01*
X123136108Y-78840947D01*
X123291912Y-78748069D01*
X123423266Y-78622982D01*
X123523643Y-78471902D01*
X123588055Y-78302338D01*
X123590191Y-78287140D01*
X123612748Y-78126639D01*
X123612748Y-78126636D01*
X123613299Y-78122717D01*
X123613616Y-78100000D01*
X123593397Y-77919745D01*
X123590088Y-77910243D01*
X123536064Y-77755106D01*
X123536062Y-77755103D01*
X123533745Y-77748448D01*
X123505842Y-77703794D01*
X123441359Y-77600598D01*
X123437626Y-77594624D01*
X123431684Y-77588640D01*
X123314778Y-77470915D01*
X123314774Y-77470912D01*
X123309815Y-77465918D01*
X123298697Y-77458862D01*
X123230644Y-77415675D01*
X123156666Y-77368727D01*
X123126957Y-77358148D01*
X122992425Y-77310243D01*
X122992420Y-77310242D01*
X122985790Y-77307881D01*
X122978802Y-77307048D01*
X122978799Y-77307047D01*
X122855698Y-77292368D01*
X122805680Y-77286404D01*
X122798677Y-77287140D01*
X122798676Y-77287140D01*
X122632288Y-77304628D01*
X122632286Y-77304629D01*
X122625288Y-77305364D01*
X122453579Y-77363818D01*
X122415512Y-77387237D01*
X122305095Y-77455166D01*
X122305092Y-77455168D01*
X122299088Y-77458862D01*
X122294053Y-77463793D01*
X122294050Y-77463795D01*
X122211321Y-77544810D01*
X122169493Y-77585771D01*
X122071235Y-77738238D01*
X122068826Y-77744858D01*
X122068824Y-77744861D01*
X122012358Y-77900000D01*
X122009197Y-77908685D01*
X121986463Y-78088640D01*
X121137302Y-78088640D01*
X121214862Y-77971902D01*
X121279274Y-77802338D01*
X121282592Y-77778729D01*
X121303967Y-77626639D01*
X121303967Y-77626636D01*
X121304518Y-77622717D01*
X121304671Y-77611738D01*
X121304780Y-77603962D01*
X121304780Y-77603957D01*
X121304835Y-77600000D01*
X121284616Y-77419745D01*
X121282299Y-77413091D01*
X121227283Y-77255106D01*
X121227281Y-77255103D01*
X121224964Y-77248448D01*
X121210965Y-77226045D01*
X121132578Y-77100598D01*
X121128845Y-77094624D01*
X121111621Y-77077279D01*
X121005997Y-76970915D01*
X121005993Y-76970912D01*
X121001034Y-76965918D01*
X120989916Y-76958862D01*
X120899508Y-76901488D01*
X120847885Y-76868727D01*
X120818682Y-76858328D01*
X120683644Y-76810243D01*
X120683639Y-76810242D01*
X120677009Y-76807881D01*
X120670021Y-76807048D01*
X120670018Y-76807047D01*
X120546917Y-76792368D01*
X120496899Y-76786404D01*
X120489896Y-76787140D01*
X120489895Y-76787140D01*
X120323507Y-76804628D01*
X120323505Y-76804629D01*
X120316507Y-76805364D01*
X120144798Y-76863818D01*
X120138794Y-76867512D01*
X119996314Y-76955166D01*
X119996311Y-76955168D01*
X119990307Y-76958862D01*
X119985272Y-76963793D01*
X119985269Y-76963795D01*
X119865744Y-77080843D01*
X119860712Y-77085771D01*
X119762454Y-77238238D01*
X119760045Y-77244858D01*
X119760043Y-77244861D01*
X119702825Y-77402066D01*
X119700416Y-77408685D01*
X119677682Y-77588640D01*
X107588921Y-77588640D01*
X107621824Y-77581646D01*
X107682288Y-77568794D01*
X107688319Y-77566109D01*
X107850722Y-77493803D01*
X107850724Y-77493802D01*
X107856752Y-77491118D01*
X107873616Y-77478866D01*
X107960590Y-77415675D01*
X108011253Y-77378866D01*
X108054148Y-77331226D01*
X108134621Y-77241852D01*
X108134622Y-77241851D01*
X108139040Y-77236944D01*
X108234527Y-77071556D01*
X108293542Y-76889928D01*
X108302072Y-76808775D01*
X108312814Y-76706565D01*
X108313504Y-76700000D01*
X108303684Y-76606565D01*
X108294232Y-76516635D01*
X108294232Y-76516633D01*
X108293542Y-76510072D01*
X108234527Y-76328444D01*
X108139040Y-76163056D01*
X108093790Y-76112800D01*
X108015675Y-76026045D01*
X108015674Y-76026044D01*
X108011253Y-76021134D01*
X107912157Y-75949136D01*
X107862094Y-75912763D01*
X107862093Y-75912762D01*
X107856752Y-75908882D01*
X107850724Y-75906198D01*
X107850722Y-75906197D01*
X107688319Y-75833891D01*
X107688318Y-75833891D01*
X107682288Y-75831206D01*
X107588887Y-75811353D01*
X107501944Y-75792872D01*
X107501939Y-75792872D01*
X107495487Y-75791500D01*
X107304513Y-75791500D01*
X107298061Y-75792872D01*
X107298056Y-75792872D01*
X107211113Y-75811353D01*
X107117712Y-75831206D01*
X107111682Y-75833891D01*
X107111681Y-75833891D01*
X106949278Y-75906197D01*
X106949276Y-75906198D01*
X106943248Y-75908882D01*
X106937907Y-75912762D01*
X106937906Y-75912763D01*
X106887843Y-75949136D01*
X106788747Y-76021134D01*
X106784326Y-76026044D01*
X106784325Y-76026045D01*
X106706211Y-76112800D01*
X106660960Y-76163056D01*
X106565473Y-76328444D01*
X106506458Y-76510072D01*
X106505768Y-76516633D01*
X106505768Y-76516635D01*
X106496316Y-76606565D01*
X106486496Y-76700000D01*
X104250956Y-76700000D01*
X104288055Y-76602338D01*
X104289617Y-76591225D01*
X104312748Y-76426639D01*
X104312748Y-76426636D01*
X104313299Y-76422717D01*
X104313452Y-76411738D01*
X104313561Y-76403962D01*
X104313561Y-76403957D01*
X104313616Y-76400000D01*
X104293397Y-76219745D01*
X104291080Y-76213091D01*
X104236064Y-76055106D01*
X104236062Y-76055103D01*
X104233745Y-76048448D01*
X104217446Y-76022364D01*
X104141359Y-75900598D01*
X104137626Y-75894624D01*
X104123941Y-75880843D01*
X104014778Y-75770915D01*
X104014774Y-75770912D01*
X104009815Y-75765918D01*
X103998697Y-75758862D01*
X103950466Y-75728254D01*
X103932565Y-75716894D01*
X111186463Y-75716894D01*
X111204163Y-75897414D01*
X111261418Y-76069527D01*
X111265065Y-76075549D01*
X111265066Y-76075551D01*
X111349928Y-76215675D01*
X111355380Y-76224678D01*
X111360269Y-76229741D01*
X111360270Y-76229742D01*
X111370408Y-76240240D01*
X111481382Y-76355156D01*
X111487278Y-76359014D01*
X111590620Y-76426639D01*
X111633159Y-76454476D01*
X111639763Y-76456932D01*
X111639765Y-76456933D01*
X111796558Y-76515244D01*
X111796560Y-76515244D01*
X111803168Y-76517702D01*
X111886995Y-76528887D01*
X111975980Y-76540761D01*
X111975984Y-76540761D01*
X111982961Y-76541692D01*
X111989972Y-76541054D01*
X111989976Y-76541054D01*
X112132459Y-76528086D01*
X112163600Y-76525252D01*
X112170302Y-76523074D01*
X112170304Y-76523074D01*
X112329409Y-76471378D01*
X112329412Y-76471377D01*
X112336108Y-76469201D01*
X112491912Y-76376323D01*
X112623266Y-76251236D01*
X112723643Y-76100156D01*
X112788055Y-75930592D01*
X112791106Y-75908882D01*
X112812748Y-75754893D01*
X112812748Y-75754890D01*
X112813299Y-75750971D01*
X112813452Y-75739992D01*
X112813561Y-75732216D01*
X112813561Y-75732211D01*
X112813616Y-75728254D01*
X112793397Y-75547999D01*
X112791080Y-75541345D01*
X112736064Y-75383360D01*
X112736062Y-75383357D01*
X112733745Y-75376702D01*
X112702627Y-75326902D01*
X112659051Y-75257165D01*
X112639915Y-75188796D01*
X112660781Y-75120935D01*
X112701388Y-75082167D01*
X112846606Y-74995600D01*
X112846608Y-74995599D01*
X112852658Y-74991992D01*
X112984012Y-74866905D01*
X113084389Y-74715825D01*
X113094716Y-74688640D01*
X113386463Y-74688640D01*
X113404163Y-74869160D01*
X113461418Y-75041273D01*
X113465065Y-75047295D01*
X113465066Y-75047297D01*
X113513181Y-75126744D01*
X113555380Y-75196424D01*
X113560269Y-75201487D01*
X113560270Y-75201488D01*
X113581027Y-75222982D01*
X113681382Y-75326902D01*
X113833159Y-75426222D01*
X113839763Y-75428678D01*
X113839765Y-75428679D01*
X113996558Y-75486990D01*
X113996560Y-75486990D01*
X114003168Y-75489448D01*
X114086995Y-75500633D01*
X114175980Y-75512507D01*
X114175984Y-75512507D01*
X114182961Y-75513438D01*
X114189972Y-75512800D01*
X114189976Y-75512800D01*
X114332459Y-75499832D01*
X114363600Y-75496998D01*
X114370302Y-75494820D01*
X114370304Y-75494820D01*
X114529409Y-75443124D01*
X114529412Y-75443123D01*
X114536108Y-75440947D01*
X114691912Y-75348069D01*
X114754318Y-75288640D01*
X122786463Y-75288640D01*
X122804163Y-75469160D01*
X122861418Y-75641273D01*
X122865065Y-75647295D01*
X122865066Y-75647297D01*
X122932632Y-75758862D01*
X122955380Y-75796424D01*
X122960269Y-75801487D01*
X122960270Y-75801488D01*
X122971158Y-75812763D01*
X123081382Y-75926902D01*
X123157271Y-75976562D01*
X123225384Y-76021134D01*
X123233159Y-76026222D01*
X123239763Y-76028678D01*
X123239765Y-76028679D01*
X123396558Y-76086990D01*
X123396560Y-76086990D01*
X123403168Y-76089448D01*
X123483419Y-76100156D01*
X123575980Y-76112507D01*
X123575984Y-76112507D01*
X123582961Y-76113438D01*
X123589972Y-76112800D01*
X123589976Y-76112800D01*
X123700029Y-76102784D01*
X123722285Y-76100758D01*
X123791938Y-76114503D01*
X123843103Y-76163724D01*
X123859534Y-76232793D01*
X123853538Y-76265175D01*
X123836410Y-76317891D01*
X123806458Y-76410072D01*
X123805768Y-76416633D01*
X123805768Y-76416635D01*
X123795948Y-76510072D01*
X123786496Y-76600000D01*
X123806458Y-76789928D01*
X123865473Y-76971556D01*
X123868776Y-76977278D01*
X123868777Y-76977279D01*
X123899912Y-77031206D01*
X123960960Y-77136944D01*
X123965378Y-77141851D01*
X123965379Y-77141852D01*
X124067353Y-77255106D01*
X124088747Y-77278866D01*
X124187843Y-77350864D01*
X124226385Y-77378866D01*
X124243248Y-77391118D01*
X124249276Y-77393802D01*
X124249278Y-77393803D01*
X124406484Y-77463795D01*
X124417712Y-77468794D01*
X124483365Y-77482749D01*
X124598056Y-77507128D01*
X124598061Y-77507128D01*
X124604513Y-77508500D01*
X124795487Y-77508500D01*
X124801939Y-77507128D01*
X124801944Y-77507128D01*
X124916635Y-77482749D01*
X124982288Y-77468794D01*
X124993516Y-77463795D01*
X125150722Y-77393803D01*
X125150724Y-77393802D01*
X125156752Y-77391118D01*
X125173616Y-77378866D01*
X125212157Y-77350864D01*
X125311253Y-77278866D01*
X125338642Y-77248448D01*
X125422611Y-77155190D01*
X125439040Y-77136944D01*
X125442199Y-77131472D01*
X125498336Y-77088184D01*
X125569072Y-77082109D01*
X125631864Y-77115240D01*
X125659586Y-77159760D01*
X125660747Y-77159243D01*
X125663431Y-77165272D01*
X125665473Y-77171556D01*
X125668776Y-77177278D01*
X125668777Y-77177279D01*
X125680162Y-77196998D01*
X125760960Y-77336944D01*
X125765378Y-77341851D01*
X125765379Y-77341852D01*
X125879678Y-77468794D01*
X125888747Y-77478866D01*
X125909306Y-77493803D01*
X126035889Y-77585771D01*
X126043248Y-77591118D01*
X126049276Y-77593802D01*
X126049278Y-77593803D01*
X126192408Y-77657528D01*
X126217712Y-77668794D01*
X126297168Y-77685683D01*
X126398056Y-77707128D01*
X126398061Y-77707128D01*
X126404513Y-77708500D01*
X126595487Y-77708500D01*
X126601939Y-77707128D01*
X126601944Y-77707128D01*
X126702832Y-77685683D01*
X126782288Y-77668794D01*
X126807592Y-77657528D01*
X126950722Y-77593803D01*
X126950724Y-77593802D01*
X126956752Y-77591118D01*
X126964112Y-77585771D01*
X127020489Y-77544810D01*
X127087356Y-77520952D01*
X127156508Y-77537032D01*
X127205988Y-77587946D01*
X127220088Y-77657528D01*
X127214384Y-77685679D01*
X127206458Y-77710072D01*
X127205768Y-77716633D01*
X127205768Y-77716635D01*
X127191183Y-77855407D01*
X127186496Y-77900000D01*
X127187186Y-77906565D01*
X127205588Y-78081646D01*
X127206458Y-78089928D01*
X127265473Y-78271556D01*
X127268776Y-78277278D01*
X127268777Y-78277279D01*
X127274470Y-78287140D01*
X127360960Y-78436944D01*
X127365378Y-78441851D01*
X127365379Y-78441852D01*
X127435435Y-78519657D01*
X127488747Y-78578866D01*
X127643248Y-78691118D01*
X127649276Y-78693802D01*
X127649278Y-78693803D01*
X127811681Y-78766109D01*
X127817712Y-78768794D01*
X127911112Y-78788647D01*
X127998056Y-78807128D01*
X127998061Y-78807128D01*
X128004513Y-78808500D01*
X128195487Y-78808500D01*
X128201939Y-78807128D01*
X128201944Y-78807128D01*
X128288888Y-78788647D01*
X128382288Y-78768794D01*
X128388319Y-78766109D01*
X128550722Y-78693803D01*
X128550724Y-78693802D01*
X128556752Y-78691118D01*
X128711253Y-78578866D01*
X128764565Y-78519657D01*
X128834621Y-78441852D01*
X128834622Y-78441851D01*
X128839040Y-78436944D01*
X128925530Y-78287140D01*
X128931223Y-78277279D01*
X128931224Y-78277278D01*
X128934527Y-78271556D01*
X128993542Y-78089928D01*
X128994413Y-78081646D01*
X129012814Y-77906565D01*
X129013504Y-77900000D01*
X129008817Y-77855407D01*
X128994232Y-77716635D01*
X128994232Y-77716633D01*
X128993542Y-77710072D01*
X128934527Y-77528444D01*
X128930202Y-77520952D01*
X128856792Y-77393803D01*
X128839040Y-77363056D01*
X128741842Y-77255106D01*
X128715675Y-77226045D01*
X128715674Y-77226044D01*
X128711253Y-77221134D01*
X128584000Y-77128679D01*
X128562094Y-77112763D01*
X128562093Y-77112762D01*
X128556752Y-77108882D01*
X128550724Y-77106198D01*
X128550722Y-77106197D01*
X128388319Y-77033891D01*
X128388318Y-77033891D01*
X128382288Y-77031206D01*
X128288888Y-77011353D01*
X128201944Y-76992872D01*
X128201939Y-76992872D01*
X128195487Y-76991500D01*
X128004513Y-76991500D01*
X127998061Y-76992872D01*
X127998056Y-76992872D01*
X127911112Y-77011353D01*
X127817712Y-77031206D01*
X127811682Y-77033891D01*
X127811681Y-77033891D01*
X127649278Y-77106197D01*
X127649276Y-77106198D01*
X127643248Y-77108882D01*
X127599115Y-77140947D01*
X127579511Y-77155190D01*
X127512644Y-77179048D01*
X127443492Y-77162968D01*
X127394012Y-77112054D01*
X127379912Y-77042472D01*
X127385617Y-77014317D01*
X127391503Y-76996202D01*
X127393542Y-76989928D01*
X127394872Y-76977279D01*
X127412814Y-76806565D01*
X127413504Y-76800000D01*
X127393542Y-76610072D01*
X127334527Y-76428444D01*
X127328935Y-76418757D01*
X127242341Y-76268774D01*
X127239040Y-76263056D01*
X127218497Y-76240240D01*
X127115675Y-76126045D01*
X127115674Y-76126044D01*
X127111253Y-76121134D01*
X126997157Y-76038238D01*
X126962094Y-76012763D01*
X126962093Y-76012762D01*
X126956752Y-76008882D01*
X126950724Y-76006198D01*
X126950722Y-76006197D01*
X126788319Y-75933891D01*
X126788318Y-75933891D01*
X126782288Y-75931206D01*
X126688887Y-75911353D01*
X126601944Y-75892872D01*
X126601939Y-75892872D01*
X126595487Y-75891500D01*
X126404513Y-75891500D01*
X126398061Y-75892872D01*
X126398056Y-75892872D01*
X126311113Y-75911353D01*
X126217712Y-75931206D01*
X126211682Y-75933891D01*
X126211681Y-75933891D01*
X126049278Y-76006197D01*
X126049276Y-76006198D01*
X126043248Y-76008882D01*
X126037907Y-76012762D01*
X126037906Y-76012763D01*
X126002843Y-76038238D01*
X125888747Y-76121134D01*
X125760960Y-76263056D01*
X125757801Y-76268528D01*
X125701664Y-76311816D01*
X125630928Y-76317891D01*
X125568136Y-76284760D01*
X125540414Y-76240240D01*
X125539253Y-76240757D01*
X125536569Y-76234728D01*
X125534527Y-76228444D01*
X125439040Y-76063056D01*
X125420504Y-76042469D01*
X125315675Y-75926045D01*
X125315674Y-75926044D01*
X125311253Y-75921134D01*
X125185590Y-75829834D01*
X125162094Y-75812763D01*
X125162093Y-75812762D01*
X125156752Y-75808882D01*
X125150724Y-75806198D01*
X125150722Y-75806197D01*
X124988319Y-75733891D01*
X124988318Y-75733891D01*
X124982288Y-75731206D01*
X124882052Y-75709900D01*
X124801944Y-75692872D01*
X124801939Y-75692872D01*
X124795487Y-75691500D01*
X124604513Y-75691500D01*
X124598061Y-75692872D01*
X124598056Y-75692872D01*
X124516926Y-75710117D01*
X124446135Y-75704715D01*
X124389502Y-75661898D01*
X124365009Y-75595260D01*
X124372941Y-75542127D01*
X124385554Y-75508924D01*
X124385556Y-75508917D01*
X124388055Y-75502338D01*
X124390212Y-75486990D01*
X124412748Y-75326639D01*
X124412748Y-75326636D01*
X124413299Y-75322717D01*
X124413616Y-75300000D01*
X124393397Y-75119745D01*
X124391080Y-75113091D01*
X124336064Y-74955106D01*
X124336062Y-74955103D01*
X124333745Y-74948448D01*
X124330009Y-74942469D01*
X124241359Y-74800598D01*
X124237626Y-74794624D01*
X124166984Y-74723487D01*
X124114778Y-74670915D01*
X124114774Y-74670912D01*
X124109815Y-74665918D01*
X124098697Y-74658862D01*
X124041185Y-74622364D01*
X123956666Y-74568727D01*
X123927463Y-74558328D01*
X123792425Y-74510243D01*
X123792420Y-74510242D01*
X123785790Y-74507881D01*
X123778802Y-74507048D01*
X123778799Y-74507047D01*
X123639023Y-74490380D01*
X123605680Y-74486404D01*
X123598677Y-74487140D01*
X123598676Y-74487140D01*
X123432288Y-74504628D01*
X123432286Y-74504629D01*
X123425288Y-74505364D01*
X123253579Y-74563818D01*
X123247575Y-74567512D01*
X123105095Y-74655166D01*
X123105092Y-74655168D01*
X123099088Y-74658862D01*
X123094053Y-74663793D01*
X123094050Y-74663795D01*
X123040919Y-74715825D01*
X122969493Y-74785771D01*
X122871235Y-74938238D01*
X122868826Y-74944858D01*
X122868824Y-74944861D01*
X122815252Y-75092049D01*
X122809197Y-75108685D01*
X122786463Y-75288640D01*
X114754318Y-75288640D01*
X114823266Y-75222982D01*
X114923643Y-75071902D01*
X114936032Y-75039288D01*
X114978921Y-74982710D01*
X115041317Y-74959865D01*
X115041197Y-74958722D01*
X115047764Y-74958032D01*
X115054366Y-74958032D01*
X115060818Y-74956660D01*
X115060823Y-74956660D01*
X115175368Y-74932312D01*
X115241167Y-74918326D01*
X115247198Y-74915641D01*
X115409601Y-74843335D01*
X115409603Y-74843334D01*
X115415631Y-74840650D01*
X115570132Y-74728398D01*
X115583602Y-74713438D01*
X115693500Y-74591384D01*
X115693501Y-74591383D01*
X115697919Y-74586476D01*
X115769698Y-74462152D01*
X115790102Y-74426811D01*
X115790103Y-74426810D01*
X115793406Y-74421088D01*
X115852421Y-74239460D01*
X115857442Y-74191693D01*
X115871693Y-74056097D01*
X115872383Y-74049532D01*
X115864679Y-73976235D01*
X115855473Y-73888640D01*
X118986463Y-73888640D01*
X119004163Y-74069160D01*
X119061418Y-74241273D01*
X119065065Y-74247295D01*
X119065066Y-74247297D01*
X119139718Y-74370562D01*
X119155380Y-74396424D01*
X119160269Y-74401487D01*
X119160270Y-74401488D01*
X119187771Y-74429966D01*
X119281382Y-74526902D01*
X119433159Y-74626222D01*
X119439763Y-74628678D01*
X119439765Y-74628679D01*
X119596558Y-74686990D01*
X119596560Y-74686990D01*
X119603168Y-74689448D01*
X119686995Y-74700633D01*
X119775980Y-74712507D01*
X119775984Y-74712507D01*
X119782961Y-74713438D01*
X119789972Y-74712800D01*
X119789976Y-74712800D01*
X119932459Y-74699832D01*
X119963600Y-74696998D01*
X119970302Y-74694820D01*
X119970304Y-74694820D01*
X120129409Y-74643124D01*
X120129412Y-74643123D01*
X120136108Y-74640947D01*
X120259296Y-74567512D01*
X120285860Y-74551677D01*
X120285862Y-74551676D01*
X120291912Y-74548069D01*
X120423266Y-74422982D01*
X120523643Y-74271902D01*
X120581443Y-74119745D01*
X120585555Y-74108920D01*
X120585556Y-74108918D01*
X120588055Y-74102338D01*
X120589035Y-74095366D01*
X120612748Y-73926639D01*
X120612748Y-73926636D01*
X120613299Y-73922717D01*
X120613616Y-73900000D01*
X120593397Y-73719745D01*
X120589948Y-73709841D01*
X120536064Y-73555106D01*
X120536062Y-73555103D01*
X120533745Y-73548448D01*
X120506823Y-73505364D01*
X120441359Y-73400598D01*
X120437626Y-73394624D01*
X120423941Y-73380843D01*
X120314778Y-73270915D01*
X120314774Y-73270912D01*
X120309815Y-73265918D01*
X120298697Y-73258862D01*
X120250538Y-73228300D01*
X120156666Y-73168727D01*
X120127463Y-73158328D01*
X119992425Y-73110243D01*
X119992420Y-73110242D01*
X119985790Y-73107881D01*
X119978802Y-73107048D01*
X119978799Y-73107047D01*
X119855698Y-73092368D01*
X119805680Y-73086404D01*
X119798677Y-73087140D01*
X119798676Y-73087140D01*
X119632288Y-73104628D01*
X119632286Y-73104629D01*
X119625288Y-73105364D01*
X119453579Y-73163818D01*
X119421712Y-73183423D01*
X119305095Y-73255166D01*
X119305092Y-73255168D01*
X119299088Y-73258862D01*
X119294053Y-73263793D01*
X119294050Y-73263795D01*
X119174525Y-73380843D01*
X119169493Y-73385771D01*
X119071235Y-73538238D01*
X119068826Y-73544858D01*
X119068824Y-73544861D01*
X119016493Y-73688640D01*
X119009197Y-73708685D01*
X118986463Y-73888640D01*
X115855473Y-73888640D01*
X115853111Y-73866167D01*
X115853111Y-73866165D01*
X115852421Y-73859604D01*
X115793406Y-73677976D01*
X115697919Y-73512588D01*
X115691415Y-73505364D01*
X115574554Y-73375577D01*
X115574553Y-73375576D01*
X115570132Y-73370666D01*
X115432837Y-73270915D01*
X115420973Y-73262295D01*
X115420972Y-73262294D01*
X115415631Y-73258414D01*
X115409603Y-73255730D01*
X115409601Y-73255729D01*
X115247198Y-73183423D01*
X115247197Y-73183423D01*
X115241167Y-73180738D01*
X115147766Y-73160885D01*
X115060823Y-73142404D01*
X115060818Y-73142404D01*
X115054366Y-73141032D01*
X114863392Y-73141032D01*
X114856940Y-73142404D01*
X114856935Y-73142404D01*
X114769992Y-73160885D01*
X114676591Y-73180738D01*
X114670561Y-73183423D01*
X114670560Y-73183423D01*
X114508157Y-73255729D01*
X114508155Y-73255730D01*
X114502127Y-73258414D01*
X114496786Y-73262294D01*
X114496785Y-73262295D01*
X114484921Y-73270915D01*
X114347626Y-73370666D01*
X114343205Y-73375576D01*
X114343204Y-73375577D01*
X114226344Y-73505364D01*
X114219839Y-73512588D01*
X114124352Y-73677976D01*
X114122311Y-73684258D01*
X114073098Y-73835718D01*
X114033024Y-73894323D01*
X113993871Y-73916059D01*
X113860247Y-73961548D01*
X113853579Y-73963818D01*
X113847575Y-73967512D01*
X113705095Y-74055166D01*
X113705092Y-74055168D01*
X113699088Y-74058862D01*
X113694053Y-74063793D01*
X113694050Y-74063795D01*
X113574525Y-74180843D01*
X113569493Y-74185771D01*
X113471235Y-74338238D01*
X113440391Y-74422982D01*
X113415860Y-74490380D01*
X113409197Y-74508685D01*
X113386463Y-74688640D01*
X113094716Y-74688640D01*
X113135697Y-74580758D01*
X113146301Y-74552843D01*
X113146302Y-74552841D01*
X113148801Y-74546261D01*
X113152234Y-74521834D01*
X113173494Y-74370562D01*
X113173494Y-74370559D01*
X113174045Y-74366640D01*
X113174362Y-74343923D01*
X113154143Y-74163668D01*
X113151826Y-74157014D01*
X113096810Y-73999029D01*
X113096808Y-73999026D01*
X113094491Y-73992371D01*
X113075231Y-73961548D01*
X113002105Y-73844521D01*
X112998372Y-73838547D01*
X112960687Y-73800598D01*
X112875524Y-73714838D01*
X112875520Y-73714835D01*
X112870561Y-73709841D01*
X112859443Y-73702785D01*
X112789548Y-73658429D01*
X112717412Y-73612650D01*
X112688209Y-73602251D01*
X112553171Y-73554166D01*
X112553166Y-73554165D01*
X112546536Y-73551804D01*
X112539548Y-73550971D01*
X112539545Y-73550970D01*
X112416444Y-73536291D01*
X112366426Y-73530327D01*
X112359423Y-73531063D01*
X112359422Y-73531063D01*
X112193034Y-73548551D01*
X112193032Y-73548552D01*
X112186034Y-73549287D01*
X112014325Y-73607741D01*
X112008321Y-73611435D01*
X111865841Y-73699089D01*
X111865838Y-73699091D01*
X111859834Y-73702785D01*
X111854799Y-73707716D01*
X111854796Y-73707718D01*
X111735271Y-73824766D01*
X111730239Y-73829694D01*
X111631981Y-73982161D01*
X111629572Y-73988781D01*
X111629570Y-73988784D01*
X111588240Y-74102338D01*
X111569943Y-74152608D01*
X111547209Y-74332563D01*
X111564909Y-74513083D01*
X111622164Y-74685196D01*
X111701682Y-74816498D01*
X111719861Y-74885125D01*
X111698051Y-74952689D01*
X111653000Y-74991131D01*
X111653579Y-74992072D01*
X111505095Y-75083420D01*
X111505092Y-75083422D01*
X111499088Y-75087116D01*
X111494053Y-75092047D01*
X111494050Y-75092049D01*
X111382295Y-75201488D01*
X111369493Y-75214025D01*
X111271235Y-75366492D01*
X111268826Y-75373112D01*
X111268824Y-75373115D01*
X111217983Y-75512800D01*
X111209197Y-75536939D01*
X111186463Y-75716894D01*
X103932565Y-75716894D01*
X103856666Y-75668727D01*
X103827463Y-75658328D01*
X103692425Y-75610243D01*
X103692420Y-75610242D01*
X103685790Y-75607881D01*
X103678802Y-75607048D01*
X103678799Y-75607047D01*
X103555698Y-75592368D01*
X103505680Y-75586404D01*
X103498677Y-75587140D01*
X103498676Y-75587140D01*
X103332288Y-75604628D01*
X103332286Y-75604629D01*
X103325288Y-75605364D01*
X103153579Y-75663818D01*
X103147575Y-75667512D01*
X103005095Y-75755166D01*
X103005092Y-75755168D01*
X102999088Y-75758862D01*
X102994053Y-75763793D01*
X102994050Y-75763795D01*
X102922471Y-75833891D01*
X102869493Y-75885771D01*
X102771235Y-76038238D01*
X102768826Y-76044858D01*
X102768824Y-76044861D01*
X102711606Y-76202066D01*
X102709197Y-76208685D01*
X102686463Y-76388640D01*
X100508000Y-76388640D01*
X100508000Y-73688640D01*
X105586463Y-73688640D01*
X105604163Y-73869160D01*
X105661418Y-74041273D01*
X105665065Y-74047295D01*
X105665066Y-74047297D01*
X105733078Y-74159598D01*
X105755380Y-74196424D01*
X105881382Y-74326902D01*
X106033159Y-74426222D01*
X106039763Y-74428678D01*
X106039765Y-74428679D01*
X106196558Y-74486990D01*
X106196560Y-74486990D01*
X106203168Y-74489448D01*
X106286995Y-74500633D01*
X106375980Y-74512507D01*
X106375984Y-74512507D01*
X106382961Y-74513438D01*
X106389972Y-74512800D01*
X106389976Y-74512800D01*
X106532459Y-74499832D01*
X106563600Y-74496998D01*
X106570302Y-74494820D01*
X106570304Y-74494820D01*
X106729409Y-74443124D01*
X106729412Y-74443123D01*
X106736108Y-74440947D01*
X106891912Y-74348069D01*
X106897013Y-74343211D01*
X106898742Y-74341899D01*
X106965096Y-74316646D01*
X107034569Y-74331275D01*
X107085104Y-74381142D01*
X107100320Y-74429966D01*
X107104163Y-74469160D01*
X107161418Y-74641273D01*
X107165065Y-74647295D01*
X107165066Y-74647297D01*
X107251264Y-74789627D01*
X107255380Y-74796424D01*
X107381382Y-74926902D01*
X107405171Y-74942469D01*
X107486364Y-74995600D01*
X107533159Y-75026222D01*
X107539763Y-75028678D01*
X107539765Y-75028679D01*
X107696558Y-75086990D01*
X107696560Y-75086990D01*
X107703168Y-75089448D01*
X107786995Y-75100633D01*
X107875980Y-75112507D01*
X107875984Y-75112507D01*
X107882961Y-75113438D01*
X107889972Y-75112800D01*
X107889976Y-75112800D01*
X108032459Y-75099832D01*
X108063600Y-75096998D01*
X108070302Y-75094820D01*
X108070304Y-75094820D01*
X108229409Y-75043124D01*
X108229412Y-75043123D01*
X108236108Y-75040947D01*
X108372124Y-74959865D01*
X108385860Y-74951677D01*
X108385862Y-74951676D01*
X108391912Y-74948069D01*
X108523266Y-74822982D01*
X108623643Y-74671902D01*
X108672529Y-74543211D01*
X108685555Y-74508920D01*
X108685556Y-74508918D01*
X108688055Y-74502338D01*
X108690212Y-74486990D01*
X108712748Y-74326639D01*
X108712748Y-74326636D01*
X108713299Y-74322717D01*
X108713616Y-74300000D01*
X108693397Y-74119745D01*
X108691080Y-74113091D01*
X108636064Y-73955106D01*
X108636062Y-73955103D01*
X108633745Y-73948448D01*
X108537626Y-73794624D01*
X108528835Y-73785771D01*
X108414778Y-73670915D01*
X108414774Y-73670912D01*
X108409815Y-73665918D01*
X108398697Y-73658862D01*
X108350538Y-73628300D01*
X108256666Y-73568727D01*
X108208444Y-73551556D01*
X108092425Y-73510243D01*
X108092420Y-73510242D01*
X108085790Y-73507881D01*
X108078802Y-73507048D01*
X108078799Y-73507047D01*
X107955698Y-73492368D01*
X107905680Y-73486404D01*
X107898677Y-73487140D01*
X107898676Y-73487140D01*
X107732288Y-73504628D01*
X107732286Y-73504629D01*
X107725288Y-73505364D01*
X107553579Y-73563818D01*
X107399793Y-73658428D01*
X107399791Y-73658429D01*
X107399088Y-73658862D01*
X107399012Y-73658738D01*
X107336088Y-73683700D01*
X107266417Y-73670045D01*
X107215188Y-73620891D01*
X107199290Y-73572280D01*
X107194182Y-73526743D01*
X107193397Y-73519745D01*
X107190088Y-73510243D01*
X107136064Y-73355106D01*
X107136062Y-73355103D01*
X107133745Y-73348448D01*
X107123662Y-73332312D01*
X107041359Y-73200598D01*
X107037626Y-73194624D01*
X107009561Y-73166362D01*
X106914778Y-73070915D01*
X106914774Y-73070912D01*
X106909815Y-73065918D01*
X106898697Y-73058862D01*
X106797782Y-72994820D01*
X106756666Y-72968727D01*
X106727463Y-72958328D01*
X106592425Y-72910243D01*
X106592420Y-72910242D01*
X106585790Y-72907881D01*
X106578802Y-72907048D01*
X106578799Y-72907047D01*
X106455698Y-72892368D01*
X106405680Y-72886404D01*
X106398677Y-72887140D01*
X106398676Y-72887140D01*
X106232288Y-72904628D01*
X106232286Y-72904629D01*
X106225288Y-72905364D01*
X106053579Y-72963818D01*
X106047575Y-72967512D01*
X105905095Y-73055166D01*
X105905092Y-73055168D01*
X105899088Y-73058862D01*
X105894053Y-73063793D01*
X105894050Y-73063795D01*
X105774525Y-73180843D01*
X105769493Y-73185771D01*
X105671235Y-73338238D01*
X105668826Y-73344858D01*
X105668824Y-73344861D01*
X105617307Y-73486404D01*
X105609197Y-73508685D01*
X105586463Y-73688640D01*
X100508000Y-73688640D01*
X100508000Y-72188640D01*
X117186463Y-72188640D01*
X117204163Y-72369160D01*
X117261418Y-72541273D01*
X117265065Y-72547295D01*
X117265066Y-72547297D01*
X117275978Y-72565314D01*
X117355380Y-72696424D01*
X117481382Y-72826902D01*
X117487278Y-72830760D01*
X117608741Y-72910243D01*
X117633159Y-72926222D01*
X117639763Y-72928678D01*
X117639765Y-72928679D01*
X117796558Y-72986990D01*
X117796560Y-72986990D01*
X117803168Y-72989448D01*
X117886995Y-73000633D01*
X117975980Y-73012507D01*
X117975984Y-73012507D01*
X117982961Y-73013438D01*
X117989972Y-73012800D01*
X117989976Y-73012800D01*
X118132459Y-72999832D01*
X118163600Y-72996998D01*
X118170302Y-72994820D01*
X118170304Y-72994820D01*
X118329409Y-72943124D01*
X118329412Y-72943123D01*
X118336108Y-72940947D01*
X118491912Y-72848069D01*
X118623266Y-72722982D01*
X118723643Y-72571902D01*
X118788055Y-72402338D01*
X118789035Y-72395366D01*
X118812748Y-72226639D01*
X118812748Y-72226636D01*
X118813299Y-72222717D01*
X118813616Y-72200000D01*
X118793397Y-72019745D01*
X118791080Y-72013091D01*
X118736064Y-71855106D01*
X118736062Y-71855103D01*
X118733745Y-71848448D01*
X118637626Y-71694624D01*
X118521588Y-71577773D01*
X118514778Y-71570915D01*
X118514774Y-71570912D01*
X118509815Y-71565918D01*
X118498697Y-71558862D01*
X118397782Y-71494820D01*
X118356666Y-71468727D01*
X118327463Y-71458328D01*
X118192425Y-71410243D01*
X118192420Y-71410242D01*
X118185790Y-71407881D01*
X118178802Y-71407048D01*
X118178799Y-71407047D01*
X118055698Y-71392368D01*
X118005680Y-71386404D01*
X117998677Y-71387140D01*
X117998676Y-71387140D01*
X117832288Y-71404628D01*
X117832286Y-71404629D01*
X117825288Y-71405364D01*
X117653579Y-71463818D01*
X117647575Y-71467512D01*
X117505095Y-71555166D01*
X117505092Y-71555168D01*
X117499088Y-71558862D01*
X117494053Y-71563793D01*
X117494050Y-71563795D01*
X117374525Y-71680843D01*
X117369493Y-71685771D01*
X117271235Y-71838238D01*
X117268826Y-71844858D01*
X117268824Y-71844861D01*
X117214243Y-71994820D01*
X117209197Y-72008685D01*
X117186463Y-72188640D01*
X100508000Y-72188640D01*
X100508000Y-70688640D01*
X114286463Y-70688640D01*
X114304163Y-70869160D01*
X114361418Y-71041273D01*
X114365065Y-71047295D01*
X114365066Y-71047297D01*
X114390594Y-71089448D01*
X114455380Y-71196424D01*
X114581382Y-71326902D01*
X114587278Y-71330760D01*
X114708741Y-71410243D01*
X114733159Y-71426222D01*
X114739763Y-71428678D01*
X114739765Y-71428679D01*
X114896558Y-71486990D01*
X114896560Y-71486990D01*
X114903168Y-71489448D01*
X114986995Y-71500633D01*
X115075980Y-71512507D01*
X115075984Y-71512507D01*
X115082961Y-71513438D01*
X115089972Y-71512800D01*
X115089976Y-71512800D01*
X115232459Y-71499832D01*
X115263600Y-71496998D01*
X115270302Y-71494820D01*
X115270304Y-71494820D01*
X115429409Y-71443124D01*
X115429412Y-71443123D01*
X115436108Y-71440947D01*
X115556532Y-71369160D01*
X115585860Y-71351677D01*
X115585862Y-71351676D01*
X115591912Y-71348069D01*
X115723266Y-71222982D01*
X115746083Y-71188640D01*
X128986463Y-71188640D01*
X129004163Y-71369160D01*
X129061418Y-71541273D01*
X129065065Y-71547295D01*
X129065066Y-71547297D01*
X129151264Y-71689627D01*
X129155380Y-71696424D01*
X129281382Y-71826902D01*
X129433159Y-71926222D01*
X129439763Y-71928678D01*
X129439765Y-71928679D01*
X129596558Y-71986990D01*
X129596560Y-71986990D01*
X129603168Y-71989448D01*
X129686995Y-72000633D01*
X129775980Y-72012507D01*
X129775984Y-72012507D01*
X129782961Y-72013438D01*
X129789972Y-72012800D01*
X129789976Y-72012800D01*
X129932459Y-71999832D01*
X129963600Y-71996998D01*
X129970302Y-71994820D01*
X129970304Y-71994820D01*
X130129409Y-71943124D01*
X130129412Y-71943123D01*
X130136108Y-71940947D01*
X130232513Y-71883478D01*
X130285860Y-71851677D01*
X130285862Y-71851676D01*
X130291912Y-71848069D01*
X130423266Y-71722982D01*
X130523643Y-71571902D01*
X130588055Y-71402338D01*
X130590191Y-71387140D01*
X130612748Y-71226639D01*
X130612748Y-71226636D01*
X130613299Y-71222717D01*
X130613616Y-71200000D01*
X130593397Y-71019745D01*
X130591080Y-71013091D01*
X130536064Y-70855106D01*
X130536062Y-70855103D01*
X130533745Y-70848448D01*
X130497474Y-70790401D01*
X130441359Y-70700598D01*
X130437626Y-70694624D01*
X130428835Y-70685771D01*
X130314778Y-70570915D01*
X130314774Y-70570912D01*
X130309815Y-70565918D01*
X130298697Y-70558862D01*
X130230644Y-70515675D01*
X130156666Y-70468727D01*
X130108784Y-70451677D01*
X129992425Y-70410243D01*
X129992420Y-70410242D01*
X129985790Y-70407881D01*
X129978802Y-70407048D01*
X129978799Y-70407047D01*
X129855698Y-70392368D01*
X129805680Y-70386404D01*
X129798677Y-70387140D01*
X129798676Y-70387140D01*
X129632288Y-70404628D01*
X129632286Y-70404629D01*
X129625288Y-70405364D01*
X129453579Y-70463818D01*
X129447575Y-70467512D01*
X129305095Y-70555166D01*
X129305092Y-70555168D01*
X129299088Y-70558862D01*
X129294053Y-70563793D01*
X129294050Y-70563795D01*
X129177660Y-70677773D01*
X129169493Y-70685771D01*
X129071235Y-70838238D01*
X129068826Y-70844858D01*
X129068824Y-70844861D01*
X129029946Y-70951677D01*
X129009197Y-71008685D01*
X128986463Y-71188640D01*
X115746083Y-71188640D01*
X115823643Y-71071902D01*
X115872529Y-70943211D01*
X115885555Y-70908920D01*
X115885556Y-70908918D01*
X115888055Y-70902338D01*
X115889035Y-70895366D01*
X115912748Y-70726639D01*
X115912748Y-70726636D01*
X115913299Y-70722717D01*
X115913616Y-70700000D01*
X115893397Y-70519745D01*
X115889546Y-70508685D01*
X115836946Y-70357640D01*
X115833527Y-70288640D01*
X117686463Y-70288640D01*
X117704163Y-70469160D01*
X117761418Y-70641273D01*
X117765065Y-70647295D01*
X117765066Y-70647297D01*
X117838521Y-70768586D01*
X117855380Y-70796424D01*
X117860269Y-70801487D01*
X117860270Y-70801488D01*
X117899845Y-70842469D01*
X117981382Y-70926902D01*
X117987278Y-70930760D01*
X118113093Y-71013091D01*
X118133159Y-71026222D01*
X118139763Y-71028678D01*
X118139765Y-71028679D01*
X118296558Y-71086990D01*
X118296560Y-71086990D01*
X118303168Y-71089448D01*
X118386995Y-71100633D01*
X118475980Y-71112507D01*
X118475984Y-71112507D01*
X118482961Y-71113438D01*
X118489972Y-71112800D01*
X118489976Y-71112800D01*
X118632459Y-71099832D01*
X118663600Y-71096998D01*
X118670302Y-71094820D01*
X118670304Y-71094820D01*
X118829409Y-71043124D01*
X118829412Y-71043123D01*
X118836108Y-71040947D01*
X118991912Y-70948069D01*
X119123266Y-70822982D01*
X119143310Y-70792813D01*
X119197667Y-70747144D01*
X119268086Y-70738112D01*
X119332210Y-70768586D01*
X119348088Y-70785667D01*
X119351728Y-70790393D01*
X119355380Y-70796424D01*
X119481382Y-70926902D01*
X119487278Y-70930760D01*
X119613093Y-71013091D01*
X119633159Y-71026222D01*
X119639763Y-71028678D01*
X119639765Y-71028679D01*
X119796558Y-71086990D01*
X119796560Y-71086990D01*
X119803168Y-71089448D01*
X119886995Y-71100633D01*
X119975980Y-71112507D01*
X119975984Y-71112507D01*
X119982961Y-71113438D01*
X119989972Y-71112800D01*
X119989976Y-71112800D01*
X120132459Y-71099832D01*
X120163600Y-71096998D01*
X120170302Y-71094820D01*
X120170304Y-71094820D01*
X120329409Y-71043124D01*
X120329412Y-71043123D01*
X120336108Y-71040947D01*
X120491912Y-70948069D01*
X120623266Y-70822982D01*
X120723643Y-70671902D01*
X120782989Y-70515675D01*
X120785555Y-70508920D01*
X120785556Y-70508918D01*
X120788055Y-70502338D01*
X120790177Y-70487237D01*
X120812748Y-70326639D01*
X120812748Y-70326636D01*
X120813299Y-70322717D01*
X120813616Y-70300000D01*
X120793397Y-70119745D01*
X120791080Y-70113091D01*
X120736064Y-69955106D01*
X120736062Y-69955103D01*
X120733745Y-69948448D01*
X120637626Y-69794624D01*
X120628835Y-69785771D01*
X120543661Y-69700000D01*
X123186496Y-69700000D01*
X123187186Y-69706565D01*
X123197472Y-69804427D01*
X123206458Y-69889928D01*
X123265473Y-70071556D01*
X123360960Y-70236944D01*
X123365378Y-70241851D01*
X123365379Y-70241852D01*
X123469635Y-70357640D01*
X123488747Y-70378866D01*
X123528683Y-70407881D01*
X123613026Y-70469160D01*
X123643248Y-70491118D01*
X123649276Y-70493802D01*
X123649278Y-70493803D01*
X123806484Y-70563795D01*
X123817712Y-70568794D01*
X123903317Y-70586990D01*
X123998056Y-70607128D01*
X123998061Y-70607128D01*
X124004513Y-70608500D01*
X124195487Y-70608500D01*
X124201939Y-70607128D01*
X124201944Y-70607128D01*
X124296683Y-70586990D01*
X124382288Y-70568794D01*
X124393516Y-70563795D01*
X124550722Y-70493803D01*
X124550724Y-70493802D01*
X124556752Y-70491118D01*
X124586975Y-70469160D01*
X124671317Y-70407881D01*
X124711253Y-70378866D01*
X124730365Y-70357640D01*
X124834621Y-70241852D01*
X124834622Y-70241851D01*
X124839040Y-70236944D01*
X124934527Y-70071556D01*
X124993542Y-69889928D01*
X125002529Y-69804427D01*
X125012814Y-69706565D01*
X125013504Y-69700000D01*
X126086496Y-69700000D01*
X126087186Y-69706565D01*
X126097472Y-69804427D01*
X126106458Y-69889928D01*
X126165473Y-70071556D01*
X126260960Y-70236944D01*
X126265378Y-70241851D01*
X126265379Y-70241852D01*
X126369635Y-70357640D01*
X126388747Y-70378866D01*
X126428683Y-70407881D01*
X126513026Y-70469160D01*
X126543248Y-70491118D01*
X126549276Y-70493802D01*
X126549278Y-70493803D01*
X126706484Y-70563795D01*
X126717712Y-70568794D01*
X126803317Y-70586990D01*
X126898056Y-70607128D01*
X126898061Y-70607128D01*
X126904513Y-70608500D01*
X127095487Y-70608500D01*
X127101939Y-70607128D01*
X127101944Y-70607128D01*
X127196683Y-70586990D01*
X127282288Y-70568794D01*
X127293516Y-70563795D01*
X127450722Y-70493803D01*
X127450724Y-70493802D01*
X127456752Y-70491118D01*
X127486975Y-70469160D01*
X127571317Y-70407881D01*
X127611253Y-70378866D01*
X127630365Y-70357640D01*
X127734621Y-70241852D01*
X127734622Y-70241851D01*
X127739040Y-70236944D01*
X127834527Y-70071556D01*
X127893542Y-69889928D01*
X127902529Y-69804427D01*
X127912814Y-69706565D01*
X127913504Y-69700000D01*
X127893542Y-69510072D01*
X127834527Y-69328444D01*
X127810594Y-69286990D01*
X127781928Y-69237340D01*
X127739040Y-69163056D01*
X127696284Y-69115570D01*
X127615675Y-69026045D01*
X127615674Y-69026044D01*
X127611253Y-69021134D01*
X127456752Y-68908882D01*
X127450724Y-68906198D01*
X127450722Y-68906197D01*
X127288319Y-68833891D01*
X127288318Y-68833891D01*
X127282288Y-68831206D01*
X127188888Y-68811353D01*
X127101944Y-68792872D01*
X127101939Y-68792872D01*
X127095487Y-68791500D01*
X126904513Y-68791500D01*
X126898061Y-68792872D01*
X126898056Y-68792872D01*
X126811112Y-68811353D01*
X126717712Y-68831206D01*
X126711682Y-68833891D01*
X126711681Y-68833891D01*
X126549278Y-68906197D01*
X126549276Y-68906198D01*
X126543248Y-68908882D01*
X126388747Y-69021134D01*
X126384326Y-69026044D01*
X126384325Y-69026045D01*
X126303717Y-69115570D01*
X126260960Y-69163056D01*
X126218072Y-69237340D01*
X126189407Y-69286990D01*
X126165473Y-69328444D01*
X126106458Y-69510072D01*
X126086496Y-69700000D01*
X125013504Y-69700000D01*
X124993542Y-69510072D01*
X124934527Y-69328444D01*
X124910594Y-69286990D01*
X124881928Y-69237340D01*
X124839040Y-69163056D01*
X124796284Y-69115570D01*
X124715675Y-69026045D01*
X124715674Y-69026044D01*
X124711253Y-69021134D01*
X124556752Y-68908882D01*
X124550724Y-68906198D01*
X124550722Y-68906197D01*
X124388319Y-68833891D01*
X124388318Y-68833891D01*
X124382288Y-68831206D01*
X124288888Y-68811353D01*
X124201944Y-68792872D01*
X124201939Y-68792872D01*
X124195487Y-68791500D01*
X124004513Y-68791500D01*
X123998061Y-68792872D01*
X123998056Y-68792872D01*
X123911112Y-68811353D01*
X123817712Y-68831206D01*
X123811682Y-68833891D01*
X123811681Y-68833891D01*
X123649278Y-68906197D01*
X123649276Y-68906198D01*
X123643248Y-68908882D01*
X123488747Y-69021134D01*
X123484326Y-69026044D01*
X123484325Y-69026045D01*
X123403717Y-69115570D01*
X123360960Y-69163056D01*
X123318072Y-69237340D01*
X123289407Y-69286990D01*
X123265473Y-69328444D01*
X123206458Y-69510072D01*
X123186496Y-69700000D01*
X120543661Y-69700000D01*
X120514778Y-69670915D01*
X120514774Y-69670912D01*
X120509815Y-69665918D01*
X120498697Y-69658862D01*
X120430644Y-69615675D01*
X120356666Y-69568727D01*
X120327463Y-69558328D01*
X120192425Y-69510243D01*
X120192420Y-69510242D01*
X120185790Y-69507881D01*
X120178802Y-69507048D01*
X120178799Y-69507047D01*
X120024431Y-69488640D01*
X120005680Y-69486404D01*
X119998677Y-69487140D01*
X119998676Y-69487140D01*
X119832288Y-69504628D01*
X119832286Y-69504629D01*
X119825288Y-69505364D01*
X119653579Y-69563818D01*
X119647575Y-69567512D01*
X119505095Y-69655166D01*
X119505092Y-69655168D01*
X119499088Y-69658862D01*
X119494053Y-69663793D01*
X119494050Y-69663795D01*
X119374525Y-69780843D01*
X119369493Y-69785771D01*
X119356514Y-69805911D01*
X119302804Y-69852334D01*
X119232517Y-69862350D01*
X119167973Y-69832777D01*
X119143753Y-69804429D01*
X119137626Y-69794624D01*
X119128835Y-69785771D01*
X119014778Y-69670915D01*
X119014774Y-69670912D01*
X119009815Y-69665918D01*
X118998697Y-69658862D01*
X118930644Y-69615675D01*
X118856666Y-69568727D01*
X118827463Y-69558328D01*
X118692425Y-69510243D01*
X118692420Y-69510242D01*
X118685790Y-69507881D01*
X118678802Y-69507048D01*
X118678799Y-69507047D01*
X118524431Y-69488640D01*
X118505680Y-69486404D01*
X118498677Y-69487140D01*
X118498676Y-69487140D01*
X118332288Y-69504628D01*
X118332286Y-69504629D01*
X118325288Y-69505364D01*
X118153579Y-69563818D01*
X118147575Y-69567512D01*
X118005095Y-69655166D01*
X118005092Y-69655168D01*
X117999088Y-69658862D01*
X117994053Y-69663793D01*
X117994050Y-69663795D01*
X117874525Y-69780843D01*
X117869493Y-69785771D01*
X117771235Y-69938238D01*
X117768826Y-69944858D01*
X117768824Y-69944861D01*
X117738622Y-70027841D01*
X117709197Y-70108685D01*
X117686463Y-70288640D01*
X115833527Y-70288640D01*
X115833432Y-70286731D01*
X115868814Y-70225178D01*
X115891418Y-70207976D01*
X115951932Y-70171902D01*
X115985860Y-70151677D01*
X115985862Y-70151676D01*
X115991912Y-70148069D01*
X116123266Y-70022982D01*
X116223643Y-69871902D01*
X116288055Y-69702338D01*
X116289306Y-69693435D01*
X116312748Y-69526639D01*
X116312748Y-69526636D01*
X116313299Y-69522717D01*
X116313473Y-69510243D01*
X116313561Y-69503962D01*
X116313561Y-69503957D01*
X116313616Y-69500000D01*
X116293397Y-69319745D01*
X116291080Y-69313091D01*
X116236064Y-69155106D01*
X116236062Y-69155103D01*
X116233745Y-69148448D01*
X116156788Y-69025290D01*
X116137653Y-68956923D01*
X116158518Y-68889062D01*
X116176752Y-68867277D01*
X116218159Y-68827846D01*
X116218162Y-68827843D01*
X116223266Y-68822982D01*
X116323643Y-68671902D01*
X116388055Y-68502338D01*
X116389035Y-68495366D01*
X116412748Y-68326639D01*
X116412748Y-68326636D01*
X116413299Y-68322717D01*
X116413616Y-68300000D01*
X116393397Y-68119745D01*
X116391080Y-68113091D01*
X116336064Y-67955106D01*
X116336062Y-67955103D01*
X116333745Y-67948448D01*
X116258906Y-67828679D01*
X116241359Y-67800598D01*
X116237626Y-67794624D01*
X116213678Y-67770508D01*
X116114778Y-67670915D01*
X116114774Y-67670912D01*
X116109815Y-67665918D01*
X116102928Y-67661547D01*
X116022085Y-67610243D01*
X115956666Y-67568727D01*
X115908784Y-67551677D01*
X115792425Y-67510243D01*
X115792420Y-67510242D01*
X115785790Y-67507881D01*
X115778802Y-67507048D01*
X115778799Y-67507047D01*
X115639023Y-67490380D01*
X115605680Y-67486404D01*
X115598677Y-67487140D01*
X115598676Y-67487140D01*
X115432288Y-67504628D01*
X115432286Y-67504629D01*
X115425288Y-67505364D01*
X115253579Y-67563818D01*
X115247575Y-67567512D01*
X115105095Y-67655166D01*
X115105092Y-67655168D01*
X115099088Y-67658862D01*
X115094053Y-67663793D01*
X115094050Y-67663795D01*
X114986534Y-67769083D01*
X114969493Y-67785771D01*
X114871235Y-67938238D01*
X114868826Y-67944858D01*
X114868824Y-67944861D01*
X114834838Y-68038238D01*
X114809197Y-68108685D01*
X114786463Y-68288640D01*
X114804163Y-68469160D01*
X114861418Y-68641273D01*
X114865065Y-68647295D01*
X114865066Y-68647297D01*
X114943655Y-68777064D01*
X114961834Y-68845694D01*
X114940023Y-68913257D01*
X114924038Y-68932356D01*
X114869493Y-68985771D01*
X114771235Y-69138238D01*
X114768826Y-69144858D01*
X114768824Y-69144861D01*
X114714315Y-69294624D01*
X114709197Y-69308685D01*
X114686463Y-69488640D01*
X114704163Y-69669160D01*
X114744923Y-69791687D01*
X114761418Y-69841273D01*
X114759163Y-69842023D01*
X114767940Y-69901204D01*
X114738732Y-69965915D01*
X114709169Y-69991140D01*
X114599088Y-70058862D01*
X114594053Y-70063793D01*
X114594050Y-70063795D01*
X114477660Y-70177773D01*
X114469493Y-70185771D01*
X114371235Y-70338238D01*
X114368826Y-70344858D01*
X114368824Y-70344861D01*
X114314045Y-70495366D01*
X114309197Y-70508685D01*
X114286463Y-70688640D01*
X100508000Y-70688640D01*
X100508000Y-69788640D01*
X107886463Y-69788640D01*
X107904163Y-69969160D01*
X107961418Y-70141273D01*
X107965065Y-70147295D01*
X107965066Y-70147297D01*
X108049510Y-70286731D01*
X108055380Y-70296424D01*
X108060269Y-70301487D01*
X108060270Y-70301488D01*
X108102155Y-70344861D01*
X108181382Y-70426902D01*
X108187278Y-70430760D01*
X108313093Y-70513091D01*
X108333159Y-70526222D01*
X108339763Y-70528678D01*
X108339765Y-70528679D01*
X108496558Y-70586990D01*
X108496560Y-70586990D01*
X108503168Y-70589448D01*
X108586995Y-70600633D01*
X108675980Y-70612507D01*
X108675984Y-70612507D01*
X108682961Y-70613438D01*
X108689972Y-70612800D01*
X108689976Y-70612800D01*
X108832459Y-70599832D01*
X108863600Y-70596998D01*
X108870302Y-70594820D01*
X108870304Y-70594820D01*
X109029409Y-70543124D01*
X109029412Y-70543123D01*
X109036108Y-70540947D01*
X109159296Y-70467512D01*
X109185860Y-70451677D01*
X109185862Y-70451676D01*
X109191912Y-70448069D01*
X109323266Y-70322982D01*
X109423643Y-70171902D01*
X109488055Y-70002338D01*
X109489629Y-69991141D01*
X109512748Y-69826639D01*
X109512748Y-69826636D01*
X109513299Y-69822717D01*
X109513616Y-69800000D01*
X109493397Y-69619745D01*
X109491080Y-69613091D01*
X109436064Y-69455106D01*
X109436062Y-69455103D01*
X109433745Y-69448448D01*
X109337626Y-69294624D01*
X109323941Y-69280843D01*
X109214778Y-69170915D01*
X109214774Y-69170912D01*
X109209815Y-69165918D01*
X109198697Y-69158862D01*
X109130479Y-69115570D01*
X109056666Y-69068727D01*
X109027463Y-69058328D01*
X108892425Y-69010243D01*
X108892420Y-69010242D01*
X108885790Y-69007881D01*
X108878802Y-69007048D01*
X108878799Y-69007047D01*
X108755698Y-68992368D01*
X108705680Y-68986404D01*
X108698677Y-68987140D01*
X108698676Y-68987140D01*
X108532288Y-69004628D01*
X108532286Y-69004629D01*
X108525288Y-69005364D01*
X108353579Y-69063818D01*
X108347575Y-69067512D01*
X108205095Y-69155166D01*
X108205092Y-69155168D01*
X108199088Y-69158862D01*
X108194053Y-69163793D01*
X108194050Y-69163795D01*
X108074525Y-69280843D01*
X108069493Y-69285771D01*
X107971235Y-69438238D01*
X107968826Y-69444858D01*
X107968824Y-69444861D01*
X107922365Y-69572506D01*
X107909197Y-69608685D01*
X107886463Y-69788640D01*
X100508000Y-69788640D01*
X100508000Y-68388640D01*
X110186463Y-68388640D01*
X110204163Y-68569160D01*
X110261418Y-68741273D01*
X110265065Y-68747295D01*
X110265066Y-68747297D01*
X110344085Y-68877773D01*
X110355380Y-68896424D01*
X110360269Y-68901487D01*
X110360270Y-68901488D01*
X110390082Y-68932359D01*
X110481382Y-69026902D01*
X110487278Y-69030760D01*
X110612607Y-69112773D01*
X110633159Y-69126222D01*
X110639763Y-69128678D01*
X110639765Y-69128679D01*
X110796558Y-69186990D01*
X110796560Y-69186990D01*
X110803168Y-69189448D01*
X110886995Y-69200633D01*
X110975980Y-69212507D01*
X110975984Y-69212507D01*
X110982961Y-69213438D01*
X110989972Y-69212800D01*
X110989976Y-69212800D01*
X111132459Y-69199832D01*
X111163600Y-69196998D01*
X111170302Y-69194820D01*
X111170304Y-69194820D01*
X111329409Y-69143124D01*
X111329412Y-69143123D01*
X111336108Y-69140947D01*
X111383370Y-69112773D01*
X111452125Y-69095073D01*
X111516881Y-69115570D01*
X111533159Y-69126222D01*
X111539763Y-69128678D01*
X111539765Y-69128679D01*
X111696558Y-69186990D01*
X111696560Y-69186990D01*
X111703168Y-69189448D01*
X111786995Y-69200633D01*
X111875980Y-69212507D01*
X111875984Y-69212507D01*
X111882961Y-69213438D01*
X111889972Y-69212800D01*
X111889976Y-69212800D01*
X112032459Y-69199832D01*
X112063600Y-69196998D01*
X112070302Y-69194820D01*
X112070304Y-69194820D01*
X112229409Y-69143124D01*
X112229412Y-69143123D01*
X112236108Y-69140947D01*
X112242159Y-69137340D01*
X112255734Y-69129248D01*
X112324489Y-69111549D01*
X112389243Y-69132046D01*
X112398705Y-69138238D01*
X112489477Y-69197637D01*
X112533159Y-69226222D01*
X112539763Y-69228678D01*
X112539765Y-69228679D01*
X112696558Y-69286990D01*
X112696560Y-69286990D01*
X112703168Y-69289448D01*
X112786732Y-69300598D01*
X112875980Y-69312507D01*
X112875984Y-69312507D01*
X112882961Y-69313438D01*
X112889972Y-69312800D01*
X112889976Y-69312800D01*
X113032459Y-69299832D01*
X113063600Y-69296998D01*
X113070302Y-69294820D01*
X113070304Y-69294820D01*
X113229409Y-69243124D01*
X113229412Y-69243123D01*
X113236108Y-69240947D01*
X113361970Y-69165918D01*
X113385860Y-69151677D01*
X113385862Y-69151676D01*
X113391912Y-69148069D01*
X113523266Y-69022982D01*
X113623643Y-68871902D01*
X113665423Y-68761917D01*
X113685555Y-68708920D01*
X113685556Y-68708918D01*
X113688055Y-68702338D01*
X113689035Y-68695366D01*
X113712748Y-68526639D01*
X113712748Y-68526636D01*
X113713299Y-68522717D01*
X113713616Y-68500000D01*
X113693397Y-68319745D01*
X113633745Y-68148448D01*
X113537626Y-67994624D01*
X113498383Y-67955106D01*
X113469624Y-67926145D01*
X113435817Y-67863714D01*
X113441129Y-67792916D01*
X113483874Y-67736230D01*
X113550481Y-67711651D01*
X113575697Y-67712469D01*
X113582961Y-67713438D01*
X113589972Y-67712800D01*
X113589976Y-67712800D01*
X113732459Y-67699832D01*
X113763600Y-67696998D01*
X113770302Y-67694820D01*
X113770304Y-67694820D01*
X113929409Y-67643124D01*
X113929412Y-67643123D01*
X113936108Y-67640947D01*
X114059296Y-67567512D01*
X114085860Y-67551677D01*
X114085862Y-67551676D01*
X114091912Y-67548069D01*
X114223266Y-67422982D01*
X114323643Y-67271902D01*
X114388055Y-67102338D01*
X114390963Y-67081646D01*
X114412748Y-66926639D01*
X114412748Y-66926636D01*
X114413299Y-66922717D01*
X114413616Y-66900000D01*
X114393397Y-66719745D01*
X114391080Y-66713091D01*
X114382565Y-66688640D01*
X117086463Y-66688640D01*
X117104163Y-66869160D01*
X117161418Y-67041273D01*
X117165065Y-67047295D01*
X117165066Y-67047297D01*
X117208344Y-67118757D01*
X117255380Y-67196424D01*
X117260269Y-67201487D01*
X117260270Y-67201488D01*
X117318852Y-67262151D01*
X117381382Y-67326902D01*
X117387278Y-67330760D01*
X117489477Y-67397637D01*
X117533159Y-67426222D01*
X117539763Y-67428678D01*
X117539765Y-67428679D01*
X117696558Y-67486990D01*
X117696560Y-67486990D01*
X117703168Y-67489448D01*
X117786995Y-67500633D01*
X117875980Y-67512507D01*
X117875984Y-67512507D01*
X117882961Y-67513438D01*
X117889972Y-67512800D01*
X117889976Y-67512800D01*
X118032459Y-67499832D01*
X118063600Y-67496998D01*
X118070302Y-67494820D01*
X118070304Y-67494820D01*
X118229409Y-67443124D01*
X118229412Y-67443123D01*
X118236108Y-67440947D01*
X118340056Y-67378981D01*
X118408809Y-67361282D01*
X118448491Y-67369114D01*
X118503168Y-67389448D01*
X118586995Y-67400633D01*
X118675980Y-67412507D01*
X118675984Y-67412507D01*
X118682961Y-67413438D01*
X118689972Y-67412800D01*
X118689976Y-67412800D01*
X118832459Y-67399832D01*
X118863600Y-67396998D01*
X118870302Y-67394820D01*
X118870304Y-67394820D01*
X119029409Y-67343124D01*
X119029412Y-67343123D01*
X119036108Y-67340947D01*
X119156532Y-67269160D01*
X119185860Y-67251677D01*
X119185862Y-67251676D01*
X119191912Y-67248069D01*
X119323266Y-67122982D01*
X119346083Y-67088640D01*
X122386463Y-67088640D01*
X122404163Y-67269160D01*
X122461418Y-67441273D01*
X122465065Y-67447295D01*
X122465066Y-67447297D01*
X122549817Y-67587238D01*
X122555380Y-67596424D01*
X122560269Y-67601487D01*
X122560270Y-67601488D01*
X122620440Y-67663795D01*
X122681382Y-67726902D01*
X122737796Y-67763818D01*
X122822913Y-67819517D01*
X122833159Y-67826222D01*
X122839763Y-67828678D01*
X122839765Y-67828679D01*
X122996558Y-67886990D01*
X122996560Y-67886990D01*
X123003168Y-67889448D01*
X123086995Y-67900633D01*
X123175980Y-67912507D01*
X123175984Y-67912507D01*
X123182961Y-67913438D01*
X123189972Y-67912800D01*
X123189976Y-67912800D01*
X123332459Y-67899832D01*
X123363600Y-67896998D01*
X123370302Y-67894820D01*
X123370304Y-67894820D01*
X123529409Y-67843124D01*
X123529412Y-67843123D01*
X123536108Y-67840947D01*
X123657305Y-67768699D01*
X123685860Y-67751677D01*
X123685862Y-67751676D01*
X123691912Y-67748069D01*
X123823266Y-67622982D01*
X123923643Y-67471902D01*
X123965664Y-67361282D01*
X123985555Y-67308920D01*
X123985556Y-67308918D01*
X123988055Y-67302338D01*
X123989035Y-67295366D01*
X124012748Y-67126639D01*
X124012748Y-67126636D01*
X124013299Y-67122717D01*
X124013616Y-67100000D01*
X123993397Y-66919745D01*
X123991080Y-66913091D01*
X123936064Y-66755106D01*
X123936062Y-66755103D01*
X123933745Y-66748448D01*
X123837626Y-66594624D01*
X123798383Y-66555106D01*
X123714778Y-66470915D01*
X123714774Y-66470912D01*
X123709815Y-66465918D01*
X123698697Y-66458862D01*
X123626585Y-66413099D01*
X123556666Y-66368727D01*
X123527463Y-66358328D01*
X123392425Y-66310243D01*
X123392420Y-66310242D01*
X123385790Y-66307881D01*
X123378802Y-66307048D01*
X123378799Y-66307047D01*
X123255698Y-66292368D01*
X123205680Y-66286404D01*
X123198677Y-66287140D01*
X123198676Y-66287140D01*
X123032288Y-66304628D01*
X123032286Y-66304629D01*
X123025288Y-66305364D01*
X122853579Y-66363818D01*
X122824212Y-66381885D01*
X122705095Y-66455166D01*
X122705092Y-66455168D01*
X122699088Y-66458862D01*
X122694053Y-66463793D01*
X122694050Y-66463795D01*
X122607606Y-66548448D01*
X122569493Y-66585771D01*
X122471235Y-66738238D01*
X122468826Y-66744858D01*
X122468824Y-66744861D01*
X122426134Y-66862151D01*
X122409197Y-66908685D01*
X122386463Y-67088640D01*
X119346083Y-67088640D01*
X119423643Y-66971902D01*
X119488055Y-66802338D01*
X119497064Y-66738238D01*
X119512748Y-66626639D01*
X119512748Y-66626636D01*
X119513299Y-66622717D01*
X119513616Y-66600000D01*
X119493397Y-66419745D01*
X119475782Y-66369161D01*
X119472269Y-66298254D01*
X119507651Y-66236702D01*
X119570693Y-66204050D01*
X119641381Y-66210664D01*
X119667046Y-66224515D01*
X119676644Y-66231236D01*
X119686126Y-66236711D01*
X119871696Y-66323244D01*
X119881988Y-66326990D01*
X120079759Y-66379982D01*
X120090554Y-66381885D01*
X120294525Y-66399731D01*
X120305475Y-66399731D01*
X120509446Y-66381885D01*
X120520241Y-66379982D01*
X120718012Y-66326990D01*
X120728304Y-66323244D01*
X120913868Y-66236714D01*
X120923363Y-66231231D01*
X120959197Y-66206140D01*
X120967573Y-66195661D01*
X120960505Y-66182215D01*
X119941922Y-65163632D01*
X120664408Y-65163632D01*
X120664539Y-65165465D01*
X120668790Y-65172080D01*
X121320436Y-65823726D01*
X121332211Y-65830156D01*
X121344226Y-65820860D01*
X121368731Y-65785863D01*
X121374214Y-65776368D01*
X121460744Y-65590804D01*
X121464490Y-65580512D01*
X121517482Y-65382741D01*
X121519385Y-65371946D01*
X121537231Y-65167975D01*
X121537231Y-65157025D01*
X121519385Y-64953054D01*
X121517482Y-64942259D01*
X121464490Y-64744488D01*
X121460744Y-64734196D01*
X121374214Y-64548632D01*
X121368731Y-64539137D01*
X121343640Y-64503303D01*
X121333161Y-64494927D01*
X121319715Y-64501995D01*
X120672022Y-65149688D01*
X120664408Y-65163632D01*
X119941922Y-65163632D01*
X119279564Y-64501274D01*
X119267789Y-64494844D01*
X119255774Y-64504140D01*
X119231269Y-64539137D01*
X119225786Y-64548632D01*
X119139256Y-64734196D01*
X119135510Y-64744488D01*
X119082518Y-64942259D01*
X119080615Y-64953054D01*
X119062769Y-65157025D01*
X119062769Y-65167975D01*
X119080615Y-65371946D01*
X119082518Y-65382741D01*
X119135510Y-65580512D01*
X119139256Y-65590804D01*
X119183804Y-65686336D01*
X119194465Y-65756527D01*
X119165485Y-65821340D01*
X119106066Y-65860197D01*
X119035071Y-65860760D01*
X119027342Y-65858285D01*
X118892425Y-65810243D01*
X118892420Y-65810242D01*
X118885790Y-65807881D01*
X118878802Y-65807048D01*
X118878799Y-65807047D01*
X118755698Y-65792368D01*
X118705680Y-65786404D01*
X118698677Y-65787140D01*
X118698676Y-65787140D01*
X118532288Y-65804628D01*
X118532286Y-65804629D01*
X118525288Y-65805364D01*
X118435094Y-65836068D01*
X118360249Y-65861547D01*
X118360246Y-65861548D01*
X118353579Y-65863818D01*
X118347581Y-65867508D01*
X118347579Y-65867509D01*
X118261457Y-65920492D01*
X118192956Y-65939150D01*
X118153168Y-65931873D01*
X118092425Y-65910243D01*
X118092420Y-65910242D01*
X118085790Y-65907881D01*
X118078802Y-65907048D01*
X118078799Y-65907047D01*
X117955698Y-65892368D01*
X117905680Y-65886404D01*
X117898677Y-65887140D01*
X117898676Y-65887140D01*
X117732288Y-65904628D01*
X117732286Y-65904629D01*
X117725288Y-65905364D01*
X117553579Y-65963818D01*
X117547575Y-65967512D01*
X117405095Y-66055166D01*
X117405092Y-66055168D01*
X117399088Y-66058862D01*
X117394053Y-66063793D01*
X117394050Y-66063795D01*
X117274525Y-66180843D01*
X117269493Y-66185771D01*
X117171235Y-66338238D01*
X117168826Y-66344858D01*
X117168824Y-66344861D01*
X117139021Y-66426744D01*
X117109197Y-66508685D01*
X117086463Y-66688640D01*
X114382565Y-66688640D01*
X114336064Y-66555106D01*
X114336062Y-66555103D01*
X114333745Y-66548448D01*
X114304763Y-66502066D01*
X114241359Y-66400598D01*
X114237626Y-66394624D01*
X114209561Y-66366362D01*
X114114778Y-66270915D01*
X114114774Y-66270912D01*
X114109815Y-66265918D01*
X114098697Y-66258862D01*
X114016543Y-66206726D01*
X113997610Y-66194711D01*
X114632344Y-66194711D01*
X114641640Y-66206726D01*
X114676637Y-66231231D01*
X114686132Y-66236714D01*
X114871696Y-66323244D01*
X114881988Y-66326990D01*
X115079759Y-66379982D01*
X115090554Y-66381885D01*
X115294525Y-66399731D01*
X115305475Y-66399731D01*
X115509446Y-66381885D01*
X115520241Y-66379982D01*
X115718012Y-66326990D01*
X115728304Y-66323244D01*
X115913868Y-66236714D01*
X115923363Y-66231231D01*
X115959197Y-66206140D01*
X115967573Y-66195661D01*
X115960505Y-66182215D01*
X115312812Y-65534522D01*
X115298868Y-65526908D01*
X115297035Y-65527039D01*
X115290420Y-65531290D01*
X114638774Y-66182936D01*
X114632344Y-66194711D01*
X113997610Y-66194711D01*
X113956666Y-66168727D01*
X113927463Y-66158328D01*
X113792425Y-66110243D01*
X113792420Y-66110242D01*
X113785790Y-66107881D01*
X113778802Y-66107048D01*
X113778799Y-66107047D01*
X113655698Y-66092368D01*
X113605680Y-66086404D01*
X113598677Y-66087140D01*
X113598676Y-66087140D01*
X113432288Y-66104628D01*
X113432286Y-66104629D01*
X113425288Y-66105364D01*
X113253579Y-66163818D01*
X113201819Y-66195661D01*
X113105095Y-66255166D01*
X113105092Y-66255168D01*
X113099088Y-66258862D01*
X113094053Y-66263793D01*
X113094050Y-66263795D01*
X112974525Y-66380843D01*
X112969493Y-66385771D01*
X112871235Y-66538238D01*
X112868826Y-66544858D01*
X112868824Y-66544861D01*
X112847313Y-66603962D01*
X112809197Y-66708685D01*
X112786463Y-66888640D01*
X112804163Y-67069160D01*
X112861418Y-67241273D01*
X112865065Y-67247295D01*
X112865066Y-67247297D01*
X112951720Y-67390380D01*
X112955380Y-67396424D01*
X112980430Y-67422364D01*
X113032516Y-67476301D01*
X113065448Y-67539198D01*
X113059148Y-67609914D01*
X113015616Y-67665999D01*
X112948673Y-67689645D01*
X112926957Y-67688941D01*
X112912677Y-67687238D01*
X112912674Y-67687238D01*
X112905680Y-67686404D01*
X112898677Y-67687140D01*
X112898676Y-67687140D01*
X112732288Y-67704628D01*
X112732286Y-67704629D01*
X112725288Y-67705364D01*
X112553579Y-67763818D01*
X112545644Y-67768699D01*
X112544236Y-67769083D01*
X112541208Y-67770508D01*
X112540958Y-67769976D01*
X112477145Y-67787356D01*
X112410132Y-67766237D01*
X112409815Y-67765918D01*
X112256666Y-67668727D01*
X112218582Y-67655166D01*
X112092425Y-67610243D01*
X112092420Y-67610242D01*
X112085790Y-67607881D01*
X112078802Y-67607048D01*
X112078799Y-67607047D01*
X111955698Y-67592368D01*
X111905680Y-67586404D01*
X111898677Y-67587140D01*
X111898676Y-67587140D01*
X111732288Y-67604628D01*
X111732286Y-67604629D01*
X111725288Y-67605364D01*
X111553579Y-67663818D01*
X111516724Y-67686492D01*
X111448225Y-67705149D01*
X111383192Y-67685559D01*
X111362618Y-67672503D01*
X111362610Y-67672499D01*
X111356666Y-67668727D01*
X111350033Y-67666365D01*
X111192425Y-67610243D01*
X111192420Y-67610242D01*
X111185790Y-67607881D01*
X111178802Y-67607048D01*
X111178799Y-67607047D01*
X111055698Y-67592368D01*
X111005680Y-67586404D01*
X110998677Y-67587140D01*
X110998676Y-67587140D01*
X110832288Y-67604628D01*
X110832286Y-67604629D01*
X110825288Y-67605364D01*
X110653579Y-67663818D01*
X110611918Y-67689448D01*
X110505095Y-67755166D01*
X110505092Y-67755168D01*
X110499088Y-67758862D01*
X110494053Y-67763793D01*
X110494050Y-67763795D01*
X110389766Y-67865918D01*
X110369493Y-67885771D01*
X110271235Y-68038238D01*
X110268826Y-68044858D01*
X110268824Y-68044861D01*
X110228698Y-68155106D01*
X110209197Y-68208685D01*
X110186463Y-68388640D01*
X100508000Y-68388640D01*
X100508000Y-65167975D01*
X114062769Y-65167975D01*
X114080615Y-65371946D01*
X114082518Y-65382741D01*
X114135510Y-65580512D01*
X114139256Y-65590804D01*
X114225786Y-65776368D01*
X114231269Y-65785863D01*
X114256360Y-65821697D01*
X114266839Y-65830073D01*
X114280285Y-65823005D01*
X114927978Y-65175312D01*
X114934356Y-65163632D01*
X115664408Y-65163632D01*
X115664539Y-65165465D01*
X115668790Y-65172080D01*
X116320436Y-65823726D01*
X116332211Y-65830156D01*
X116344226Y-65820860D01*
X116368731Y-65785863D01*
X116374214Y-65776368D01*
X116460744Y-65590804D01*
X116464490Y-65580512D01*
X116517482Y-65382741D01*
X116519385Y-65371946D01*
X116537231Y-65167975D01*
X116537231Y-65157025D01*
X116519385Y-64953054D01*
X116517482Y-64942259D01*
X116464490Y-64744488D01*
X116460744Y-64734196D01*
X116374214Y-64548632D01*
X116368731Y-64539137D01*
X116343640Y-64503303D01*
X116333161Y-64494927D01*
X116319715Y-64501995D01*
X115672022Y-65149688D01*
X115664408Y-65163632D01*
X114934356Y-65163632D01*
X114935592Y-65161368D01*
X114935461Y-65159535D01*
X114931210Y-65152920D01*
X114279564Y-64501274D01*
X114267789Y-64494844D01*
X114255774Y-64504140D01*
X114231269Y-64539137D01*
X114225786Y-64548632D01*
X114139256Y-64734196D01*
X114135510Y-64744488D01*
X114082518Y-64942259D01*
X114080615Y-64953054D01*
X114062769Y-65157025D01*
X114062769Y-65167975D01*
X100508000Y-65167975D01*
X100508000Y-63049328D01*
X100509500Y-63029943D01*
X100511805Y-63015142D01*
X100511805Y-63015139D01*
X100513186Y-63006270D01*
X100510941Y-62989101D01*
X100510108Y-62965161D01*
X100512251Y-62929733D01*
X100987822Y-62929733D01*
X100987975Y-62934121D01*
X100987975Y-62934127D01*
X100994962Y-63134188D01*
X100997625Y-63210458D01*
X100998387Y-63214781D01*
X100998388Y-63214788D01*
X101022164Y-63349624D01*
X101046402Y-63487087D01*
X101133203Y-63754235D01*
X101135131Y-63758188D01*
X101135133Y-63758193D01*
X101150842Y-63790401D01*
X101256340Y-64006702D01*
X101258795Y-64010341D01*
X101258798Y-64010347D01*
X101298176Y-64068727D01*
X101413415Y-64239576D01*
X101416360Y-64242847D01*
X101416361Y-64242848D01*
X101469926Y-64302338D01*
X101601371Y-64448322D01*
X101816550Y-64628879D01*
X102054764Y-64777731D01*
X102164613Y-64826639D01*
X102305684Y-64889448D01*
X102311375Y-64891982D01*
X102581390Y-64969407D01*
X102585740Y-64970018D01*
X102585743Y-64970019D01*
X102688690Y-64984487D01*
X102859552Y-65008500D01*
X103070146Y-65008500D01*
X103072332Y-65008347D01*
X103072336Y-65008347D01*
X103275827Y-64994118D01*
X103275832Y-64994117D01*
X103280212Y-64993811D01*
X103554970Y-64935409D01*
X103559099Y-64933906D01*
X103559103Y-64933905D01*
X103814781Y-64840846D01*
X103814785Y-64840844D01*
X103818926Y-64839337D01*
X104066942Y-64707464D01*
X104171896Y-64631211D01*
X104290629Y-64544947D01*
X104290632Y-64544944D01*
X104294192Y-64542358D01*
X104297528Y-64539137D01*
X104493087Y-64350287D01*
X104496252Y-64347231D01*
X104669188Y-64125882D01*
X104671384Y-64122078D01*
X104671389Y-64122071D01*
X104804134Y-63892148D01*
X104809636Y-63882619D01*
X104914862Y-63622176D01*
X104922462Y-63591693D01*
X104981753Y-63353893D01*
X104981754Y-63353888D01*
X104982817Y-63349624D01*
X104983501Y-63343124D01*
X105011719Y-63074636D01*
X105011719Y-63074633D01*
X105012178Y-63070267D01*
X105011177Y-63041589D01*
X105002529Y-62793939D01*
X105002528Y-62793933D01*
X105002375Y-62789542D01*
X105000842Y-62780843D01*
X104966951Y-62588640D01*
X111586463Y-62588640D01*
X111604163Y-62769160D01*
X111661418Y-62941273D01*
X111665065Y-62947295D01*
X111665066Y-62947297D01*
X111742264Y-63074766D01*
X111755380Y-63096424D01*
X111760269Y-63101487D01*
X111760270Y-63101488D01*
X111816401Y-63159613D01*
X111881382Y-63226902D01*
X111887278Y-63230760D01*
X112008741Y-63310243D01*
X112033159Y-63326222D01*
X112039763Y-63328678D01*
X112039765Y-63328679D01*
X112196558Y-63386990D01*
X112196560Y-63386990D01*
X112203168Y-63389448D01*
X112286995Y-63400633D01*
X112375980Y-63412507D01*
X112375984Y-63412507D01*
X112382961Y-63413438D01*
X112389972Y-63412800D01*
X112389976Y-63412800D01*
X112532459Y-63399832D01*
X112563600Y-63396998D01*
X112570302Y-63394820D01*
X112570304Y-63394820D01*
X112729409Y-63343124D01*
X112729412Y-63343123D01*
X112736108Y-63340947D01*
X112891912Y-63248069D01*
X113023266Y-63122982D01*
X113027167Y-63117111D01*
X113029699Y-63114093D01*
X113088808Y-63074766D01*
X113159796Y-63073638D01*
X113220124Y-63111068D01*
X113247126Y-63159613D01*
X113264869Y-63220092D01*
X113269302Y-63231175D01*
X113360619Y-63408478D01*
X113367069Y-63418524D01*
X113490262Y-63575357D01*
X113498499Y-63584006D01*
X113649123Y-63714712D01*
X113658847Y-63721647D01*
X113831467Y-63821510D01*
X113842331Y-63826484D01*
X114030727Y-63891907D01*
X114031716Y-63892148D01*
X114042008Y-63890680D01*
X114046000Y-63877115D01*
X114046000Y-63872902D01*
X114554000Y-63872902D01*
X114557973Y-63886432D01*
X114586938Y-63890596D01*
X114651519Y-63920089D01*
X114689903Y-63979815D01*
X114689903Y-64050812D01*
X114651520Y-64110538D01*
X114641280Y-64118525D01*
X114640805Y-64118858D01*
X114632427Y-64129339D01*
X114639495Y-64142785D01*
X115287188Y-64790478D01*
X115301132Y-64798092D01*
X115302965Y-64797961D01*
X115309580Y-64793710D01*
X115961226Y-64142064D01*
X115967656Y-64130289D01*
X115966921Y-64129339D01*
X119632427Y-64129339D01*
X119639495Y-64142785D01*
X120287188Y-64790478D01*
X120301132Y-64798092D01*
X120302965Y-64797961D01*
X120309580Y-64793710D01*
X120961226Y-64142064D01*
X120967656Y-64130289D01*
X120946651Y-64103139D01*
X120947868Y-64102197D01*
X120937031Y-64088640D01*
X124686463Y-64088640D01*
X124704163Y-64269160D01*
X124761418Y-64441273D01*
X124765065Y-64447295D01*
X124765066Y-64447297D01*
X124824205Y-64544947D01*
X124855380Y-64596424D01*
X124860269Y-64601487D01*
X124860270Y-64601488D01*
X124937121Y-64681068D01*
X124981382Y-64726902D01*
X125006305Y-64743211D01*
X125093088Y-64800000D01*
X125133159Y-64826222D01*
X125139763Y-64828678D01*
X125139765Y-64828679D01*
X125296558Y-64886990D01*
X125296560Y-64886990D01*
X125303168Y-64889448D01*
X125386995Y-64900633D01*
X125475980Y-64912507D01*
X125475984Y-64912507D01*
X125482961Y-64913438D01*
X125489972Y-64912800D01*
X125489976Y-64912800D01*
X125632459Y-64899832D01*
X125663600Y-64896998D01*
X125670302Y-64894820D01*
X125670304Y-64894820D01*
X125829409Y-64843124D01*
X125829412Y-64843123D01*
X125836108Y-64840947D01*
X125923854Y-64788640D01*
X128586463Y-64788640D01*
X128604163Y-64969160D01*
X128661418Y-65141273D01*
X128665065Y-65147295D01*
X128665066Y-65147297D01*
X128682033Y-65175312D01*
X128755380Y-65296424D01*
X128881382Y-65426902D01*
X129033159Y-65526222D01*
X129039763Y-65528678D01*
X129039765Y-65528679D01*
X129196558Y-65586990D01*
X129196560Y-65586990D01*
X129203168Y-65589448D01*
X129286995Y-65600633D01*
X129375980Y-65612507D01*
X129375984Y-65612507D01*
X129382961Y-65613438D01*
X129389972Y-65612800D01*
X129389976Y-65612800D01*
X129532459Y-65599832D01*
X129563600Y-65596998D01*
X129570302Y-65594820D01*
X129570304Y-65594820D01*
X129729409Y-65543124D01*
X129729412Y-65543123D01*
X129736108Y-65540947D01*
X129891912Y-65448069D01*
X130023266Y-65322982D01*
X130123643Y-65171902D01*
X130188055Y-65002338D01*
X130189210Y-64994118D01*
X130212748Y-64826639D01*
X130212748Y-64826636D01*
X130213299Y-64822717D01*
X130213616Y-64800000D01*
X130193397Y-64619745D01*
X130191080Y-64613091D01*
X130136064Y-64455106D01*
X130136062Y-64455103D01*
X130133745Y-64448448D01*
X130037626Y-64294624D01*
X129982961Y-64239576D01*
X129914778Y-64170915D01*
X129914774Y-64170912D01*
X129909815Y-64165918D01*
X129898697Y-64158862D01*
X129822550Y-64110538D01*
X129756666Y-64068727D01*
X129706355Y-64050812D01*
X129592425Y-64010243D01*
X129592420Y-64010242D01*
X129585790Y-64007881D01*
X129578802Y-64007048D01*
X129578799Y-64007047D01*
X129455698Y-63992368D01*
X129405680Y-63986404D01*
X129398677Y-63987140D01*
X129398676Y-63987140D01*
X129232288Y-64004628D01*
X129232286Y-64004629D01*
X129225288Y-64005364D01*
X129053579Y-64063818D01*
X129047575Y-64067512D01*
X128905095Y-64155166D01*
X128905092Y-64155168D01*
X128899088Y-64158862D01*
X128894053Y-64163793D01*
X128894050Y-64163795D01*
X128779630Y-64275844D01*
X128769493Y-64285771D01*
X128671235Y-64438238D01*
X128668826Y-64444858D01*
X128668824Y-64444861D01*
X128611606Y-64602066D01*
X128609197Y-64608685D01*
X128586463Y-64788640D01*
X125923854Y-64788640D01*
X125991912Y-64748069D01*
X126123266Y-64622982D01*
X126223643Y-64471902D01*
X126288055Y-64302338D01*
X126289551Y-64291693D01*
X126312748Y-64126639D01*
X126312748Y-64126636D01*
X126313299Y-64122717D01*
X126313616Y-64100000D01*
X126293397Y-63919745D01*
X126291080Y-63913091D01*
X126236064Y-63755106D01*
X126236062Y-63755103D01*
X126233745Y-63748448D01*
X126223662Y-63732312D01*
X126141359Y-63600598D01*
X126137626Y-63594624D01*
X126118493Y-63575357D01*
X126014778Y-63470915D01*
X126014774Y-63470912D01*
X126009815Y-63465918D01*
X125998697Y-63458862D01*
X125925652Y-63412507D01*
X125856666Y-63368727D01*
X125815007Y-63353893D01*
X125692425Y-63310243D01*
X125692420Y-63310242D01*
X125685790Y-63307881D01*
X125678802Y-63307048D01*
X125678799Y-63307047D01*
X125524431Y-63288640D01*
X126486463Y-63288640D01*
X126504163Y-63469160D01*
X126561418Y-63641273D01*
X126565065Y-63647295D01*
X126565066Y-63647297D01*
X126641754Y-63773924D01*
X126655380Y-63796424D01*
X126781382Y-63926902D01*
X126832323Y-63960237D01*
X126908741Y-64010243D01*
X126933159Y-64026222D01*
X126939763Y-64028678D01*
X126939765Y-64028679D01*
X127096558Y-64086990D01*
X127096560Y-64086990D01*
X127103168Y-64089448D01*
X127182250Y-64100000D01*
X127275980Y-64112507D01*
X127275984Y-64112507D01*
X127282961Y-64113438D01*
X127289972Y-64112800D01*
X127289976Y-64112800D01*
X127432459Y-64099832D01*
X127463600Y-64096998D01*
X127470302Y-64094820D01*
X127470304Y-64094820D01*
X127629409Y-64043124D01*
X127629412Y-64043123D01*
X127636108Y-64040947D01*
X127771500Y-63960237D01*
X127785860Y-63951677D01*
X127785862Y-63951676D01*
X127791912Y-63948069D01*
X127923266Y-63822982D01*
X128023643Y-63671902D01*
X128088055Y-63502338D01*
X128089611Y-63491265D01*
X128112748Y-63326639D01*
X128112748Y-63326636D01*
X128113299Y-63322717D01*
X128113506Y-63307881D01*
X128113561Y-63303962D01*
X128113561Y-63303957D01*
X128113616Y-63300000D01*
X128093397Y-63119745D01*
X128091080Y-63113091D01*
X128036064Y-62955106D01*
X128036062Y-62955103D01*
X128033745Y-62948448D01*
X128022051Y-62929733D01*
X131487822Y-62929733D01*
X131487975Y-62934121D01*
X131487975Y-62934127D01*
X131494962Y-63134188D01*
X131497625Y-63210458D01*
X131498387Y-63214781D01*
X131498388Y-63214788D01*
X131522164Y-63349624D01*
X131546402Y-63487087D01*
X131633203Y-63754235D01*
X131635131Y-63758188D01*
X131635133Y-63758193D01*
X131650842Y-63790401D01*
X131756340Y-64006702D01*
X131758795Y-64010341D01*
X131758798Y-64010347D01*
X131798176Y-64068727D01*
X131913415Y-64239576D01*
X131916360Y-64242847D01*
X131916361Y-64242848D01*
X131969926Y-64302338D01*
X132101371Y-64448322D01*
X132316550Y-64628879D01*
X132554764Y-64777731D01*
X132664613Y-64826639D01*
X132805684Y-64889448D01*
X132811375Y-64891982D01*
X133081390Y-64969407D01*
X133085740Y-64970018D01*
X133085743Y-64970019D01*
X133188690Y-64984487D01*
X133359552Y-65008500D01*
X133570146Y-65008500D01*
X133572332Y-65008347D01*
X133572336Y-65008347D01*
X133775827Y-64994118D01*
X133775832Y-64994117D01*
X133780212Y-64993811D01*
X134054970Y-64935409D01*
X134059099Y-64933906D01*
X134059103Y-64933905D01*
X134314781Y-64840846D01*
X134314785Y-64840844D01*
X134318926Y-64839337D01*
X134566942Y-64707464D01*
X134671896Y-64631211D01*
X134790629Y-64544947D01*
X134790632Y-64544944D01*
X134794192Y-64542358D01*
X134797528Y-64539137D01*
X134993087Y-64350287D01*
X134996252Y-64347231D01*
X135169188Y-64125882D01*
X135171384Y-64122078D01*
X135171389Y-64122071D01*
X135304134Y-63892148D01*
X135309636Y-63882619D01*
X135414862Y-63622176D01*
X135422462Y-63591693D01*
X135481753Y-63353893D01*
X135481754Y-63353888D01*
X135482817Y-63349624D01*
X135483501Y-63343124D01*
X135511719Y-63074636D01*
X135511719Y-63074633D01*
X135512178Y-63070267D01*
X135511177Y-63041589D01*
X135502529Y-62793939D01*
X135502528Y-62793933D01*
X135502375Y-62789542D01*
X135500842Y-62780843D01*
X135454360Y-62517236D01*
X135453598Y-62512913D01*
X135366797Y-62245765D01*
X135243660Y-61993298D01*
X135241205Y-61989659D01*
X135241202Y-61989653D01*
X135159636Y-61868727D01*
X135086585Y-61760424D01*
X134898629Y-61551678D01*
X134683450Y-61371121D01*
X134445236Y-61222269D01*
X134260696Y-61140106D01*
X134192639Y-61109805D01*
X134192637Y-61109804D01*
X134188625Y-61108018D01*
X133993607Y-61052098D01*
X133922837Y-61031805D01*
X133922836Y-61031805D01*
X133918610Y-61030593D01*
X133914260Y-61029982D01*
X133914257Y-61029981D01*
X133811310Y-61015513D01*
X133640448Y-60991500D01*
X133429854Y-60991500D01*
X133427668Y-60991653D01*
X133427664Y-60991653D01*
X133224173Y-61005882D01*
X133224168Y-61005883D01*
X133219788Y-61006189D01*
X132945030Y-61064591D01*
X132940901Y-61066094D01*
X132940897Y-61066095D01*
X132685219Y-61159154D01*
X132685215Y-61159156D01*
X132681074Y-61160663D01*
X132433058Y-61292536D01*
X132429499Y-61295122D01*
X132429497Y-61295123D01*
X132216482Y-61449887D01*
X132205808Y-61457642D01*
X132202644Y-61460698D01*
X132202641Y-61460700D01*
X132144836Y-61516522D01*
X132003748Y-61652769D01*
X131885103Y-61804628D01*
X131836872Y-61866362D01*
X131830812Y-61874118D01*
X131828616Y-61877922D01*
X131828611Y-61877929D01*
X131734365Y-62041169D01*
X131690364Y-62117381D01*
X131585138Y-62377824D01*
X131584073Y-62382097D01*
X131584072Y-62382099D01*
X131532576Y-62588640D01*
X131517183Y-62650376D01*
X131516724Y-62654744D01*
X131516723Y-62654749D01*
X131489191Y-62916709D01*
X131487822Y-62929733D01*
X128022051Y-62929733D01*
X128019321Y-62925364D01*
X127941359Y-62800598D01*
X127937626Y-62794624D01*
X127932664Y-62789627D01*
X127814778Y-62670915D01*
X127814774Y-62670912D01*
X127809815Y-62665918D01*
X127798697Y-62658862D01*
X127741741Y-62622717D01*
X127656666Y-62568727D01*
X127627463Y-62558328D01*
X127492425Y-62510243D01*
X127492420Y-62510242D01*
X127485790Y-62507881D01*
X127478802Y-62507048D01*
X127478799Y-62507047D01*
X127355698Y-62492368D01*
X127305680Y-62486404D01*
X127298677Y-62487140D01*
X127298676Y-62487140D01*
X127132288Y-62504628D01*
X127132286Y-62504629D01*
X127125288Y-62505364D01*
X126953579Y-62563818D01*
X126947575Y-62567512D01*
X126805095Y-62655166D01*
X126805092Y-62655168D01*
X126799088Y-62658862D01*
X126794053Y-62663793D01*
X126794050Y-62663795D01*
X126679630Y-62775844D01*
X126669493Y-62785771D01*
X126571235Y-62938238D01*
X126568826Y-62944858D01*
X126568824Y-62944861D01*
X126511606Y-63102066D01*
X126509197Y-63108685D01*
X126486463Y-63288640D01*
X125524431Y-63288640D01*
X125505680Y-63286404D01*
X125498677Y-63287140D01*
X125498676Y-63287140D01*
X125332288Y-63304628D01*
X125332286Y-63304629D01*
X125325288Y-63305364D01*
X125153579Y-63363818D01*
X125147575Y-63367512D01*
X125005095Y-63455166D01*
X125005092Y-63455168D01*
X124999088Y-63458862D01*
X124994053Y-63463793D01*
X124994050Y-63463795D01*
X124880127Y-63575357D01*
X124869493Y-63585771D01*
X124771235Y-63738238D01*
X124768826Y-63744858D01*
X124768824Y-63744861D01*
X124713594Y-63896605D01*
X124709197Y-63908685D01*
X124686463Y-64088640D01*
X120937031Y-64088640D01*
X120919390Y-64066570D01*
X120912080Y-63995951D01*
X120944111Y-63932590D01*
X121005312Y-63896605D01*
X121018201Y-63894075D01*
X121042008Y-63890680D01*
X121046000Y-63877115D01*
X121046000Y-63872902D01*
X121554000Y-63872902D01*
X121557973Y-63886433D01*
X121567399Y-63887788D01*
X121656537Y-63866306D01*
X121667832Y-63862417D01*
X121849382Y-63779871D01*
X121859724Y-63773924D01*
X122022397Y-63658532D01*
X122031425Y-63650739D01*
X122169342Y-63506669D01*
X122176738Y-63497304D01*
X122284921Y-63329759D01*
X122290417Y-63319155D01*
X122364961Y-63134188D01*
X122368355Y-63122730D01*
X122406857Y-62925572D01*
X122407934Y-62916709D01*
X122408000Y-62914000D01*
X122408000Y-62734615D01*
X122403525Y-62719376D01*
X122402135Y-62718171D01*
X122394452Y-62716500D01*
X121572115Y-62716500D01*
X121556876Y-62720975D01*
X121555671Y-62722365D01*
X121554000Y-62730048D01*
X121554000Y-63872902D01*
X121046000Y-63872902D01*
X121046000Y-62734615D01*
X121041525Y-62719376D01*
X121040135Y-62718171D01*
X121032452Y-62716500D01*
X120210115Y-62716500D01*
X120194876Y-62720975D01*
X120193671Y-62722365D01*
X120192000Y-62730048D01*
X120192000Y-62862332D01*
X120192285Y-62868308D01*
X120206471Y-63016994D01*
X120208730Y-63028728D01*
X120264872Y-63220099D01*
X120269302Y-63231175D01*
X120360619Y-63408478D01*
X120367069Y-63418524D01*
X120490262Y-63575357D01*
X120498499Y-63584006D01*
X120649123Y-63714712D01*
X120658847Y-63721647D01*
X120672032Y-63729275D01*
X120720981Y-63780700D01*
X120734356Y-63850426D01*
X120707911Y-63916314D01*
X120650043Y-63957445D01*
X120576326Y-63960046D01*
X120520241Y-63945018D01*
X120509446Y-63943115D01*
X120305475Y-63925269D01*
X120294525Y-63925269D01*
X120090554Y-63943115D01*
X120079759Y-63945018D01*
X119881988Y-63998010D01*
X119871696Y-64001756D01*
X119686132Y-64088286D01*
X119676637Y-64093769D01*
X119640803Y-64118860D01*
X119632427Y-64129339D01*
X115966921Y-64129339D01*
X115958360Y-64118274D01*
X115923363Y-64093769D01*
X115913868Y-64088286D01*
X115728304Y-64001756D01*
X115718012Y-63998010D01*
X115520241Y-63945018D01*
X115509446Y-63943115D01*
X115305475Y-63925269D01*
X115294525Y-63925269D01*
X115090554Y-63943115D01*
X115079762Y-63945018D01*
X115016656Y-63961927D01*
X114945679Y-63960237D01*
X114886883Y-63920443D01*
X114858935Y-63855179D01*
X114870708Y-63785165D01*
X114911144Y-63737451D01*
X115022390Y-63658538D01*
X115031425Y-63650739D01*
X115169342Y-63506669D01*
X115176738Y-63497304D01*
X115284921Y-63329759D01*
X115290417Y-63319155D01*
X115364961Y-63134188D01*
X115368355Y-63122730D01*
X115406857Y-62925572D01*
X115407934Y-62916709D01*
X115408000Y-62914000D01*
X115408000Y-62734615D01*
X115403525Y-62719376D01*
X115402135Y-62718171D01*
X115394452Y-62716500D01*
X114572115Y-62716500D01*
X114556876Y-62720975D01*
X114555671Y-62722365D01*
X114554000Y-62730048D01*
X114554000Y-63872902D01*
X114046000Y-63872902D01*
X114046000Y-62190385D01*
X114554000Y-62190385D01*
X114558475Y-62205624D01*
X114559865Y-62206829D01*
X114567548Y-62208500D01*
X115389885Y-62208500D01*
X115405124Y-62204025D01*
X115406329Y-62202635D01*
X115408000Y-62194952D01*
X115408000Y-62190385D01*
X120192000Y-62190385D01*
X120196475Y-62205624D01*
X120197865Y-62206829D01*
X120205548Y-62208500D01*
X121027885Y-62208500D01*
X121043124Y-62204025D01*
X121044329Y-62202635D01*
X121046000Y-62194952D01*
X121046000Y-62190385D01*
X121554000Y-62190385D01*
X121558475Y-62205624D01*
X121559865Y-62206829D01*
X121567548Y-62208500D01*
X122389885Y-62208500D01*
X122405124Y-62204025D01*
X122406329Y-62202635D01*
X122408000Y-62194952D01*
X122408000Y-62062668D01*
X122407715Y-62056692D01*
X122393529Y-61908006D01*
X122391270Y-61896272D01*
X122335128Y-61704901D01*
X122330698Y-61693825D01*
X122276524Y-61588640D01*
X124486463Y-61588640D01*
X124504163Y-61769160D01*
X124561418Y-61941273D01*
X124565065Y-61947295D01*
X124565066Y-61947297D01*
X124640197Y-62071353D01*
X124655380Y-62096424D01*
X124781382Y-62226902D01*
X124933159Y-62326222D01*
X124939763Y-62328678D01*
X124939765Y-62328679D01*
X125096558Y-62386990D01*
X125096560Y-62386990D01*
X125103168Y-62389448D01*
X125186995Y-62400633D01*
X125275980Y-62412507D01*
X125275984Y-62412507D01*
X125282961Y-62413438D01*
X125289972Y-62412800D01*
X125289976Y-62412800D01*
X125432459Y-62399832D01*
X125463600Y-62396998D01*
X125470302Y-62394820D01*
X125470304Y-62394820D01*
X125629409Y-62343124D01*
X125629412Y-62343123D01*
X125636108Y-62340947D01*
X125791912Y-62248069D01*
X125923266Y-62122982D01*
X126023643Y-61971902D01*
X126088055Y-61802338D01*
X126090191Y-61787140D01*
X126112748Y-61626639D01*
X126112748Y-61626636D01*
X126113299Y-61622717D01*
X126113452Y-61611738D01*
X126113561Y-61603962D01*
X126113561Y-61603957D01*
X126113616Y-61600000D01*
X126093397Y-61419745D01*
X126091080Y-61413091D01*
X126036064Y-61255106D01*
X126036062Y-61255103D01*
X126033745Y-61248448D01*
X125978891Y-61160663D01*
X125941359Y-61100598D01*
X125937626Y-61094624D01*
X125915062Y-61071902D01*
X125814778Y-60970915D01*
X125814774Y-60970912D01*
X125809815Y-60965918D01*
X125798697Y-60958862D01*
X125720000Y-60908920D01*
X125656666Y-60868727D01*
X125627463Y-60858328D01*
X125492425Y-60810243D01*
X125492420Y-60810242D01*
X125485790Y-60807881D01*
X125478802Y-60807048D01*
X125478799Y-60807047D01*
X125338470Y-60790314D01*
X125305680Y-60786404D01*
X125298677Y-60787140D01*
X125298676Y-60787140D01*
X125132288Y-60804628D01*
X125132286Y-60804629D01*
X125125288Y-60805364D01*
X124953579Y-60863818D01*
X124947575Y-60867512D01*
X124805095Y-60955166D01*
X124805092Y-60955168D01*
X124799088Y-60958862D01*
X124794053Y-60963793D01*
X124794050Y-60963795D01*
X124677660Y-61077773D01*
X124669493Y-61085771D01*
X124571235Y-61238238D01*
X124568826Y-61244858D01*
X124568824Y-61244861D01*
X124529946Y-61351677D01*
X124509197Y-61408685D01*
X124486463Y-61588640D01*
X122276524Y-61588640D01*
X122239381Y-61516522D01*
X122232931Y-61506476D01*
X122109738Y-61349643D01*
X122101501Y-61340994D01*
X121950877Y-61210288D01*
X121941153Y-61203353D01*
X121768533Y-61103490D01*
X121757669Y-61098516D01*
X121569273Y-61033093D01*
X121568284Y-61032852D01*
X121557992Y-61034320D01*
X121554000Y-61047885D01*
X121554000Y-62190385D01*
X121046000Y-62190385D01*
X121046000Y-61052098D01*
X121042027Y-61038567D01*
X121032601Y-61037212D01*
X120943463Y-61058694D01*
X120932168Y-61062583D01*
X120750618Y-61145129D01*
X120740276Y-61151076D01*
X120577603Y-61266468D01*
X120568575Y-61274261D01*
X120430658Y-61418331D01*
X120423262Y-61427696D01*
X120315079Y-61595241D01*
X120309583Y-61605845D01*
X120235039Y-61790812D01*
X120231645Y-61802270D01*
X120193143Y-61999428D01*
X120192066Y-62008291D01*
X120192000Y-62011000D01*
X120192000Y-62190385D01*
X115408000Y-62190385D01*
X115408000Y-62062668D01*
X115407715Y-62056692D01*
X115393529Y-61908006D01*
X115391270Y-61896272D01*
X115335128Y-61704901D01*
X115330698Y-61693825D01*
X115239381Y-61516522D01*
X115232931Y-61506476D01*
X115109738Y-61349643D01*
X115101501Y-61340994D01*
X114950877Y-61210288D01*
X114941153Y-61203353D01*
X114768533Y-61103490D01*
X114757669Y-61098516D01*
X114569273Y-61033093D01*
X114568284Y-61032852D01*
X114557992Y-61034320D01*
X114554000Y-61047885D01*
X114554000Y-62190385D01*
X114046000Y-62190385D01*
X114046000Y-61052098D01*
X114042027Y-61038567D01*
X114032601Y-61037212D01*
X113943463Y-61058694D01*
X113932168Y-61062583D01*
X113750618Y-61145129D01*
X113740276Y-61151076D01*
X113577603Y-61266468D01*
X113568575Y-61274261D01*
X113430658Y-61418331D01*
X113423262Y-61427696D01*
X113315079Y-61595241D01*
X113309583Y-61605845D01*
X113235039Y-61790812D01*
X113231645Y-61802270D01*
X113197613Y-61976535D01*
X113164925Y-62039559D01*
X113103353Y-62074906D01*
X113032446Y-62071353D01*
X112984543Y-62041169D01*
X112914778Y-61970915D01*
X112914774Y-61970912D01*
X112909815Y-61965918D01*
X112898697Y-61958862D01*
X112800070Y-61896272D01*
X112756666Y-61868727D01*
X112681355Y-61841910D01*
X112592425Y-61810243D01*
X112592420Y-61810242D01*
X112585790Y-61807881D01*
X112578802Y-61807048D01*
X112578799Y-61807047D01*
X112442646Y-61790812D01*
X112405680Y-61786404D01*
X112398677Y-61787140D01*
X112398676Y-61787140D01*
X112232288Y-61804628D01*
X112232286Y-61804629D01*
X112225288Y-61805364D01*
X112053579Y-61863818D01*
X112047575Y-61867512D01*
X111905095Y-61955166D01*
X111905092Y-61955168D01*
X111899088Y-61958862D01*
X111894053Y-61963793D01*
X111894050Y-61963795D01*
X111816683Y-62039559D01*
X111769493Y-62085771D01*
X111671235Y-62238238D01*
X111668826Y-62244858D01*
X111668824Y-62244861D01*
X111613451Y-62396998D01*
X111609197Y-62408685D01*
X111586463Y-62588640D01*
X104966951Y-62588640D01*
X104954360Y-62517236D01*
X104953598Y-62512913D01*
X104866797Y-62245765D01*
X104743660Y-61993298D01*
X104741205Y-61989659D01*
X104741202Y-61989653D01*
X104659636Y-61868727D01*
X104586585Y-61760424D01*
X104398629Y-61551678D01*
X104183450Y-61371121D01*
X103945236Y-61222269D01*
X103760696Y-61140106D01*
X103692639Y-61109805D01*
X103692637Y-61109804D01*
X103688625Y-61108018D01*
X103493607Y-61052098D01*
X103422837Y-61031805D01*
X103422836Y-61031805D01*
X103418610Y-61030593D01*
X103414260Y-61029982D01*
X103414257Y-61029981D01*
X103311310Y-61015513D01*
X103140448Y-60991500D01*
X102929854Y-60991500D01*
X102927668Y-60991653D01*
X102927664Y-60991653D01*
X102724173Y-61005882D01*
X102724168Y-61005883D01*
X102719788Y-61006189D01*
X102445030Y-61064591D01*
X102440901Y-61066094D01*
X102440897Y-61066095D01*
X102185219Y-61159154D01*
X102185215Y-61159156D01*
X102181074Y-61160663D01*
X101933058Y-61292536D01*
X101929499Y-61295122D01*
X101929497Y-61295123D01*
X101716482Y-61449887D01*
X101705808Y-61457642D01*
X101702644Y-61460698D01*
X101702641Y-61460700D01*
X101644836Y-61516522D01*
X101503748Y-61652769D01*
X101385103Y-61804628D01*
X101336872Y-61866362D01*
X101330812Y-61874118D01*
X101328616Y-61877922D01*
X101328611Y-61877929D01*
X101234365Y-62041169D01*
X101190364Y-62117381D01*
X101085138Y-62377824D01*
X101084073Y-62382097D01*
X101084072Y-62382099D01*
X101032576Y-62588640D01*
X101017183Y-62650376D01*
X101016724Y-62654744D01*
X101016723Y-62654749D01*
X100989191Y-62916709D01*
X100987822Y-62929733D01*
X100512251Y-62929733D01*
X100525710Y-62707230D01*
X100527544Y-62692126D01*
X100559593Y-62517236D01*
X100579040Y-62411121D01*
X100582679Y-62396353D01*
X100584541Y-62390380D01*
X100667675Y-62123592D01*
X100673070Y-62109370D01*
X100790316Y-61848860D01*
X100797385Y-61835391D01*
X100945182Y-61590905D01*
X100953825Y-61578383D01*
X101130016Y-61353493D01*
X101140106Y-61342105D01*
X101342105Y-61140106D01*
X101353493Y-61130016D01*
X101578383Y-60953825D01*
X101590905Y-60945182D01*
X101835391Y-60797385D01*
X101848860Y-60790316D01*
X102109373Y-60673069D01*
X102123592Y-60667675D01*
X102396359Y-60582678D01*
X102411121Y-60579040D01*
X102621352Y-60540514D01*
X102692126Y-60527544D01*
X102707230Y-60525710D01*
X102957929Y-60510545D01*
X102984639Y-60511802D01*
X102984859Y-60511805D01*
X102993730Y-60513186D01*
X103002632Y-60512022D01*
X103002635Y-60512022D01*
X103025251Y-60509064D01*
X103041589Y-60508000D01*
X105666365Y-60508000D01*
X105734486Y-60528002D01*
G37*
%TD.AperFunction*%
%TD*%
M02*
