%TF.GenerationSoftware,KiCad,Pcbnew,(6.0.0)*%
%TF.CreationDate,2022-05-23T22:47:49+07:00*%
%TF.ProjectId,MINI-FC,4d494e49-2d46-4432-9e6b-696361645f70,rev?*%
%TF.SameCoordinates,Original*%
%TF.FileFunction,Soldermask,Bot*%
%TF.FilePolarity,Negative*%
%FSLAX46Y46*%
G04 Gerber Fmt 4.6, Leading zero omitted, Abs format (unit mm)*
G04 Created by KiCad (PCBNEW (6.0.0)) date 2022-05-23 22:47:49*
%MOMM*%
%LPD*%
G01*
G04 APERTURE LIST*
G04 Aperture macros list*
%AMRoundRect*
0 Rectangle with rounded corners*
0 $1 Rounding radius*
0 $2 $3 $4 $5 $6 $7 $8 $9 X,Y pos of 4 corners*
0 Add a 4 corners polygon primitive as box body*
4,1,4,$2,$3,$4,$5,$6,$7,$8,$9,$2,$3,0*
0 Add four circle primitives for the rounded corners*
1,1,$1+$1,$2,$3*
1,1,$1+$1,$4,$5*
1,1,$1+$1,$6,$7*
1,1,$1+$1,$8,$9*
0 Add four rect primitives between the rounded corners*
20,1,$1+$1,$2,$3,$4,$5,0*
20,1,$1+$1,$4,$5,$6,$7,0*
20,1,$1+$1,$6,$7,$8,$9,0*
20,1,$1+$1,$8,$9,$2,$3,0*%
G04 Aperture macros list end*
%ADD10C,3.000000*%
%ADD11R,1.700000X1.700000*%
%ADD12O,1.700000X1.700000*%
%ADD13C,1.450000*%
%ADD14O,1.200000X1.900000*%
%ADD15RoundRect,0.225000X-0.250000X0.225000X-0.250000X-0.225000X0.250000X-0.225000X0.250000X0.225000X0*%
%ADD16RoundRect,0.200000X0.275000X-0.200000X0.275000X0.200000X-0.275000X0.200000X-0.275000X-0.200000X0*%
%ADD17RoundRect,0.200000X-0.200000X-0.275000X0.200000X-0.275000X0.200000X0.275000X-0.200000X0.275000X0*%
%ADD18RoundRect,0.250000X0.475000X-0.250000X0.475000X0.250000X-0.475000X0.250000X-0.475000X-0.250000X0*%
%ADD19RoundRect,0.200000X-0.275000X0.200000X-0.275000X-0.200000X0.275000X-0.200000X0.275000X0.200000X0*%
%ADD20R,1.200000X1.400000*%
%ADD21RoundRect,0.225000X0.225000X0.250000X-0.225000X0.250000X-0.225000X-0.250000X0.225000X-0.250000X0*%
%ADD22RoundRect,0.225000X0.250000X-0.225000X0.250000X0.225000X-0.250000X0.225000X-0.250000X-0.225000X0*%
%ADD23RoundRect,0.225000X-0.225000X-0.250000X0.225000X-0.250000X0.225000X0.250000X-0.225000X0.250000X0*%
G04 APERTURE END LIST*
D10*
%TO.C,REF\u002A\u002A*%
X133500000Y-93500000D03*
%TD*%
D11*
%TO.C,PWR1*%
X125875000Y-92125000D03*
D12*
X125875000Y-94665000D03*
X123335000Y-92125000D03*
X123335000Y-94665000D03*
X120795000Y-92125000D03*
X120795000Y-94665000D03*
X118255000Y-92125000D03*
X118255000Y-94665000D03*
X115715000Y-92125000D03*
X115715000Y-94665000D03*
X113175000Y-92125000D03*
X113175000Y-94665000D03*
X110635000Y-92125000D03*
X110635000Y-94665000D03*
%TD*%
D10*
%TO.C,REF\u002A\u002A*%
X133500000Y-63000000D03*
%TD*%
%TO.C,REF\u002A\u002A*%
X103000000Y-63000000D03*
%TD*%
%TO.C,REF\u002A\u002A*%
X103000000Y-93500000D03*
%TD*%
D11*
%TO.C,PWM_SIG1*%
X110600000Y-89450000D03*
D12*
X113140000Y-89450000D03*
X115680000Y-89450000D03*
X118220000Y-89450000D03*
X120760000Y-89450000D03*
X123300000Y-89450000D03*
%TD*%
D13*
%TO.C,J1*%
X120300000Y-65162500D03*
X115300000Y-65162500D03*
D14*
X114300000Y-62462500D03*
X121300000Y-62462500D03*
%TD*%
D15*
%TO.C,C13*%
X108000000Y-71925000D03*
X108000000Y-73475000D03*
%TD*%
D16*
%TO.C,R3*%
X109125000Y-82125000D03*
X109125000Y-80475000D03*
%TD*%
D17*
%TO.C,R7*%
X123650000Y-76000000D03*
X125300000Y-76000000D03*
%TD*%
D16*
%TO.C,R9*%
X113000000Y-79850000D03*
X113000000Y-78200000D03*
%TD*%
D18*
%TO.C,C1*%
X109500000Y-76450000D03*
X109500000Y-74550000D03*
%TD*%
D19*
%TO.C,R12*%
X118000000Y-67450000D03*
X118000000Y-69100000D03*
%TD*%
D16*
%TO.C,R10*%
X114500000Y-79850000D03*
X114500000Y-78200000D03*
%TD*%
D20*
%TO.C,Y1*%
X107425000Y-79900000D03*
X107425000Y-82100000D03*
X105725000Y-82100000D03*
X105725000Y-79900000D03*
%TD*%
D19*
%TO.C,R14*%
X116100000Y-75100000D03*
X116100000Y-76750000D03*
%TD*%
D21*
%TO.C,C7*%
X107400000Y-78100000D03*
X105850000Y-78100000D03*
%TD*%
D16*
%TO.C,R11*%
X111600000Y-67525000D03*
X111600000Y-65875000D03*
%TD*%
D15*
%TO.C,C4*%
X121200000Y-76925000D03*
X121200000Y-78475000D03*
%TD*%
D22*
%TO.C,C2*%
X111300000Y-76400000D03*
X111300000Y-74850000D03*
%TD*%
D19*
%TO.C,R2*%
X114500000Y-71850000D03*
X114500000Y-73500000D03*
%TD*%
D21*
%TO.C,C3*%
X107400000Y-76000000D03*
X105850000Y-76000000D03*
%TD*%
D23*
%TO.C,C12*%
X123725000Y-79500000D03*
X125275000Y-79500000D03*
%TD*%
D17*
%TO.C,R8*%
X124375000Y-84000000D03*
X126025000Y-84000000D03*
%TD*%
D15*
%TO.C,C11*%
X110100000Y-65925000D03*
X110100000Y-67475000D03*
%TD*%
D21*
%TO.C,C5*%
X119375000Y-87000000D03*
X117825000Y-87000000D03*
%TD*%
D15*
%TO.C,C15*%
X119200000Y-71850000D03*
X119200000Y-73400000D03*
%TD*%
%TO.C,C14*%
X116400000Y-67500000D03*
X116400000Y-69050000D03*
%TD*%
D16*
%TO.C,R13*%
X119600000Y-69100000D03*
X119600000Y-67450000D03*
%TD*%
%TO.C,R15*%
X117600000Y-76750000D03*
X117600000Y-75100000D03*
%TD*%
D23*
%TO.C,C8*%
X105750000Y-83900000D03*
X107300000Y-83900000D03*
%TD*%
D22*
%TO.C,C6*%
X113400000Y-83100000D03*
X113400000Y-81550000D03*
%TD*%
%TO.C,C10*%
X108000000Y-70250000D03*
X108000000Y-68700000D03*
%TD*%
D21*
%TO.C,C9*%
X114650000Y-67500000D03*
X113100000Y-67500000D03*
%TD*%
M02*
