%TF.GenerationSoftware,KiCad,Pcbnew,(6.0.0)*%
%TF.CreationDate,2022-03-02T14:27:29+07:00*%
%TF.ProjectId,FC-32,46432d33-322e-46b6-9963-61645f706362,rev?*%
%TF.SameCoordinates,Original*%
%TF.FileFunction,Legend,Bot*%
%TF.FilePolarity,Positive*%
%FSLAX46Y46*%
G04 Gerber Fmt 4.6, Leading zero omitted, Abs format (unit mm)*
G04 Created by KiCad (PCBNEW (6.0.0)) date 2022-03-02 14:27:29*
%MOMM*%
%LPD*%
G01*
G04 APERTURE LIST*
%ADD10C,0.150000*%
%ADD11C,0.120000*%
%ADD12C,0.127000*%
G04 APERTURE END LIST*
D10*
X180861904Y-113352380D02*
X180861904Y-112352380D01*
X180480952Y-112352380D01*
X180385714Y-112400000D01*
X180338095Y-112447619D01*
X180290476Y-112542857D01*
X180290476Y-112685714D01*
X180338095Y-112780952D01*
X180385714Y-112828571D01*
X180480952Y-112876190D01*
X180861904Y-112876190D01*
X179957142Y-112352380D02*
X179719047Y-113352380D01*
X179528571Y-112638095D01*
X179338095Y-113352380D01*
X179100000Y-112352380D01*
X178719047Y-113352380D02*
X178719047Y-112352380D01*
X178385714Y-113066666D01*
X178052380Y-112352380D01*
X178052380Y-113352380D01*
X177814285Y-113447619D02*
X177052380Y-113447619D01*
X176623809Y-112352380D02*
X176528571Y-112352380D01*
X176433333Y-112400000D01*
X176385714Y-112447619D01*
X176338095Y-112542857D01*
X176290476Y-112733333D01*
X176290476Y-112971428D01*
X176338095Y-113161904D01*
X176385714Y-113257142D01*
X176433333Y-113304761D01*
X176528571Y-113352380D01*
X176623809Y-113352380D01*
X176719047Y-113304761D01*
X176766666Y-113257142D01*
X176814285Y-113161904D01*
X176861904Y-112971428D01*
X176861904Y-112733333D01*
X176814285Y-112542857D01*
X176766666Y-112447619D01*
X176719047Y-112400000D01*
X176623809Y-112352380D01*
X180861904Y-110452380D02*
X180861904Y-109452380D01*
X180480952Y-109452380D01*
X180385714Y-109500000D01*
X180338095Y-109547619D01*
X180290476Y-109642857D01*
X180290476Y-109785714D01*
X180338095Y-109880952D01*
X180385714Y-109928571D01*
X180480952Y-109976190D01*
X180861904Y-109976190D01*
X179861904Y-110452380D02*
X179861904Y-109452380D01*
X179528571Y-110166666D01*
X179195238Y-109452380D01*
X179195238Y-110452380D01*
X178814285Y-109452380D02*
X178576190Y-110452380D01*
X178385714Y-109738095D01*
X178195238Y-110452380D01*
X177957142Y-109452380D01*
X177814285Y-110547619D02*
X177052380Y-110547619D01*
X176290476Y-110452380D02*
X176861904Y-110452380D01*
X176576190Y-110452380D02*
X176576190Y-109452380D01*
X176671428Y-109595238D01*
X176766666Y-109690476D01*
X176861904Y-109738095D01*
X149366666Y-134109523D02*
X149366666Y-134585714D01*
X149652380Y-134014285D02*
X148652380Y-134347619D01*
X149652380Y-134680952D01*
X149652380Y-135538095D02*
X149652380Y-134966666D01*
X149652380Y-135252380D02*
X148652380Y-135252380D01*
X148795238Y-135157142D01*
X148890476Y-135061904D01*
X148938095Y-134966666D01*
X148652380Y-136157142D02*
X148652380Y-136252380D01*
X148700000Y-136347619D01*
X148747619Y-136395238D01*
X148842857Y-136442857D01*
X149033333Y-136490476D01*
X149271428Y-136490476D01*
X149461904Y-136442857D01*
X149557142Y-136395238D01*
X149604761Y-136347619D01*
X149652380Y-136252380D01*
X149652380Y-136157142D01*
X149604761Y-136061904D01*
X149557142Y-136014285D01*
X149461904Y-135966666D01*
X149271428Y-135919047D01*
X149033333Y-135919047D01*
X148842857Y-135966666D01*
X148747619Y-136014285D01*
X148700000Y-136061904D01*
X148652380Y-136157142D01*
X155666666Y-134209523D02*
X155666666Y-134685714D01*
X155952380Y-134114285D02*
X154952380Y-134447619D01*
X155952380Y-134780952D01*
X155952380Y-135638095D02*
X155952380Y-135066666D01*
X155952380Y-135352380D02*
X154952380Y-135352380D01*
X155095238Y-135257142D01*
X155190476Y-135161904D01*
X155238095Y-135066666D01*
X154952380Y-135971428D02*
X154952380Y-136590476D01*
X155333333Y-136257142D01*
X155333333Y-136400000D01*
X155380952Y-136495238D01*
X155428571Y-136542857D01*
X155523809Y-136590476D01*
X155761904Y-136590476D01*
X155857142Y-136542857D01*
X155904761Y-136495238D01*
X155952380Y-136400000D01*
X155952380Y-136114285D01*
X155904761Y-136019047D01*
X155857142Y-135971428D01*
X135461904Y-128300000D02*
X135557142Y-128252380D01*
X135700000Y-128252380D01*
X135842857Y-128300000D01*
X135938095Y-128395238D01*
X135985714Y-128490476D01*
X136033333Y-128680952D01*
X136033333Y-128823809D01*
X135985714Y-129014285D01*
X135938095Y-129109523D01*
X135842857Y-129204761D01*
X135700000Y-129252380D01*
X135604761Y-129252380D01*
X135461904Y-129204761D01*
X135414285Y-129157142D01*
X135414285Y-128823809D01*
X135604761Y-128823809D01*
X134985714Y-129252380D02*
X134985714Y-128252380D01*
X134414285Y-129252380D01*
X134414285Y-128252380D01*
X133938095Y-129252380D02*
X133938095Y-128252380D01*
X133700000Y-128252380D01*
X133557142Y-128300000D01*
X133461904Y-128395238D01*
X133414285Y-128490476D01*
X133366666Y-128680952D01*
X133366666Y-128823809D01*
X133414285Y-129014285D01*
X133461904Y-129109523D01*
X133557142Y-129204761D01*
X133700000Y-129252380D01*
X133938095Y-129252380D01*
X175600000Y-134938095D02*
X175552380Y-134842857D01*
X175552380Y-134700000D01*
X175600000Y-134557142D01*
X175695238Y-134461904D01*
X175790476Y-134414285D01*
X175980952Y-134366666D01*
X176123809Y-134366666D01*
X176314285Y-134414285D01*
X176409523Y-134461904D01*
X176504761Y-134557142D01*
X176552380Y-134700000D01*
X176552380Y-134795238D01*
X176504761Y-134938095D01*
X176457142Y-134985714D01*
X176123809Y-134985714D01*
X176123809Y-134795238D01*
X176552380Y-135414285D02*
X175552380Y-135414285D01*
X176552380Y-135985714D01*
X175552380Y-135985714D01*
X176552380Y-136461904D02*
X175552380Y-136461904D01*
X175552380Y-136700000D01*
X175600000Y-136842857D01*
X175695238Y-136938095D01*
X175790476Y-136985714D01*
X175980952Y-137033333D01*
X176123809Y-137033333D01*
X176314285Y-136985714D01*
X176409523Y-136938095D01*
X176504761Y-136842857D01*
X176552380Y-136700000D01*
X176552380Y-136461904D01*
X180861904Y-100252380D02*
X180861904Y-99252380D01*
X180480952Y-99252380D01*
X180385714Y-99300000D01*
X180338095Y-99347619D01*
X180290476Y-99442857D01*
X180290476Y-99585714D01*
X180338095Y-99680952D01*
X180385714Y-99728571D01*
X180480952Y-99776190D01*
X180861904Y-99776190D01*
X179957142Y-99252380D02*
X179719047Y-100252380D01*
X179528571Y-99538095D01*
X179338095Y-100252380D01*
X179100000Y-99252380D01*
X178719047Y-100252380D02*
X178719047Y-99252380D01*
X178385714Y-99966666D01*
X178052380Y-99252380D01*
X178052380Y-100252380D01*
X177814285Y-100347619D02*
X177052380Y-100347619D01*
X176338095Y-99252380D02*
X176814285Y-99252380D01*
X176861904Y-99728571D01*
X176814285Y-99680952D01*
X176719047Y-99633333D01*
X176480952Y-99633333D01*
X176385714Y-99680952D01*
X176338095Y-99728571D01*
X176290476Y-99823809D01*
X176290476Y-100061904D01*
X176338095Y-100157142D01*
X176385714Y-100204761D01*
X176480952Y-100252380D01*
X176719047Y-100252380D01*
X176814285Y-100204761D01*
X176861904Y-100157142D01*
X177552380Y-134909523D02*
X177552380Y-134433333D01*
X178028571Y-134385714D01*
X177980952Y-134433333D01*
X177933333Y-134528571D01*
X177933333Y-134766666D01*
X177980952Y-134861904D01*
X178028571Y-134909523D01*
X178123809Y-134957142D01*
X178361904Y-134957142D01*
X178457142Y-134909523D01*
X178504761Y-134861904D01*
X178552380Y-134766666D01*
X178552380Y-134528571D01*
X178504761Y-134433333D01*
X178457142Y-134385714D01*
X177552380Y-135242857D02*
X178552380Y-135576190D01*
X177552380Y-135909523D01*
X181052380Y-118552380D02*
X180480952Y-118552380D01*
X180766666Y-119552380D02*
X180766666Y-118552380D01*
X180147619Y-119552380D02*
X180147619Y-118552380D01*
X179671428Y-119552380D02*
X179671428Y-118552380D01*
X179338095Y-119266666D01*
X179004761Y-118552380D01*
X179004761Y-119552380D01*
X178052380Y-118552380D02*
X178528571Y-118552380D01*
X178576190Y-119028571D01*
X178528571Y-118980952D01*
X178433333Y-118933333D01*
X178195238Y-118933333D01*
X178100000Y-118980952D01*
X178052380Y-119028571D01*
X178004761Y-119123809D01*
X178004761Y-119361904D01*
X178052380Y-119457142D01*
X178100000Y-119504761D01*
X178195238Y-119552380D01*
X178433333Y-119552380D01*
X178528571Y-119504761D01*
X178576190Y-119457142D01*
X177814285Y-119647619D02*
X177052380Y-119647619D01*
X176242857Y-119457142D02*
X176290476Y-119504761D01*
X176433333Y-119552380D01*
X176528571Y-119552380D01*
X176671428Y-119504761D01*
X176766666Y-119409523D01*
X176814285Y-119314285D01*
X176861904Y-119123809D01*
X176861904Y-118980952D01*
X176814285Y-118790476D01*
X176766666Y-118695238D01*
X176671428Y-118600000D01*
X176528571Y-118552380D01*
X176433333Y-118552380D01*
X176290476Y-118600000D01*
X176242857Y-118647619D01*
X175814285Y-119552380D02*
X175814285Y-118552380D01*
X175814285Y-119028571D02*
X175242857Y-119028571D01*
X175242857Y-119552380D02*
X175242857Y-118552380D01*
X174861904Y-118552380D02*
X174242857Y-118552380D01*
X174576190Y-118933333D01*
X174433333Y-118933333D01*
X174338095Y-118980952D01*
X174290476Y-119028571D01*
X174242857Y-119123809D01*
X174242857Y-119361904D01*
X174290476Y-119457142D01*
X174338095Y-119504761D01*
X174433333Y-119552380D01*
X174719047Y-119552380D01*
X174814285Y-119504761D01*
X174861904Y-119457142D01*
X180861904Y-105352380D02*
X180861904Y-104352380D01*
X180480952Y-104352380D01*
X180385714Y-104400000D01*
X180338095Y-104447619D01*
X180290476Y-104542857D01*
X180290476Y-104685714D01*
X180338095Y-104780952D01*
X180385714Y-104828571D01*
X180480952Y-104876190D01*
X180861904Y-104876190D01*
X179957142Y-104352380D02*
X179719047Y-105352380D01*
X179528571Y-104638095D01*
X179338095Y-105352380D01*
X179100000Y-104352380D01*
X178719047Y-105352380D02*
X178719047Y-104352380D01*
X178385714Y-105066666D01*
X178052380Y-104352380D01*
X178052380Y-105352380D01*
X177814285Y-105447619D02*
X177052380Y-105447619D01*
X176909523Y-104352380D02*
X176290476Y-104352380D01*
X176623809Y-104733333D01*
X176480952Y-104733333D01*
X176385714Y-104780952D01*
X176338095Y-104828571D01*
X176290476Y-104923809D01*
X176290476Y-105161904D01*
X176338095Y-105257142D01*
X176385714Y-105304761D01*
X176480952Y-105352380D01*
X176766666Y-105352380D01*
X176861904Y-105304761D01*
X176909523Y-105257142D01*
X166300000Y-134738095D02*
X166252380Y-134642857D01*
X166252380Y-134500000D01*
X166300000Y-134357142D01*
X166395238Y-134261904D01*
X166490476Y-134214285D01*
X166680952Y-134166666D01*
X166823809Y-134166666D01*
X167014285Y-134214285D01*
X167109523Y-134261904D01*
X167204761Y-134357142D01*
X167252380Y-134500000D01*
X167252380Y-134595238D01*
X167204761Y-134738095D01*
X167157142Y-134785714D01*
X166823809Y-134785714D01*
X166823809Y-134595238D01*
X167252380Y-135214285D02*
X166252380Y-135214285D01*
X167252380Y-135785714D01*
X166252380Y-135785714D01*
X167252380Y-136261904D02*
X166252380Y-136261904D01*
X166252380Y-136500000D01*
X166300000Y-136642857D01*
X166395238Y-136738095D01*
X166490476Y-136785714D01*
X166680952Y-136833333D01*
X166823809Y-136833333D01*
X167014285Y-136785714D01*
X167109523Y-136738095D01*
X167204761Y-136642857D01*
X167252380Y-136500000D01*
X167252380Y-136261904D01*
X153566666Y-134209523D02*
X153566666Y-134685714D01*
X153852380Y-134114285D02*
X152852380Y-134447619D01*
X153852380Y-134780952D01*
X153852380Y-135638095D02*
X153852380Y-135066666D01*
X153852380Y-135352380D02*
X152852380Y-135352380D01*
X152995238Y-135257142D01*
X153090476Y-135161904D01*
X153138095Y-135066666D01*
X152947619Y-136019047D02*
X152900000Y-136066666D01*
X152852380Y-136161904D01*
X152852380Y-136400000D01*
X152900000Y-136495238D01*
X152947619Y-136542857D01*
X153042857Y-136590476D01*
X153138095Y-136590476D01*
X153280952Y-136542857D01*
X153852380Y-135971428D01*
X153852380Y-136590476D01*
X135661904Y-90952380D02*
X135090476Y-90952380D01*
X135376190Y-91952380D02*
X135376190Y-90952380D01*
X134852380Y-90952380D02*
X134185714Y-91952380D01*
X134185714Y-90952380D02*
X134852380Y-91952380D01*
X134966666Y-93952380D02*
X135300000Y-93476190D01*
X135538095Y-93952380D02*
X135538095Y-92952380D01*
X135157142Y-92952380D01*
X135061904Y-93000000D01*
X135014285Y-93047619D01*
X134966666Y-93142857D01*
X134966666Y-93285714D01*
X135014285Y-93380952D01*
X135061904Y-93428571D01*
X135157142Y-93476190D01*
X135538095Y-93476190D01*
X134633333Y-92952380D02*
X133966666Y-93952380D01*
X133966666Y-92952380D02*
X134633333Y-93952380D01*
X135676190Y-94952380D02*
X135057142Y-94952380D01*
X135390476Y-95333333D01*
X135247619Y-95333333D01*
X135152380Y-95380952D01*
X135104761Y-95428571D01*
X135057142Y-95523809D01*
X135057142Y-95761904D01*
X135104761Y-95857142D01*
X135152380Y-95904761D01*
X135247619Y-95952380D01*
X135533333Y-95952380D01*
X135628571Y-95904761D01*
X135676190Y-95857142D01*
X134628571Y-95857142D02*
X134580952Y-95904761D01*
X134628571Y-95952380D01*
X134676190Y-95904761D01*
X134628571Y-95857142D01*
X134628571Y-95952380D01*
X134247619Y-94952380D02*
X133628571Y-94952380D01*
X133961904Y-95333333D01*
X133819047Y-95333333D01*
X133723809Y-95380952D01*
X133676190Y-95428571D01*
X133628571Y-95523809D01*
X133628571Y-95761904D01*
X133676190Y-95857142D01*
X133723809Y-95904761D01*
X133819047Y-95952380D01*
X134104761Y-95952380D01*
X134200000Y-95904761D01*
X134247619Y-95857142D01*
X133342857Y-94952380D02*
X133009523Y-95952380D01*
X132676190Y-94952380D01*
X135976190Y-126252380D02*
X135357142Y-126252380D01*
X135690476Y-126633333D01*
X135547619Y-126633333D01*
X135452380Y-126680952D01*
X135404761Y-126728571D01*
X135357142Y-126823809D01*
X135357142Y-127061904D01*
X135404761Y-127157142D01*
X135452380Y-127204761D01*
X135547619Y-127252380D01*
X135833333Y-127252380D01*
X135928571Y-127204761D01*
X135976190Y-127157142D01*
X134928571Y-127157142D02*
X134880952Y-127204761D01*
X134928571Y-127252380D01*
X134976190Y-127204761D01*
X134928571Y-127157142D01*
X134928571Y-127252380D01*
X134547619Y-126252380D02*
X133928571Y-126252380D01*
X134261904Y-126633333D01*
X134119047Y-126633333D01*
X134023809Y-126680952D01*
X133976190Y-126728571D01*
X133928571Y-126823809D01*
X133928571Y-127061904D01*
X133976190Y-127157142D01*
X134023809Y-127204761D01*
X134119047Y-127252380D01*
X134404761Y-127252380D01*
X134500000Y-127204761D01*
X134547619Y-127157142D01*
X133642857Y-126252380D02*
X133309523Y-127252380D01*
X132976190Y-126252380D01*
X135061904Y-114700000D02*
X135157142Y-114652380D01*
X135300000Y-114652380D01*
X135442857Y-114700000D01*
X135538095Y-114795238D01*
X135585714Y-114890476D01*
X135633333Y-115080952D01*
X135633333Y-115223809D01*
X135585714Y-115414285D01*
X135538095Y-115509523D01*
X135442857Y-115604761D01*
X135300000Y-115652380D01*
X135204761Y-115652380D01*
X135061904Y-115604761D01*
X135014285Y-115557142D01*
X135014285Y-115223809D01*
X135204761Y-115223809D01*
X134585714Y-115652380D02*
X134585714Y-114652380D01*
X134014285Y-115652380D01*
X134014285Y-114652380D01*
X133538095Y-115652380D02*
X133538095Y-114652380D01*
X133300000Y-114652380D01*
X133157142Y-114700000D01*
X133061904Y-114795238D01*
X133014285Y-114890476D01*
X132966666Y-115080952D01*
X132966666Y-115223809D01*
X133014285Y-115414285D01*
X133061904Y-115509523D01*
X133157142Y-115604761D01*
X133300000Y-115652380D01*
X133538095Y-115652380D01*
X139752380Y-110652380D02*
X139180952Y-110652380D01*
X139466666Y-111652380D02*
X139466666Y-110652380D01*
X138847619Y-111652380D02*
X138847619Y-110652380D01*
X138371428Y-111652380D02*
X138371428Y-110652380D01*
X138038095Y-111366666D01*
X137704761Y-110652380D01*
X137704761Y-111652380D01*
X137323809Y-110652380D02*
X136704761Y-110652380D01*
X137038095Y-111033333D01*
X136895238Y-111033333D01*
X136800000Y-111080952D01*
X136752380Y-111128571D01*
X136704761Y-111223809D01*
X136704761Y-111461904D01*
X136752380Y-111557142D01*
X136800000Y-111604761D01*
X136895238Y-111652380D01*
X137180952Y-111652380D01*
X137276190Y-111604761D01*
X137323809Y-111557142D01*
X136514285Y-111747619D02*
X135752380Y-111747619D01*
X134942857Y-111557142D02*
X134990476Y-111604761D01*
X135133333Y-111652380D01*
X135228571Y-111652380D01*
X135371428Y-111604761D01*
X135466666Y-111509523D01*
X135514285Y-111414285D01*
X135561904Y-111223809D01*
X135561904Y-111080952D01*
X135514285Y-110890476D01*
X135466666Y-110795238D01*
X135371428Y-110700000D01*
X135228571Y-110652380D01*
X135133333Y-110652380D01*
X134990476Y-110700000D01*
X134942857Y-110747619D01*
X134514285Y-111652380D02*
X134514285Y-110652380D01*
X134514285Y-111128571D02*
X133942857Y-111128571D01*
X133942857Y-111652380D02*
X133942857Y-110652380D01*
X133514285Y-110747619D02*
X133466666Y-110700000D01*
X133371428Y-110652380D01*
X133133333Y-110652380D01*
X133038095Y-110700000D01*
X132990476Y-110747619D01*
X132942857Y-110842857D01*
X132942857Y-110938095D01*
X132990476Y-111080952D01*
X133561904Y-111652380D01*
X132942857Y-111652380D01*
X136176190Y-81252380D02*
X135557142Y-81252380D01*
X135890476Y-81633333D01*
X135747619Y-81633333D01*
X135652380Y-81680952D01*
X135604761Y-81728571D01*
X135557142Y-81823809D01*
X135557142Y-82061904D01*
X135604761Y-82157142D01*
X135652380Y-82204761D01*
X135747619Y-82252380D01*
X136033333Y-82252380D01*
X136128571Y-82204761D01*
X136176190Y-82157142D01*
X135128571Y-82157142D02*
X135080952Y-82204761D01*
X135128571Y-82252380D01*
X135176190Y-82204761D01*
X135128571Y-82157142D01*
X135128571Y-82252380D01*
X134747619Y-81252380D02*
X134128571Y-81252380D01*
X134461904Y-81633333D01*
X134319047Y-81633333D01*
X134223809Y-81680952D01*
X134176190Y-81728571D01*
X134128571Y-81823809D01*
X134128571Y-82061904D01*
X134176190Y-82157142D01*
X134223809Y-82204761D01*
X134319047Y-82252380D01*
X134604761Y-82252380D01*
X134700000Y-82204761D01*
X134747619Y-82157142D01*
X133842857Y-81252380D02*
X133509523Y-82252380D01*
X133176190Y-81252380D01*
X151366666Y-134209523D02*
X151366666Y-134685714D01*
X151652380Y-134114285D02*
X150652380Y-134447619D01*
X151652380Y-134780952D01*
X151652380Y-135638095D02*
X151652380Y-135066666D01*
X151652380Y-135352380D02*
X150652380Y-135352380D01*
X150795238Y-135257142D01*
X150890476Y-135161904D01*
X150938095Y-135066666D01*
X151652380Y-136590476D02*
X151652380Y-136019047D01*
X151652380Y-136304761D02*
X150652380Y-136304761D01*
X150795238Y-136209523D01*
X150890476Y-136114285D01*
X150938095Y-136019047D01*
X136219047Y-78204761D02*
X136076190Y-78252380D01*
X135838095Y-78252380D01*
X135742857Y-78204761D01*
X135695238Y-78157142D01*
X135647619Y-78061904D01*
X135647619Y-77966666D01*
X135695238Y-77871428D01*
X135742857Y-77823809D01*
X135838095Y-77776190D01*
X136028571Y-77728571D01*
X136123809Y-77680952D01*
X136171428Y-77633333D01*
X136219047Y-77538095D01*
X136219047Y-77442857D01*
X136171428Y-77347619D01*
X136123809Y-77300000D01*
X136028571Y-77252380D01*
X135790476Y-77252380D01*
X135647619Y-77300000D01*
X135314285Y-77252380D02*
X135076190Y-78252380D01*
X134885714Y-77538095D01*
X134695238Y-78252380D01*
X134457142Y-77252380D01*
X134076190Y-78252380D02*
X134076190Y-77252380D01*
X133838095Y-77252380D01*
X133695238Y-77300000D01*
X133600000Y-77395238D01*
X133552380Y-77490476D01*
X133504761Y-77680952D01*
X133504761Y-77823809D01*
X133552380Y-78014285D01*
X133600000Y-78109523D01*
X133695238Y-78204761D01*
X133838095Y-78252380D01*
X134076190Y-78252380D01*
X133076190Y-78252380D02*
X133076190Y-77252380D01*
X132409523Y-77252380D02*
X132219047Y-77252380D01*
X132123809Y-77300000D01*
X132028571Y-77395238D01*
X131980952Y-77585714D01*
X131980952Y-77919047D01*
X132028571Y-78109523D01*
X132123809Y-78204761D01*
X132219047Y-78252380D01*
X132409523Y-78252380D01*
X132504761Y-78204761D01*
X132600000Y-78109523D01*
X132647619Y-77919047D01*
X132647619Y-77585714D01*
X132600000Y-77395238D01*
X132504761Y-77300000D01*
X132409523Y-77252380D01*
X181052380Y-115952380D02*
X180480952Y-115952380D01*
X180766666Y-116952380D02*
X180766666Y-115952380D01*
X180147619Y-116952380D02*
X180147619Y-115952380D01*
X179671428Y-116952380D02*
X179671428Y-115952380D01*
X179338095Y-116666666D01*
X179004761Y-115952380D01*
X179004761Y-116952380D01*
X178052380Y-115952380D02*
X178528571Y-115952380D01*
X178576190Y-116428571D01*
X178528571Y-116380952D01*
X178433333Y-116333333D01*
X178195238Y-116333333D01*
X178100000Y-116380952D01*
X178052380Y-116428571D01*
X178004761Y-116523809D01*
X178004761Y-116761904D01*
X178052380Y-116857142D01*
X178100000Y-116904761D01*
X178195238Y-116952380D01*
X178433333Y-116952380D01*
X178528571Y-116904761D01*
X178576190Y-116857142D01*
X177814285Y-117047619D02*
X177052380Y-117047619D01*
X176242857Y-116857142D02*
X176290476Y-116904761D01*
X176433333Y-116952380D01*
X176528571Y-116952380D01*
X176671428Y-116904761D01*
X176766666Y-116809523D01*
X176814285Y-116714285D01*
X176861904Y-116523809D01*
X176861904Y-116380952D01*
X176814285Y-116190476D01*
X176766666Y-116095238D01*
X176671428Y-116000000D01*
X176528571Y-115952380D01*
X176433333Y-115952380D01*
X176290476Y-116000000D01*
X176242857Y-116047619D01*
X175814285Y-116952380D02*
X175814285Y-115952380D01*
X175814285Y-116428571D02*
X175242857Y-116428571D01*
X175242857Y-116952380D02*
X175242857Y-115952380D01*
X174338095Y-116285714D02*
X174338095Y-116952380D01*
X174576190Y-115904761D02*
X174814285Y-116619047D01*
X174195238Y-116619047D01*
X135861904Y-122252380D02*
X135290476Y-122252380D01*
X135576190Y-123252380D02*
X135576190Y-122252380D01*
X135052380Y-122252380D02*
X134385714Y-123252380D01*
X134385714Y-122252380D02*
X135052380Y-123252380D01*
X180861904Y-102752380D02*
X180861904Y-101752380D01*
X180480952Y-101752380D01*
X180385714Y-101800000D01*
X180338095Y-101847619D01*
X180290476Y-101942857D01*
X180290476Y-102085714D01*
X180338095Y-102180952D01*
X180385714Y-102228571D01*
X180480952Y-102276190D01*
X180861904Y-102276190D01*
X179957142Y-101752380D02*
X179719047Y-102752380D01*
X179528571Y-102038095D01*
X179338095Y-102752380D01*
X179100000Y-101752380D01*
X178719047Y-102752380D02*
X178719047Y-101752380D01*
X178385714Y-102466666D01*
X178052380Y-101752380D01*
X178052380Y-102752380D01*
X177814285Y-102847619D02*
X177052380Y-102847619D01*
X176385714Y-102085714D02*
X176385714Y-102752380D01*
X176623809Y-101704761D02*
X176861904Y-102419047D01*
X176242857Y-102419047D01*
X139652380Y-108552380D02*
X139080952Y-108552380D01*
X139366666Y-109552380D02*
X139366666Y-108552380D01*
X138747619Y-109552380D02*
X138747619Y-108552380D01*
X138271428Y-109552380D02*
X138271428Y-108552380D01*
X137938095Y-109266666D01*
X137604761Y-108552380D01*
X137604761Y-109552380D01*
X137223809Y-108552380D02*
X136604761Y-108552380D01*
X136938095Y-108933333D01*
X136795238Y-108933333D01*
X136700000Y-108980952D01*
X136652380Y-109028571D01*
X136604761Y-109123809D01*
X136604761Y-109361904D01*
X136652380Y-109457142D01*
X136700000Y-109504761D01*
X136795238Y-109552380D01*
X137080952Y-109552380D01*
X137176190Y-109504761D01*
X137223809Y-109457142D01*
X136414285Y-109647619D02*
X135652380Y-109647619D01*
X134842857Y-109457142D02*
X134890476Y-109504761D01*
X135033333Y-109552380D01*
X135128571Y-109552380D01*
X135271428Y-109504761D01*
X135366666Y-109409523D01*
X135414285Y-109314285D01*
X135461904Y-109123809D01*
X135461904Y-108980952D01*
X135414285Y-108790476D01*
X135366666Y-108695238D01*
X135271428Y-108600000D01*
X135128571Y-108552380D01*
X135033333Y-108552380D01*
X134890476Y-108600000D01*
X134842857Y-108647619D01*
X134414285Y-109552380D02*
X134414285Y-108552380D01*
X134414285Y-109028571D02*
X133842857Y-109028571D01*
X133842857Y-109552380D02*
X133842857Y-108552380D01*
X132842857Y-109552380D02*
X133414285Y-109552380D01*
X133128571Y-109552380D02*
X133128571Y-108552380D01*
X133223809Y-108695238D01*
X133319047Y-108790476D01*
X133414285Y-108838095D01*
X180761904Y-97652380D02*
X180761904Y-96652380D01*
X180380952Y-96652380D01*
X180285714Y-96700000D01*
X180238095Y-96747619D01*
X180190476Y-96842857D01*
X180190476Y-96985714D01*
X180238095Y-97080952D01*
X180285714Y-97128571D01*
X180380952Y-97176190D01*
X180761904Y-97176190D01*
X179857142Y-96652380D02*
X179619047Y-97652380D01*
X179428571Y-96938095D01*
X179238095Y-97652380D01*
X179000000Y-96652380D01*
X178619047Y-97652380D02*
X178619047Y-96652380D01*
X178285714Y-97366666D01*
X177952380Y-96652380D01*
X177952380Y-97652380D01*
X177714285Y-97747619D02*
X176952380Y-97747619D01*
X176285714Y-96652380D02*
X176476190Y-96652380D01*
X176571428Y-96700000D01*
X176619047Y-96747619D01*
X176714285Y-96890476D01*
X176761904Y-97080952D01*
X176761904Y-97461904D01*
X176714285Y-97557142D01*
X176666666Y-97604761D01*
X176571428Y-97652380D01*
X176380952Y-97652380D01*
X176285714Y-97604761D01*
X176238095Y-97557142D01*
X176190476Y-97461904D01*
X176190476Y-97223809D01*
X176238095Y-97128571D01*
X176285714Y-97080952D01*
X176380952Y-97033333D01*
X176571428Y-97033333D01*
X176666666Y-97080952D01*
X176714285Y-97128571D01*
X176761904Y-97223809D01*
X181052380Y-121252380D02*
X180480952Y-121252380D01*
X180766666Y-122252380D02*
X180766666Y-121252380D01*
X180147619Y-122252380D02*
X180147619Y-121252380D01*
X179671428Y-122252380D02*
X179671428Y-121252380D01*
X179338095Y-121966666D01*
X179004761Y-121252380D01*
X179004761Y-122252380D01*
X178052380Y-121252380D02*
X178528571Y-121252380D01*
X178576190Y-121728571D01*
X178528571Y-121680952D01*
X178433333Y-121633333D01*
X178195238Y-121633333D01*
X178100000Y-121680952D01*
X178052380Y-121728571D01*
X178004761Y-121823809D01*
X178004761Y-122061904D01*
X178052380Y-122157142D01*
X178100000Y-122204761D01*
X178195238Y-122252380D01*
X178433333Y-122252380D01*
X178528571Y-122204761D01*
X178576190Y-122157142D01*
X177814285Y-122347619D02*
X177052380Y-122347619D01*
X176242857Y-122157142D02*
X176290476Y-122204761D01*
X176433333Y-122252380D01*
X176528571Y-122252380D01*
X176671428Y-122204761D01*
X176766666Y-122109523D01*
X176814285Y-122014285D01*
X176861904Y-121823809D01*
X176861904Y-121680952D01*
X176814285Y-121490476D01*
X176766666Y-121395238D01*
X176671428Y-121300000D01*
X176528571Y-121252380D01*
X176433333Y-121252380D01*
X176290476Y-121300000D01*
X176242857Y-121347619D01*
X175814285Y-122252380D02*
X175814285Y-121252380D01*
X175814285Y-121728571D02*
X175242857Y-121728571D01*
X175242857Y-122252380D02*
X175242857Y-121252380D01*
X174814285Y-121347619D02*
X174766666Y-121300000D01*
X174671428Y-121252380D01*
X174433333Y-121252380D01*
X174338095Y-121300000D01*
X174290476Y-121347619D01*
X174242857Y-121442857D01*
X174242857Y-121538095D01*
X174290476Y-121680952D01*
X174861904Y-122252380D01*
X174242857Y-122252380D01*
X135876190Y-112652380D02*
X135257142Y-112652380D01*
X135590476Y-113033333D01*
X135447619Y-113033333D01*
X135352380Y-113080952D01*
X135304761Y-113128571D01*
X135257142Y-113223809D01*
X135257142Y-113461904D01*
X135304761Y-113557142D01*
X135352380Y-113604761D01*
X135447619Y-113652380D01*
X135733333Y-113652380D01*
X135828571Y-113604761D01*
X135876190Y-113557142D01*
X134828571Y-113557142D02*
X134780952Y-113604761D01*
X134828571Y-113652380D01*
X134876190Y-113604761D01*
X134828571Y-113557142D01*
X134828571Y-113652380D01*
X134447619Y-112652380D02*
X133828571Y-112652380D01*
X134161904Y-113033333D01*
X134019047Y-113033333D01*
X133923809Y-113080952D01*
X133876190Y-113128571D01*
X133828571Y-113223809D01*
X133828571Y-113461904D01*
X133876190Y-113557142D01*
X133923809Y-113604761D01*
X134019047Y-113652380D01*
X134304761Y-113652380D01*
X134400000Y-113604761D01*
X134447619Y-113557142D01*
X133542857Y-112652380D02*
X133209523Y-113652380D01*
X132876190Y-112652380D01*
X135366666Y-125152380D02*
X135700000Y-124676190D01*
X135938095Y-125152380D02*
X135938095Y-124152380D01*
X135557142Y-124152380D01*
X135461904Y-124200000D01*
X135414285Y-124247619D01*
X135366666Y-124342857D01*
X135366666Y-124485714D01*
X135414285Y-124580952D01*
X135461904Y-124628571D01*
X135557142Y-124676190D01*
X135938095Y-124676190D01*
X135033333Y-124152380D02*
X134366666Y-125152380D01*
X134366666Y-124152380D02*
X135033333Y-125152380D01*
X136261904Y-80104761D02*
X136119047Y-80152380D01*
X135880952Y-80152380D01*
X135785714Y-80104761D01*
X135738095Y-80057142D01*
X135690476Y-79961904D01*
X135690476Y-79866666D01*
X135738095Y-79771428D01*
X135785714Y-79723809D01*
X135880952Y-79676190D01*
X136071428Y-79628571D01*
X136166666Y-79580952D01*
X136214285Y-79533333D01*
X136261904Y-79438095D01*
X136261904Y-79342857D01*
X136214285Y-79247619D01*
X136166666Y-79200000D01*
X136071428Y-79152380D01*
X135833333Y-79152380D01*
X135690476Y-79200000D01*
X135357142Y-79152380D02*
X135119047Y-80152380D01*
X134928571Y-79438095D01*
X134738095Y-80152380D01*
X134500000Y-79152380D01*
X133547619Y-80057142D02*
X133595238Y-80104761D01*
X133738095Y-80152380D01*
X133833333Y-80152380D01*
X133976190Y-80104761D01*
X134071428Y-80009523D01*
X134119047Y-79914285D01*
X134166666Y-79723809D01*
X134166666Y-79580952D01*
X134119047Y-79390476D01*
X134071428Y-79295238D01*
X133976190Y-79200000D01*
X133833333Y-79152380D01*
X133738095Y-79152380D01*
X133595238Y-79200000D01*
X133547619Y-79247619D01*
X132642857Y-80152380D02*
X133119047Y-80152380D01*
X133119047Y-79152380D01*
X132309523Y-80152380D02*
X132309523Y-79152380D01*
X131738095Y-80152380D02*
X132166666Y-79580952D01*
X131738095Y-79152380D02*
X132309523Y-79723809D01*
X158900000Y-134638095D02*
X158852380Y-134542857D01*
X158852380Y-134400000D01*
X158900000Y-134257142D01*
X158995238Y-134161904D01*
X159090476Y-134114285D01*
X159280952Y-134066666D01*
X159423809Y-134066666D01*
X159614285Y-134114285D01*
X159709523Y-134161904D01*
X159804761Y-134257142D01*
X159852380Y-134400000D01*
X159852380Y-134495238D01*
X159804761Y-134638095D01*
X159757142Y-134685714D01*
X159423809Y-134685714D01*
X159423809Y-134495238D01*
X159852380Y-135114285D02*
X158852380Y-135114285D01*
X159852380Y-135685714D01*
X158852380Y-135685714D01*
X159852380Y-136161904D02*
X158852380Y-136161904D01*
X158852380Y-136400000D01*
X158900000Y-136542857D01*
X158995238Y-136638095D01*
X159090476Y-136685714D01*
X159280952Y-136733333D01*
X159423809Y-136733333D01*
X159614285Y-136685714D01*
X159709523Y-136638095D01*
X159804761Y-136542857D01*
X159852380Y-136400000D01*
X159852380Y-136161904D01*
X168252380Y-134123809D02*
X168252380Y-134742857D01*
X168633333Y-134409523D01*
X168633333Y-134552380D01*
X168680952Y-134647619D01*
X168728571Y-134695238D01*
X168823809Y-134742857D01*
X169061904Y-134742857D01*
X169157142Y-134695238D01*
X169204761Y-134647619D01*
X169252380Y-134552380D01*
X169252380Y-134266666D01*
X169204761Y-134171428D01*
X169157142Y-134123809D01*
X169157142Y-135171428D02*
X169204761Y-135219047D01*
X169252380Y-135171428D01*
X169204761Y-135123809D01*
X169157142Y-135171428D01*
X169252380Y-135171428D01*
X168252380Y-135552380D02*
X168252380Y-136171428D01*
X168633333Y-135838095D01*
X168633333Y-135980952D01*
X168680952Y-136076190D01*
X168728571Y-136123809D01*
X168823809Y-136171428D01*
X169061904Y-136171428D01*
X169157142Y-136123809D01*
X169204761Y-136076190D01*
X169252380Y-135980952D01*
X169252380Y-135695238D01*
X169204761Y-135600000D01*
X169157142Y-135552380D01*
X168252380Y-136457142D02*
X169252380Y-136790476D01*
X168252380Y-137123809D01*
X180761904Y-95152380D02*
X180761904Y-94152380D01*
X180380952Y-94152380D01*
X180285714Y-94200000D01*
X180238095Y-94247619D01*
X180190476Y-94342857D01*
X180190476Y-94485714D01*
X180238095Y-94580952D01*
X180285714Y-94628571D01*
X180380952Y-94676190D01*
X180761904Y-94676190D01*
X179857142Y-94152380D02*
X179619047Y-95152380D01*
X179428571Y-94438095D01*
X179238095Y-95152380D01*
X179000000Y-94152380D01*
X178619047Y-95152380D02*
X178619047Y-94152380D01*
X178285714Y-94866666D01*
X177952380Y-94152380D01*
X177952380Y-95152380D01*
X177714285Y-95247619D02*
X176952380Y-95247619D01*
X176809523Y-94152380D02*
X176142857Y-94152380D01*
X176571428Y-95152380D01*
X135161904Y-97000000D02*
X135257142Y-96952380D01*
X135400000Y-96952380D01*
X135542857Y-97000000D01*
X135638095Y-97095238D01*
X135685714Y-97190476D01*
X135733333Y-97380952D01*
X135733333Y-97523809D01*
X135685714Y-97714285D01*
X135638095Y-97809523D01*
X135542857Y-97904761D01*
X135400000Y-97952380D01*
X135304761Y-97952380D01*
X135161904Y-97904761D01*
X135114285Y-97857142D01*
X135114285Y-97523809D01*
X135304761Y-97523809D01*
X134685714Y-97952380D02*
X134685714Y-96952380D01*
X134114285Y-97952380D01*
X134114285Y-96952380D01*
X133638095Y-97952380D02*
X133638095Y-96952380D01*
X133400000Y-96952380D01*
X133257142Y-97000000D01*
X133161904Y-97095238D01*
X133114285Y-97190476D01*
X133066666Y-97380952D01*
X133066666Y-97523809D01*
X133114285Y-97714285D01*
X133161904Y-97809523D01*
X133257142Y-97904761D01*
X133400000Y-97952380D01*
X133638095Y-97952380D01*
X139652380Y-104652380D02*
X139080952Y-104652380D01*
X139366666Y-105652380D02*
X139366666Y-104652380D01*
X138747619Y-105652380D02*
X138747619Y-104652380D01*
X138271428Y-105652380D02*
X138271428Y-104652380D01*
X137938095Y-105366666D01*
X137604761Y-104652380D01*
X137604761Y-105652380D01*
X137176190Y-104747619D02*
X137128571Y-104700000D01*
X137033333Y-104652380D01*
X136795238Y-104652380D01*
X136700000Y-104700000D01*
X136652380Y-104747619D01*
X136604761Y-104842857D01*
X136604761Y-104938095D01*
X136652380Y-105080952D01*
X137223809Y-105652380D01*
X136604761Y-105652380D01*
X136414285Y-105747619D02*
X135652380Y-105747619D01*
X134842857Y-105557142D02*
X134890476Y-105604761D01*
X135033333Y-105652380D01*
X135128571Y-105652380D01*
X135271428Y-105604761D01*
X135366666Y-105509523D01*
X135414285Y-105414285D01*
X135461904Y-105223809D01*
X135461904Y-105080952D01*
X135414285Y-104890476D01*
X135366666Y-104795238D01*
X135271428Y-104700000D01*
X135128571Y-104652380D01*
X135033333Y-104652380D01*
X134890476Y-104700000D01*
X134842857Y-104747619D01*
X134414285Y-105652380D02*
X134414285Y-104652380D01*
X134414285Y-105128571D02*
X133842857Y-105128571D01*
X133842857Y-105652380D02*
X133842857Y-104652380D01*
X132842857Y-105652380D02*
X133414285Y-105652380D01*
X133128571Y-105652380D02*
X133128571Y-104652380D01*
X133223809Y-104795238D01*
X133319047Y-104890476D01*
X133414285Y-104938095D01*
X156952380Y-134123809D02*
X156952380Y-134742857D01*
X157333333Y-134409523D01*
X157333333Y-134552380D01*
X157380952Y-134647619D01*
X157428571Y-134695238D01*
X157523809Y-134742857D01*
X157761904Y-134742857D01*
X157857142Y-134695238D01*
X157904761Y-134647619D01*
X157952380Y-134552380D01*
X157952380Y-134266666D01*
X157904761Y-134171428D01*
X157857142Y-134123809D01*
X157857142Y-135171428D02*
X157904761Y-135219047D01*
X157952380Y-135171428D01*
X157904761Y-135123809D01*
X157857142Y-135171428D01*
X157952380Y-135171428D01*
X156952380Y-135552380D02*
X156952380Y-136171428D01*
X157333333Y-135838095D01*
X157333333Y-135980952D01*
X157380952Y-136076190D01*
X157428571Y-136123809D01*
X157523809Y-136171428D01*
X157761904Y-136171428D01*
X157857142Y-136123809D01*
X157904761Y-136076190D01*
X157952380Y-135980952D01*
X157952380Y-135695238D01*
X157904761Y-135600000D01*
X157857142Y-135552380D01*
X156952380Y-136457142D02*
X157952380Y-136790476D01*
X156952380Y-137123809D01*
X181052380Y-123652380D02*
X180480952Y-123652380D01*
X180766666Y-124652380D02*
X180766666Y-123652380D01*
X180147619Y-124652380D02*
X180147619Y-123652380D01*
X179671428Y-124652380D02*
X179671428Y-123652380D01*
X179338095Y-124366666D01*
X179004761Y-123652380D01*
X179004761Y-124652380D01*
X178052380Y-123652380D02*
X178528571Y-123652380D01*
X178576190Y-124128571D01*
X178528571Y-124080952D01*
X178433333Y-124033333D01*
X178195238Y-124033333D01*
X178100000Y-124080952D01*
X178052380Y-124128571D01*
X178004761Y-124223809D01*
X178004761Y-124461904D01*
X178052380Y-124557142D01*
X178100000Y-124604761D01*
X178195238Y-124652380D01*
X178433333Y-124652380D01*
X178528571Y-124604761D01*
X178576190Y-124557142D01*
X177814285Y-124747619D02*
X177052380Y-124747619D01*
X176242857Y-124557142D02*
X176290476Y-124604761D01*
X176433333Y-124652380D01*
X176528571Y-124652380D01*
X176671428Y-124604761D01*
X176766666Y-124509523D01*
X176814285Y-124414285D01*
X176861904Y-124223809D01*
X176861904Y-124080952D01*
X176814285Y-123890476D01*
X176766666Y-123795238D01*
X176671428Y-123700000D01*
X176528571Y-123652380D01*
X176433333Y-123652380D01*
X176290476Y-123700000D01*
X176242857Y-123747619D01*
X175814285Y-124652380D02*
X175814285Y-123652380D01*
X175814285Y-124128571D02*
X175242857Y-124128571D01*
X175242857Y-124652380D02*
X175242857Y-123652380D01*
X174242857Y-124652380D02*
X174814285Y-124652380D01*
X174528571Y-124652380D02*
X174528571Y-123652380D01*
X174623809Y-123795238D01*
X174719047Y-123890476D01*
X174814285Y-123938095D01*
X135561904Y-83300000D02*
X135657142Y-83252380D01*
X135800000Y-83252380D01*
X135942857Y-83300000D01*
X136038095Y-83395238D01*
X136085714Y-83490476D01*
X136133333Y-83680952D01*
X136133333Y-83823809D01*
X136085714Y-84014285D01*
X136038095Y-84109523D01*
X135942857Y-84204761D01*
X135800000Y-84252380D01*
X135704761Y-84252380D01*
X135561904Y-84204761D01*
X135514285Y-84157142D01*
X135514285Y-83823809D01*
X135704761Y-83823809D01*
X135085714Y-84252380D02*
X135085714Y-83252380D01*
X134514285Y-84252380D01*
X134514285Y-83252380D01*
X134038095Y-84252380D02*
X134038095Y-83252380D01*
X133800000Y-83252380D01*
X133657142Y-83300000D01*
X133561904Y-83395238D01*
X133514285Y-83490476D01*
X133466666Y-83680952D01*
X133466666Y-83823809D01*
X133514285Y-84014285D01*
X133561904Y-84109523D01*
X133657142Y-84204761D01*
X133800000Y-84252380D01*
X134038095Y-84252380D01*
X139652380Y-106652380D02*
X139080952Y-106652380D01*
X139366666Y-107652380D02*
X139366666Y-106652380D01*
X138747619Y-107652380D02*
X138747619Y-106652380D01*
X138271428Y-107652380D02*
X138271428Y-106652380D01*
X137938095Y-107366666D01*
X137604761Y-106652380D01*
X137604761Y-107652380D01*
X137176190Y-106747619D02*
X137128571Y-106700000D01*
X137033333Y-106652380D01*
X136795238Y-106652380D01*
X136700000Y-106700000D01*
X136652380Y-106747619D01*
X136604761Y-106842857D01*
X136604761Y-106938095D01*
X136652380Y-107080952D01*
X137223809Y-107652380D01*
X136604761Y-107652380D01*
X136414285Y-107747619D02*
X135652380Y-107747619D01*
X134842857Y-107557142D02*
X134890476Y-107604761D01*
X135033333Y-107652380D01*
X135128571Y-107652380D01*
X135271428Y-107604761D01*
X135366666Y-107509523D01*
X135414285Y-107414285D01*
X135461904Y-107223809D01*
X135461904Y-107080952D01*
X135414285Y-106890476D01*
X135366666Y-106795238D01*
X135271428Y-106700000D01*
X135128571Y-106652380D01*
X135033333Y-106652380D01*
X134890476Y-106700000D01*
X134842857Y-106747619D01*
X134414285Y-107652380D02*
X134414285Y-106652380D01*
X134414285Y-107128571D02*
X133842857Y-107128571D01*
X133842857Y-107652380D02*
X133842857Y-106652380D01*
X133414285Y-106747619D02*
X133366666Y-106700000D01*
X133271428Y-106652380D01*
X133033333Y-106652380D01*
X132938095Y-106700000D01*
X132890476Y-106747619D01*
X132842857Y-106842857D01*
X132842857Y-106938095D01*
X132890476Y-107080952D01*
X133461904Y-107652380D01*
X132842857Y-107652380D01*
X180861904Y-107852380D02*
X180861904Y-106852380D01*
X180480952Y-106852380D01*
X180385714Y-106900000D01*
X180338095Y-106947619D01*
X180290476Y-107042857D01*
X180290476Y-107185714D01*
X180338095Y-107280952D01*
X180385714Y-107328571D01*
X180480952Y-107376190D01*
X180861904Y-107376190D01*
X179957142Y-106852380D02*
X179719047Y-107852380D01*
X179528571Y-107138095D01*
X179338095Y-107852380D01*
X179100000Y-106852380D01*
X178719047Y-107852380D02*
X178719047Y-106852380D01*
X178385714Y-107566666D01*
X178052380Y-106852380D01*
X178052380Y-107852380D01*
X177814285Y-107947619D02*
X177052380Y-107947619D01*
X176861904Y-106947619D02*
X176814285Y-106900000D01*
X176719047Y-106852380D01*
X176480952Y-106852380D01*
X176385714Y-106900000D01*
X176338095Y-106947619D01*
X176290476Y-107042857D01*
X176290476Y-107138095D01*
X176338095Y-107280952D01*
X176909523Y-107852380D01*
X176290476Y-107852380D01*
%TO.C,C9*%
X157975000Y-100857142D02*
X158022619Y-100904761D01*
X158165476Y-100952380D01*
X158260714Y-100952380D01*
X158403572Y-100904761D01*
X158498810Y-100809523D01*
X158546429Y-100714285D01*
X158594048Y-100523809D01*
X158594048Y-100380952D01*
X158546429Y-100190476D01*
X158498810Y-100095238D01*
X158403572Y-100000000D01*
X158260714Y-99952380D01*
X158165476Y-99952380D01*
X158022619Y-100000000D01*
X157975000Y-100047619D01*
X157498810Y-100952380D02*
X157308334Y-100952380D01*
X157213095Y-100904761D01*
X157165476Y-100857142D01*
X157070238Y-100714285D01*
X157022619Y-100523809D01*
X157022619Y-100142857D01*
X157070238Y-100047619D01*
X157117857Y-100000000D01*
X157213095Y-99952380D01*
X157403572Y-99952380D01*
X157498810Y-100000000D01*
X157546429Y-100047619D01*
X157594048Y-100142857D01*
X157594048Y-100380952D01*
X157546429Y-100476190D01*
X157498810Y-100523809D01*
X157403572Y-100571428D01*
X157213095Y-100571428D01*
X157117857Y-100523809D01*
X157070238Y-100476190D01*
X157022619Y-100380952D01*
%TO.C,R16*%
X161517857Y-110422380D02*
X161851190Y-109946190D01*
X162089285Y-110422380D02*
X162089285Y-109422380D01*
X161708333Y-109422380D01*
X161613095Y-109470000D01*
X161565476Y-109517619D01*
X161517857Y-109612857D01*
X161517857Y-109755714D01*
X161565476Y-109850952D01*
X161613095Y-109898571D01*
X161708333Y-109946190D01*
X162089285Y-109946190D01*
X160565476Y-110422380D02*
X161136904Y-110422380D01*
X160851190Y-110422380D02*
X160851190Y-109422380D01*
X160946428Y-109565238D01*
X161041666Y-109660476D01*
X161136904Y-109708095D01*
X159708333Y-109422380D02*
X159898809Y-109422380D01*
X159994047Y-109470000D01*
X160041666Y-109517619D01*
X160136904Y-109660476D01*
X160184523Y-109850952D01*
X160184523Y-110231904D01*
X160136904Y-110327142D01*
X160089285Y-110374761D01*
X159994047Y-110422380D01*
X159803571Y-110422380D01*
X159708333Y-110374761D01*
X159660714Y-110327142D01*
X159613095Y-110231904D01*
X159613095Y-109993809D01*
X159660714Y-109898571D01*
X159708333Y-109850952D01*
X159803571Y-109803333D01*
X159994047Y-109803333D01*
X160089285Y-109850952D01*
X160136904Y-109898571D01*
X160184523Y-109993809D01*
%TO.C,C5*%
X165666666Y-109257142D02*
X165714285Y-109304761D01*
X165857142Y-109352380D01*
X165952380Y-109352380D01*
X166095238Y-109304761D01*
X166190476Y-109209523D01*
X166238095Y-109114285D01*
X166285714Y-108923809D01*
X166285714Y-108780952D01*
X166238095Y-108590476D01*
X166190476Y-108495238D01*
X166095238Y-108400000D01*
X165952380Y-108352380D01*
X165857142Y-108352380D01*
X165714285Y-108400000D01*
X165666666Y-108447619D01*
X164761904Y-108352380D02*
X165238095Y-108352380D01*
X165285714Y-108828571D01*
X165238095Y-108780952D01*
X165142857Y-108733333D01*
X164904761Y-108733333D01*
X164809523Y-108780952D01*
X164761904Y-108828571D01*
X164714285Y-108923809D01*
X164714285Y-109161904D01*
X164761904Y-109257142D01*
X164809523Y-109304761D01*
X164904761Y-109352380D01*
X165142857Y-109352380D01*
X165238095Y-109304761D01*
X165285714Y-109257142D01*
%TO.C,C4*%
X152945142Y-108411333D02*
X152992761Y-108363714D01*
X153040380Y-108220857D01*
X153040380Y-108125619D01*
X152992761Y-107982761D01*
X152897523Y-107887523D01*
X152802285Y-107839904D01*
X152611809Y-107792285D01*
X152468952Y-107792285D01*
X152278476Y-107839904D01*
X152183238Y-107887523D01*
X152088000Y-107982761D01*
X152040380Y-108125619D01*
X152040380Y-108220857D01*
X152088000Y-108363714D01*
X152135619Y-108411333D01*
X152373714Y-109268476D02*
X153040380Y-109268476D01*
X151992761Y-109030380D02*
X152707047Y-108792285D01*
X152707047Y-109411333D01*
%TO.C,C3*%
X151157142Y-107798333D02*
X151204761Y-107750714D01*
X151252380Y-107607857D01*
X151252380Y-107512619D01*
X151204761Y-107369761D01*
X151109523Y-107274523D01*
X151014285Y-107226904D01*
X150823809Y-107179285D01*
X150680952Y-107179285D01*
X150490476Y-107226904D01*
X150395238Y-107274523D01*
X150300000Y-107369761D01*
X150252380Y-107512619D01*
X150252380Y-107607857D01*
X150300000Y-107750714D01*
X150347619Y-107798333D01*
X150252380Y-108131666D02*
X150252380Y-108750714D01*
X150633333Y-108417380D01*
X150633333Y-108560238D01*
X150680952Y-108655476D01*
X150728571Y-108703095D01*
X150823809Y-108750714D01*
X151061904Y-108750714D01*
X151157142Y-108703095D01*
X151204761Y-108655476D01*
X151252380Y-108560238D01*
X151252380Y-108274523D01*
X151204761Y-108179285D01*
X151157142Y-108131666D01*
%TO.C,R30*%
X171652380Y-56157142D02*
X171176190Y-55823809D01*
X171652380Y-55585714D02*
X170652380Y-55585714D01*
X170652380Y-55966666D01*
X170700000Y-56061904D01*
X170747619Y-56109523D01*
X170842857Y-56157142D01*
X170985714Y-56157142D01*
X171080952Y-56109523D01*
X171128571Y-56061904D01*
X171176190Y-55966666D01*
X171176190Y-55585714D01*
X170652380Y-56490476D02*
X170652380Y-57109523D01*
X171033333Y-56776190D01*
X171033333Y-56919047D01*
X171080952Y-57014285D01*
X171128571Y-57061904D01*
X171223809Y-57109523D01*
X171461904Y-57109523D01*
X171557142Y-57061904D01*
X171604761Y-57014285D01*
X171652380Y-56919047D01*
X171652380Y-56633333D01*
X171604761Y-56538095D01*
X171557142Y-56490476D01*
X170652380Y-57728571D02*
X170652380Y-57823809D01*
X170700000Y-57919047D01*
X170747619Y-57966666D01*
X170842857Y-58014285D01*
X171033333Y-58061904D01*
X171271428Y-58061904D01*
X171461904Y-58014285D01*
X171557142Y-57966666D01*
X171604761Y-57919047D01*
X171652380Y-57823809D01*
X171652380Y-57728571D01*
X171604761Y-57633333D01*
X171557142Y-57585714D01*
X171461904Y-57538095D01*
X171271428Y-57490476D01*
X171033333Y-57490476D01*
X170842857Y-57538095D01*
X170747619Y-57585714D01*
X170700000Y-57633333D01*
X170652380Y-57728571D01*
%TO.C,C22*%
X152857142Y-125957142D02*
X152904761Y-125909523D01*
X152952380Y-125766666D01*
X152952380Y-125671428D01*
X152904761Y-125528571D01*
X152809523Y-125433333D01*
X152714285Y-125385714D01*
X152523809Y-125338095D01*
X152380952Y-125338095D01*
X152190476Y-125385714D01*
X152095238Y-125433333D01*
X152000000Y-125528571D01*
X151952380Y-125671428D01*
X151952380Y-125766666D01*
X152000000Y-125909523D01*
X152047619Y-125957142D01*
X152047619Y-126338095D02*
X152000000Y-126385714D01*
X151952380Y-126480952D01*
X151952380Y-126719047D01*
X152000000Y-126814285D01*
X152047619Y-126861904D01*
X152142857Y-126909523D01*
X152238095Y-126909523D01*
X152380952Y-126861904D01*
X152952380Y-126290476D01*
X152952380Y-126909523D01*
X152047619Y-127290476D02*
X152000000Y-127338095D01*
X151952380Y-127433333D01*
X151952380Y-127671428D01*
X152000000Y-127766666D01*
X152047619Y-127814285D01*
X152142857Y-127861904D01*
X152238095Y-127861904D01*
X152380952Y-127814285D01*
X152952380Y-127242857D01*
X152952380Y-127861904D01*
%TO.C,C24*%
X154357142Y-125957142D02*
X154404761Y-125909523D01*
X154452380Y-125766666D01*
X154452380Y-125671428D01*
X154404761Y-125528571D01*
X154309523Y-125433333D01*
X154214285Y-125385714D01*
X154023809Y-125338095D01*
X153880952Y-125338095D01*
X153690476Y-125385714D01*
X153595238Y-125433333D01*
X153500000Y-125528571D01*
X153452380Y-125671428D01*
X153452380Y-125766666D01*
X153500000Y-125909523D01*
X153547619Y-125957142D01*
X153547619Y-126338095D02*
X153500000Y-126385714D01*
X153452380Y-126480952D01*
X153452380Y-126719047D01*
X153500000Y-126814285D01*
X153547619Y-126861904D01*
X153642857Y-126909523D01*
X153738095Y-126909523D01*
X153880952Y-126861904D01*
X154452380Y-126290476D01*
X154452380Y-126909523D01*
X153785714Y-127766666D02*
X154452380Y-127766666D01*
X153404761Y-127528571D02*
X154119047Y-127290476D01*
X154119047Y-127909523D01*
%TO.C,C26*%
X150457142Y-125882142D02*
X150504761Y-125834523D01*
X150552380Y-125691666D01*
X150552380Y-125596428D01*
X150504761Y-125453571D01*
X150409523Y-125358333D01*
X150314285Y-125310714D01*
X150123809Y-125263095D01*
X149980952Y-125263095D01*
X149790476Y-125310714D01*
X149695238Y-125358333D01*
X149600000Y-125453571D01*
X149552380Y-125596428D01*
X149552380Y-125691666D01*
X149600000Y-125834523D01*
X149647619Y-125882142D01*
X149647619Y-126263095D02*
X149600000Y-126310714D01*
X149552380Y-126405952D01*
X149552380Y-126644047D01*
X149600000Y-126739285D01*
X149647619Y-126786904D01*
X149742857Y-126834523D01*
X149838095Y-126834523D01*
X149980952Y-126786904D01*
X150552380Y-126215476D01*
X150552380Y-126834523D01*
X149552380Y-127691666D02*
X149552380Y-127501190D01*
X149600000Y-127405952D01*
X149647619Y-127358333D01*
X149790476Y-127263095D01*
X149980952Y-127215476D01*
X150361904Y-127215476D01*
X150457142Y-127263095D01*
X150504761Y-127310714D01*
X150552380Y-127405952D01*
X150552380Y-127596428D01*
X150504761Y-127691666D01*
X150457142Y-127739285D01*
X150361904Y-127786904D01*
X150123809Y-127786904D01*
X150028571Y-127739285D01*
X149980952Y-127691666D01*
X149933333Y-127596428D01*
X149933333Y-127405952D01*
X149980952Y-127310714D01*
X150028571Y-127263095D01*
X150123809Y-127215476D01*
%TO.C,R34*%
X174552380Y-56157142D02*
X174076190Y-55823809D01*
X174552380Y-55585714D02*
X173552380Y-55585714D01*
X173552380Y-55966666D01*
X173600000Y-56061904D01*
X173647619Y-56109523D01*
X173742857Y-56157142D01*
X173885714Y-56157142D01*
X173980952Y-56109523D01*
X174028571Y-56061904D01*
X174076190Y-55966666D01*
X174076190Y-55585714D01*
X173552380Y-56490476D02*
X173552380Y-57109523D01*
X173933333Y-56776190D01*
X173933333Y-56919047D01*
X173980952Y-57014285D01*
X174028571Y-57061904D01*
X174123809Y-57109523D01*
X174361904Y-57109523D01*
X174457142Y-57061904D01*
X174504761Y-57014285D01*
X174552380Y-56919047D01*
X174552380Y-56633333D01*
X174504761Y-56538095D01*
X174457142Y-56490476D01*
X173885714Y-57966666D02*
X174552380Y-57966666D01*
X173504761Y-57728571D02*
X174219047Y-57490476D01*
X174219047Y-58109523D01*
%TO.C,C23*%
X159342857Y-120357142D02*
X159390476Y-120404761D01*
X159533333Y-120452380D01*
X159628571Y-120452380D01*
X159771428Y-120404761D01*
X159866666Y-120309523D01*
X159914285Y-120214285D01*
X159961904Y-120023809D01*
X159961904Y-119880952D01*
X159914285Y-119690476D01*
X159866666Y-119595238D01*
X159771428Y-119500000D01*
X159628571Y-119452380D01*
X159533333Y-119452380D01*
X159390476Y-119500000D01*
X159342857Y-119547619D01*
X158961904Y-119547619D02*
X158914285Y-119500000D01*
X158819047Y-119452380D01*
X158580952Y-119452380D01*
X158485714Y-119500000D01*
X158438095Y-119547619D01*
X158390476Y-119642857D01*
X158390476Y-119738095D01*
X158438095Y-119880952D01*
X159009523Y-120452380D01*
X158390476Y-120452380D01*
X158057142Y-119452380D02*
X157438095Y-119452380D01*
X157771428Y-119833333D01*
X157628571Y-119833333D01*
X157533333Y-119880952D01*
X157485714Y-119928571D01*
X157438095Y-120023809D01*
X157438095Y-120261904D01*
X157485714Y-120357142D01*
X157533333Y-120404761D01*
X157628571Y-120452380D01*
X157914285Y-120452380D01*
X158009523Y-120404761D01*
X158057142Y-120357142D01*
%TO.C,C6*%
X160066666Y-113457142D02*
X160114285Y-113504761D01*
X160257142Y-113552380D01*
X160352380Y-113552380D01*
X160495238Y-113504761D01*
X160590476Y-113409523D01*
X160638095Y-113314285D01*
X160685714Y-113123809D01*
X160685714Y-112980952D01*
X160638095Y-112790476D01*
X160590476Y-112695238D01*
X160495238Y-112600000D01*
X160352380Y-112552380D01*
X160257142Y-112552380D01*
X160114285Y-112600000D01*
X160066666Y-112647619D01*
X159209523Y-112552380D02*
X159400000Y-112552380D01*
X159495238Y-112600000D01*
X159542857Y-112647619D01*
X159638095Y-112790476D01*
X159685714Y-112980952D01*
X159685714Y-113361904D01*
X159638095Y-113457142D01*
X159590476Y-113504761D01*
X159495238Y-113552380D01*
X159304761Y-113552380D01*
X159209523Y-113504761D01*
X159161904Y-113457142D01*
X159114285Y-113361904D01*
X159114285Y-113123809D01*
X159161904Y-113028571D01*
X159209523Y-112980952D01*
X159304761Y-112933333D01*
X159495238Y-112933333D01*
X159590476Y-112980952D01*
X159638095Y-113028571D01*
X159685714Y-113123809D01*
%TO.C,C40*%
X172342857Y-111667142D02*
X172390476Y-111714761D01*
X172533333Y-111762380D01*
X172628571Y-111762380D01*
X172771428Y-111714761D01*
X172866666Y-111619523D01*
X172914285Y-111524285D01*
X172961904Y-111333809D01*
X172961904Y-111190952D01*
X172914285Y-111000476D01*
X172866666Y-110905238D01*
X172771428Y-110810000D01*
X172628571Y-110762380D01*
X172533333Y-110762380D01*
X172390476Y-110810000D01*
X172342857Y-110857619D01*
X171485714Y-111095714D02*
X171485714Y-111762380D01*
X171723809Y-110714761D02*
X171961904Y-111429047D01*
X171342857Y-111429047D01*
X170771428Y-110762380D02*
X170676190Y-110762380D01*
X170580952Y-110810000D01*
X170533333Y-110857619D01*
X170485714Y-110952857D01*
X170438095Y-111143333D01*
X170438095Y-111381428D01*
X170485714Y-111571904D01*
X170533333Y-111667142D01*
X170580952Y-111714761D01*
X170676190Y-111762380D01*
X170771428Y-111762380D01*
X170866666Y-111714761D01*
X170914285Y-111667142D01*
X170961904Y-111571904D01*
X171009523Y-111381428D01*
X171009523Y-111143333D01*
X170961904Y-110952857D01*
X170914285Y-110857619D01*
X170866666Y-110810000D01*
X170771428Y-110762380D01*
%TO.C,C8*%
X168557142Y-100733333D02*
X168604761Y-100685714D01*
X168652380Y-100542857D01*
X168652380Y-100447619D01*
X168604761Y-100304761D01*
X168509523Y-100209523D01*
X168414285Y-100161904D01*
X168223809Y-100114285D01*
X168080952Y-100114285D01*
X167890476Y-100161904D01*
X167795238Y-100209523D01*
X167700000Y-100304761D01*
X167652380Y-100447619D01*
X167652380Y-100542857D01*
X167700000Y-100685714D01*
X167747619Y-100733333D01*
X168080952Y-101304761D02*
X168033333Y-101209523D01*
X167985714Y-101161904D01*
X167890476Y-101114285D01*
X167842857Y-101114285D01*
X167747619Y-101161904D01*
X167700000Y-101209523D01*
X167652380Y-101304761D01*
X167652380Y-101495238D01*
X167700000Y-101590476D01*
X167747619Y-101638095D01*
X167842857Y-101685714D01*
X167890476Y-101685714D01*
X167985714Y-101638095D01*
X168033333Y-101590476D01*
X168080952Y-101495238D01*
X168080952Y-101304761D01*
X168128571Y-101209523D01*
X168176190Y-101161904D01*
X168271428Y-101114285D01*
X168461904Y-101114285D01*
X168557142Y-101161904D01*
X168604761Y-101209523D01*
X168652380Y-101304761D01*
X168652380Y-101495238D01*
X168604761Y-101590476D01*
X168557142Y-101638095D01*
X168461904Y-101685714D01*
X168271428Y-101685714D01*
X168176190Y-101638095D01*
X168128571Y-101590476D01*
X168080952Y-101495238D01*
%TO.C,C7*%
X155066666Y-116457142D02*
X155114285Y-116504761D01*
X155257142Y-116552380D01*
X155352380Y-116552380D01*
X155495238Y-116504761D01*
X155590476Y-116409523D01*
X155638095Y-116314285D01*
X155685714Y-116123809D01*
X155685714Y-115980952D01*
X155638095Y-115790476D01*
X155590476Y-115695238D01*
X155495238Y-115600000D01*
X155352380Y-115552380D01*
X155257142Y-115552380D01*
X155114285Y-115600000D01*
X155066666Y-115647619D01*
X154733333Y-115552380D02*
X154066666Y-115552380D01*
X154495238Y-116552380D01*
%TO.C,R32*%
X165352380Y-56257142D02*
X164876190Y-55923809D01*
X165352380Y-55685714D02*
X164352380Y-55685714D01*
X164352380Y-56066666D01*
X164400000Y-56161904D01*
X164447619Y-56209523D01*
X164542857Y-56257142D01*
X164685714Y-56257142D01*
X164780952Y-56209523D01*
X164828571Y-56161904D01*
X164876190Y-56066666D01*
X164876190Y-55685714D01*
X164352380Y-56590476D02*
X164352380Y-57209523D01*
X164733333Y-56876190D01*
X164733333Y-57019047D01*
X164780952Y-57114285D01*
X164828571Y-57161904D01*
X164923809Y-57209523D01*
X165161904Y-57209523D01*
X165257142Y-57161904D01*
X165304761Y-57114285D01*
X165352380Y-57019047D01*
X165352380Y-56733333D01*
X165304761Y-56638095D01*
X165257142Y-56590476D01*
X164447619Y-57590476D02*
X164400000Y-57638095D01*
X164352380Y-57733333D01*
X164352380Y-57971428D01*
X164400000Y-58066666D01*
X164447619Y-58114285D01*
X164542857Y-58161904D01*
X164638095Y-58161904D01*
X164780952Y-58114285D01*
X165352380Y-57542857D01*
X165352380Y-58161904D01*
%TO.C,R15*%
X161517857Y-111922380D02*
X161851190Y-111446190D01*
X162089285Y-111922380D02*
X162089285Y-110922380D01*
X161708333Y-110922380D01*
X161613095Y-110970000D01*
X161565476Y-111017619D01*
X161517857Y-111112857D01*
X161517857Y-111255714D01*
X161565476Y-111350952D01*
X161613095Y-111398571D01*
X161708333Y-111446190D01*
X162089285Y-111446190D01*
X160565476Y-111922380D02*
X161136904Y-111922380D01*
X160851190Y-111922380D02*
X160851190Y-110922380D01*
X160946428Y-111065238D01*
X161041666Y-111160476D01*
X161136904Y-111208095D01*
X159660714Y-110922380D02*
X160136904Y-110922380D01*
X160184523Y-111398571D01*
X160136904Y-111350952D01*
X160041666Y-111303333D01*
X159803571Y-111303333D01*
X159708333Y-111350952D01*
X159660714Y-111398571D01*
X159613095Y-111493809D01*
X159613095Y-111731904D01*
X159660714Y-111827142D01*
X159708333Y-111874761D01*
X159803571Y-111922380D01*
X160041666Y-111922380D01*
X160136904Y-111874761D01*
X160184523Y-111827142D01*
%TO.C,R31*%
X168552380Y-56157142D02*
X168076190Y-55823809D01*
X168552380Y-55585714D02*
X167552380Y-55585714D01*
X167552380Y-55966666D01*
X167600000Y-56061904D01*
X167647619Y-56109523D01*
X167742857Y-56157142D01*
X167885714Y-56157142D01*
X167980952Y-56109523D01*
X168028571Y-56061904D01*
X168076190Y-55966666D01*
X168076190Y-55585714D01*
X167552380Y-56490476D02*
X167552380Y-57109523D01*
X167933333Y-56776190D01*
X167933333Y-56919047D01*
X167980952Y-57014285D01*
X168028571Y-57061904D01*
X168123809Y-57109523D01*
X168361904Y-57109523D01*
X168457142Y-57061904D01*
X168504761Y-57014285D01*
X168552380Y-56919047D01*
X168552380Y-56633333D01*
X168504761Y-56538095D01*
X168457142Y-56490476D01*
X168552380Y-58061904D02*
X168552380Y-57490476D01*
X168552380Y-57776190D02*
X167552380Y-57776190D01*
X167695238Y-57680952D01*
X167790476Y-57585714D01*
X167838095Y-57490476D01*
%TO.C,C1*%
X170157142Y-100833333D02*
X170204761Y-100785714D01*
X170252380Y-100642857D01*
X170252380Y-100547619D01*
X170204761Y-100404761D01*
X170109523Y-100309523D01*
X170014285Y-100261904D01*
X169823809Y-100214285D01*
X169680952Y-100214285D01*
X169490476Y-100261904D01*
X169395238Y-100309523D01*
X169300000Y-100404761D01*
X169252380Y-100547619D01*
X169252380Y-100642857D01*
X169300000Y-100785714D01*
X169347619Y-100833333D01*
X170252380Y-101785714D02*
X170252380Y-101214285D01*
X170252380Y-101500000D02*
X169252380Y-101500000D01*
X169395238Y-101404761D01*
X169490476Y-101309523D01*
X169538095Y-101214285D01*
%TO.C,BT1*%
X172500000Y-73300000D02*
X172300000Y-73366666D01*
X172233333Y-73433333D01*
X172166666Y-73566666D01*
X172166666Y-73766666D01*
X172233333Y-73900000D01*
X172300000Y-73966666D01*
X172433333Y-74033333D01*
X172966666Y-74033333D01*
X172966666Y-72633333D01*
X172500000Y-72633333D01*
X172366666Y-72700000D01*
X172300000Y-72766666D01*
X172233333Y-72900000D01*
X172233333Y-73033333D01*
X172300000Y-73166666D01*
X172366666Y-73233333D01*
X172500000Y-73300000D01*
X172966666Y-73300000D01*
X171766666Y-72633333D02*
X170966666Y-72633333D01*
X171366666Y-74033333D02*
X171366666Y-72633333D01*
X169766666Y-74033333D02*
X170566666Y-74033333D01*
X170166666Y-74033333D02*
X170166666Y-72633333D01*
X170300000Y-72833333D01*
X170433333Y-72966666D01*
X170566666Y-73033333D01*
X172262000Y-83915666D02*
X172262000Y-84982333D01*
X172795333Y-84449000D02*
X171728666Y-84449000D01*
X172231000Y-61942666D02*
X172231000Y-63009333D01*
%TO.C,C25*%
X148957142Y-125932142D02*
X149004761Y-125884523D01*
X149052380Y-125741666D01*
X149052380Y-125646428D01*
X149004761Y-125503571D01*
X148909523Y-125408333D01*
X148814285Y-125360714D01*
X148623809Y-125313095D01*
X148480952Y-125313095D01*
X148290476Y-125360714D01*
X148195238Y-125408333D01*
X148100000Y-125503571D01*
X148052380Y-125646428D01*
X148052380Y-125741666D01*
X148100000Y-125884523D01*
X148147619Y-125932142D01*
X148147619Y-126313095D02*
X148100000Y-126360714D01*
X148052380Y-126455952D01*
X148052380Y-126694047D01*
X148100000Y-126789285D01*
X148147619Y-126836904D01*
X148242857Y-126884523D01*
X148338095Y-126884523D01*
X148480952Y-126836904D01*
X149052380Y-126265476D01*
X149052380Y-126884523D01*
X148052380Y-127789285D02*
X148052380Y-127313095D01*
X148528571Y-127265476D01*
X148480952Y-127313095D01*
X148433333Y-127408333D01*
X148433333Y-127646428D01*
X148480952Y-127741666D01*
X148528571Y-127789285D01*
X148623809Y-127836904D01*
X148861904Y-127836904D01*
X148957142Y-127789285D01*
X149004761Y-127741666D01*
X149052380Y-127646428D01*
X149052380Y-127408333D01*
X149004761Y-127313095D01*
X148957142Y-127265476D01*
%TO.C,C43*%
X169542857Y-122057142D02*
X169590476Y-122104761D01*
X169733333Y-122152380D01*
X169828571Y-122152380D01*
X169971428Y-122104761D01*
X170066666Y-122009523D01*
X170114285Y-121914285D01*
X170161904Y-121723809D01*
X170161904Y-121580952D01*
X170114285Y-121390476D01*
X170066666Y-121295238D01*
X169971428Y-121200000D01*
X169828571Y-121152380D01*
X169733333Y-121152380D01*
X169590476Y-121200000D01*
X169542857Y-121247619D01*
X168685714Y-121485714D02*
X168685714Y-122152380D01*
X168923809Y-121104761D02*
X169161904Y-121819047D01*
X168542857Y-121819047D01*
X168257142Y-121152380D02*
X167638095Y-121152380D01*
X167971428Y-121533333D01*
X167828571Y-121533333D01*
X167733333Y-121580952D01*
X167685714Y-121628571D01*
X167638095Y-121723809D01*
X167638095Y-121961904D01*
X167685714Y-122057142D01*
X167733333Y-122104761D01*
X167828571Y-122152380D01*
X168114285Y-122152380D01*
X168209523Y-122104761D01*
X168257142Y-122057142D01*
%TO.C,R18*%
X160692857Y-106982380D02*
X161026190Y-106506190D01*
X161264285Y-106982380D02*
X161264285Y-105982380D01*
X160883333Y-105982380D01*
X160788095Y-106030000D01*
X160740476Y-106077619D01*
X160692857Y-106172857D01*
X160692857Y-106315714D01*
X160740476Y-106410952D01*
X160788095Y-106458571D01*
X160883333Y-106506190D01*
X161264285Y-106506190D01*
X159740476Y-106982380D02*
X160311904Y-106982380D01*
X160026190Y-106982380D02*
X160026190Y-105982380D01*
X160121428Y-106125238D01*
X160216666Y-106220476D01*
X160311904Y-106268095D01*
X159169047Y-106410952D02*
X159264285Y-106363333D01*
X159311904Y-106315714D01*
X159359523Y-106220476D01*
X159359523Y-106172857D01*
X159311904Y-106077619D01*
X159264285Y-106030000D01*
X159169047Y-105982380D01*
X158978571Y-105982380D01*
X158883333Y-106030000D01*
X158835714Y-106077619D01*
X158788095Y-106172857D01*
X158788095Y-106220476D01*
X158835714Y-106315714D01*
X158883333Y-106363333D01*
X158978571Y-106410952D01*
X159169047Y-106410952D01*
X159264285Y-106458571D01*
X159311904Y-106506190D01*
X159359523Y-106601428D01*
X159359523Y-106791904D01*
X159311904Y-106887142D01*
X159264285Y-106934761D01*
X159169047Y-106982380D01*
X158978571Y-106982380D01*
X158883333Y-106934761D01*
X158835714Y-106887142D01*
X158788095Y-106791904D01*
X158788095Y-106601428D01*
X158835714Y-106506190D01*
X158883333Y-106458571D01*
X158978571Y-106410952D01*
%TO.C,C39*%
X164942857Y-95657142D02*
X164990476Y-95704761D01*
X165133333Y-95752380D01*
X165228571Y-95752380D01*
X165371428Y-95704761D01*
X165466666Y-95609523D01*
X165514285Y-95514285D01*
X165561904Y-95323809D01*
X165561904Y-95180952D01*
X165514285Y-94990476D01*
X165466666Y-94895238D01*
X165371428Y-94800000D01*
X165228571Y-94752380D01*
X165133333Y-94752380D01*
X164990476Y-94800000D01*
X164942857Y-94847619D01*
X164609523Y-94752380D02*
X163990476Y-94752380D01*
X164323809Y-95133333D01*
X164180952Y-95133333D01*
X164085714Y-95180952D01*
X164038095Y-95228571D01*
X163990476Y-95323809D01*
X163990476Y-95561904D01*
X164038095Y-95657142D01*
X164085714Y-95704761D01*
X164180952Y-95752380D01*
X164466666Y-95752380D01*
X164561904Y-95704761D01*
X164609523Y-95657142D01*
X163514285Y-95752380D02*
X163323809Y-95752380D01*
X163228571Y-95704761D01*
X163180952Y-95657142D01*
X163085714Y-95514285D01*
X163038095Y-95323809D01*
X163038095Y-94942857D01*
X163085714Y-94847619D01*
X163133333Y-94800000D01*
X163228571Y-94752380D01*
X163419047Y-94752380D01*
X163514285Y-94800000D01*
X163561904Y-94847619D01*
X163609523Y-94942857D01*
X163609523Y-95180952D01*
X163561904Y-95276190D01*
X163514285Y-95323809D01*
X163419047Y-95371428D01*
X163228571Y-95371428D01*
X163133333Y-95323809D01*
X163085714Y-95276190D01*
X163038095Y-95180952D01*
%TO.C,R17*%
X160692857Y-105482380D02*
X161026190Y-105006190D01*
X161264285Y-105482380D02*
X161264285Y-104482380D01*
X160883333Y-104482380D01*
X160788095Y-104530000D01*
X160740476Y-104577619D01*
X160692857Y-104672857D01*
X160692857Y-104815714D01*
X160740476Y-104910952D01*
X160788095Y-104958571D01*
X160883333Y-105006190D01*
X161264285Y-105006190D01*
X159740476Y-105482380D02*
X160311904Y-105482380D01*
X160026190Y-105482380D02*
X160026190Y-104482380D01*
X160121428Y-104625238D01*
X160216666Y-104720476D01*
X160311904Y-104768095D01*
X159407142Y-104482380D02*
X158740476Y-104482380D01*
X159169047Y-105482380D01*
%TO.C,C2*%
X157991666Y-99257142D02*
X158039285Y-99304761D01*
X158182142Y-99352380D01*
X158277380Y-99352380D01*
X158420238Y-99304761D01*
X158515476Y-99209523D01*
X158563095Y-99114285D01*
X158610714Y-98923809D01*
X158610714Y-98780952D01*
X158563095Y-98590476D01*
X158515476Y-98495238D01*
X158420238Y-98400000D01*
X158277380Y-98352380D01*
X158182142Y-98352380D01*
X158039285Y-98400000D01*
X157991666Y-98447619D01*
X157610714Y-98447619D02*
X157563095Y-98400000D01*
X157467857Y-98352380D01*
X157229761Y-98352380D01*
X157134523Y-98400000D01*
X157086904Y-98447619D01*
X157039285Y-98542857D01*
X157039285Y-98638095D01*
X157086904Y-98780952D01*
X157658333Y-99352380D01*
X157039285Y-99352380D01*
%TO.C,R12*%
X181152380Y-56057142D02*
X180676190Y-55723809D01*
X181152380Y-55485714D02*
X180152380Y-55485714D01*
X180152380Y-55866666D01*
X180200000Y-55961904D01*
X180247619Y-56009523D01*
X180342857Y-56057142D01*
X180485714Y-56057142D01*
X180580952Y-56009523D01*
X180628571Y-55961904D01*
X180676190Y-55866666D01*
X180676190Y-55485714D01*
X181152380Y-57009523D02*
X181152380Y-56438095D01*
X181152380Y-56723809D02*
X180152380Y-56723809D01*
X180295238Y-56628571D01*
X180390476Y-56533333D01*
X180438095Y-56438095D01*
X180247619Y-57390476D02*
X180200000Y-57438095D01*
X180152380Y-57533333D01*
X180152380Y-57771428D01*
X180200000Y-57866666D01*
X180247619Y-57914285D01*
X180342857Y-57961904D01*
X180438095Y-57961904D01*
X180580952Y-57914285D01*
X181152380Y-57342857D01*
X181152380Y-57961904D01*
%TO.C,R33*%
X177552380Y-56157142D02*
X177076190Y-55823809D01*
X177552380Y-55585714D02*
X176552380Y-55585714D01*
X176552380Y-55966666D01*
X176600000Y-56061904D01*
X176647619Y-56109523D01*
X176742857Y-56157142D01*
X176885714Y-56157142D01*
X176980952Y-56109523D01*
X177028571Y-56061904D01*
X177076190Y-55966666D01*
X177076190Y-55585714D01*
X176552380Y-56490476D02*
X176552380Y-57109523D01*
X176933333Y-56776190D01*
X176933333Y-56919047D01*
X176980952Y-57014285D01*
X177028571Y-57061904D01*
X177123809Y-57109523D01*
X177361904Y-57109523D01*
X177457142Y-57061904D01*
X177504761Y-57014285D01*
X177552380Y-56919047D01*
X177552380Y-56633333D01*
X177504761Y-56538095D01*
X177457142Y-56490476D01*
X176552380Y-57442857D02*
X176552380Y-58061904D01*
X176933333Y-57728571D01*
X176933333Y-57871428D01*
X176980952Y-57966666D01*
X177028571Y-58014285D01*
X177123809Y-58061904D01*
X177361904Y-58061904D01*
X177457142Y-58014285D01*
X177504761Y-57966666D01*
X177552380Y-57871428D01*
X177552380Y-57585714D01*
X177504761Y-57490476D01*
X177457142Y-57442857D01*
D11*
%TO.C,C9*%
X155523914Y-100910000D02*
X155242754Y-100910000D01*
X155523914Y-99890000D02*
X155242754Y-99890000D01*
%TO.C,R16*%
X158237258Y-110492500D02*
X157762742Y-110492500D01*
X158237258Y-109447500D02*
X157762742Y-109447500D01*
%TO.C,C5*%
X164990000Y-110934420D02*
X164990000Y-111215580D01*
X166010000Y-110934420D02*
X166010000Y-111215580D01*
%TO.C,C4*%
X152090000Y-111215580D02*
X152090000Y-110934420D01*
X153110000Y-111215580D02*
X153110000Y-110934420D01*
%TO.C,C3*%
X150065000Y-111086252D02*
X150065000Y-110563748D01*
X151535000Y-111086252D02*
X151535000Y-110563748D01*
%TO.C,R30*%
X170677500Y-59662742D02*
X170677500Y-60137258D01*
X171722500Y-59662742D02*
X171722500Y-60137258D01*
%TO.C,C22*%
X152948000Y-123840580D02*
X152948000Y-123559420D01*
X151928000Y-123840580D02*
X151928000Y-123559420D01*
%TO.C,C24*%
X153428000Y-123840580D02*
X153428000Y-123559420D01*
X154448000Y-123840580D02*
X154448000Y-123559420D01*
%TO.C,C26*%
X149590000Y-123840580D02*
X149590000Y-123559420D01*
X150610000Y-123840580D02*
X150610000Y-123559420D01*
%TO.C,R34*%
X173577500Y-59675242D02*
X173577500Y-60149758D01*
X174622500Y-59675242D02*
X174622500Y-60149758D01*
%TO.C,C23*%
X155990000Y-119059420D02*
X155990000Y-119340580D01*
X157010000Y-119059420D02*
X157010000Y-119340580D01*
%TO.C,C6*%
X162465580Y-113610000D02*
X162184420Y-113610000D01*
X162465580Y-112590000D02*
X162184420Y-112590000D01*
%TO.C,C40*%
X174754420Y-110800000D02*
X175035580Y-110800000D01*
X174754420Y-111820000D02*
X175035580Y-111820000D01*
%TO.C,C8*%
X168710000Y-103540580D02*
X168710000Y-103259420D01*
X167690000Y-103540580D02*
X167690000Y-103259420D01*
%TO.C,C7*%
X157284420Y-115590000D02*
X157565580Y-115590000D01*
X157284420Y-116610000D02*
X157565580Y-116610000D01*
%TO.C,R32*%
X165422500Y-59662742D02*
X165422500Y-60137258D01*
X164377500Y-59662742D02*
X164377500Y-60137258D01*
%TO.C,R15*%
X158237258Y-110947500D02*
X157762742Y-110947500D01*
X158237258Y-111992500D02*
X157762742Y-111992500D01*
%TO.C,R31*%
X168622500Y-59675242D02*
X168622500Y-60149758D01*
X167577500Y-59675242D02*
X167577500Y-60149758D01*
%TO.C,C1*%
X170218810Y-103540580D02*
X170218810Y-103259420D01*
X169198810Y-103540580D02*
X169198810Y-103259420D01*
D12*
%TO.C,BT1*%
X164200000Y-80585000D02*
X169780000Y-80585000D01*
X164200000Y-78070000D02*
X164900000Y-77100000D01*
X178600000Y-78070000D02*
X177900000Y-77100000D01*
X178600000Y-80585000D02*
X178600000Y-78070000D01*
X164200000Y-80585000D02*
X164200000Y-78070000D01*
X173020000Y-80585000D02*
X178600000Y-80585000D01*
X169780000Y-66080002D02*
G75*
G03*
X164900000Y-77100000I1623808J-7309580D01*
G01*
X177900000Y-77100001D02*
G75*
G03*
X173020000Y-66080000I-6503807J3710420D01*
G01*
D11*
%TO.C,C25*%
X149010000Y-123840580D02*
X149010000Y-123559420D01*
X147990000Y-123840580D02*
X147990000Y-123559420D01*
%TO.C,C43*%
X171940580Y-122210000D02*
X171659420Y-122210000D01*
X171940580Y-121190000D02*
X171659420Y-121190000D01*
%TO.C,R18*%
X162687742Y-106007500D02*
X163162258Y-106007500D01*
X162687742Y-107052500D02*
X163162258Y-107052500D01*
%TO.C,C39*%
X167334420Y-95810000D02*
X167615580Y-95810000D01*
X167334420Y-94790000D02*
X167615580Y-94790000D01*
%TO.C,R17*%
X162687742Y-105552500D02*
X163162258Y-105552500D01*
X162687742Y-104507500D02*
X163162258Y-104507500D01*
%TO.C,C2*%
X155540580Y-99410000D02*
X155259420Y-99410000D01*
X155540580Y-98390000D02*
X155259420Y-98390000D01*
%TO.C,R12*%
X181222500Y-59737742D02*
X181222500Y-60212258D01*
X180177500Y-59737742D02*
X180177500Y-60212258D01*
%TO.C,R33*%
X176577500Y-59675242D02*
X176577500Y-60149758D01*
X177622500Y-59675242D02*
X177622500Y-60149758D01*
%TD*%
M02*
