%TF.GenerationSoftware,KiCad,Pcbnew,(6.0.0)*%
%TF.CreationDate,2022-03-02T14:27:29+07:00*%
%TF.ProjectId,FC-32,46432d33-322e-46b6-9963-61645f706362,rev?*%
%TF.SameCoordinates,Original*%
%TF.FileFunction,Soldermask,Bot*%
%TF.FilePolarity,Negative*%
%FSLAX46Y46*%
G04 Gerber Fmt 4.6, Leading zero omitted, Abs format (unit mm)*
G04 Created by KiCad (PCBNEW (6.0.0)) date 2022-03-02 14:27:29*
%MOMM*%
%LPD*%
G01*
G04 APERTURE LIST*
G04 Aperture macros list*
%AMRoundRect*
0 Rectangle with rounded corners*
0 $1 Rounding radius*
0 $2 $3 $4 $5 $6 $7 $8 $9 X,Y pos of 4 corners*
0 Add a 4 corners polygon primitive as box body*
4,1,4,$2,$3,$4,$5,$6,$7,$8,$9,$2,$3,0*
0 Add four circle primitives for the rounded corners*
1,1,$1+$1,$2,$3*
1,1,$1+$1,$4,$5*
1,1,$1+$1,$6,$7*
1,1,$1+$1,$8,$9*
0 Add four rect primitives between the rounded corners*
20,1,$1+$1,$2,$3,$4,$5,0*
20,1,$1+$1,$4,$5,$6,$7,0*
20,1,$1+$1,$6,$7,$8,$9,0*
20,1,$1+$1,$8,$9,$2,$3,0*%
G04 Aperture macros list end*
%ADD10R,2.000000X2.000000*%
%ADD11C,2.000000*%
%ADD12C,0.800000*%
%ADD13C,6.000000*%
%ADD14R,1.700000X1.700000*%
%ADD15O,1.700000X1.700000*%
%ADD16C,0.900000*%
%ADD17O,1.200000X1.900000*%
%ADD18C,1.450000*%
%ADD19RoundRect,0.225000X0.225000X0.250000X-0.225000X0.250000X-0.225000X-0.250000X0.225000X-0.250000X0*%
%ADD20RoundRect,0.200000X0.200000X0.275000X-0.200000X0.275000X-0.200000X-0.275000X0.200000X-0.275000X0*%
%ADD21RoundRect,0.225000X-0.250000X0.225000X-0.250000X-0.225000X0.250000X-0.225000X0.250000X0.225000X0*%
%ADD22RoundRect,0.225000X0.250000X-0.225000X0.250000X0.225000X-0.250000X0.225000X-0.250000X-0.225000X0*%
%ADD23RoundRect,0.250000X0.475000X-0.250000X0.475000X0.250000X-0.475000X0.250000X-0.475000X-0.250000X0*%
%ADD24RoundRect,0.200000X-0.275000X0.200000X-0.275000X-0.200000X0.275000X-0.200000X0.275000X0.200000X0*%
%ADD25RoundRect,0.225000X-0.225000X-0.250000X0.225000X-0.250000X0.225000X0.250000X-0.225000X0.250000X0*%
%ADD26C,1.000000*%
%ADD27C,1.300000*%
%ADD28R,2.600000X3.660000*%
%ADD29R,2.600000X3.540000*%
%ADD30RoundRect,0.200000X-0.200000X-0.275000X0.200000X-0.275000X0.200000X0.275000X-0.200000X0.275000X0*%
G04 APERTURE END LIST*
D10*
%TO.C,BZ1*%
X143990000Y-82790000D03*
D11*
X151590000Y-82790000D03*
%TD*%
D12*
%TO.C,H4*%
X131909010Y-134909010D03*
X135750000Y-136500000D03*
X135090990Y-138090990D03*
D13*
X133500000Y-136500000D03*
D12*
X131250000Y-136500000D03*
X135090990Y-134909010D03*
X133500000Y-134250000D03*
X131909010Y-138090990D03*
X133500000Y-138750000D03*
%TD*%
D14*
%TO.C,POW1*%
X185560000Y-94700000D03*
D15*
X188100000Y-94700000D03*
X185560000Y-97240000D03*
X188100000Y-97240000D03*
X185560000Y-99780000D03*
X188100000Y-99780000D03*
X185560000Y-102320000D03*
X188100000Y-102320000D03*
X185560000Y-104860000D03*
X188100000Y-104860000D03*
X185560000Y-107400000D03*
X188100000Y-107400000D03*
X185560000Y-109940000D03*
X188100000Y-109940000D03*
X185560000Y-112480000D03*
X188100000Y-112480000D03*
%TD*%
D12*
%TO.C,H2*%
X188090990Y-56909010D03*
X184250000Y-58500000D03*
X188750000Y-58500000D03*
X184909010Y-60090990D03*
X188090990Y-60090990D03*
D13*
X186500000Y-58500000D03*
D12*
X186500000Y-60750000D03*
X184909010Y-56909010D03*
X186500000Y-56250000D03*
%TD*%
%TO.C,H1*%
X188090990Y-138090990D03*
X188090990Y-134909010D03*
X188750000Y-136500000D03*
X186500000Y-134250000D03*
X186500000Y-138750000D03*
X184909010Y-138090990D03*
X184909010Y-134909010D03*
X184250000Y-136500000D03*
D13*
X186500000Y-136500000D03*
%TD*%
D14*
%TO.C,PWM_SIG1*%
X183035000Y-116435000D03*
D15*
X183035000Y-118975000D03*
X183035000Y-121515000D03*
X183035000Y-124055000D03*
%TD*%
D12*
%TO.C,H3*%
X135090990Y-60090990D03*
D13*
X133500000Y-58500000D03*
D12*
X131909010Y-60090990D03*
X131909010Y-56909010D03*
X133500000Y-56250000D03*
X133500000Y-60750000D03*
X135750000Y-58500000D03*
X131250000Y-58500000D03*
X135090990Y-56909010D03*
%TD*%
D14*
%TO.C,SIG1*%
X183035000Y-94695000D03*
D15*
X183035000Y-97235000D03*
X183035000Y-99775000D03*
X183035000Y-102315000D03*
X183035000Y-104855000D03*
X183035000Y-107395000D03*
X183035000Y-109935000D03*
X183035000Y-112475000D03*
%TD*%
D14*
%TO.C,PWM_POW1*%
X185570000Y-116445000D03*
D15*
X188110000Y-116445000D03*
X185570000Y-118985000D03*
X188110000Y-118985000D03*
X185570000Y-121525000D03*
X188110000Y-121525000D03*
X185570000Y-124065000D03*
X188110000Y-124065000D03*
%TD*%
D16*
%TO.C,BOOT1*%
X139600000Y-138230000D03*
X142600000Y-138230000D03*
%TD*%
D17*
%TO.C,J4*%
X153800000Y-57204000D03*
D18*
X159800000Y-59904000D03*
D17*
X160800000Y-57204000D03*
D18*
X154800000Y-59904000D03*
%TD*%
%TO.C,J5*%
X143600000Y-59900000D03*
D17*
X149600000Y-57200000D03*
D18*
X148600000Y-59900000D03*
D17*
X142600000Y-57200000D03*
%TD*%
D19*
%TO.C,C9*%
X156158334Y-100400000D03*
X154608334Y-100400000D03*
%TD*%
D20*
%TO.C,R16*%
X158825000Y-109970000D03*
X157175000Y-109970000D03*
%TD*%
D21*
%TO.C,C5*%
X165500000Y-110300000D03*
X165500000Y-111850000D03*
%TD*%
D22*
%TO.C,C4*%
X152600000Y-111850000D03*
X152600000Y-110300000D03*
%TD*%
D23*
%TO.C,C3*%
X150800000Y-111775000D03*
X150800000Y-109875000D03*
%TD*%
D24*
%TO.C,R30*%
X171200000Y-59075000D03*
X171200000Y-60725000D03*
%TD*%
D22*
%TO.C,C22*%
X152438000Y-124475000D03*
X152438000Y-122925000D03*
%TD*%
%TO.C,C24*%
X153938000Y-124475000D03*
X153938000Y-122925000D03*
%TD*%
%TO.C,C26*%
X150100000Y-124475000D03*
X150100000Y-122925000D03*
%TD*%
D24*
%TO.C,R34*%
X174100000Y-59087500D03*
X174100000Y-60737500D03*
%TD*%
D21*
%TO.C,C23*%
X156500000Y-118425000D03*
X156500000Y-119975000D03*
%TD*%
D19*
%TO.C,C6*%
X163100000Y-113100000D03*
X161550000Y-113100000D03*
%TD*%
D25*
%TO.C,C40*%
X174120000Y-111310000D03*
X175670000Y-111310000D03*
%TD*%
D22*
%TO.C,C8*%
X168200000Y-104175000D03*
X168200000Y-102625000D03*
%TD*%
D25*
%TO.C,C7*%
X156650000Y-116100000D03*
X158200000Y-116100000D03*
%TD*%
D24*
%TO.C,R32*%
X164900000Y-59075000D03*
X164900000Y-60725000D03*
%TD*%
D20*
%TO.C,R15*%
X158825000Y-111470000D03*
X157175000Y-111470000D03*
%TD*%
D24*
%TO.C,R31*%
X168100000Y-59087500D03*
X168100000Y-60737500D03*
%TD*%
D22*
%TO.C,C1*%
X169708810Y-104175000D03*
X169708810Y-102625000D03*
%TD*%
D26*
%TO.C,BT1*%
X171400000Y-69900000D03*
D27*
X171400000Y-77400000D03*
D28*
X171400000Y-65830000D03*
D29*
X171400000Y-81630000D03*
%TD*%
D22*
%TO.C,C25*%
X148500000Y-124475000D03*
X148500000Y-122925000D03*
%TD*%
D19*
%TO.C,C43*%
X172575000Y-121700000D03*
X171025000Y-121700000D03*
%TD*%
D30*
%TO.C,R18*%
X162100000Y-106530000D03*
X163750000Y-106530000D03*
%TD*%
D25*
%TO.C,C39*%
X166700000Y-95300000D03*
X168250000Y-95300000D03*
%TD*%
D30*
%TO.C,R17*%
X162100000Y-105030000D03*
X163750000Y-105030000D03*
%TD*%
D19*
%TO.C,C2*%
X156175000Y-98900000D03*
X154625000Y-98900000D03*
%TD*%
D24*
%TO.C,R12*%
X180700000Y-59150000D03*
X180700000Y-60800000D03*
%TD*%
%TO.C,R33*%
X177100000Y-59087500D03*
X177100000Y-60737500D03*
%TD*%
M02*
