%TF.GenerationSoftware,KiCad,Pcbnew,(6.0.0)*%
%TF.CreationDate,2022-03-02T14:27:29+07:00*%
%TF.ProjectId,FC-32,46432d33-322e-46b6-9963-61645f706362,rev?*%
%TF.SameCoordinates,Original*%
%TF.FileFunction,Paste,Bot*%
%TF.FilePolarity,Positive*%
%FSLAX46Y46*%
G04 Gerber Fmt 4.6, Leading zero omitted, Abs format (unit mm)*
G04 Created by KiCad (PCBNEW (6.0.0)) date 2022-03-02 14:27:29*
%MOMM*%
%LPD*%
G01*
G04 APERTURE LIST*
G04 Aperture macros list*
%AMRoundRect*
0 Rectangle with rounded corners*
0 $1 Rounding radius*
0 $2 $3 $4 $5 $6 $7 $8 $9 X,Y pos of 4 corners*
0 Add a 4 corners polygon primitive as box body*
4,1,4,$2,$3,$4,$5,$6,$7,$8,$9,$2,$3,0*
0 Add four circle primitives for the rounded corners*
1,1,$1+$1,$2,$3*
1,1,$1+$1,$4,$5*
1,1,$1+$1,$6,$7*
1,1,$1+$1,$8,$9*
0 Add four rect primitives between the rounded corners*
20,1,$1+$1,$2,$3,$4,$5,0*
20,1,$1+$1,$4,$5,$6,$7,0*
20,1,$1+$1,$6,$7,$8,$9,0*
20,1,$1+$1,$8,$9,$2,$3,0*%
G04 Aperture macros list end*
%ADD10RoundRect,0.225000X0.225000X0.250000X-0.225000X0.250000X-0.225000X-0.250000X0.225000X-0.250000X0*%
%ADD11RoundRect,0.200000X0.200000X0.275000X-0.200000X0.275000X-0.200000X-0.275000X0.200000X-0.275000X0*%
%ADD12RoundRect,0.225000X-0.250000X0.225000X-0.250000X-0.225000X0.250000X-0.225000X0.250000X0.225000X0*%
%ADD13RoundRect,0.225000X0.250000X-0.225000X0.250000X0.225000X-0.250000X0.225000X-0.250000X-0.225000X0*%
%ADD14RoundRect,0.250000X0.475000X-0.250000X0.475000X0.250000X-0.475000X0.250000X-0.475000X-0.250000X0*%
%ADD15RoundRect,0.200000X-0.275000X0.200000X-0.275000X-0.200000X0.275000X-0.200000X0.275000X0.200000X0*%
%ADD16RoundRect,0.225000X-0.225000X-0.250000X0.225000X-0.250000X0.225000X0.250000X-0.225000X0.250000X0*%
%ADD17R,2.600000X3.660000*%
%ADD18R,2.600000X3.540000*%
%ADD19RoundRect,0.200000X-0.200000X-0.275000X0.200000X-0.275000X0.200000X0.275000X-0.200000X0.275000X0*%
G04 APERTURE END LIST*
D10*
%TO.C,C9*%
X156158334Y-100400000D03*
X154608334Y-100400000D03*
%TD*%
D11*
%TO.C,R16*%
X158825000Y-109970000D03*
X157175000Y-109970000D03*
%TD*%
D12*
%TO.C,C5*%
X165500000Y-110300000D03*
X165500000Y-111850000D03*
%TD*%
D13*
%TO.C,C4*%
X152600000Y-111850000D03*
X152600000Y-110300000D03*
%TD*%
D14*
%TO.C,C3*%
X150800000Y-111775000D03*
X150800000Y-109875000D03*
%TD*%
D15*
%TO.C,R30*%
X171200000Y-59075000D03*
X171200000Y-60725000D03*
%TD*%
D13*
%TO.C,C22*%
X152438000Y-124475000D03*
X152438000Y-122925000D03*
%TD*%
%TO.C,C24*%
X153938000Y-124475000D03*
X153938000Y-122925000D03*
%TD*%
%TO.C,C26*%
X150100000Y-124475000D03*
X150100000Y-122925000D03*
%TD*%
D15*
%TO.C,R34*%
X174100000Y-59087500D03*
X174100000Y-60737500D03*
%TD*%
D12*
%TO.C,C23*%
X156500000Y-118425000D03*
X156500000Y-119975000D03*
%TD*%
D10*
%TO.C,C6*%
X163100000Y-113100000D03*
X161550000Y-113100000D03*
%TD*%
D16*
%TO.C,C40*%
X174120000Y-111310000D03*
X175670000Y-111310000D03*
%TD*%
D13*
%TO.C,C8*%
X168200000Y-104175000D03*
X168200000Y-102625000D03*
%TD*%
D16*
%TO.C,C7*%
X156650000Y-116100000D03*
X158200000Y-116100000D03*
%TD*%
D15*
%TO.C,R32*%
X164900000Y-59075000D03*
X164900000Y-60725000D03*
%TD*%
D11*
%TO.C,R15*%
X158825000Y-111470000D03*
X157175000Y-111470000D03*
%TD*%
D15*
%TO.C,R31*%
X168100000Y-59087500D03*
X168100000Y-60737500D03*
%TD*%
D13*
%TO.C,C1*%
X169708810Y-104175000D03*
X169708810Y-102625000D03*
%TD*%
D17*
%TO.C,BT1*%
X171400000Y-65830000D03*
D18*
X171400000Y-81630000D03*
%TD*%
D13*
%TO.C,C25*%
X148500000Y-124475000D03*
X148500000Y-122925000D03*
%TD*%
D10*
%TO.C,C43*%
X172575000Y-121700000D03*
X171025000Y-121700000D03*
%TD*%
D19*
%TO.C,R18*%
X162100000Y-106530000D03*
X163750000Y-106530000D03*
%TD*%
D16*
%TO.C,C39*%
X166700000Y-95300000D03*
X168250000Y-95300000D03*
%TD*%
D19*
%TO.C,R17*%
X162100000Y-105030000D03*
X163750000Y-105030000D03*
%TD*%
D10*
%TO.C,C2*%
X156175000Y-98900000D03*
X154625000Y-98900000D03*
%TD*%
D15*
%TO.C,R12*%
X180700000Y-59150000D03*
X180700000Y-60800000D03*
%TD*%
%TO.C,R33*%
X177100000Y-59087500D03*
X177100000Y-60737500D03*
%TD*%
M02*
