M48
; DRILL file {KiCad (6.0.0)} date Wed Mar  2 14:27:27 2022
; FORMAT={-:-/ absolute / metric / decimal}
; #@! TF.CreationDate,2022-03-02T14:27:27+07:00
; #@! TF.GenerationSoftware,Kicad,Pcbnew,(6.0.0)
; #@! TF.FileFunction,Plated,1,4,PTH
FMAT,2
METRIC
; #@! TA.AperFunction,Plated,PTH,ComponentDrill
T1C0.300
; #@! TA.AperFunction,Plated,PTH,ViaDrill
T2C0.400
; #@! TA.AperFunction,Plated,PTH,ComponentDrill
T3C0.500
; #@! TA.AperFunction,Plated,PTH,ComponentDrill
T4C0.600
; #@! TA.AperFunction,Plated,PTH,ComponentDrill
T5C0.850
; #@! TA.AperFunction,Plated,PTH,ComponentDrill
T6C1.000
; #@! TA.AperFunction,Plated,PTH,ComponentDrill
T7C3.000
%
G90
G05
T1
X184.1Y-90.2
T2
X133.32Y-68.98
X133.34Y-68.16
X134.08Y-68.12
X134.115Y-68.915
X134.97Y-68.12
X136.3Y-95.4
X136.3Y-97.4
X136.3Y-128.8
X136.4Y-70.2
X136.4Y-113.0
X136.4Y-115.1
X136.4Y-126.7
X136.5Y-83.7
X137.0Y-57.0
X138.1Y-62.8
X138.8Y-135.0
X138.9Y-57.9
X139.0Y-57.0
X139.6Y-70.1
X139.7Y-95.3
X139.7Y-97.3
X139.8Y-81.8
X139.8Y-83.7
X139.8Y-115.0
X139.8Y-128.7
X139.9Y-113.1
X140.0Y-126.8
X142.8Y-63.8
X142.8Y-72.4
X142.8Y-123.925
X143.3Y-135.3
X144.4Y-124.025
X144.4Y-125.025
X145.4Y-66.9
X145.5Y-128.7
X146.0Y-119.1
X146.4Y-74.0
X146.7Y-129.4
X147.7Y-89.1
X148.0Y-104.9
X148.0Y-124.0
X148.5Y-112.5
X148.5Y-122.1
X148.54Y-84.76
X149.2Y-66.7
X149.2Y-125.9
X149.5Y-116.1
X150.1Y-122.2
X150.7Y-112.6
X150.8Y-68.7
X150.9Y-123.9
X151.5Y-84.7
X151.649Y-117.4
X151.792Y-123.886
X152.0Y-69.7
X152.2Y-121.6
X152.3Y-104.9
X152.4Y-116.1
X152.5Y-89.1
X152.6Y-112.6
X152.9Y-127.9
X153.033Y-121.858
X153.3Y-112.2
X153.3Y-116.1
X153.6Y-64.2
X153.8Y-100.4
X153.9Y-98.8
X153.938Y-122.0
X154.0Y-116.6
X154.5Y-69.6
X154.5Y-71.1
X154.5Y-75.6
X154.622Y-121.587
X154.675Y-124.1
X155.5Y-124.7
X155.6Y-118.1
X155.6Y-120.1
X156.0Y-116.1
X156.1Y-71.0
X156.2Y-112.4
X156.3Y-101.1
X156.38Y-81.45
X156.8Y-98.9
X157.12Y-84.27
X157.19Y-80.62
X157.2Y-109.3
X157.2Y-112.2
X157.242Y-121.242
X157.3Y-130.2
X158.0Y-116.9
X158.8Y-109.1
X158.8Y-112.2
X159.274Y-70.9
X159.3Y-130.2
X159.9Y-72.4
X160.0Y-68.7
X160.37Y-83.81
X160.5Y-64.2
X161.2Y-88.1
X161.3Y-105.0
X161.4Y-106.5
X161.9Y-77.3
X161.9Y-78.8
X162.0Y-87.1
X162.0Y-111.9
X162.076Y-90.2
X162.6Y-76.5
X162.6Y-79.5
X162.7Y-89.5
X163.1Y-112.0
X164.076Y-89.6
X164.4Y-105.1
X164.4Y-111.8
X164.47Y-108.6
X164.5Y-106.4
X164.5Y-110.4
X164.72Y-92.03
X164.89Y-56.651
X164.9Y-62.5
X164.9Y-87.1
X165.01Y-70.37
X165.3Y-127.7
X165.6Y-84.7
X165.6Y-86.2
X165.6Y-131.9
X165.8Y-89.6
X166.0Y-64.4
X166.0Y-65.5
X166.2Y-126.8
X166.38Y-95.92
X166.6Y-133.8
X166.7Y-76.3
X167.25Y-66.69
X167.274Y-99.86
X167.5Y-87.1
X167.5Y-104.3
X167.6Y-89.3
X167.84Y-101.95
X167.95Y-107.774
X168.01Y-62.54
X168.08Y-56.64
X168.1Y-130.1
X168.2Y-110.9
X168.3Y-90.0
X168.38Y-96.0
X168.4Y-113.5
X168.63Y-102.03
X168.7Y-109.4
X168.8Y-129.9
X168.858Y-106.774
X169.024Y-114.7
X169.09Y-107.99
X169.4Y-130.3
X169.5Y-91.1
X169.7Y-62.85
X169.7Y-105.0
X169.73Y-101.96
X170.076Y-106.8
X170.4Y-88.9
X170.4Y-89.8
X170.419Y-105.529
X170.82Y-111.61
X171.2Y-56.651
X171.2Y-120.7
X171.21Y-61.52
X171.34Y-63.41
X171.7Y-84.32
X171.8Y-125.8
X171.8Y-127.5
X172.6Y-121.0
X173.114Y-110.674
X173.21Y-111.65
X173.45Y-108.06
X173.5Y-121.7
X173.56Y-80.16
X173.89Y-81.94
X174.02Y-83.47
X174.07Y-56.55
X174.07Y-62.63
X174.12Y-109.38
X174.89Y-80.07
X175.0Y-131.9
X175.2Y-117.5
X175.67Y-110.63
X176.1Y-129.9
X176.1Y-133.9
X176.28Y-111.3
X176.29Y-93.69
X176.43Y-80.2
X176.69Y-108.72
X177.05Y-84.8
X177.11Y-56.663
X177.15Y-82.45
X178.4Y-125.8
X178.41Y-115.59
X178.45Y-71.81
X178.97Y-111.34
X179.105Y-102.405
X180.17Y-71.23
X180.74Y-58.52
X181.29Y-91.95
X181.5Y-56.0
X181.56Y-69.81
X181.99Y-74.15
X182.35Y-61.8
X182.66Y-56.0
X182.73Y-57.63
X182.87Y-59.86
X183.9Y-55.79
X184.3Y-61.82
X186.3Y-71.2
X186.4Y-73.8
X186.7Y-72.5
T3
X131.25Y-58.5
X131.25Y-136.5
X131.909Y-56.909
X131.909Y-60.091
X131.909Y-134.909
X131.909Y-138.091
X133.5Y-56.25
X133.5Y-60.75
X133.5Y-134.25
X133.5Y-138.75
X135.091Y-56.909
X135.091Y-60.091
X135.091Y-134.909
X135.091Y-138.091
X135.75Y-58.5
X135.75Y-136.5
X184.25Y-58.5
X184.25Y-136.5
X184.909Y-56.909
X184.909Y-60.091
X184.909Y-134.909
X184.909Y-138.091
X186.5Y-56.25
X186.5Y-60.75
X186.5Y-134.25
X186.5Y-138.75
X188.091Y-56.909
X188.091Y-60.091
X188.091Y-134.909
X188.091Y-138.091
X188.75Y-58.5
X188.75Y-136.5
T5
X143.6Y-59.9
X148.6Y-59.9
X154.8Y-59.904
X159.8Y-59.904
T6
X143.99Y-82.79
X151.59Y-82.79
X183.035Y-94.695
X183.035Y-97.235
X183.035Y-99.775
X183.035Y-102.315
X183.035Y-104.855
X183.035Y-107.395
X183.035Y-109.935
X183.035Y-112.475
X183.035Y-116.435
X183.035Y-118.975
X183.035Y-121.515
X183.035Y-124.055
X185.56Y-94.7
X185.56Y-97.24
X185.56Y-99.78
X185.56Y-102.32
X185.56Y-104.86
X185.56Y-107.4
X185.56Y-109.94
X185.56Y-112.48
X185.57Y-116.445
X185.57Y-118.985
X185.57Y-121.525
X185.57Y-124.065
X188.1Y-94.7
X188.1Y-97.24
X188.1Y-99.78
X188.1Y-102.32
X188.1Y-104.86
X188.1Y-107.4
X188.1Y-109.94
X188.1Y-112.48
X188.11Y-116.445
X188.11Y-118.985
X188.11Y-121.525
X188.11Y-124.065
T7
X133.5Y-58.5
X133.5Y-136.5
X186.5Y-58.5
X186.5Y-136.5
T4
G00X142.6Y-57.55
M15
G01X142.6Y-56.85
M16
G05
G00X149.6Y-56.85
M15
G01X149.6Y-57.55
M16
G05
G00X153.8Y-57.554
M15
G01X153.8Y-56.854
M16
G05
G00X160.8Y-56.854
M15
G01X160.8Y-57.554
M16
G05
T0
M30
