G75*
G70*
%OFA0B0*%
%FSLAX24Y24*%
%IPPOS*%
%LPD*%
%AMOC8*
5,1,8,0,0,1.08239X$1,22.5*
%
%ADD10C,0.0100*%
%ADD11C,0.0020*%
%ADD12C,0.0030*%
%ADD13C,0.0060*%
%ADD14C,0.0040*%
%ADD15C,0.0010*%
%ADD16C,0.0050*%
%ADD17C,0.0260*%
%ADD18R,0.0240X0.2600*%
D10*
X000236Y000151D02*
X000236Y013151D01*
X013566Y013151D01*
X013566Y000151D01*
X000236Y000151D01*
X000876Y000291D02*
X012996Y000291D01*
X012996Y012591D01*
X000876Y012591D01*
X000876Y000291D01*
D11*
X007106Y006701D02*
X007106Y010201D01*
X000646Y010175D02*
X000646Y010102D01*
X000609Y010065D01*
X000536Y010065D01*
X000499Y010102D01*
X000499Y010175D01*
X000536Y010212D01*
X000572Y010212D01*
X000572Y010065D01*
X000646Y010286D02*
X000646Y010359D01*
X000646Y010323D02*
X000426Y010323D01*
X000426Y010286D01*
X000536Y010433D02*
X000499Y010470D01*
X000499Y010544D01*
X000536Y010580D01*
X000572Y010580D01*
X000572Y010433D01*
X000536Y010433D02*
X000609Y010433D01*
X000646Y010470D01*
X000646Y010544D01*
X000646Y010654D02*
X000426Y010654D01*
X000499Y010764D02*
X000572Y010654D01*
X000646Y010764D01*
X000609Y010875D02*
X000462Y010875D01*
X000499Y010839D02*
X000499Y010912D01*
X000499Y010986D02*
X000646Y010986D01*
X000572Y010986D02*
X000499Y011059D01*
X000499Y011096D01*
X000536Y011170D02*
X000609Y011170D01*
X000646Y011207D01*
X000646Y011280D01*
X000609Y011317D01*
X000536Y011317D01*
X000499Y011280D01*
X000499Y011207D01*
X000536Y011170D01*
X000499Y011391D02*
X000499Y011501D01*
X000536Y011538D01*
X000646Y011538D01*
X000646Y011612D02*
X000646Y011685D01*
X000646Y011649D02*
X000499Y011649D01*
X000499Y011612D01*
X000426Y011649D02*
X000389Y011649D01*
X000426Y011759D02*
X000646Y011759D01*
X000572Y011759D02*
X000499Y011869D01*
X000572Y011759D02*
X000646Y011869D01*
X000646Y012164D02*
X000499Y012164D01*
X000426Y012238D01*
X000499Y012311D01*
X000646Y012311D01*
X000646Y012385D02*
X000426Y012385D01*
X000426Y012495D01*
X000462Y012532D01*
X000499Y012532D01*
X000536Y012495D01*
X000536Y012385D01*
X000536Y012311D02*
X000536Y012164D01*
X000646Y012385D02*
X000646Y012495D01*
X000609Y012532D01*
X000572Y012532D01*
X000536Y012495D01*
X000499Y011391D02*
X000646Y011391D01*
X000646Y010912D02*
X000609Y010875D01*
X000646Y009770D02*
X000426Y009770D01*
X000499Y009697D01*
X000426Y009623D01*
X000646Y009623D01*
X000609Y009549D02*
X000646Y009512D01*
X000646Y009402D01*
X000426Y009402D01*
X000426Y009512D01*
X000462Y009549D01*
X000499Y009549D01*
X000536Y009512D01*
X000536Y009402D01*
X000536Y009512D02*
X000572Y009549D01*
X000609Y009549D01*
X000646Y009328D02*
X000646Y009181D01*
X000426Y009181D01*
D12*
X002410Y009560D02*
X002410Y009745D01*
X002472Y009806D01*
X002596Y009806D01*
X002657Y009745D01*
X002657Y009560D01*
X002657Y009683D02*
X002781Y009806D01*
X002781Y009928D02*
X002534Y010175D01*
X002472Y010175D01*
X002410Y010113D01*
X002410Y009990D01*
X002472Y009928D01*
X002781Y009928D02*
X002781Y010175D01*
X002781Y009560D02*
X002410Y009560D01*
X002770Y008558D02*
X002770Y008312D01*
X002585Y008497D01*
X002955Y008497D01*
X002894Y008190D02*
X002955Y008128D01*
X002955Y008005D01*
X002894Y007943D01*
X002647Y007943D01*
X002585Y008005D01*
X002585Y008128D01*
X002647Y008190D01*
X003808Y008823D02*
X003870Y008762D01*
X003993Y008762D01*
X004055Y008823D01*
X004176Y008823D02*
X004238Y008762D01*
X004361Y008762D01*
X004423Y008823D01*
X004423Y008885D01*
X004361Y008947D01*
X004300Y008947D01*
X004361Y008947D02*
X004423Y009009D01*
X004423Y009070D01*
X004361Y009132D01*
X004238Y009132D01*
X004176Y009070D01*
X004055Y009070D02*
X003993Y009132D01*
X003870Y009132D01*
X003808Y009070D01*
X003808Y008823D01*
X004419Y007881D02*
X004357Y007819D01*
X004357Y007572D01*
X004419Y007511D01*
X004542Y007511D01*
X004604Y007572D01*
X004725Y007511D02*
X004972Y007758D01*
X004972Y007819D01*
X004911Y007881D01*
X004787Y007881D01*
X004725Y007819D01*
X004604Y007819D02*
X004542Y007881D01*
X004419Y007881D01*
X004725Y007511D02*
X004972Y007511D01*
X005221Y007666D02*
X005221Y008036D01*
X005406Y008036D01*
X005468Y007975D01*
X005468Y007851D01*
X005406Y007790D01*
X005221Y007790D01*
X005344Y007790D02*
X005468Y007666D01*
X005589Y007728D02*
X005651Y007666D01*
X005774Y007666D01*
X005836Y007728D01*
X005836Y007851D01*
X005774Y007913D01*
X005712Y007913D01*
X005589Y007851D01*
X005589Y008036D01*
X005836Y008036D01*
X008219Y011211D02*
X008342Y011211D01*
X008404Y011272D01*
X008525Y011211D02*
X008772Y011211D01*
X008649Y011211D02*
X008649Y011581D01*
X008525Y011458D01*
X008404Y011519D02*
X008342Y011581D01*
X008219Y011581D01*
X008157Y011519D01*
X008157Y011272D01*
X008219Y011211D01*
X009350Y010881D02*
X009721Y010881D01*
X009721Y010758D02*
X009721Y011005D01*
X009474Y010758D02*
X009350Y010881D01*
X009412Y010636D02*
X009350Y010575D01*
X009350Y010390D01*
X009721Y010390D01*
X009721Y010575D01*
X009659Y010636D01*
X009412Y010636D01*
X009367Y008981D02*
X009367Y008735D01*
X009553Y008735D01*
X009491Y008858D01*
X009491Y008920D01*
X009553Y008981D01*
X009676Y008981D01*
X009738Y008920D01*
X009738Y008796D01*
X009676Y008735D01*
X009676Y008613D02*
X009738Y008551D01*
X009738Y008428D01*
X009676Y008366D01*
X009429Y008366D01*
X009367Y008428D01*
X009367Y008551D01*
X009429Y008613D01*
X011310Y007541D02*
X011372Y007418D01*
X011496Y007294D01*
X011496Y007480D01*
X011557Y007541D01*
X011619Y007541D01*
X011681Y007480D01*
X011681Y007356D01*
X011619Y007294D01*
X011496Y007294D01*
X011496Y007173D02*
X011372Y007173D01*
X011310Y007111D01*
X011310Y006926D01*
X011681Y006926D01*
X011557Y006926D02*
X011557Y007111D01*
X011496Y007173D01*
X011557Y007050D02*
X011681Y007173D01*
X011620Y008370D02*
X011620Y008555D01*
X011682Y008616D01*
X011806Y008616D01*
X011867Y008555D01*
X011867Y008370D01*
X011867Y008493D02*
X011991Y008616D01*
X011806Y008738D02*
X011806Y008985D01*
X011991Y008923D02*
X011620Y008923D01*
X011806Y008738D01*
X011991Y008370D02*
X011620Y008370D01*
X006976Y011306D02*
X006729Y011306D01*
X006608Y011306D02*
X006484Y011430D01*
X006546Y011430D02*
X006361Y011430D01*
X006361Y011306D02*
X006361Y011676D01*
X006546Y011676D01*
X006608Y011615D01*
X006608Y011491D01*
X006546Y011430D01*
X006729Y011553D02*
X006852Y011676D01*
X006852Y011306D01*
X004079Y012048D02*
X004018Y011986D01*
X003894Y011986D01*
X003832Y012048D01*
X003711Y011986D02*
X003588Y012110D01*
X003649Y012110D02*
X003464Y012110D01*
X003464Y011986D02*
X003464Y012356D01*
X003649Y012356D01*
X003711Y012295D01*
X003711Y012171D01*
X003649Y012110D01*
X003832Y012295D02*
X003894Y012356D01*
X004018Y012356D01*
X004079Y012295D01*
X004079Y012233D01*
X004018Y012171D01*
X004079Y012110D01*
X004079Y012048D01*
X004018Y012171D02*
X003956Y012171D01*
D13*
X004455Y011459D02*
X005016Y011459D01*
X005016Y010243D01*
X004455Y010243D01*
X004455Y011459D01*
X007116Y010201D02*
X008356Y010201D01*
X007936Y010201D02*
X007934Y010174D01*
X007929Y010147D01*
X007919Y010121D01*
X007907Y010097D01*
X007891Y010075D01*
X007873Y010055D01*
X007851Y010038D01*
X007828Y010023D01*
X007803Y010013D01*
X007777Y010005D01*
X007750Y010001D01*
X007722Y010001D01*
X007695Y010005D01*
X007669Y010013D01*
X007644Y010023D01*
X007621Y010038D01*
X007599Y010055D01*
X007581Y010075D01*
X007565Y010097D01*
X007553Y010121D01*
X007543Y010147D01*
X007538Y010174D01*
X007536Y010201D01*
X009876Y010791D02*
X009876Y011111D01*
X010096Y011111D01*
X010776Y011111D02*
X010996Y011111D01*
X010996Y010791D01*
X008356Y006701D02*
X007116Y006701D01*
X007047Y005662D02*
X006816Y005662D01*
X006047Y005662D02*
X005847Y005662D01*
X005066Y005662D02*
X004857Y005662D01*
X004077Y005662D02*
X003877Y005662D01*
X003097Y005662D02*
X002897Y005662D01*
X002116Y005662D02*
X001057Y005662D01*
X001057Y000462D01*
X001847Y000462D01*
X002047Y000812D01*
X002047Y001062D01*
X011797Y001062D01*
X011797Y000812D01*
X011997Y000462D01*
X012797Y000462D01*
X012797Y005662D01*
X011757Y005662D01*
X011797Y005062D02*
X011797Y004712D01*
X011797Y001062D01*
X011797Y004712D02*
X002047Y004712D01*
X002047Y001062D01*
X002047Y004712D02*
X002047Y005062D01*
X011797Y005062D01*
X010977Y005662D02*
X010777Y005662D01*
X009997Y005662D02*
X009797Y005662D01*
X009016Y005662D02*
X008807Y005662D01*
X008027Y005662D02*
X007827Y005662D01*
D14*
X012060Y005802D02*
X012060Y006162D01*
X012240Y006162D01*
X012300Y006102D01*
X012300Y005982D01*
X012240Y005922D01*
X012060Y005922D01*
X012428Y006042D02*
X012548Y006162D01*
X012548Y005802D01*
X012428Y005802D02*
X012669Y005802D01*
X006620Y010151D02*
X006380Y010151D01*
X006620Y010391D01*
X006620Y010451D01*
X006560Y010511D01*
X006440Y010511D01*
X006380Y010451D01*
X006251Y010451D02*
X006191Y010511D01*
X006071Y010511D01*
X006011Y010451D01*
X006011Y010211D01*
X006071Y010151D01*
X006191Y010151D01*
X006251Y010211D01*
X005886Y010151D02*
X005766Y010151D01*
X005826Y010151D02*
X005826Y010511D01*
X005766Y010511D02*
X005886Y010511D01*
X004278Y010671D02*
X004037Y010671D01*
X004157Y010671D02*
X004157Y011031D01*
X004037Y010911D01*
X003909Y010971D02*
X003849Y011031D01*
X003729Y011031D01*
X003669Y010971D01*
X003669Y010731D01*
X003729Y010671D01*
X003849Y010671D01*
X003909Y010731D01*
X003544Y010671D02*
X003424Y010671D01*
X003484Y010671D02*
X003484Y011031D01*
X003424Y011031D02*
X003544Y011031D01*
D15*
X007112Y010225D02*
X007112Y010175D01*
X007111Y010176D02*
X007090Y010173D01*
X007071Y010167D01*
X007052Y010158D01*
X007035Y010146D01*
X007021Y010132D01*
X007009Y010115D01*
X007000Y010096D01*
X006994Y010077D01*
X006991Y010056D01*
X006942Y010055D01*
X006941Y010056D01*
X006944Y010082D01*
X006951Y010108D01*
X006961Y010132D01*
X006975Y010155D01*
X006992Y010175D01*
X007012Y010192D01*
X007035Y010206D01*
X007059Y010216D01*
X007085Y010223D01*
X007111Y010226D01*
X007111Y010217D01*
X007086Y010214D01*
X007062Y010208D01*
X007039Y010198D01*
X007018Y010185D01*
X006999Y010168D01*
X006982Y010149D01*
X006969Y010128D01*
X006959Y010105D01*
X006953Y010081D01*
X006950Y010056D01*
X006959Y010056D01*
X006962Y010080D01*
X006968Y010102D01*
X006977Y010124D01*
X006990Y010144D01*
X007005Y010162D01*
X007023Y010177D01*
X007043Y010190D01*
X007065Y010199D01*
X007087Y010205D01*
X007111Y010208D01*
X007111Y010199D01*
X007089Y010196D01*
X007067Y010191D01*
X007047Y010182D01*
X007028Y010170D01*
X007011Y010156D01*
X006997Y010139D01*
X006985Y010120D01*
X006976Y010100D01*
X006971Y010078D01*
X006968Y010056D01*
X006977Y010056D01*
X006980Y010079D01*
X006986Y010101D01*
X006996Y010122D01*
X007010Y010141D01*
X007026Y010157D01*
X007045Y010171D01*
X007066Y010181D01*
X007088Y010187D01*
X007111Y010190D01*
X007111Y010181D01*
X007090Y010178D01*
X007069Y010172D01*
X007050Y010163D01*
X007032Y010150D01*
X007017Y010135D01*
X007004Y010117D01*
X006995Y010098D01*
X006989Y010077D01*
X006986Y010056D01*
X008530Y010055D02*
X008480Y010055D01*
X008481Y010056D02*
X008478Y010077D01*
X008472Y010096D01*
X008463Y010115D01*
X008451Y010132D01*
X008437Y010146D01*
X008420Y010158D01*
X008401Y010167D01*
X008382Y010173D01*
X008361Y010176D01*
X008360Y010225D01*
X008361Y010226D01*
X008387Y010223D01*
X008413Y010216D01*
X008437Y010206D01*
X008460Y010192D01*
X008480Y010175D01*
X008497Y010155D01*
X008511Y010132D01*
X008521Y010108D01*
X008528Y010082D01*
X008531Y010056D01*
X008522Y010056D01*
X008519Y010081D01*
X008513Y010105D01*
X008503Y010128D01*
X008490Y010149D01*
X008473Y010168D01*
X008454Y010185D01*
X008433Y010198D01*
X008410Y010208D01*
X008386Y010214D01*
X008361Y010217D01*
X008361Y010208D01*
X008385Y010205D01*
X008407Y010199D01*
X008429Y010190D01*
X008449Y010177D01*
X008467Y010162D01*
X008482Y010144D01*
X008495Y010124D01*
X008504Y010102D01*
X008510Y010080D01*
X008513Y010056D01*
X008504Y010056D01*
X008501Y010078D01*
X008496Y010100D01*
X008487Y010120D01*
X008475Y010139D01*
X008461Y010156D01*
X008444Y010170D01*
X008425Y010182D01*
X008405Y010191D01*
X008383Y010196D01*
X008361Y010199D01*
X008361Y010190D01*
X008384Y010187D01*
X008406Y010181D01*
X008427Y010171D01*
X008446Y010157D01*
X008462Y010141D01*
X008476Y010122D01*
X008486Y010101D01*
X008492Y010079D01*
X008495Y010056D01*
X008486Y010056D01*
X008483Y010077D01*
X008477Y010098D01*
X008468Y010117D01*
X008455Y010135D01*
X008440Y010150D01*
X008422Y010163D01*
X008403Y010172D01*
X008382Y010178D01*
X008361Y010181D01*
X008360Y006677D02*
X008360Y006727D01*
X008361Y006726D02*
X008382Y006729D01*
X008401Y006735D01*
X008420Y006744D01*
X008437Y006756D01*
X008451Y006770D01*
X008463Y006787D01*
X008472Y006806D01*
X008478Y006825D01*
X008481Y006846D01*
X008530Y006847D01*
X008531Y006846D01*
X008528Y006820D01*
X008521Y006794D01*
X008511Y006770D01*
X008497Y006747D01*
X008480Y006727D01*
X008460Y006710D01*
X008437Y006696D01*
X008413Y006686D01*
X008387Y006679D01*
X008361Y006676D01*
X008361Y006685D01*
X008386Y006688D01*
X008410Y006694D01*
X008433Y006704D01*
X008454Y006717D01*
X008473Y006734D01*
X008490Y006753D01*
X008503Y006774D01*
X008513Y006797D01*
X008519Y006821D01*
X008522Y006846D01*
X008513Y006846D01*
X008510Y006822D01*
X008504Y006800D01*
X008495Y006778D01*
X008482Y006758D01*
X008467Y006740D01*
X008449Y006725D01*
X008429Y006712D01*
X008407Y006703D01*
X008385Y006697D01*
X008361Y006694D01*
X008361Y006703D01*
X008383Y006706D01*
X008405Y006711D01*
X008425Y006720D01*
X008444Y006732D01*
X008461Y006746D01*
X008475Y006763D01*
X008487Y006782D01*
X008496Y006802D01*
X008501Y006824D01*
X008504Y006846D01*
X008495Y006846D01*
X008492Y006823D01*
X008486Y006801D01*
X008476Y006780D01*
X008462Y006761D01*
X008446Y006745D01*
X008427Y006731D01*
X008406Y006721D01*
X008384Y006715D01*
X008361Y006712D01*
X008361Y006721D01*
X008382Y006724D01*
X008403Y006730D01*
X008422Y006739D01*
X008440Y006752D01*
X008455Y006767D01*
X008468Y006785D01*
X008477Y006804D01*
X008483Y006825D01*
X008486Y006846D01*
X006942Y006847D02*
X006992Y006847D01*
X006991Y006846D02*
X006994Y006825D01*
X007000Y006806D01*
X007009Y006787D01*
X007021Y006770D01*
X007035Y006756D01*
X007052Y006744D01*
X007071Y006735D01*
X007090Y006729D01*
X007111Y006726D01*
X007112Y006677D01*
X007111Y006676D01*
X007085Y006679D01*
X007059Y006686D01*
X007035Y006696D01*
X007012Y006710D01*
X006992Y006727D01*
X006975Y006747D01*
X006961Y006770D01*
X006951Y006794D01*
X006944Y006820D01*
X006941Y006846D01*
X006950Y006846D01*
X006953Y006821D01*
X006959Y006797D01*
X006969Y006774D01*
X006982Y006753D01*
X006999Y006734D01*
X007018Y006717D01*
X007039Y006704D01*
X007062Y006694D01*
X007086Y006688D01*
X007111Y006685D01*
X007111Y006694D01*
X007087Y006697D01*
X007065Y006703D01*
X007043Y006712D01*
X007023Y006725D01*
X007005Y006740D01*
X006990Y006758D01*
X006977Y006778D01*
X006968Y006800D01*
X006962Y006822D01*
X006959Y006846D01*
X006968Y006846D01*
X006971Y006824D01*
X006976Y006802D01*
X006985Y006782D01*
X006997Y006763D01*
X007011Y006746D01*
X007028Y006732D01*
X007047Y006720D01*
X007067Y006711D01*
X007089Y006706D01*
X007111Y006703D01*
X007111Y006712D01*
X007088Y006715D01*
X007066Y006721D01*
X007045Y006731D01*
X007026Y006745D01*
X007010Y006761D01*
X006996Y006780D01*
X006986Y006801D01*
X006980Y006823D01*
X006977Y006846D01*
X006986Y006846D01*
X006989Y006825D01*
X006995Y006804D01*
X007004Y006785D01*
X007017Y006767D01*
X007032Y006752D01*
X007050Y006739D01*
X007069Y006730D01*
X007090Y006724D01*
X007111Y006721D01*
D16*
X012001Y004902D02*
X012001Y004751D01*
X012076Y004676D01*
X012377Y004676D01*
X012076Y004977D01*
X012377Y004977D01*
X012452Y004902D01*
X012452Y004751D01*
X012377Y004676D01*
X012452Y004516D02*
X012452Y004216D01*
X012452Y004366D02*
X012001Y004366D01*
X012151Y004216D01*
X012001Y004902D02*
X012076Y004977D01*
X001752Y004927D02*
X001752Y004626D01*
X001752Y004777D02*
X001301Y004777D01*
X001451Y004626D01*
D17*
X002507Y002162D02*
X002507Y001962D01*
X003491Y001962D02*
X003491Y002162D01*
X004477Y002162D02*
X004477Y001962D01*
X005459Y001962D02*
X005459Y002162D01*
X006447Y002162D02*
X006447Y001962D01*
X007427Y001962D02*
X007427Y002162D01*
X008412Y002162D02*
X008412Y001962D01*
X009397Y001962D02*
X009397Y002162D01*
X010377Y002162D02*
X010377Y001962D01*
X011365Y001962D02*
X011365Y002162D01*
D18*
X011367Y003412D03*
X010377Y003412D03*
X009397Y003412D03*
X008417Y003412D03*
X007427Y003412D03*
X006447Y003412D03*
X005457Y003412D03*
X004477Y003412D03*
X003487Y003412D03*
X002507Y003412D03*
M02*
