G75*
G70*
%OFA0B0*%
%FSLAX24Y24*%
%IPPOS*%
%LPD*%
%AMOC8*
5,1,8,0,0,1.08239X$1,22.5*
%
%ADD10R,0.0512X0.0630*%
%ADD11R,0.0591X0.0394*%
%ADD12R,0.0394X0.0591*%
%ADD13R,0.0630X0.0512*%
%ADD14R,0.0472X0.0236*%
%ADD15R,0.0800X0.0260*%
%ADD16O,0.0600X0.1200*%
%ADD17R,0.0787X0.0591*%
%ADD18R,0.0394X0.0551*%
%ADD19C,0.0100*%
%ADD20C,0.0160*%
%ADD21C,0.0240*%
%ADD22C,0.0320*%
%ADD23C,0.0396*%
%ADD24C,0.0357*%
%ADD25C,0.0400*%
D10*
X004342Y007151D03*
X005129Y007151D03*
X005029Y009551D03*
X004242Y009551D03*
X008142Y010851D03*
X008929Y010851D03*
D11*
X007106Y010851D03*
X006366Y010851D03*
X005306Y012151D03*
X004566Y012151D03*
X004366Y008451D03*
X005106Y008451D03*
X010166Y007251D03*
X010906Y007251D03*
D12*
X011136Y008381D03*
X011136Y009121D03*
X003336Y009481D03*
X003336Y010221D03*
D13*
X003436Y008545D03*
X003436Y007757D03*
D14*
X004222Y010477D03*
X004222Y011225D03*
X005250Y011225D03*
X005250Y010851D03*
X005250Y010477D03*
D15*
X006526Y009951D03*
X006526Y009451D03*
X006526Y008951D03*
X006526Y008451D03*
X006526Y007951D03*
X006526Y007451D03*
X006526Y006951D03*
X008946Y006951D03*
X008946Y007451D03*
X008946Y007951D03*
X008946Y008451D03*
X008946Y008951D03*
X008946Y009451D03*
X008946Y009951D03*
D16*
X009396Y005812D03*
X008412Y005812D03*
X007428Y005812D03*
X006444Y005812D03*
X005459Y005812D03*
X004475Y005812D03*
X003491Y005812D03*
X002507Y005812D03*
X010381Y005812D03*
X011365Y005812D03*
D17*
X010136Y008161D03*
X010136Y009342D03*
D18*
X010062Y010418D03*
X010810Y010418D03*
X010436Y011284D03*
D19*
X010436Y010051D01*
X011136Y009351D01*
X011136Y009121D01*
X011136Y009051D01*
X011136Y008381D02*
X011136Y007351D01*
X011136Y007051D01*
X010886Y006751D01*
X010886Y004251D01*
X010536Y004051D01*
X009886Y004651D02*
X009886Y007251D01*
X009886Y007651D01*
X010236Y007951D01*
X010136Y008161D01*
X010906Y007251D02*
X011036Y007351D01*
X011136Y007351D01*
X010906Y007251D02*
X010836Y007151D01*
X010336Y007151D02*
X010236Y007251D01*
X009886Y007251D01*
X010166Y007251D02*
X010336Y007251D01*
X010336Y007151D01*
X010336Y007251D02*
X010236Y007251D01*
X008946Y008951D02*
X008136Y008951D01*
X007936Y008751D01*
X007936Y005051D01*
X007636Y004851D01*
X007436Y005751D02*
X007428Y005759D01*
X007428Y005812D01*
X007436Y005751D01*
X006536Y006951D02*
X006526Y006951D01*
X005136Y007151D02*
X005036Y007451D01*
X005129Y007151D02*
X005136Y007151D01*
X005106Y008451D02*
X005336Y008551D01*
X005636Y008851D01*
X005636Y009451D01*
X005636Y010251D01*
X005436Y010451D01*
X005136Y010451D01*
X005162Y010477D01*
X005250Y010477D01*
X005250Y010851D02*
X004936Y010851D01*
X004736Y010651D02*
X004336Y011051D01*
X004336Y011251D01*
X004236Y011251D01*
X004236Y011239D01*
X004222Y011225D01*
X004196Y011251D01*
X004736Y010651D02*
X004736Y010351D01*
X005036Y010051D01*
X005036Y009551D01*
X004836Y009351D01*
X004336Y008451D01*
X003636Y008451D01*
X003336Y008551D01*
X003436Y008651D01*
X003536Y008651D01*
X003636Y008451D01*
X003436Y008545D02*
X003336Y008551D01*
X003436Y007851D02*
X003236Y007851D01*
X003436Y007851D02*
X003436Y007757D01*
X003436Y007751D01*
X004336Y008451D02*
X004366Y008451D01*
X003336Y009451D02*
X003336Y009481D01*
X003236Y009551D01*
X003236Y009451D02*
X003336Y009451D01*
X003236Y010151D02*
X003336Y010221D01*
X004036Y010451D02*
X004236Y010477D01*
X004222Y010477D01*
X004196Y010451D01*
X004036Y010451D01*
X004296Y010451D01*
X004096Y010491D01*
X004036Y009651D02*
X004236Y009551D01*
X004242Y009551D01*
X005029Y009551D02*
X005036Y009551D01*
X005250Y011225D02*
X005250Y011237D01*
X005236Y011251D01*
X005436Y011251D01*
X005436Y011225D01*
X005306Y011321D02*
X005236Y011251D01*
X005306Y011321D02*
X005306Y012151D01*
X005436Y012051D01*
X005436Y012151D01*
X005836Y012151D01*
X006136Y011951D01*
X004736Y012151D02*
X004636Y012151D01*
X004566Y012151D01*
X004736Y012251D01*
X008036Y009451D02*
X008946Y009451D01*
X009836Y009451D01*
X010136Y009351D01*
X010136Y009342D01*
X008946Y009951D02*
X008936Y010051D01*
X008929Y010851D02*
X008936Y010851D01*
X008142Y010851D02*
X008136Y010851D01*
X009736Y011951D02*
X010236Y011951D01*
X010436Y011751D01*
X010436Y011284D01*
X009886Y004651D02*
X009536Y004451D01*
D20*
X007136Y010851D02*
X007106Y010851D01*
X002536Y005812D02*
X002507Y005812D01*
D21*
X004936Y010851D02*
X004736Y011051D01*
X004736Y012151D01*
X005250Y010851D02*
X006366Y010851D01*
D22*
X002536Y007551D02*
X002536Y005751D01*
X002507Y005780D01*
X002507Y005812D01*
X002936Y007151D02*
X002536Y007551D01*
X002336Y007751D01*
X002336Y009251D01*
X002336Y011851D01*
X002636Y012151D01*
X004636Y012151D01*
X003836Y011651D02*
X003636Y011451D01*
X003636Y010951D01*
X004096Y010491D01*
X004036Y010451D02*
X004036Y009651D01*
X004236Y009551D02*
X003236Y009551D01*
X003236Y009451D02*
X002836Y009051D01*
X002836Y008151D01*
X003236Y007851D01*
X003436Y007851D02*
X004836Y007851D01*
X005036Y007451D01*
X005136Y007151D02*
X005536Y007151D01*
X005836Y006951D01*
X006526Y006951D01*
X007136Y006951D01*
X007436Y006651D01*
X007436Y005751D01*
X004342Y007151D02*
X002936Y007151D01*
X002336Y009251D02*
X002336Y009351D01*
X003036Y010151D01*
X003236Y010151D01*
X006366Y010851D02*
X007106Y010851D01*
X008136Y010851D01*
X008929Y010851D01*
X008936Y010851D02*
X009536Y010851D01*
X010036Y010425D01*
X010062Y010418D01*
X010810Y010425D02*
X010810Y010418D01*
X010810Y010425D02*
X010836Y010451D01*
X011136Y010451D01*
X011336Y010651D01*
X011336Y011251D01*
X011136Y011451D01*
X008936Y010851D02*
X008936Y010051D01*
D23*
X009736Y011951D03*
X011136Y011451D03*
X006136Y011951D03*
X003836Y011651D03*
D24*
X005636Y009451D03*
X008036Y009451D03*
X007636Y004851D03*
X009536Y004451D03*
D25*
X010536Y004051D03*
M02*
