G75*
G70*
%OFA0B0*%
%FSLAX24Y24*%
%IPPOS*%
%LPD*%
%AMOC8*
5,1,8,0,0,1.08239X$1,22.5*
%
%ADD10C,0.1064*%
%ADD11C,0.0680*%
%ADD12OC8,0.0680*%
%ADD13R,0.0790X0.0710*%
%ADD14OC8,0.0930*%
%ADD15C,0.1419*%
%ADD16C,0.0136*%
%ADD17R,0.0710X0.0790*%
%ADD18C,0.0474*%
%ADD19C,0.0476*%
%ADD20C,0.0440*%
D10*
X016241Y020885D03*
X043399Y020885D03*
D11*
X049931Y002895D03*
D12*
X048931Y002895D03*
X047931Y002895D03*
X047931Y003895D03*
X048931Y003895D03*
X049931Y003895D03*
D13*
X017235Y010317D03*
X017235Y011437D03*
X026674Y011447D03*
X026674Y010328D03*
X030900Y010321D03*
X030900Y011441D03*
X040374Y011428D03*
X040374Y010308D03*
X044593Y010308D03*
X044593Y011428D03*
X054002Y011458D03*
X054002Y010338D03*
D14*
X046524Y025604D03*
X045813Y026700D03*
X047272Y026692D03*
X014287Y024928D03*
D15*
X020559Y012265D03*
X021934Y010890D03*
X023309Y012265D03*
X023309Y009515D03*
X020559Y009515D03*
X034232Y009515D03*
X035607Y010890D03*
X034232Y012265D03*
X036982Y012265D03*
X036982Y009515D03*
X047916Y009511D03*
X049291Y010886D03*
X050666Y009511D03*
X050666Y012261D03*
X047916Y012261D03*
X048349Y018574D03*
X049724Y019949D03*
X048349Y021324D03*
X051099Y021324D03*
X051099Y018574D03*
X052364Y025461D03*
X050989Y026836D03*
X049614Y025461D03*
X049614Y028211D03*
X052364Y028211D03*
D16*
X055779Y025717D02*
X055711Y025785D01*
X055911Y025890D01*
X056696Y025642D01*
X056801Y025442D01*
X056733Y025229D01*
X056533Y025124D01*
X055748Y025372D01*
X055643Y025572D01*
X055711Y025785D01*
X055803Y025739D01*
X055973Y025827D01*
X056610Y025626D01*
X056698Y025456D01*
X056641Y025275D01*
X056471Y025187D01*
X055834Y025388D01*
X055746Y025558D01*
X055803Y025739D01*
X055894Y025692D01*
X056034Y025765D01*
X056524Y025610D01*
X056597Y025470D01*
X056550Y025322D01*
X056410Y025249D01*
X055920Y025404D01*
X055847Y025544D01*
X055894Y025692D01*
X055985Y025645D01*
X056095Y025703D01*
X056438Y025594D01*
X056496Y025484D01*
X056459Y025369D01*
X056349Y025311D01*
X056006Y025420D01*
X055948Y025530D01*
X055985Y025645D01*
X056075Y025600D01*
X056155Y025642D01*
X056354Y025579D01*
X056396Y025499D01*
X056369Y025414D01*
X056289Y025372D01*
X056090Y025435D01*
X056048Y025515D01*
X056075Y025600D01*
X056166Y025554D01*
X056216Y025580D01*
X056269Y025563D01*
X056295Y025513D01*
X056278Y025460D01*
X056228Y025434D01*
X056175Y025451D01*
X056149Y025501D01*
X056166Y025554D01*
X055483Y024778D02*
X055415Y024846D01*
X055615Y024951D01*
X056400Y024703D01*
X056505Y024503D01*
X056437Y024290D01*
X056237Y024185D01*
X055452Y024433D01*
X055347Y024633D01*
X055415Y024846D01*
X055507Y024800D01*
X055677Y024888D01*
X056314Y024687D01*
X056402Y024517D01*
X056345Y024336D01*
X056175Y024248D01*
X055538Y024449D01*
X055450Y024619D01*
X055507Y024800D01*
X055598Y024753D01*
X055738Y024826D01*
X056228Y024671D01*
X056301Y024531D01*
X056254Y024383D01*
X056114Y024310D01*
X055624Y024465D01*
X055551Y024605D01*
X055598Y024753D01*
X055689Y024706D01*
X055799Y024764D01*
X056142Y024655D01*
X056200Y024545D01*
X056163Y024430D01*
X056053Y024372D01*
X055710Y024481D01*
X055652Y024591D01*
X055689Y024706D01*
X055779Y024661D01*
X055859Y024703D01*
X056058Y024640D01*
X056100Y024560D01*
X056073Y024475D01*
X055993Y024433D01*
X055794Y024496D01*
X055752Y024576D01*
X055779Y024661D01*
X055870Y024615D01*
X055920Y024641D01*
X055973Y024624D01*
X055999Y024574D01*
X055982Y024521D01*
X055932Y024495D01*
X055879Y024512D01*
X055853Y024562D01*
X055870Y024615D01*
X055187Y023839D02*
X055119Y023907D01*
X055319Y024012D01*
X056104Y023764D01*
X056209Y023564D01*
X056141Y023351D01*
X055941Y023246D01*
X055156Y023494D01*
X055051Y023694D01*
X055119Y023907D01*
X055211Y023861D01*
X055381Y023949D01*
X056018Y023748D01*
X056106Y023578D01*
X056049Y023397D01*
X055879Y023309D01*
X055242Y023510D01*
X055154Y023680D01*
X055211Y023861D01*
X055302Y023814D01*
X055442Y023887D01*
X055932Y023732D01*
X056005Y023592D01*
X055958Y023444D01*
X055818Y023371D01*
X055328Y023526D01*
X055255Y023666D01*
X055302Y023814D01*
X055393Y023767D01*
X055503Y023825D01*
X055846Y023716D01*
X055904Y023606D01*
X055867Y023491D01*
X055757Y023433D01*
X055414Y023542D01*
X055356Y023652D01*
X055393Y023767D01*
X055483Y023722D01*
X055563Y023764D01*
X055762Y023701D01*
X055804Y023621D01*
X055777Y023536D01*
X055697Y023494D01*
X055498Y023557D01*
X055456Y023637D01*
X055483Y023722D01*
X055574Y023676D01*
X055624Y023702D01*
X055677Y023685D01*
X055703Y023635D01*
X055686Y023582D01*
X055636Y023556D01*
X055583Y023573D01*
X055557Y023623D01*
X055574Y023676D01*
X054891Y022901D02*
X054823Y022969D01*
X055023Y023074D01*
X055808Y022826D01*
X055913Y022626D01*
X055845Y022413D01*
X055645Y022308D01*
X054860Y022556D01*
X054755Y022756D01*
X054823Y022969D01*
X054915Y022923D01*
X055085Y023011D01*
X055722Y022810D01*
X055810Y022640D01*
X055753Y022459D01*
X055583Y022371D01*
X054946Y022572D01*
X054858Y022742D01*
X054915Y022923D01*
X055006Y022876D01*
X055146Y022949D01*
X055636Y022794D01*
X055709Y022654D01*
X055662Y022506D01*
X055522Y022433D01*
X055032Y022588D01*
X054959Y022728D01*
X055006Y022876D01*
X055097Y022829D01*
X055207Y022887D01*
X055550Y022778D01*
X055608Y022668D01*
X055571Y022553D01*
X055461Y022495D01*
X055118Y022604D01*
X055060Y022714D01*
X055097Y022829D01*
X055187Y022784D01*
X055267Y022826D01*
X055466Y022763D01*
X055508Y022683D01*
X055481Y022598D01*
X055401Y022556D01*
X055202Y022619D01*
X055160Y022699D01*
X055187Y022784D01*
X055278Y022738D01*
X055328Y022764D01*
X055381Y022747D01*
X055407Y022697D01*
X055390Y022644D01*
X055340Y022618D01*
X055287Y022635D01*
X055261Y022685D01*
X055278Y022738D01*
D17*
X036152Y006869D03*
X035032Y006869D03*
X022504Y006128D03*
X021385Y006128D03*
X021350Y001703D03*
X022470Y001703D03*
X048752Y006120D03*
X049871Y006120D03*
D18*
X051008Y001316D03*
X020094Y001304D03*
X014164Y029001D03*
X057115Y029013D03*
D19*
X054069Y027576D03*
X050934Y024649D03*
X051412Y023962D03*
X052262Y023809D03*
X054211Y023427D03*
X050400Y022746D03*
X046974Y023057D03*
X046443Y023427D03*
X052131Y019845D03*
X053318Y018399D03*
X050746Y016645D03*
X049681Y017145D03*
X050368Y017167D03*
X052503Y015865D03*
X050731Y015145D03*
X049701Y013688D03*
X050514Y013238D03*
X048279Y014385D03*
X046347Y014454D03*
X046319Y013891D03*
X046311Y013329D03*
X045827Y013004D03*
X044992Y012930D03*
X043785Y012894D03*
X043913Y012164D03*
X043881Y011045D03*
X045281Y010395D03*
X045781Y010195D03*
X046335Y010248D03*
X046331Y009745D03*
X047007Y009785D03*
X046695Y009195D03*
X045981Y009295D03*
X045481Y008545D03*
X046695Y008245D03*
X047581Y008145D03*
X045486Y007295D03*
X045455Y005995D03*
X046431Y005995D03*
X047731Y005895D03*
X049231Y005095D03*
X049631Y004645D03*
X050931Y004045D03*
X049431Y002095D03*
X047281Y002245D03*
X044641Y004554D03*
X043002Y005047D03*
X042899Y005800D03*
X041834Y006153D03*
X041731Y007045D03*
X041427Y007719D03*
X040331Y008165D03*
X040931Y008645D03*
X041431Y008585D03*
X041431Y009065D03*
X042402Y009695D03*
X041861Y010195D03*
X042336Y010719D03*
X041031Y011315D03*
X039081Y011395D03*
X038388Y011783D03*
X038392Y013357D03*
X039081Y013395D03*
X044257Y014145D03*
X044357Y013645D03*
X044554Y015523D03*
X046281Y017069D03*
X046334Y019310D03*
X046941Y019247D03*
X054345Y015149D03*
X054431Y014495D03*
X053790Y013088D03*
X053323Y011338D03*
X052531Y010245D03*
X052239Y009615D03*
X052583Y008855D03*
X052026Y008804D03*
X052494Y008300D03*
X050481Y006745D03*
X050881Y006445D03*
X049281Y007045D03*
X047467Y010443D03*
X048245Y010935D03*
X046585Y011757D03*
X046094Y012126D03*
X039391Y009975D03*
X038921Y009775D03*
X038401Y009815D03*
X037961Y009515D03*
X039391Y008525D03*
X042631Y007295D03*
X035731Y008445D03*
X035031Y008495D03*
X030181Y007645D03*
X029481Y007695D03*
X029431Y007143D03*
X028753Y006008D03*
X028132Y005446D03*
X025392Y006537D03*
X025414Y007316D03*
X023727Y007360D03*
X022359Y007673D03*
X020631Y007395D03*
X019231Y007645D03*
X019281Y009595D03*
X020940Y010440D03*
X021981Y009445D03*
X022751Y010359D03*
X024096Y011410D03*
X024817Y011372D03*
X025965Y012046D03*
X028955Y011187D03*
X029731Y010847D03*
X029531Y010345D03*
X029031Y010195D03*
X028158Y010144D03*
X032168Y012163D03*
X022331Y013245D03*
X021653Y013648D03*
X021081Y013645D03*
X018721Y012545D03*
X018721Y011345D03*
X018131Y011445D03*
X017481Y013645D03*
X023703Y005612D03*
X024797Y004112D03*
X025465Y003348D03*
X025258Y002561D03*
X022631Y002395D03*
X020181Y004345D03*
X019931Y005395D03*
D20*
X022931Y005395D03*
M02*
